%TF.GenerationSoftware,KiCad,Pcbnew,(5.1.10-1-10_14)*%
%TF.CreationDate,2021-08-18T14:47:54+08:00*%
%TF.ProjectId,jlinkob_hs,6a6c696e-6b6f-4625-9f68-732e6b696361,rev?*%
%TF.SameCoordinates,Original*%
%TF.FileFunction,Legend,Top*%
%TF.FilePolarity,Positive*%
%FSLAX46Y46*%
G04 Gerber Fmt 4.6, Leading zero omitted, Abs format (unit mm)*
G04 Created by KiCad (PCBNEW (5.1.10-1-10_14)) date 2021-08-18 14:47:54*
%MOMM*%
%LPD*%
G01*
G04 APERTURE LIST*
%ADD10C,0.120000*%
%ADD11C,0.150000*%
%ADD12C,0.254000*%
%ADD13C,0.250000*%
%ADD14C,0.200000*%
%ADD15C,0.152400*%
G04 APERTURE END LIST*
D10*
%TO.C,Y2*%
X134225000Y-66040000D02*
X134225000Y-67840000D01*
X136375000Y-67890000D02*
X137475000Y-67890000D01*
X136375000Y-65990000D02*
X137475000Y-65990000D01*
%TO.C,TP1*%
X138100000Y-72190000D02*
G75*
G03*
X138100000Y-72190000I-600000J0D01*
G01*
%TO.C,CON2*%
X149275000Y-82530000D02*
X149275000Y-87855000D01*
X148775000Y-82530000D02*
X149275000Y-82530000D01*
X148775000Y-80530000D02*
X148775000Y-82530000D01*
X149275000Y-80530000D02*
X148775000Y-80530000D01*
X149275000Y-75205000D02*
X149275000Y-80530000D01*
X144275000Y-75205000D02*
X149275000Y-75205000D01*
X144275000Y-87855000D02*
X144275000Y-75205000D01*
X149275000Y-87855000D02*
X144275000Y-87855000D01*
X147555000Y-84840000D02*
X145225000Y-84840000D01*
X145225000Y-84840000D02*
X145225000Y-84080000D01*
X145225000Y-84040000D02*
X145225000Y-83445000D01*
X145225000Y-83445000D02*
X145225000Y-78305000D01*
X148395000Y-78305000D02*
X145845000Y-78310000D01*
X145867470Y-78305000D02*
X145225000Y-78305000D01*
X148355000Y-83970000D02*
X148395000Y-78305000D01*
X148355000Y-83980000D02*
X147585000Y-84810000D01*
%TO.C,U1*%
X108770000Y-92840000D02*
X102760000Y-92840000D01*
X106520000Y-86020000D02*
X102760000Y-86020000D01*
X102760000Y-92840000D02*
X102760000Y-91580000D01*
X102760000Y-86020000D02*
X102760000Y-87280000D01*
%TO.C,C19*%
X114650000Y-74004165D02*
X114650000Y-74235835D01*
X115370000Y-74004165D02*
X115370000Y-74235835D01*
%TO.C,R8*%
X101982379Y-63180000D02*
X102317621Y-63180000D01*
X101982379Y-62420000D02*
X102317621Y-62420000D01*
%TO.C,C27*%
X104535835Y-62440000D02*
X104304165Y-62440000D01*
X104535835Y-63160000D02*
X104304165Y-63160000D01*
%TO.C,J5*%
X148090000Y-56080000D02*
X148090000Y-50880000D01*
X104850000Y-56080000D02*
X148090000Y-56080000D01*
X102250000Y-50880000D02*
X148090000Y-50880000D01*
X104850000Y-56080000D02*
X104850000Y-53480000D01*
X104850000Y-53480000D02*
X102250000Y-53480000D01*
X102250000Y-53480000D02*
X102250000Y-50880000D01*
X103580000Y-56080000D02*
X102250000Y-56080000D01*
X102250000Y-56080000D02*
X102250000Y-54750000D01*
%TO.C,J4*%
X148140000Y-99350000D02*
X148140000Y-94150000D01*
X104900000Y-99350000D02*
X148140000Y-99350000D01*
X102300000Y-94150000D02*
X148140000Y-94150000D01*
X104900000Y-99350000D02*
X104900000Y-96750000D01*
X104900000Y-96750000D02*
X102300000Y-96750000D01*
X102300000Y-96750000D02*
X102300000Y-94150000D01*
X103630000Y-99350000D02*
X102300000Y-99350000D01*
X102300000Y-99350000D02*
X102300000Y-98020000D01*
%TO.C,Y1*%
X116150000Y-62130000D02*
X112850000Y-62130000D01*
X112850000Y-62130000D02*
X112850000Y-66130000D01*
D11*
%TO.C,J2*%
X106400000Y-81833824D02*
X106400000Y-82558824D01*
X106400000Y-78233824D02*
X106400000Y-77508824D01*
X106825000Y-78233824D02*
X106400000Y-78233824D01*
X106825000Y-78958824D02*
X106825000Y-78233824D01*
X103250000Y-84183824D02*
X104650000Y-84183824D01*
X100700000Y-84183824D02*
X100850000Y-84183824D01*
X100700000Y-83883824D02*
X100700000Y-84183824D01*
X100250000Y-83883824D02*
X100700000Y-83883824D01*
X100700000Y-76183824D02*
X100250000Y-76183824D01*
X100700000Y-75883824D02*
X100700000Y-76183824D01*
X100850000Y-75883824D02*
X100700000Y-75883824D01*
X104650000Y-75883824D02*
X103250000Y-75883824D01*
D10*
%TO.C,C26*%
X107591252Y-61220000D02*
X106168748Y-61220000D01*
X107591252Y-59400000D02*
X106168748Y-59400000D01*
%TO.C,C13*%
X111240000Y-88708748D02*
X111240000Y-90131252D01*
X109420000Y-88708748D02*
X109420000Y-90131252D01*
%TO.C,R7*%
X136000000Y-79152379D02*
X136000000Y-79487621D01*
X136760000Y-79152379D02*
X136760000Y-79487621D01*
%TO.C,R6*%
X119327621Y-88430000D02*
X118992379Y-88430000D01*
X119327621Y-89190000D02*
X118992379Y-89190000D01*
%TO.C,R5*%
X119317621Y-90450000D02*
X118982379Y-90450000D01*
X119317621Y-91210000D02*
X118982379Y-91210000D01*
%TO.C,R4*%
X144187621Y-91700000D02*
X143852379Y-91700000D01*
X144187621Y-92460000D02*
X143852379Y-92460000D01*
%TO.C,R3*%
X144240121Y-89800000D02*
X143904879Y-89800000D01*
X144240121Y-90560000D02*
X143904879Y-90560000D01*
%TO.C,D3*%
X148842500Y-91295000D02*
X146357500Y-91295000D01*
X148842500Y-92665000D02*
X148842500Y-91295000D01*
X146357500Y-92665000D02*
X148842500Y-92665000D01*
%TO.C,D2*%
X148842500Y-89495000D02*
X146357500Y-89495000D01*
X148842500Y-90865000D02*
X148842500Y-89495000D01*
X146357500Y-90865000D02*
X148842500Y-90865000D01*
D12*
%TO.C,SW1*%
X146710086Y-66210042D02*
X146710086Y-70109958D01*
X146710086Y-70109958D02*
X143810168Y-70109958D01*
X143810168Y-70109958D02*
X143810168Y-66210042D01*
X143810168Y-66210042D02*
X146710086Y-66210042D01*
X143800008Y-67304274D02*
X143800008Y-69004296D01*
D10*
%TO.C,J3*%
X138790000Y-87790000D02*
X138790000Y-86730000D01*
X139850000Y-87790000D02*
X138790000Y-87790000D01*
X140850000Y-87790000D02*
X140850000Y-85670000D01*
X140850000Y-85670000D02*
X142910000Y-85670000D01*
X140850000Y-87790000D02*
X142910000Y-87790000D01*
X142910000Y-87790000D02*
X142910000Y-85670000D01*
%TO.C,CON1*%
X138250000Y-62335000D02*
X137420000Y-61565000D01*
X138260000Y-62335000D02*
X143925000Y-62375000D01*
X143925000Y-59847470D02*
X143925000Y-59205000D01*
X143925000Y-62375000D02*
X143920000Y-59825000D01*
X138785000Y-59205000D02*
X143925000Y-59205000D01*
X138190000Y-59205000D02*
X138785000Y-59205000D01*
X137390000Y-59205000D02*
X138150000Y-59205000D01*
X137390000Y-61535000D02*
X137390000Y-59205000D01*
X134375000Y-63255000D02*
X134375000Y-58255000D01*
X134375000Y-58255000D02*
X147025000Y-58255000D01*
X147025000Y-58255000D02*
X147025000Y-63255000D01*
X147025000Y-63255000D02*
X141700000Y-63255000D01*
X141700000Y-63255000D02*
X141700000Y-62755000D01*
X141700000Y-62755000D02*
X139700000Y-62755000D01*
X139700000Y-62755000D02*
X139700000Y-63255000D01*
X139700000Y-63255000D02*
X134375000Y-63255000D01*
%TO.C,C18*%
X114380000Y-74004165D02*
X114380000Y-74235835D01*
X113660000Y-74004165D02*
X113660000Y-74235835D01*
%TO.C,C17*%
X135384165Y-76640000D02*
X135615835Y-76640000D01*
X135384165Y-77360000D02*
X135615835Y-77360000D01*
%TO.C,C14*%
X119390000Y-64715835D02*
X119390000Y-64484165D01*
X120110000Y-64715835D02*
X120110000Y-64484165D01*
%TO.C,C12*%
X119860000Y-85384165D02*
X119860000Y-85615835D01*
X119140000Y-85384165D02*
X119140000Y-85615835D01*
%TO.C,C11*%
X118860000Y-85384165D02*
X118860000Y-85615835D01*
X118140000Y-85384165D02*
X118140000Y-85615835D01*
%TO.C,C10*%
X135384165Y-75640000D02*
X135615835Y-75640000D01*
X135384165Y-76360000D02*
X135615835Y-76360000D01*
%TO.C,C7*%
X135384165Y-71140000D02*
X135615835Y-71140000D01*
X135384165Y-71860000D02*
X135615835Y-71860000D01*
%TO.C,J1*%
X99280000Y-64550000D02*
X99280000Y-73950000D01*
X105080000Y-73950000D02*
X103080000Y-73950000D01*
X101180000Y-73950000D02*
X99280000Y-73950000D01*
X105080000Y-64550000D02*
X103080000Y-64550000D01*
X101180000Y-64550000D02*
X99280000Y-64550000D01*
D13*
%TO.C,U?.1*%
X118375000Y-83225000D02*
G75*
G03*
X118375000Y-83225000I-125000J0D01*
G01*
D14*
X131650000Y-81650000D02*
X118350000Y-81650000D01*
X131650000Y-68350000D02*
X131650000Y-81650000D01*
X118350000Y-68350000D02*
X131650000Y-68350000D01*
X118350000Y-81650000D02*
X118350000Y-68350000D01*
D10*
%TO.C,R2*%
X135332379Y-72120000D02*
X135667621Y-72120000D01*
X135332379Y-72880000D02*
X135667621Y-72880000D01*
%TO.C,R1*%
X112257621Y-71770000D02*
X111922379Y-71770000D01*
X112257621Y-71010000D02*
X111922379Y-71010000D01*
%TO.C,C6*%
X127120000Y-64486665D02*
X127120000Y-64718335D01*
X126400000Y-64486665D02*
X126400000Y-64718335D01*
%TO.C,C5*%
X131215835Y-65840000D02*
X130984165Y-65840000D01*
X131215835Y-65120000D02*
X130984165Y-65120000D01*
%TO.C,C4*%
X112205835Y-70740000D02*
X111974165Y-70740000D01*
X112205835Y-70020000D02*
X111974165Y-70020000D01*
%TO.C,C3*%
X135615835Y-70860000D02*
X135384165Y-70860000D01*
X135615835Y-70140000D02*
X135384165Y-70140000D01*
%TO.C,C2*%
X117160000Y-64024165D02*
X117160000Y-64255835D01*
X116440000Y-64024165D02*
X116440000Y-64255835D01*
%TO.C,C1*%
X111860000Y-64245835D02*
X111860000Y-64014165D01*
X112580000Y-64245835D02*
X112580000Y-64014165D01*
%TO.C,Y2*%
D11*
X136448809Y-64966190D02*
X136448809Y-65442380D01*
X136115476Y-64442380D02*
X136448809Y-64966190D01*
X136782142Y-64442380D01*
X137067857Y-64537619D02*
X137115476Y-64490000D01*
X137210714Y-64442380D01*
X137448809Y-64442380D01*
X137544047Y-64490000D01*
X137591666Y-64537619D01*
X137639285Y-64632857D01*
X137639285Y-64728095D01*
X137591666Y-64870952D01*
X137020238Y-65442380D01*
X137639285Y-65442380D01*
%TO.C,TP1*%
X138528095Y-71792380D02*
X139099523Y-71792380D01*
X138813809Y-72792380D02*
X138813809Y-71792380D01*
X139432857Y-72792380D02*
X139432857Y-71792380D01*
X139813809Y-71792380D01*
X139909047Y-71840000D01*
X139956666Y-71887619D01*
X140004285Y-71982857D01*
X140004285Y-72125714D01*
X139956666Y-72220952D01*
X139909047Y-72268571D01*
X139813809Y-72316190D01*
X139432857Y-72316190D01*
X140956666Y-72792380D02*
X140385238Y-72792380D01*
X140670952Y-72792380D02*
X140670952Y-71792380D01*
X140575714Y-71935238D01*
X140480476Y-72030476D01*
X140385238Y-72078095D01*
%TO.C,CON2*%
X145710714Y-87127142D02*
X145663095Y-87174761D01*
X145520238Y-87222380D01*
X145425000Y-87222380D01*
X145282142Y-87174761D01*
X145186904Y-87079523D01*
X145139285Y-86984285D01*
X145091666Y-86793809D01*
X145091666Y-86650952D01*
X145139285Y-86460476D01*
X145186904Y-86365238D01*
X145282142Y-86270000D01*
X145425000Y-86222380D01*
X145520238Y-86222380D01*
X145663095Y-86270000D01*
X145710714Y-86317619D01*
X146329761Y-86222380D02*
X146520238Y-86222380D01*
X146615476Y-86270000D01*
X146710714Y-86365238D01*
X146758333Y-86555714D01*
X146758333Y-86889047D01*
X146710714Y-87079523D01*
X146615476Y-87174761D01*
X146520238Y-87222380D01*
X146329761Y-87222380D01*
X146234523Y-87174761D01*
X146139285Y-87079523D01*
X146091666Y-86889047D01*
X146091666Y-86555714D01*
X146139285Y-86365238D01*
X146234523Y-86270000D01*
X146329761Y-86222380D01*
X147186904Y-87222380D02*
X147186904Y-86222380D01*
X147758333Y-87222380D01*
X147758333Y-86222380D01*
X148186904Y-86317619D02*
X148234523Y-86270000D01*
X148329761Y-86222380D01*
X148567857Y-86222380D01*
X148663095Y-86270000D01*
X148710714Y-86317619D01*
X148758333Y-86412857D01*
X148758333Y-86508095D01*
X148710714Y-86650952D01*
X148139285Y-87222380D01*
X148758333Y-87222380D01*
%TO.C,U1*%
X103908095Y-93382380D02*
X103908095Y-94191904D01*
X103955714Y-94287142D01*
X104003333Y-94334761D01*
X104098571Y-94382380D01*
X104289047Y-94382380D01*
X104384285Y-94334761D01*
X104431904Y-94287142D01*
X104479523Y-94191904D01*
X104479523Y-93382380D01*
X105479523Y-94382380D02*
X104908095Y-94382380D01*
X105193809Y-94382380D02*
X105193809Y-93382380D01*
X105098571Y-93525238D01*
X105003333Y-93620476D01*
X104908095Y-93668095D01*
%TO.C,C19*%
X115447142Y-77252857D02*
X115494761Y-77300476D01*
X115542380Y-77443333D01*
X115542380Y-77538571D01*
X115494761Y-77681428D01*
X115399523Y-77776666D01*
X115304285Y-77824285D01*
X115113809Y-77871904D01*
X114970952Y-77871904D01*
X114780476Y-77824285D01*
X114685238Y-77776666D01*
X114590000Y-77681428D01*
X114542380Y-77538571D01*
X114542380Y-77443333D01*
X114590000Y-77300476D01*
X114637619Y-77252857D01*
X115542380Y-76300476D02*
X115542380Y-76871904D01*
X115542380Y-76586190D02*
X114542380Y-76586190D01*
X114685238Y-76681428D01*
X114780476Y-76776666D01*
X114828095Y-76871904D01*
X115542380Y-75824285D02*
X115542380Y-75633809D01*
X115494761Y-75538571D01*
X115447142Y-75490952D01*
X115304285Y-75395714D01*
X115113809Y-75348095D01*
X114732857Y-75348095D01*
X114637619Y-75395714D01*
X114590000Y-75443333D01*
X114542380Y-75538571D01*
X114542380Y-75729047D01*
X114590000Y-75824285D01*
X114637619Y-75871904D01*
X114732857Y-75919523D01*
X114970952Y-75919523D01*
X115066190Y-75871904D01*
X115113809Y-75824285D01*
X115161428Y-75729047D01*
X115161428Y-75538571D01*
X115113809Y-75443333D01*
X115066190Y-75395714D01*
X114970952Y-75348095D01*
%TO.C,J5*%
X100702380Y-53813333D02*
X101416666Y-53813333D01*
X101559523Y-53860952D01*
X101654761Y-53956190D01*
X101702380Y-54099047D01*
X101702380Y-54194285D01*
X100702380Y-52860952D02*
X100702380Y-53337142D01*
X101178571Y-53384761D01*
X101130952Y-53337142D01*
X101083333Y-53241904D01*
X101083333Y-53003809D01*
X101130952Y-52908571D01*
X101178571Y-52860952D01*
X101273809Y-52813333D01*
X101511904Y-52813333D01*
X101607142Y-52860952D01*
X101654761Y-52908571D01*
X101702380Y-53003809D01*
X101702380Y-53241904D01*
X101654761Y-53337142D01*
X101607142Y-53384761D01*
%TO.C,J4*%
X100752380Y-97083333D02*
X101466666Y-97083333D01*
X101609523Y-97130952D01*
X101704761Y-97226190D01*
X101752380Y-97369047D01*
X101752380Y-97464285D01*
X101085714Y-96178571D02*
X101752380Y-96178571D01*
X100704761Y-96416666D02*
X101419047Y-96654761D01*
X101419047Y-96035714D01*
%TO.C,Y1*%
X113546190Y-61056190D02*
X114022380Y-61056190D01*
X113022380Y-61389523D02*
X113546190Y-61056190D01*
X113022380Y-60722857D01*
X114022380Y-59865714D02*
X114022380Y-60437142D01*
X114022380Y-60151428D02*
X113022380Y-60151428D01*
X113165238Y-60246666D01*
X113260476Y-60341904D01*
X113308095Y-60437142D01*
%TO.C,J2*%
X106952380Y-80367157D02*
X107666666Y-80367157D01*
X107809523Y-80414776D01*
X107904761Y-80510014D01*
X107952380Y-80652871D01*
X107952380Y-80748109D01*
X107047619Y-79938585D02*
X107000000Y-79890966D01*
X106952380Y-79795728D01*
X106952380Y-79557633D01*
X107000000Y-79462395D01*
X107047619Y-79414776D01*
X107142857Y-79367157D01*
X107238095Y-79367157D01*
X107380952Y-79414776D01*
X107952380Y-79986204D01*
X107952380Y-79367157D01*
%TO.C,C26*%
X106237142Y-62517142D02*
X106189523Y-62564761D01*
X106046666Y-62612380D01*
X105951428Y-62612380D01*
X105808571Y-62564761D01*
X105713333Y-62469523D01*
X105665714Y-62374285D01*
X105618095Y-62183809D01*
X105618095Y-62040952D01*
X105665714Y-61850476D01*
X105713333Y-61755238D01*
X105808571Y-61660000D01*
X105951428Y-61612380D01*
X106046666Y-61612380D01*
X106189523Y-61660000D01*
X106237142Y-61707619D01*
X106618095Y-61707619D02*
X106665714Y-61660000D01*
X106760952Y-61612380D01*
X106999047Y-61612380D01*
X107094285Y-61660000D01*
X107141904Y-61707619D01*
X107189523Y-61802857D01*
X107189523Y-61898095D01*
X107141904Y-62040952D01*
X106570476Y-62612380D01*
X107189523Y-62612380D01*
X108046666Y-61612380D02*
X107856190Y-61612380D01*
X107760952Y-61660000D01*
X107713333Y-61707619D01*
X107618095Y-61850476D01*
X107570476Y-62040952D01*
X107570476Y-62421904D01*
X107618095Y-62517142D01*
X107665714Y-62564761D01*
X107760952Y-62612380D01*
X107951428Y-62612380D01*
X108046666Y-62564761D01*
X108094285Y-62517142D01*
X108141904Y-62421904D01*
X108141904Y-62183809D01*
X108094285Y-62088571D01*
X108046666Y-62040952D01*
X107951428Y-61993333D01*
X107760952Y-61993333D01*
X107665714Y-62040952D01*
X107618095Y-62088571D01*
X107570476Y-62183809D01*
%TO.C,C13*%
X112537142Y-90062857D02*
X112584761Y-90110476D01*
X112632380Y-90253333D01*
X112632380Y-90348571D01*
X112584761Y-90491428D01*
X112489523Y-90586666D01*
X112394285Y-90634285D01*
X112203809Y-90681904D01*
X112060952Y-90681904D01*
X111870476Y-90634285D01*
X111775238Y-90586666D01*
X111680000Y-90491428D01*
X111632380Y-90348571D01*
X111632380Y-90253333D01*
X111680000Y-90110476D01*
X111727619Y-90062857D01*
X112632380Y-89110476D02*
X112632380Y-89681904D01*
X112632380Y-89396190D02*
X111632380Y-89396190D01*
X111775238Y-89491428D01*
X111870476Y-89586666D01*
X111918095Y-89681904D01*
X111632380Y-88777142D02*
X111632380Y-88158095D01*
X112013333Y-88491428D01*
X112013333Y-88348571D01*
X112060952Y-88253333D01*
X112108571Y-88205714D01*
X112203809Y-88158095D01*
X112441904Y-88158095D01*
X112537142Y-88205714D01*
X112584761Y-88253333D01*
X112632380Y-88348571D01*
X112632380Y-88634285D01*
X112584761Y-88729523D01*
X112537142Y-88777142D01*
%TO.C,R7*%
X136832380Y-81496666D02*
X136356190Y-81830000D01*
X136832380Y-82068095D02*
X135832380Y-82068095D01*
X135832380Y-81687142D01*
X135880000Y-81591904D01*
X135927619Y-81544285D01*
X136022857Y-81496666D01*
X136165714Y-81496666D01*
X136260952Y-81544285D01*
X136308571Y-81591904D01*
X136356190Y-81687142D01*
X136356190Y-82068095D01*
X135832380Y-81163333D02*
X135832380Y-80496666D01*
X136832380Y-80925238D01*
%TO.C,R6*%
X116950833Y-89232380D02*
X116617500Y-88756190D01*
X116379404Y-89232380D02*
X116379404Y-88232380D01*
X116760357Y-88232380D01*
X116855595Y-88280000D01*
X116903214Y-88327619D01*
X116950833Y-88422857D01*
X116950833Y-88565714D01*
X116903214Y-88660952D01*
X116855595Y-88708571D01*
X116760357Y-88756190D01*
X116379404Y-88756190D01*
X117807976Y-88232380D02*
X117617500Y-88232380D01*
X117522261Y-88280000D01*
X117474642Y-88327619D01*
X117379404Y-88470476D01*
X117331785Y-88660952D01*
X117331785Y-89041904D01*
X117379404Y-89137142D01*
X117427023Y-89184761D01*
X117522261Y-89232380D01*
X117712738Y-89232380D01*
X117807976Y-89184761D01*
X117855595Y-89137142D01*
X117903214Y-89041904D01*
X117903214Y-88803809D01*
X117855595Y-88708571D01*
X117807976Y-88660952D01*
X117712738Y-88613333D01*
X117522261Y-88613333D01*
X117427023Y-88660952D01*
X117379404Y-88708571D01*
X117331785Y-88803809D01*
%TO.C,R5*%
X117033333Y-91182380D02*
X116700000Y-90706190D01*
X116461904Y-91182380D02*
X116461904Y-90182380D01*
X116842857Y-90182380D01*
X116938095Y-90230000D01*
X116985714Y-90277619D01*
X117033333Y-90372857D01*
X117033333Y-90515714D01*
X116985714Y-90610952D01*
X116938095Y-90658571D01*
X116842857Y-90706190D01*
X116461904Y-90706190D01*
X117938095Y-90182380D02*
X117461904Y-90182380D01*
X117414285Y-90658571D01*
X117461904Y-90610952D01*
X117557142Y-90563333D01*
X117795238Y-90563333D01*
X117890476Y-90610952D01*
X117938095Y-90658571D01*
X117985714Y-90753809D01*
X117985714Y-90991904D01*
X117938095Y-91087142D01*
X117890476Y-91134761D01*
X117795238Y-91182380D01*
X117557142Y-91182380D01*
X117461904Y-91134761D01*
X117414285Y-91087142D01*
%TO.C,R4*%
X141550833Y-92532380D02*
X141217500Y-92056190D01*
X140979404Y-92532380D02*
X140979404Y-91532380D01*
X141360357Y-91532380D01*
X141455595Y-91580000D01*
X141503214Y-91627619D01*
X141550833Y-91722857D01*
X141550833Y-91865714D01*
X141503214Y-91960952D01*
X141455595Y-92008571D01*
X141360357Y-92056190D01*
X140979404Y-92056190D01*
X142407976Y-91865714D02*
X142407976Y-92532380D01*
X142169880Y-91484761D02*
X141931785Y-92199047D01*
X142550833Y-92199047D01*
%TO.C,R3*%
X141653333Y-90782380D02*
X141320000Y-90306190D01*
X141081904Y-90782380D02*
X141081904Y-89782380D01*
X141462857Y-89782380D01*
X141558095Y-89830000D01*
X141605714Y-89877619D01*
X141653333Y-89972857D01*
X141653333Y-90115714D01*
X141605714Y-90210952D01*
X141558095Y-90258571D01*
X141462857Y-90306190D01*
X141081904Y-90306190D01*
X141986666Y-89782380D02*
X142605714Y-89782380D01*
X142272380Y-90163333D01*
X142415238Y-90163333D01*
X142510476Y-90210952D01*
X142558095Y-90258571D01*
X142605714Y-90353809D01*
X142605714Y-90591904D01*
X142558095Y-90687142D01*
X142510476Y-90734761D01*
X142415238Y-90782380D01*
X142129523Y-90782380D01*
X142034285Y-90734761D01*
X141986666Y-90687142D01*
%TO.C,D3*%
X149871904Y-92582380D02*
X149871904Y-91582380D01*
X150110000Y-91582380D01*
X150252857Y-91630000D01*
X150348095Y-91725238D01*
X150395714Y-91820476D01*
X150443333Y-92010952D01*
X150443333Y-92153809D01*
X150395714Y-92344285D01*
X150348095Y-92439523D01*
X150252857Y-92534761D01*
X150110000Y-92582380D01*
X149871904Y-92582380D01*
X150776666Y-91582380D02*
X151395714Y-91582380D01*
X151062380Y-91963333D01*
X151205238Y-91963333D01*
X151300476Y-92010952D01*
X151348095Y-92058571D01*
X151395714Y-92153809D01*
X151395714Y-92391904D01*
X151348095Y-92487142D01*
X151300476Y-92534761D01*
X151205238Y-92582380D01*
X150919523Y-92582380D01*
X150824285Y-92534761D01*
X150776666Y-92487142D01*
%TO.C,D2*%
X149521904Y-90732380D02*
X149521904Y-89732380D01*
X149760000Y-89732380D01*
X149902857Y-89780000D01*
X149998095Y-89875238D01*
X150045714Y-89970476D01*
X150093333Y-90160952D01*
X150093333Y-90303809D01*
X150045714Y-90494285D01*
X149998095Y-90589523D01*
X149902857Y-90684761D01*
X149760000Y-90732380D01*
X149521904Y-90732380D01*
X150474285Y-89827619D02*
X150521904Y-89780000D01*
X150617142Y-89732380D01*
X150855238Y-89732380D01*
X150950476Y-89780000D01*
X150998095Y-89827619D01*
X151045714Y-89922857D01*
X151045714Y-90018095D01*
X150998095Y-90160952D01*
X150426666Y-90732380D01*
X151045714Y-90732380D01*
%TO.C,SW1*%
D15*
X148552964Y-71524774D02*
X148607393Y-71361488D01*
X148607393Y-71089345D01*
X148552964Y-70980488D01*
X148498536Y-70926060D01*
X148389679Y-70871631D01*
X148280822Y-70871631D01*
X148171964Y-70926060D01*
X148117536Y-70980488D01*
X148063107Y-71089345D01*
X148008679Y-71307060D01*
X147954250Y-71415917D01*
X147899822Y-71470345D01*
X147790964Y-71524774D01*
X147682107Y-71524774D01*
X147573250Y-71470345D01*
X147518822Y-71415917D01*
X147464393Y-71307060D01*
X147464393Y-71034917D01*
X147518822Y-70871631D01*
X147464393Y-70490631D02*
X148607393Y-70218488D01*
X147790964Y-70000774D01*
X148607393Y-69783060D01*
X147464393Y-69510917D01*
X148607393Y-68476774D02*
X148607393Y-69129917D01*
X148607393Y-68803345D02*
X147464393Y-68803345D01*
X147627679Y-68912202D01*
X147736536Y-69021060D01*
X147790964Y-69129917D01*
%TO.C,J3*%
D11*
X137242380Y-87063333D02*
X137956666Y-87063333D01*
X138099523Y-87110952D01*
X138194761Y-87206190D01*
X138242380Y-87349047D01*
X138242380Y-87444285D01*
X137242380Y-86682380D02*
X137242380Y-86063333D01*
X137623333Y-86396666D01*
X137623333Y-86253809D01*
X137670952Y-86158571D01*
X137718571Y-86110952D01*
X137813809Y-86063333D01*
X138051904Y-86063333D01*
X138147142Y-86110952D01*
X138194761Y-86158571D01*
X138242380Y-86253809D01*
X138242380Y-86539523D01*
X138194761Y-86634761D01*
X138147142Y-86682380D01*
%TO.C,CON1*%
X135817142Y-62119285D02*
X135864761Y-62166904D01*
X135912380Y-62309761D01*
X135912380Y-62405000D01*
X135864761Y-62547857D01*
X135769523Y-62643095D01*
X135674285Y-62690714D01*
X135483809Y-62738333D01*
X135340952Y-62738333D01*
X135150476Y-62690714D01*
X135055238Y-62643095D01*
X134960000Y-62547857D01*
X134912380Y-62405000D01*
X134912380Y-62309761D01*
X134960000Y-62166904D01*
X135007619Y-62119285D01*
X134912380Y-61500238D02*
X134912380Y-61309761D01*
X134960000Y-61214523D01*
X135055238Y-61119285D01*
X135245714Y-61071666D01*
X135579047Y-61071666D01*
X135769523Y-61119285D01*
X135864761Y-61214523D01*
X135912380Y-61309761D01*
X135912380Y-61500238D01*
X135864761Y-61595476D01*
X135769523Y-61690714D01*
X135579047Y-61738333D01*
X135245714Y-61738333D01*
X135055238Y-61690714D01*
X134960000Y-61595476D01*
X134912380Y-61500238D01*
X135912380Y-60643095D02*
X134912380Y-60643095D01*
X135912380Y-60071666D01*
X134912380Y-60071666D01*
X135912380Y-59071666D02*
X135912380Y-59643095D01*
X135912380Y-59357380D02*
X134912380Y-59357380D01*
X135055238Y-59452619D01*
X135150476Y-59547857D01*
X135198095Y-59643095D01*
%TO.C,C18*%
X114217142Y-77282857D02*
X114264761Y-77330476D01*
X114312380Y-77473333D01*
X114312380Y-77568571D01*
X114264761Y-77711428D01*
X114169523Y-77806666D01*
X114074285Y-77854285D01*
X113883809Y-77901904D01*
X113740952Y-77901904D01*
X113550476Y-77854285D01*
X113455238Y-77806666D01*
X113360000Y-77711428D01*
X113312380Y-77568571D01*
X113312380Y-77473333D01*
X113360000Y-77330476D01*
X113407619Y-77282857D01*
X114312380Y-76330476D02*
X114312380Y-76901904D01*
X114312380Y-76616190D02*
X113312380Y-76616190D01*
X113455238Y-76711428D01*
X113550476Y-76806666D01*
X113598095Y-76901904D01*
X113740952Y-75759047D02*
X113693333Y-75854285D01*
X113645714Y-75901904D01*
X113550476Y-75949523D01*
X113502857Y-75949523D01*
X113407619Y-75901904D01*
X113360000Y-75854285D01*
X113312380Y-75759047D01*
X113312380Y-75568571D01*
X113360000Y-75473333D01*
X113407619Y-75425714D01*
X113502857Y-75378095D01*
X113550476Y-75378095D01*
X113645714Y-75425714D01*
X113693333Y-75473333D01*
X113740952Y-75568571D01*
X113740952Y-75759047D01*
X113788571Y-75854285D01*
X113836190Y-75901904D01*
X113931428Y-75949523D01*
X114121904Y-75949523D01*
X114217142Y-75901904D01*
X114264761Y-75854285D01*
X114312380Y-75759047D01*
X114312380Y-75568571D01*
X114264761Y-75473333D01*
X114217142Y-75425714D01*
X114121904Y-75378095D01*
X113931428Y-75378095D01*
X113836190Y-75425714D01*
X113788571Y-75473333D01*
X113740952Y-75568571D01*
%TO.C,C17*%
X137497142Y-77467142D02*
X137449523Y-77514761D01*
X137306666Y-77562380D01*
X137211428Y-77562380D01*
X137068571Y-77514761D01*
X136973333Y-77419523D01*
X136925714Y-77324285D01*
X136878095Y-77133809D01*
X136878095Y-76990952D01*
X136925714Y-76800476D01*
X136973333Y-76705238D01*
X137068571Y-76610000D01*
X137211428Y-76562380D01*
X137306666Y-76562380D01*
X137449523Y-76610000D01*
X137497142Y-76657619D01*
X138449523Y-77562380D02*
X137878095Y-77562380D01*
X138163809Y-77562380D02*
X138163809Y-76562380D01*
X138068571Y-76705238D01*
X137973333Y-76800476D01*
X137878095Y-76848095D01*
X138782857Y-76562380D02*
X139449523Y-76562380D01*
X139020952Y-77562380D01*
%TO.C,C14*%
X120077142Y-62352857D02*
X120124761Y-62400476D01*
X120172380Y-62543333D01*
X120172380Y-62638571D01*
X120124761Y-62781428D01*
X120029523Y-62876666D01*
X119934285Y-62924285D01*
X119743809Y-62971904D01*
X119600952Y-62971904D01*
X119410476Y-62924285D01*
X119315238Y-62876666D01*
X119220000Y-62781428D01*
X119172380Y-62638571D01*
X119172380Y-62543333D01*
X119220000Y-62400476D01*
X119267619Y-62352857D01*
X120172380Y-61400476D02*
X120172380Y-61971904D01*
X120172380Y-61686190D02*
X119172380Y-61686190D01*
X119315238Y-61781428D01*
X119410476Y-61876666D01*
X119458095Y-61971904D01*
X119505714Y-60543333D02*
X120172380Y-60543333D01*
X119124761Y-60781428D02*
X119839047Y-61019523D01*
X119839047Y-60400476D01*
%TO.C,C12*%
X119907142Y-88682857D02*
X119954761Y-88730476D01*
X120002380Y-88873333D01*
X120002380Y-88968571D01*
X119954761Y-89111428D01*
X119859523Y-89206666D01*
X119764285Y-89254285D01*
X119573809Y-89301904D01*
X119430952Y-89301904D01*
X119240476Y-89254285D01*
X119145238Y-89206666D01*
X119050000Y-89111428D01*
X119002380Y-88968571D01*
X119002380Y-88873333D01*
X119050000Y-88730476D01*
X119097619Y-88682857D01*
X120002380Y-87730476D02*
X120002380Y-88301904D01*
X120002380Y-88016190D02*
X119002380Y-88016190D01*
X119145238Y-88111428D01*
X119240476Y-88206666D01*
X119288095Y-88301904D01*
X119097619Y-87349523D02*
X119050000Y-87301904D01*
X119002380Y-87206666D01*
X119002380Y-86968571D01*
X119050000Y-86873333D01*
X119097619Y-86825714D01*
X119192857Y-86778095D01*
X119288095Y-86778095D01*
X119430952Y-86825714D01*
X120002380Y-87397142D01*
X120002380Y-86778095D01*
%TO.C,C11*%
X118637142Y-88622857D02*
X118684761Y-88670476D01*
X118732380Y-88813333D01*
X118732380Y-88908571D01*
X118684761Y-89051428D01*
X118589523Y-89146666D01*
X118494285Y-89194285D01*
X118303809Y-89241904D01*
X118160952Y-89241904D01*
X117970476Y-89194285D01*
X117875238Y-89146666D01*
X117780000Y-89051428D01*
X117732380Y-88908571D01*
X117732380Y-88813333D01*
X117780000Y-88670476D01*
X117827619Y-88622857D01*
X118732380Y-87670476D02*
X118732380Y-88241904D01*
X118732380Y-87956190D02*
X117732380Y-87956190D01*
X117875238Y-88051428D01*
X117970476Y-88146666D01*
X118018095Y-88241904D01*
X118732380Y-86718095D02*
X118732380Y-87289523D01*
X118732380Y-87003809D02*
X117732380Y-87003809D01*
X117875238Y-87099047D01*
X117970476Y-87194285D01*
X118018095Y-87289523D01*
%TO.C,C10*%
X137507142Y-76337142D02*
X137459523Y-76384761D01*
X137316666Y-76432380D01*
X137221428Y-76432380D01*
X137078571Y-76384761D01*
X136983333Y-76289523D01*
X136935714Y-76194285D01*
X136888095Y-76003809D01*
X136888095Y-75860952D01*
X136935714Y-75670476D01*
X136983333Y-75575238D01*
X137078571Y-75480000D01*
X137221428Y-75432380D01*
X137316666Y-75432380D01*
X137459523Y-75480000D01*
X137507142Y-75527619D01*
X138459523Y-76432380D02*
X137888095Y-76432380D01*
X138173809Y-76432380D02*
X138173809Y-75432380D01*
X138078571Y-75575238D01*
X137983333Y-75670476D01*
X137888095Y-75718095D01*
X139078571Y-75432380D02*
X139173809Y-75432380D01*
X139269047Y-75480000D01*
X139316666Y-75527619D01*
X139364285Y-75622857D01*
X139411904Y-75813333D01*
X139411904Y-76051428D01*
X139364285Y-76241904D01*
X139316666Y-76337142D01*
X139269047Y-76384761D01*
X139173809Y-76432380D01*
X139078571Y-76432380D01*
X138983333Y-76384761D01*
X138935714Y-76337142D01*
X138888095Y-76241904D01*
X138840476Y-76051428D01*
X138840476Y-75813333D01*
X138888095Y-75622857D01*
X138935714Y-75527619D01*
X138983333Y-75480000D01*
X139078571Y-75432380D01*
%TO.C,C7*%
X137473333Y-71737142D02*
X137425714Y-71784761D01*
X137282857Y-71832380D01*
X137187619Y-71832380D01*
X137044761Y-71784761D01*
X136949523Y-71689523D01*
X136901904Y-71594285D01*
X136854285Y-71403809D01*
X136854285Y-71260952D01*
X136901904Y-71070476D01*
X136949523Y-70975238D01*
X137044761Y-70880000D01*
X137187619Y-70832380D01*
X137282857Y-70832380D01*
X137425714Y-70880000D01*
X137473333Y-70927619D01*
X137806666Y-70832380D02*
X138473333Y-70832380D01*
X138044761Y-71832380D01*
%TO.C,J1*%
X108582380Y-68243333D02*
X109296666Y-68243333D01*
X109439523Y-68290952D01*
X109534761Y-68386190D01*
X109582380Y-68529047D01*
X109582380Y-68624285D01*
X109582380Y-67243333D02*
X109582380Y-67814761D01*
X109582380Y-67529047D02*
X108582380Y-67529047D01*
X108725238Y-67624285D01*
X108820476Y-67719523D01*
X108868095Y-67814761D01*
%TO.C,U?.1*%
D12*
X124304523Y-76814285D02*
X125332619Y-76814285D01*
X125453571Y-76753809D01*
X125514047Y-76693333D01*
X125574523Y-76572380D01*
X125574523Y-76330476D01*
X125514047Y-76209523D01*
X125453571Y-76149047D01*
X125332619Y-76088571D01*
X124304523Y-76088571D01*
X125453571Y-75302380D02*
X125514047Y-75241904D01*
X125574523Y-75302380D01*
X125514047Y-75362857D01*
X125453571Y-75302380D01*
X125574523Y-75302380D01*
X124365000Y-75544285D02*
X124304523Y-75423333D01*
X124304523Y-75120952D01*
X124365000Y-75000000D01*
X124485952Y-74939523D01*
X124606904Y-74939523D01*
X124727857Y-75000000D01*
X124788333Y-75060476D01*
X124848809Y-75181428D01*
X124909285Y-75241904D01*
X125030238Y-75302380D01*
X125090714Y-75302380D01*
X125453571Y-74395238D02*
X125514047Y-74334761D01*
X125574523Y-74395238D01*
X125514047Y-74455714D01*
X125453571Y-74395238D01*
X125574523Y-74395238D01*
X125574523Y-73125238D02*
X125574523Y-73850952D01*
X125574523Y-73488095D02*
X124304523Y-73488095D01*
X124485952Y-73609047D01*
X124606904Y-73730000D01*
X124667380Y-73850952D01*
%TO.C,R2*%
D11*
X137585833Y-73072380D02*
X137252500Y-72596190D01*
X137014404Y-73072380D02*
X137014404Y-72072380D01*
X137395357Y-72072380D01*
X137490595Y-72120000D01*
X137538214Y-72167619D01*
X137585833Y-72262857D01*
X137585833Y-72405714D01*
X137538214Y-72500952D01*
X137490595Y-72548571D01*
X137395357Y-72596190D01*
X137014404Y-72596190D01*
X137966785Y-72167619D02*
X138014404Y-72120000D01*
X138109642Y-72072380D01*
X138347738Y-72072380D01*
X138442976Y-72120000D01*
X138490595Y-72167619D01*
X138538214Y-72262857D01*
X138538214Y-72358095D01*
X138490595Y-72500952D01*
X137919166Y-73072380D01*
X138538214Y-73072380D01*
%TO.C,R1*%
X109723333Y-72022380D02*
X109390000Y-71546190D01*
X109151904Y-72022380D02*
X109151904Y-71022380D01*
X109532857Y-71022380D01*
X109628095Y-71070000D01*
X109675714Y-71117619D01*
X109723333Y-71212857D01*
X109723333Y-71355714D01*
X109675714Y-71450952D01*
X109628095Y-71498571D01*
X109532857Y-71546190D01*
X109151904Y-71546190D01*
X110675714Y-72022380D02*
X110104285Y-72022380D01*
X110390000Y-72022380D02*
X110390000Y-71022380D01*
X110294761Y-71165238D01*
X110199523Y-71260476D01*
X110104285Y-71308095D01*
%TO.C,C6*%
X126917142Y-62429166D02*
X126964761Y-62476785D01*
X127012380Y-62619642D01*
X127012380Y-62714880D01*
X126964761Y-62857738D01*
X126869523Y-62952976D01*
X126774285Y-63000595D01*
X126583809Y-63048214D01*
X126440952Y-63048214D01*
X126250476Y-63000595D01*
X126155238Y-62952976D01*
X126060000Y-62857738D01*
X126012380Y-62714880D01*
X126012380Y-62619642D01*
X126060000Y-62476785D01*
X126107619Y-62429166D01*
X126012380Y-61572023D02*
X126012380Y-61762500D01*
X126060000Y-61857738D01*
X126107619Y-61905357D01*
X126250476Y-62000595D01*
X126440952Y-62048214D01*
X126821904Y-62048214D01*
X126917142Y-62000595D01*
X126964761Y-61952976D01*
X127012380Y-61857738D01*
X127012380Y-61667261D01*
X126964761Y-61572023D01*
X126917142Y-61524404D01*
X126821904Y-61476785D01*
X126583809Y-61476785D01*
X126488571Y-61524404D01*
X126440952Y-61572023D01*
X126393333Y-61667261D01*
X126393333Y-61857738D01*
X126440952Y-61952976D01*
X126488571Y-62000595D01*
X126583809Y-62048214D01*
%TO.C,C5*%
X133033333Y-65917142D02*
X132985714Y-65964761D01*
X132842857Y-66012380D01*
X132747619Y-66012380D01*
X132604761Y-65964761D01*
X132509523Y-65869523D01*
X132461904Y-65774285D01*
X132414285Y-65583809D01*
X132414285Y-65440952D01*
X132461904Y-65250476D01*
X132509523Y-65155238D01*
X132604761Y-65060000D01*
X132747619Y-65012380D01*
X132842857Y-65012380D01*
X132985714Y-65060000D01*
X133033333Y-65107619D01*
X133938095Y-65012380D02*
X133461904Y-65012380D01*
X133414285Y-65488571D01*
X133461904Y-65440952D01*
X133557142Y-65393333D01*
X133795238Y-65393333D01*
X133890476Y-65440952D01*
X133938095Y-65488571D01*
X133985714Y-65583809D01*
X133985714Y-65821904D01*
X133938095Y-65917142D01*
X133890476Y-65964761D01*
X133795238Y-66012380D01*
X133557142Y-66012380D01*
X133461904Y-65964761D01*
X133414285Y-65917142D01*
%TO.C,C4*%
X109660833Y-70657142D02*
X109613214Y-70704761D01*
X109470357Y-70752380D01*
X109375119Y-70752380D01*
X109232261Y-70704761D01*
X109137023Y-70609523D01*
X109089404Y-70514285D01*
X109041785Y-70323809D01*
X109041785Y-70180952D01*
X109089404Y-69990476D01*
X109137023Y-69895238D01*
X109232261Y-69800000D01*
X109375119Y-69752380D01*
X109470357Y-69752380D01*
X109613214Y-69800000D01*
X109660833Y-69847619D01*
X110517976Y-70085714D02*
X110517976Y-70752380D01*
X110279880Y-69704761D02*
X110041785Y-70419047D01*
X110660833Y-70419047D01*
%TO.C,C3*%
X137463333Y-70637142D02*
X137415714Y-70684761D01*
X137272857Y-70732380D01*
X137177619Y-70732380D01*
X137034761Y-70684761D01*
X136939523Y-70589523D01*
X136891904Y-70494285D01*
X136844285Y-70303809D01*
X136844285Y-70160952D01*
X136891904Y-69970476D01*
X136939523Y-69875238D01*
X137034761Y-69780000D01*
X137177619Y-69732380D01*
X137272857Y-69732380D01*
X137415714Y-69780000D01*
X137463333Y-69827619D01*
X137796666Y-69732380D02*
X138415714Y-69732380D01*
X138082380Y-70113333D01*
X138225238Y-70113333D01*
X138320476Y-70160952D01*
X138368095Y-70208571D01*
X138415714Y-70303809D01*
X138415714Y-70541904D01*
X138368095Y-70637142D01*
X138320476Y-70684761D01*
X138225238Y-70732380D01*
X137939523Y-70732380D01*
X137844285Y-70684761D01*
X137796666Y-70637142D01*
%TO.C,C2*%
X117157142Y-62076666D02*
X117204761Y-62124285D01*
X117252380Y-62267142D01*
X117252380Y-62362380D01*
X117204761Y-62505238D01*
X117109523Y-62600476D01*
X117014285Y-62648095D01*
X116823809Y-62695714D01*
X116680952Y-62695714D01*
X116490476Y-62648095D01*
X116395238Y-62600476D01*
X116300000Y-62505238D01*
X116252380Y-62362380D01*
X116252380Y-62267142D01*
X116300000Y-62124285D01*
X116347619Y-62076666D01*
X116347619Y-61695714D02*
X116300000Y-61648095D01*
X116252380Y-61552857D01*
X116252380Y-61314761D01*
X116300000Y-61219523D01*
X116347619Y-61171904D01*
X116442857Y-61124285D01*
X116538095Y-61124285D01*
X116680952Y-61171904D01*
X117252380Y-61743333D01*
X117252380Y-61124285D01*
%TO.C,C1*%
X112537142Y-62086666D02*
X112584761Y-62134285D01*
X112632380Y-62277142D01*
X112632380Y-62372380D01*
X112584761Y-62515238D01*
X112489523Y-62610476D01*
X112394285Y-62658095D01*
X112203809Y-62705714D01*
X112060952Y-62705714D01*
X111870476Y-62658095D01*
X111775238Y-62610476D01*
X111680000Y-62515238D01*
X111632380Y-62372380D01*
X111632380Y-62277142D01*
X111680000Y-62134285D01*
X111727619Y-62086666D01*
X112632380Y-61134285D02*
X112632380Y-61705714D01*
X112632380Y-61420000D02*
X111632380Y-61420000D01*
X111775238Y-61515238D01*
X111870476Y-61610476D01*
X111918095Y-61705714D01*
%TD*%
M02*
