%TF.GenerationSoftware,KiCad,Pcbnew,(5.1.10-1-10_14)*%
%TF.CreationDate,2021-08-18T14:47:54+08:00*%
%TF.ProjectId,jlinkob_hs,6a6c696e-6b6f-4625-9f68-732e6b696361,rev?*%
%TF.SameCoordinates,Original*%
%TF.FileFunction,Legend,Bot*%
%TF.FilePolarity,Positive*%
%FSLAX46Y46*%
G04 Gerber Fmt 4.6, Leading zero omitted, Abs format (unit mm)*
G04 Created by KiCad (PCBNEW (5.1.10-1-10_14)) date 2021-08-18 14:47:54*
%MOMM*%
%LPD*%
G01*
G04 APERTURE LIST*
%ADD10C,0.150000*%
%ADD11C,0.120000*%
G04 APERTURE END LIST*
D10*
X102910000Y-91178095D02*
X102862380Y-91082857D01*
X102862380Y-90940000D01*
X102910000Y-90797142D01*
X103005238Y-90701904D01*
X103100476Y-90654285D01*
X103290952Y-90606666D01*
X103433809Y-90606666D01*
X103624285Y-90654285D01*
X103719523Y-90701904D01*
X103814761Y-90797142D01*
X103862380Y-90940000D01*
X103862380Y-91035238D01*
X103814761Y-91178095D01*
X103767142Y-91225714D01*
X103433809Y-91225714D01*
X103433809Y-91035238D01*
X103862380Y-91654285D02*
X102862380Y-91654285D01*
X103862380Y-92225714D01*
X102862380Y-92225714D01*
X103862380Y-92701904D02*
X102862380Y-92701904D01*
X102862380Y-92940000D01*
X102910000Y-93082857D01*
X103005238Y-93178095D01*
X103100476Y-93225714D01*
X103290952Y-93273333D01*
X103433809Y-93273333D01*
X103624285Y-93225714D01*
X103719523Y-93178095D01*
X103814761Y-93082857D01*
X103862380Y-92940000D01*
X103862380Y-92701904D01*
X146400000Y-91228095D02*
X146352380Y-91132857D01*
X146352380Y-90990000D01*
X146400000Y-90847142D01*
X146495238Y-90751904D01*
X146590476Y-90704285D01*
X146780952Y-90656666D01*
X146923809Y-90656666D01*
X147114285Y-90704285D01*
X147209523Y-90751904D01*
X147304761Y-90847142D01*
X147352380Y-90990000D01*
X147352380Y-91085238D01*
X147304761Y-91228095D01*
X147257142Y-91275714D01*
X146923809Y-91275714D01*
X146923809Y-91085238D01*
X147352380Y-91704285D02*
X146352380Y-91704285D01*
X147352380Y-92275714D01*
X146352380Y-92275714D01*
X147352380Y-92751904D02*
X146352380Y-92751904D01*
X146352380Y-92990000D01*
X146400000Y-93132857D01*
X146495238Y-93228095D01*
X146590476Y-93275714D01*
X146780952Y-93323333D01*
X146923809Y-93323333D01*
X147114285Y-93275714D01*
X147209523Y-93228095D01*
X147304761Y-93132857D01*
X147352380Y-92990000D01*
X147352380Y-92751904D01*
X111179523Y-58062380D02*
X110846190Y-59062380D01*
X110512857Y-58062380D01*
X109608095Y-58967142D02*
X109655714Y-59014761D01*
X109798571Y-59062380D01*
X109893809Y-59062380D01*
X110036666Y-59014761D01*
X110131904Y-58919523D01*
X110179523Y-58824285D01*
X110227142Y-58633809D01*
X110227142Y-58490952D01*
X110179523Y-58300476D01*
X110131904Y-58205238D01*
X110036666Y-58110000D01*
X109893809Y-58062380D01*
X109798571Y-58062380D01*
X109655714Y-58110000D01*
X109608095Y-58157619D01*
X108989047Y-58062380D02*
X108798571Y-58062380D01*
X108703333Y-58110000D01*
X108608095Y-58205238D01*
X108560476Y-58395714D01*
X108560476Y-58729047D01*
X108608095Y-58919523D01*
X108703333Y-59014761D01*
X108798571Y-59062380D01*
X108989047Y-59062380D01*
X109084285Y-59014761D01*
X109179523Y-58919523D01*
X109227142Y-58729047D01*
X109227142Y-58395714D01*
X109179523Y-58205238D01*
X109084285Y-58110000D01*
X108989047Y-58062380D01*
X107560476Y-59062380D02*
X107893809Y-58586190D01*
X108131904Y-59062380D02*
X108131904Y-58062380D01*
X107750952Y-58062380D01*
X107655714Y-58110000D01*
X107608095Y-58157619D01*
X107560476Y-58252857D01*
X107560476Y-58395714D01*
X107608095Y-58490952D01*
X107655714Y-58538571D01*
X107750952Y-58586190D01*
X108131904Y-58586190D01*
X107131904Y-58538571D02*
X106798571Y-58538571D01*
X106655714Y-59062380D02*
X107131904Y-59062380D01*
X107131904Y-58062380D01*
X106655714Y-58062380D01*
X110322857Y-57692380D02*
X110322857Y-56692380D01*
X109941904Y-56692380D01*
X109846666Y-56740000D01*
X109799047Y-56787619D01*
X109751428Y-56882857D01*
X109751428Y-57025714D01*
X109799047Y-57120952D01*
X109846666Y-57168571D01*
X109941904Y-57216190D01*
X110322857Y-57216190D01*
X109370476Y-57406666D02*
X108894285Y-57406666D01*
X109465714Y-57692380D02*
X109132380Y-56692380D01*
X108799047Y-57692380D01*
X108560952Y-56692380D02*
X107941904Y-56692380D01*
X108275238Y-57073333D01*
X108132380Y-57073333D01*
X108037142Y-57120952D01*
X107989523Y-57168571D01*
X107941904Y-57263809D01*
X107941904Y-57501904D01*
X107989523Y-57597142D01*
X108037142Y-57644761D01*
X108132380Y-57692380D01*
X108418095Y-57692380D01*
X108513333Y-57644761D01*
X108560952Y-57597142D01*
X106989523Y-57692380D02*
X107560952Y-57692380D01*
X107275238Y-57692380D02*
X107275238Y-56692380D01*
X107370476Y-56835238D01*
X107465714Y-56930476D01*
X107560952Y-56978095D01*
X105702380Y-56761904D02*
X105702380Y-57380952D01*
X106083333Y-57047619D01*
X106083333Y-57190476D01*
X106130952Y-57285714D01*
X106178571Y-57333333D01*
X106273809Y-57380952D01*
X106511904Y-57380952D01*
X106607142Y-57333333D01*
X106654761Y-57285714D01*
X106702380Y-57190476D01*
X106702380Y-56904761D01*
X106654761Y-56809523D01*
X106607142Y-56761904D01*
X105702380Y-57666666D02*
X106702380Y-58000000D01*
X105702380Y-58333333D01*
X105702380Y-58571428D02*
X105702380Y-59190476D01*
X106083333Y-58857142D01*
X106083333Y-59000000D01*
X106130952Y-59095238D01*
X106178571Y-59142857D01*
X106273809Y-59190476D01*
X106511904Y-59190476D01*
X106607142Y-59142857D01*
X106654761Y-59095238D01*
X106702380Y-59000000D01*
X106702380Y-58714285D01*
X106654761Y-58619047D01*
X106607142Y-58571428D01*
X103010000Y-57318095D02*
X102962380Y-57222857D01*
X102962380Y-57080000D01*
X103010000Y-56937142D01*
X103105238Y-56841904D01*
X103200476Y-56794285D01*
X103390952Y-56746666D01*
X103533809Y-56746666D01*
X103724285Y-56794285D01*
X103819523Y-56841904D01*
X103914761Y-56937142D01*
X103962380Y-57080000D01*
X103962380Y-57175238D01*
X103914761Y-57318095D01*
X103867142Y-57365714D01*
X103533809Y-57365714D01*
X103533809Y-57175238D01*
X103962380Y-57794285D02*
X102962380Y-57794285D01*
X103962380Y-58365714D01*
X102962380Y-58365714D01*
X103962380Y-58841904D02*
X102962380Y-58841904D01*
X102962380Y-59080000D01*
X103010000Y-59222857D01*
X103105238Y-59318095D01*
X103200476Y-59365714D01*
X103390952Y-59413333D01*
X103533809Y-59413333D01*
X103724285Y-59365714D01*
X103819523Y-59318095D01*
X103914761Y-59222857D01*
X103962380Y-59080000D01*
X103962380Y-58841904D01*
X141638095Y-56852380D02*
X141019047Y-56852380D01*
X141352380Y-57233333D01*
X141209523Y-57233333D01*
X141114285Y-57280952D01*
X141066666Y-57328571D01*
X141019047Y-57423809D01*
X141019047Y-57661904D01*
X141066666Y-57757142D01*
X141114285Y-57804761D01*
X141209523Y-57852380D01*
X141495238Y-57852380D01*
X141590476Y-57804761D01*
X141638095Y-57757142D01*
X140733333Y-56852380D02*
X140400000Y-57852380D01*
X140066666Y-56852380D01*
X139828571Y-56852380D02*
X139209523Y-56852380D01*
X139542857Y-57233333D01*
X139400000Y-57233333D01*
X139304761Y-57280952D01*
X139257142Y-57328571D01*
X139209523Y-57423809D01*
X139209523Y-57661904D01*
X139257142Y-57757142D01*
X139304761Y-57804761D01*
X139400000Y-57852380D01*
X139685714Y-57852380D01*
X139780952Y-57804761D01*
X139828571Y-57757142D01*
X146241904Y-56900000D02*
X146337142Y-56852380D01*
X146480000Y-56852380D01*
X146622857Y-56900000D01*
X146718095Y-56995238D01*
X146765714Y-57090476D01*
X146813333Y-57280952D01*
X146813333Y-57423809D01*
X146765714Y-57614285D01*
X146718095Y-57709523D01*
X146622857Y-57804761D01*
X146480000Y-57852380D01*
X146384761Y-57852380D01*
X146241904Y-57804761D01*
X146194285Y-57757142D01*
X146194285Y-57423809D01*
X146384761Y-57423809D01*
X145765714Y-57852380D02*
X145765714Y-56852380D01*
X145194285Y-57852380D01*
X145194285Y-56852380D01*
X144718095Y-57852380D02*
X144718095Y-56852380D01*
X144480000Y-56852380D01*
X144337142Y-56900000D01*
X144241904Y-56995238D01*
X144194285Y-57090476D01*
X144146666Y-57280952D01*
X144146666Y-57423809D01*
X144194285Y-57614285D01*
X144241904Y-57709523D01*
X144337142Y-57804761D01*
X144480000Y-57852380D01*
X144718095Y-57852380D01*
D11*
%TO.C,C16*%
X123360000Y-80115835D02*
X123360000Y-79884165D01*
X122640000Y-80115835D02*
X122640000Y-79884165D01*
%TO.C,C15*%
X127360000Y-64715835D02*
X127360000Y-64484165D01*
X126640000Y-64715835D02*
X126640000Y-64484165D01*
%TO.C,C9*%
X119884165Y-75360000D02*
X120115835Y-75360000D01*
X119884165Y-74640000D02*
X120115835Y-74640000D01*
%TO.C,C8*%
X129860000Y-80115835D02*
X129860000Y-79884165D01*
X129140000Y-80115835D02*
X129140000Y-79884165D01*
%TO.C,C16*%
D10*
X124967142Y-77709642D02*
X125014761Y-77662023D01*
X125062380Y-77519166D01*
X125062380Y-77423928D01*
X125014761Y-77281071D01*
X124919523Y-77185833D01*
X124824285Y-77138214D01*
X124633809Y-77090595D01*
X124490952Y-77090595D01*
X124300476Y-77138214D01*
X124205238Y-77185833D01*
X124110000Y-77281071D01*
X124062380Y-77423928D01*
X124062380Y-77519166D01*
X124110000Y-77662023D01*
X124157619Y-77709642D01*
X125062380Y-78662023D02*
X125062380Y-78090595D01*
X125062380Y-78376309D02*
X124062380Y-78376309D01*
X124205238Y-78281071D01*
X124300476Y-78185833D01*
X124348095Y-78090595D01*
X124062380Y-79519166D02*
X124062380Y-79328690D01*
X124110000Y-79233452D01*
X124157619Y-79185833D01*
X124300476Y-79090595D01*
X124490952Y-79042976D01*
X124871904Y-79042976D01*
X124967142Y-79090595D01*
X125014761Y-79138214D01*
X125062380Y-79233452D01*
X125062380Y-79423928D01*
X125014761Y-79519166D01*
X124967142Y-79566785D01*
X124871904Y-79614404D01*
X124633809Y-79614404D01*
X124538571Y-79566785D01*
X124490952Y-79519166D01*
X124443333Y-79423928D01*
X124443333Y-79233452D01*
X124490952Y-79138214D01*
X124538571Y-79090595D01*
X124633809Y-79042976D01*
%TO.C,C15*%
X127327142Y-61327142D02*
X127374761Y-61279523D01*
X127422380Y-61136666D01*
X127422380Y-61041428D01*
X127374761Y-60898571D01*
X127279523Y-60803333D01*
X127184285Y-60755714D01*
X126993809Y-60708095D01*
X126850952Y-60708095D01*
X126660476Y-60755714D01*
X126565238Y-60803333D01*
X126470000Y-60898571D01*
X126422380Y-61041428D01*
X126422380Y-61136666D01*
X126470000Y-61279523D01*
X126517619Y-61327142D01*
X127422380Y-62279523D02*
X127422380Y-61708095D01*
X127422380Y-61993809D02*
X126422380Y-61993809D01*
X126565238Y-61898571D01*
X126660476Y-61803333D01*
X126708095Y-61708095D01*
X126422380Y-63184285D02*
X126422380Y-62708095D01*
X126898571Y-62660476D01*
X126850952Y-62708095D01*
X126803333Y-62803333D01*
X126803333Y-63041428D01*
X126850952Y-63136666D01*
X126898571Y-63184285D01*
X126993809Y-63231904D01*
X127231904Y-63231904D01*
X127327142Y-63184285D01*
X127374761Y-63136666D01*
X127422380Y-63041428D01*
X127422380Y-62803333D01*
X127374761Y-62708095D01*
X127327142Y-62660476D01*
%TO.C,C9*%
X120166666Y-76517142D02*
X120214285Y-76564761D01*
X120357142Y-76612380D01*
X120452380Y-76612380D01*
X120595238Y-76564761D01*
X120690476Y-76469523D01*
X120738095Y-76374285D01*
X120785714Y-76183809D01*
X120785714Y-76040952D01*
X120738095Y-75850476D01*
X120690476Y-75755238D01*
X120595238Y-75660000D01*
X120452380Y-75612380D01*
X120357142Y-75612380D01*
X120214285Y-75660000D01*
X120166666Y-75707619D01*
X119690476Y-76612380D02*
X119500000Y-76612380D01*
X119404761Y-76564761D01*
X119357142Y-76517142D01*
X119261904Y-76374285D01*
X119214285Y-76183809D01*
X119214285Y-75802857D01*
X119261904Y-75707619D01*
X119309523Y-75660000D01*
X119404761Y-75612380D01*
X119595238Y-75612380D01*
X119690476Y-75660000D01*
X119738095Y-75707619D01*
X119785714Y-75802857D01*
X119785714Y-76040952D01*
X119738095Y-76136190D01*
X119690476Y-76183809D01*
X119595238Y-76231428D01*
X119404761Y-76231428D01*
X119309523Y-76183809D01*
X119261904Y-76136190D01*
X119214285Y-76040952D01*
%TO.C,C8*%
X130302857Y-80166666D02*
X130255238Y-80214285D01*
X130207619Y-80357142D01*
X130207619Y-80452380D01*
X130255238Y-80595238D01*
X130350476Y-80690476D01*
X130445714Y-80738095D01*
X130636190Y-80785714D01*
X130779047Y-80785714D01*
X130969523Y-80738095D01*
X131064761Y-80690476D01*
X131160000Y-80595238D01*
X131207619Y-80452380D01*
X131207619Y-80357142D01*
X131160000Y-80214285D01*
X131112380Y-80166666D01*
X130779047Y-79595238D02*
X130826666Y-79690476D01*
X130874285Y-79738095D01*
X130969523Y-79785714D01*
X131017142Y-79785714D01*
X131112380Y-79738095D01*
X131160000Y-79690476D01*
X131207619Y-79595238D01*
X131207619Y-79404761D01*
X131160000Y-79309523D01*
X131112380Y-79261904D01*
X131017142Y-79214285D01*
X130969523Y-79214285D01*
X130874285Y-79261904D01*
X130826666Y-79309523D01*
X130779047Y-79404761D01*
X130779047Y-79595238D01*
X130731428Y-79690476D01*
X130683809Y-79738095D01*
X130588571Y-79785714D01*
X130398095Y-79785714D01*
X130302857Y-79738095D01*
X130255238Y-79690476D01*
X130207619Y-79595238D01*
X130207619Y-79404761D01*
X130255238Y-79309523D01*
X130302857Y-79261904D01*
X130398095Y-79214285D01*
X130588571Y-79214285D01*
X130683809Y-79261904D01*
X130731428Y-79309523D01*
X130779047Y-79404761D01*
%TD*%
M02*
