%TF.GenerationSoftware,KiCad,Pcbnew,(5.1.10-1-10_14)*%
%TF.CreationDate,2021-08-18T14:47:54+08:00*%
%TF.ProjectId,jlinkob_hs,6a6c696e-6b6f-4625-9f68-732e6b696361,rev?*%
%TF.SameCoordinates,Original*%
%TF.FileFunction,Copper,L1,Top*%
%TF.FilePolarity,Positive*%
%FSLAX46Y46*%
G04 Gerber Fmt 4.6, Leading zero omitted, Abs format (unit mm)*
G04 Created by KiCad (PCBNEW (5.1.10-1-10_14)) date 2021-08-18 14:47:54*
%MOMM*%
%LPD*%
G01*
G04 APERTURE LIST*
%TA.AperFunction,SMDPad,CuDef*%
%ADD10R,1.750000X1.800000*%
%TD*%
%TA.AperFunction,ComponentPad*%
%ADD11C,1.000000*%
%TD*%
%TA.AperFunction,ComponentPad*%
%ADD12O,1.000000X1.000000*%
%TD*%
%TA.AperFunction,ComponentPad*%
%ADD13R,1.000000X1.000000*%
%TD*%
%TA.AperFunction,SMDPad,CuDef*%
%ADD14R,2.000000X1.500000*%
%TD*%
%TA.AperFunction,SMDPad,CuDef*%
%ADD15R,2.000000X3.800000*%
%TD*%
%TA.AperFunction,ComponentPad*%
%ADD16O,1.700000X1.700000*%
%TD*%
%TA.AperFunction,ComponentPad*%
%ADD17R,1.700000X1.700000*%
%TD*%
%TA.AperFunction,SMDPad,CuDef*%
%ADD18R,1.200000X1.400000*%
%TD*%
%TA.AperFunction,ComponentPad*%
%ADD19O,1.800000X1.000000*%
%TD*%
%TA.AperFunction,ComponentPad*%
%ADD20O,2.000000X1.000000*%
%TD*%
%TA.AperFunction,SMDPad,CuDef*%
%ADD21R,1.300000X0.450000*%
%TD*%
%TA.AperFunction,SMDPad,CuDef*%
%ADD22R,1.699997X0.899998*%
%TD*%
%TA.AperFunction,ComponentPad*%
%ADD23O,1.350000X1.350000*%
%TD*%
%TA.AperFunction,ComponentPad*%
%ADD24R,1.350000X1.350000*%
%TD*%
%TA.AperFunction,SMDPad,CuDef*%
%ADD25R,1.450000X0.600000*%
%TD*%
%TA.AperFunction,SMDPad,CuDef*%
%ADD26R,1.450000X0.300000*%
%TD*%
%TA.AperFunction,ComponentPad*%
%ADD27O,2.100000X1.000000*%
%TD*%
%TA.AperFunction,ComponentPad*%
%ADD28O,1.600000X1.000000*%
%TD*%
%TA.AperFunction,SMDPad,CuDef*%
%ADD29R,1.475000X0.300000*%
%TD*%
%TA.AperFunction,SMDPad,CuDef*%
%ADD30R,0.300000X1.475000*%
%TD*%
%TA.AperFunction,ViaPad*%
%ADD31C,0.450000*%
%TD*%
%TA.AperFunction,Conductor*%
%ADD32C,0.300000*%
%TD*%
%TA.AperFunction,Conductor*%
%ADD33C,0.250000*%
%TD*%
%TA.AperFunction,Conductor*%
%ADD34C,1.000000*%
%TD*%
%TA.AperFunction,Conductor*%
%ADD35C,0.600000*%
%TD*%
%TA.AperFunction,Conductor*%
%ADD36C,0.450000*%
%TD*%
G04 APERTURE END LIST*
D10*
%TO.P,Y2,2*%
%TO.N,Net-(U?.1-Pad49)*%
X138550000Y-66940000D03*
%TO.P,Y2,1*%
%TO.N,Net-(U?.1-Pad50)*%
X135300000Y-66940000D03*
%TD*%
D11*
%TO.P,TP1,1*%
%TO.N,Net-(R2-Pad1)*%
X137500000Y-72190000D03*
%TD*%
D12*
%TO.P,CON2,9*%
%TO.N,GND*%
X147410000Y-78990000D03*
%TO.P,CON2,10*%
%TO.N,PA11*%
X146140000Y-78990000D03*
%TO.P,CON2,7*%
%TO.N,PA22*%
X147410000Y-80260000D03*
%TO.P,CON2,8*%
%TO.N,PA12*%
X146140000Y-80260000D03*
%TO.P,CON2,5*%
%TO.N,PA15*%
X147410000Y-81530000D03*
%TO.P,CON2,6*%
%TO.N,GND*%
X146140000Y-81530000D03*
%TO.P,CON2,3*%
%TO.N,+3V3*%
X147410000Y-82800000D03*
%TO.P,CON2,4*%
%TO.N,PA21*%
X146140000Y-82800000D03*
%TO.P,CON2,2*%
%TO.N,PA3*%
X146140000Y-84070000D03*
D13*
%TO.P,CON2,1*%
%TO.N,N/C*%
X147410000Y-84070000D03*
%TD*%
D14*
%TO.P,U1,1*%
%TO.N,GND*%
X107820000Y-91730000D03*
%TO.P,U1,3*%
%TO.N,VBUS*%
X107820000Y-87130000D03*
%TO.P,U1,2*%
%TO.N,+3V3*%
X107820000Y-89430000D03*
D15*
X101520000Y-89430000D03*
%TD*%
%TO.P,C19,2*%
%TO.N,GND*%
%TA.AperFunction,SMDPad,CuDef*%
G36*
G01*
X114855000Y-74320000D02*
X115165000Y-74320000D01*
G75*
G02*
X115320000Y-74475000I0J-155000D01*
G01*
X115320000Y-74900000D01*
G75*
G02*
X115165000Y-75055000I-155000J0D01*
G01*
X114855000Y-75055000D01*
G75*
G02*
X114700000Y-74900000I0J155000D01*
G01*
X114700000Y-74475000D01*
G75*
G02*
X114855000Y-74320000I155000J0D01*
G01*
G37*
%TD.AperFunction*%
%TO.P,C19,1*%
%TO.N,VCC*%
%TA.AperFunction,SMDPad,CuDef*%
G36*
G01*
X114855000Y-73185000D02*
X115165000Y-73185000D01*
G75*
G02*
X115320000Y-73340000I0J-155000D01*
G01*
X115320000Y-73765000D01*
G75*
G02*
X115165000Y-73920000I-155000J0D01*
G01*
X114855000Y-73920000D01*
G75*
G02*
X114700000Y-73765000I0J155000D01*
G01*
X114700000Y-73340000D01*
G75*
G02*
X114855000Y-73185000I155000J0D01*
G01*
G37*
%TD.AperFunction*%
%TD*%
%TO.P,R8,2*%
%TO.N,SHIELD*%
%TA.AperFunction,SMDPad,CuDef*%
G36*
G01*
X102390000Y-62960000D02*
X102390000Y-62640000D01*
G75*
G02*
X102550000Y-62480000I160000J0D01*
G01*
X102945000Y-62480000D01*
G75*
G02*
X103105000Y-62640000I0J-160000D01*
G01*
X103105000Y-62960000D01*
G75*
G02*
X102945000Y-63120000I-160000J0D01*
G01*
X102550000Y-63120000D01*
G75*
G02*
X102390000Y-62960000I0J160000D01*
G01*
G37*
%TD.AperFunction*%
%TO.P,R8,1*%
%TO.N,GND*%
%TA.AperFunction,SMDPad,CuDef*%
G36*
G01*
X101195000Y-62960000D02*
X101195000Y-62640000D01*
G75*
G02*
X101355000Y-62480000I160000J0D01*
G01*
X101750000Y-62480000D01*
G75*
G02*
X101910000Y-62640000I0J-160000D01*
G01*
X101910000Y-62960000D01*
G75*
G02*
X101750000Y-63120000I-160000J0D01*
G01*
X101355000Y-63120000D01*
G75*
G02*
X101195000Y-62960000I0J160000D01*
G01*
G37*
%TD.AperFunction*%
%TD*%
%TO.P,C27,2*%
%TO.N,SHIELD*%
%TA.AperFunction,SMDPad,CuDef*%
G36*
G01*
X104220000Y-62645000D02*
X104220000Y-62955000D01*
G75*
G02*
X104065000Y-63110000I-155000J0D01*
G01*
X103640000Y-63110000D01*
G75*
G02*
X103485000Y-62955000I0J155000D01*
G01*
X103485000Y-62645000D01*
G75*
G02*
X103640000Y-62490000I155000J0D01*
G01*
X104065000Y-62490000D01*
G75*
G02*
X104220000Y-62645000I0J-155000D01*
G01*
G37*
%TD.AperFunction*%
%TO.P,C27,1*%
%TO.N,GND*%
%TA.AperFunction,SMDPad,CuDef*%
G36*
G01*
X105355000Y-62645000D02*
X105355000Y-62955000D01*
G75*
G02*
X105200000Y-63110000I-155000J0D01*
G01*
X104775000Y-63110000D01*
G75*
G02*
X104620000Y-62955000I0J155000D01*
G01*
X104620000Y-62645000D01*
G75*
G02*
X104775000Y-62490000I155000J0D01*
G01*
X105200000Y-62490000D01*
G75*
G02*
X105355000Y-62645000I0J-155000D01*
G01*
G37*
%TD.AperFunction*%
%TD*%
D16*
%TO.P,J5,36*%
%TO.N,GND*%
X146760000Y-52210000D03*
%TO.P,J5,35*%
X146760000Y-54750000D03*
%TO.P,J5,34*%
X144220000Y-52210000D03*
%TO.P,J5,33*%
X144220000Y-54750000D03*
%TO.P,J5,32*%
%TO.N,+3V3*%
X141680000Y-52210000D03*
%TO.P,J5,31*%
X141680000Y-54750000D03*
%TO.P,J5,30*%
X139140000Y-52210000D03*
%TO.P,J5,29*%
X139140000Y-54750000D03*
%TO.P,J5,28*%
%TO.N,PA2*%
X136600000Y-52210000D03*
%TO.P,J5,27*%
%TO.N,PA3*%
X136600000Y-54750000D03*
%TO.P,J5,26*%
%TO.N,PA4*%
X134060000Y-52210000D03*
%TO.P,J5,25*%
%TO.N,PA5*%
X134060000Y-54750000D03*
%TO.P,J5,24*%
%TO.N,PA6*%
X131520000Y-52210000D03*
%TO.P,J5,23*%
%TO.N,PA7*%
X131520000Y-54750000D03*
%TO.P,J5,22*%
%TO.N,PA8*%
X128980000Y-52210000D03*
%TO.P,J5,21*%
%TO.N,PA9*%
X128980000Y-54750000D03*
%TO.P,J5,20*%
%TO.N,PA10*%
X126440000Y-52210000D03*
%TO.P,J5,19*%
%TO.N,PA11*%
X126440000Y-54750000D03*
%TO.P,J5,18*%
%TO.N,PA12*%
X123900000Y-52210000D03*
%TO.P,J5,17*%
%TO.N,PB24*%
X123900000Y-54750000D03*
%TO.P,J5,16*%
%TO.N,PB23*%
X121360000Y-52210000D03*
%TO.P,J5,15*%
%TO.N,PB22*%
X121360000Y-54750000D03*
%TO.P,J5,14*%
%TO.N,PB21*%
X118820000Y-52210000D03*
%TO.P,J5,13*%
%TO.N,PB20*%
X118820000Y-54750000D03*
%TO.P,J5,12*%
%TO.N,PB19*%
X116280000Y-52210000D03*
%TO.P,J5,11*%
%TO.N,PB18*%
X116280000Y-54750000D03*
%TO.P,J5,10*%
%TO.N,PB17*%
X113740000Y-52210000D03*
%TO.P,J5,9*%
%TO.N,PB14*%
X113740000Y-54750000D03*
%TO.P,J5,8*%
%TO.N,PB10*%
X111200000Y-52210000D03*
%TO.P,J5,7*%
%TO.N,PB9*%
X111200000Y-54750000D03*
%TO.P,J5,6*%
%TO.N,PA31*%
X108660000Y-52210000D03*
%TO.P,J5,5*%
%TO.N,VCC*%
X108660000Y-54750000D03*
%TO.P,J5,4*%
%TO.N,+3V3*%
X106120000Y-52210000D03*
%TO.P,J5,3*%
X106120000Y-54750000D03*
%TO.P,J5,2*%
%TO.N,GND*%
X103580000Y-52210000D03*
D17*
%TO.P,J5,1*%
X103580000Y-54750000D03*
%TD*%
D16*
%TO.P,J4,36*%
%TO.N,GND*%
X146810000Y-95480000D03*
%TO.P,J4,35*%
X146810000Y-98020000D03*
%TO.P,J4,34*%
%TO.N,PA1*%
X144270000Y-95480000D03*
%TO.P,J4,33*%
%TO.N,PA0*%
X144270000Y-98020000D03*
%TO.P,J4,32*%
%TO.N,PA26*%
X141730000Y-95480000D03*
%TO.P,J4,31*%
%TO.N,PA25*%
X141730000Y-98020000D03*
%TO.P,J4,30*%
%TO.N,PA24*%
X139190000Y-95480000D03*
%TO.P,J4,29*%
%TO.N,PA23*%
X139190000Y-98020000D03*
%TO.P,J4,28*%
%TO.N,PA21*%
X136650000Y-95480000D03*
%TO.P,J4,27*%
%TO.N,PA20*%
X136650000Y-98020000D03*
%TO.P,J4,26*%
%TO.N,PA19*%
X134110000Y-95480000D03*
%TO.P,J4,25*%
%TO.N,PA18*%
X134110000Y-98020000D03*
%TO.P,J4,24*%
%TO.N,PB15*%
X131570000Y-95480000D03*
%TO.P,J4,23*%
%TO.N,PB16*%
X131570000Y-98020000D03*
%TO.P,J4,22*%
%TO.N,PA17*%
X129030000Y-95480000D03*
%TO.P,J4,21*%
%TO.N,PA16*%
X129030000Y-98020000D03*
%TO.P,J4,20*%
%TO.N,PA15*%
X126490000Y-95480000D03*
%TO.P,J4,19*%
%TO.N,PA14*%
X126490000Y-98020000D03*
%TO.P,J4,18*%
%TO.N,PA13*%
X123950000Y-95480000D03*
%TO.P,J4,17*%
%TO.N,PB4*%
X123950000Y-98020000D03*
%TO.P,J4,16*%
%TO.N,PB3*%
X121410000Y-95480000D03*
%TO.P,J4,15*%
%TO.N,PA30*%
X121410000Y-98020000D03*
%TO.P,J4,14*%
%TO.N,PA22*%
X118870000Y-95480000D03*
%TO.P,J4,13*%
%TO.N,PB8*%
X118870000Y-98020000D03*
%TO.P,J4,12*%
%TO.N,PB7*%
X116330000Y-95480000D03*
%TO.P,J4,11*%
%TO.N,PB6*%
X116330000Y-98020000D03*
%TO.P,J4,10*%
%TO.N,PB5*%
X113790000Y-95480000D03*
%TO.P,J4,9*%
%TO.N,PA27*%
X113790000Y-98020000D03*
%TO.P,J4,8*%
%TO.N,PB13*%
X111250000Y-95480000D03*
%TO.P,J4,7*%
%TO.N,PB12*%
X111250000Y-98020000D03*
%TO.P,J4,6*%
%TO.N,PB11*%
X108710000Y-95480000D03*
%TO.P,J4,5*%
%TO.N,PB2*%
X108710000Y-98020000D03*
%TO.P,J4,4*%
%TO.N,PB1*%
X106170000Y-95480000D03*
%TO.P,J4,3*%
%TO.N,PB0*%
X106170000Y-98020000D03*
%TO.P,J4,2*%
%TO.N,GND*%
X103630000Y-95480000D03*
D17*
%TO.P,J4,1*%
X103630000Y-98020000D03*
%TD*%
D18*
%TO.P,Y1,4*%
%TO.N,GND*%
X115350000Y-63030000D03*
%TO.P,Y1,3*%
%TO.N,Net-(C2-Pad2)*%
X115350000Y-65230000D03*
%TO.P,Y1,2*%
%TO.N,GND*%
X113650000Y-65230000D03*
%TO.P,Y1,1*%
%TO.N,Net-(C1-Pad2)*%
X113650000Y-63030000D03*
%TD*%
D19*
%TO.P,J2,0*%
%TO.N,SHIELD*%
X102050000Y-83908824D03*
X102050000Y-76158824D03*
D20*
X105850000Y-83758824D03*
X105850000Y-76308824D03*
D21*
%TO.P,J2,5*%
%TO.N,GND*%
X105900000Y-81333824D03*
%TO.P,J2,4*%
%TO.N,N/C*%
X105900000Y-80683824D03*
%TO.P,J2,3*%
%TO.N,USB_FS_DP*%
X105900000Y-80033824D03*
%TO.P,J2,2*%
%TO.N,USB_FS_DM*%
X105900000Y-79383824D03*
%TO.P,J2,1*%
%TO.N,VBUS*%
X105900000Y-78733824D03*
%TD*%
%TO.P,C26,2*%
%TO.N,GND*%
%TA.AperFunction,SMDPad,CuDef*%
G36*
G01*
X105980000Y-59659999D02*
X105980000Y-60960001D01*
G75*
G02*
X105730001Y-61210000I-249999J0D01*
G01*
X104904999Y-61210000D01*
G75*
G02*
X104655000Y-60960001I0J249999D01*
G01*
X104655000Y-59659999D01*
G75*
G02*
X104904999Y-59410000I249999J0D01*
G01*
X105730001Y-59410000D01*
G75*
G02*
X105980000Y-59659999I0J-249999D01*
G01*
G37*
%TD.AperFunction*%
%TO.P,C26,1*%
%TO.N,VBUS*%
%TA.AperFunction,SMDPad,CuDef*%
G36*
G01*
X109105000Y-59659999D02*
X109105000Y-60960001D01*
G75*
G02*
X108855001Y-61210000I-249999J0D01*
G01*
X108029999Y-61210000D01*
G75*
G02*
X107780000Y-60960001I0J249999D01*
G01*
X107780000Y-59659999D01*
G75*
G02*
X108029999Y-59410000I249999J0D01*
G01*
X108855001Y-59410000D01*
G75*
G02*
X109105000Y-59659999I0J-249999D01*
G01*
G37*
%TD.AperFunction*%
%TD*%
%TO.P,C13,2*%
%TO.N,GND*%
%TA.AperFunction,SMDPad,CuDef*%
G36*
G01*
X109679999Y-90320000D02*
X110980001Y-90320000D01*
G75*
G02*
X111230000Y-90569999I0J-249999D01*
G01*
X111230000Y-91395001D01*
G75*
G02*
X110980001Y-91645000I-249999J0D01*
G01*
X109679999Y-91645000D01*
G75*
G02*
X109430000Y-91395001I0J249999D01*
G01*
X109430000Y-90569999D01*
G75*
G02*
X109679999Y-90320000I249999J0D01*
G01*
G37*
%TD.AperFunction*%
%TO.P,C13,1*%
%TO.N,+3V3*%
%TA.AperFunction,SMDPad,CuDef*%
G36*
G01*
X109679999Y-87195000D02*
X110980001Y-87195000D01*
G75*
G02*
X111230000Y-87444999I0J-249999D01*
G01*
X111230000Y-88270001D01*
G75*
G02*
X110980001Y-88520000I-249999J0D01*
G01*
X109679999Y-88520000D01*
G75*
G02*
X109430000Y-88270001I0J249999D01*
G01*
X109430000Y-87444999D01*
G75*
G02*
X109679999Y-87195000I249999J0D01*
G01*
G37*
%TD.AperFunction*%
%TD*%
%TO.P,R7,2*%
%TO.N,PA3*%
%TA.AperFunction,SMDPad,CuDef*%
G36*
G01*
X136220000Y-79560000D02*
X136540000Y-79560000D01*
G75*
G02*
X136700000Y-79720000I0J-160000D01*
G01*
X136700000Y-80115000D01*
G75*
G02*
X136540000Y-80275000I-160000J0D01*
G01*
X136220000Y-80275000D01*
G75*
G02*
X136060000Y-80115000I0J160000D01*
G01*
X136060000Y-79720000D01*
G75*
G02*
X136220000Y-79560000I160000J0D01*
G01*
G37*
%TD.AperFunction*%
%TO.P,R7,1*%
%TO.N,PA4*%
%TA.AperFunction,SMDPad,CuDef*%
G36*
G01*
X136220000Y-78365000D02*
X136540000Y-78365000D01*
G75*
G02*
X136700000Y-78525000I0J-160000D01*
G01*
X136700000Y-78920000D01*
G75*
G02*
X136540000Y-79080000I-160000J0D01*
G01*
X136220000Y-79080000D01*
G75*
G02*
X136060000Y-78920000I0J160000D01*
G01*
X136060000Y-78525000D01*
G75*
G02*
X136220000Y-78365000I160000J0D01*
G01*
G37*
%TD.AperFunction*%
%TD*%
%TO.P,R6,2*%
%TO.N,PA17*%
%TA.AperFunction,SMDPad,CuDef*%
G36*
G01*
X118920000Y-88650000D02*
X118920000Y-88970000D01*
G75*
G02*
X118760000Y-89130000I-160000J0D01*
G01*
X118365000Y-89130000D01*
G75*
G02*
X118205000Y-88970000I0J160000D01*
G01*
X118205000Y-88650000D01*
G75*
G02*
X118365000Y-88490000I160000J0D01*
G01*
X118760000Y-88490000D01*
G75*
G02*
X118920000Y-88650000I0J-160000D01*
G01*
G37*
%TD.AperFunction*%
%TO.P,R6,1*%
%TO.N,PA22*%
%TA.AperFunction,SMDPad,CuDef*%
G36*
G01*
X120115000Y-88650000D02*
X120115000Y-88970000D01*
G75*
G02*
X119955000Y-89130000I-160000J0D01*
G01*
X119560000Y-89130000D01*
G75*
G02*
X119400000Y-88970000I0J160000D01*
G01*
X119400000Y-88650000D01*
G75*
G02*
X119560000Y-88490000I160000J0D01*
G01*
X119955000Y-88490000D01*
G75*
G02*
X120115000Y-88650000I0J-160000D01*
G01*
G37*
%TD.AperFunction*%
%TD*%
%TO.P,R5,2*%
%TO.N,PA18*%
%TA.AperFunction,SMDPad,CuDef*%
G36*
G01*
X118910000Y-90670000D02*
X118910000Y-90990000D01*
G75*
G02*
X118750000Y-91150000I-160000J0D01*
G01*
X118355000Y-91150000D01*
G75*
G02*
X118195000Y-90990000I0J160000D01*
G01*
X118195000Y-90670000D01*
G75*
G02*
X118355000Y-90510000I160000J0D01*
G01*
X118750000Y-90510000D01*
G75*
G02*
X118910000Y-90670000I0J-160000D01*
G01*
G37*
%TD.AperFunction*%
%TO.P,R5,1*%
%TO.N,PA15*%
%TA.AperFunction,SMDPad,CuDef*%
G36*
G01*
X120105000Y-90670000D02*
X120105000Y-90990000D01*
G75*
G02*
X119945000Y-91150000I-160000J0D01*
G01*
X119550000Y-91150000D01*
G75*
G02*
X119390000Y-90990000I0J160000D01*
G01*
X119390000Y-90670000D01*
G75*
G02*
X119550000Y-90510000I160000J0D01*
G01*
X119945000Y-90510000D01*
G75*
G02*
X120105000Y-90670000I0J-160000D01*
G01*
G37*
%TD.AperFunction*%
%TD*%
%TO.P,R4,2*%
%TO.N,+3V3*%
%TA.AperFunction,SMDPad,CuDef*%
G36*
G01*
X143780000Y-91920000D02*
X143780000Y-92240000D01*
G75*
G02*
X143620000Y-92400000I-160000J0D01*
G01*
X143225000Y-92400000D01*
G75*
G02*
X143065000Y-92240000I0J160000D01*
G01*
X143065000Y-91920000D01*
G75*
G02*
X143225000Y-91760000I160000J0D01*
G01*
X143620000Y-91760000D01*
G75*
G02*
X143780000Y-91920000I0J-160000D01*
G01*
G37*
%TD.AperFunction*%
%TO.P,R4,1*%
%TO.N,Net-(D3-Pad2)*%
%TA.AperFunction,SMDPad,CuDef*%
G36*
G01*
X144975000Y-91920000D02*
X144975000Y-92240000D01*
G75*
G02*
X144815000Y-92400000I-160000J0D01*
G01*
X144420000Y-92400000D01*
G75*
G02*
X144260000Y-92240000I0J160000D01*
G01*
X144260000Y-91920000D01*
G75*
G02*
X144420000Y-91760000I160000J0D01*
G01*
X144815000Y-91760000D01*
G75*
G02*
X144975000Y-91920000I0J-160000D01*
G01*
G37*
%TD.AperFunction*%
%TD*%
%TO.P,R3,2*%
%TO.N,+3V3*%
%TA.AperFunction,SMDPad,CuDef*%
G36*
G01*
X143832500Y-90020000D02*
X143832500Y-90340000D01*
G75*
G02*
X143672500Y-90500000I-160000J0D01*
G01*
X143277500Y-90500000D01*
G75*
G02*
X143117500Y-90340000I0J160000D01*
G01*
X143117500Y-90020000D01*
G75*
G02*
X143277500Y-89860000I160000J0D01*
G01*
X143672500Y-89860000D01*
G75*
G02*
X143832500Y-90020000I0J-160000D01*
G01*
G37*
%TD.AperFunction*%
%TO.P,R3,1*%
%TO.N,Net-(D2-Pad2)*%
%TA.AperFunction,SMDPad,CuDef*%
G36*
G01*
X145027500Y-90020000D02*
X145027500Y-90340000D01*
G75*
G02*
X144867500Y-90500000I-160000J0D01*
G01*
X144472500Y-90500000D01*
G75*
G02*
X144312500Y-90340000I0J160000D01*
G01*
X144312500Y-90020000D01*
G75*
G02*
X144472500Y-89860000I160000J0D01*
G01*
X144867500Y-89860000D01*
G75*
G02*
X145027500Y-90020000I0J-160000D01*
G01*
G37*
%TD.AperFunction*%
%TD*%
%TO.P,D3,2*%
%TO.N,Net-(D3-Pad2)*%
%TA.AperFunction,SMDPad,CuDef*%
G36*
G01*
X146957500Y-91767500D02*
X146957500Y-92192500D01*
G75*
G02*
X146745000Y-92405000I-212500J0D01*
G01*
X145945000Y-92405000D01*
G75*
G02*
X145732500Y-92192500I0J212500D01*
G01*
X145732500Y-91767500D01*
G75*
G02*
X145945000Y-91555000I212500J0D01*
G01*
X146745000Y-91555000D01*
G75*
G02*
X146957500Y-91767500I0J-212500D01*
G01*
G37*
%TD.AperFunction*%
%TO.P,D3,1*%
%TO.N,PA29*%
%TA.AperFunction,SMDPad,CuDef*%
G36*
G01*
X148582500Y-91767500D02*
X148582500Y-92192500D01*
G75*
G02*
X148370000Y-92405000I-212500J0D01*
G01*
X147570000Y-92405000D01*
G75*
G02*
X147357500Y-92192500I0J212500D01*
G01*
X147357500Y-91767500D01*
G75*
G02*
X147570000Y-91555000I212500J0D01*
G01*
X148370000Y-91555000D01*
G75*
G02*
X148582500Y-91767500I0J-212500D01*
G01*
G37*
%TD.AperFunction*%
%TD*%
%TO.P,D2,2*%
%TO.N,Net-(D2-Pad2)*%
%TA.AperFunction,SMDPad,CuDef*%
G36*
G01*
X146957500Y-89967500D02*
X146957500Y-90392500D01*
G75*
G02*
X146745000Y-90605000I-212500J0D01*
G01*
X145945000Y-90605000D01*
G75*
G02*
X145732500Y-90392500I0J212500D01*
G01*
X145732500Y-89967500D01*
G75*
G02*
X145945000Y-89755000I212500J0D01*
G01*
X146745000Y-89755000D01*
G75*
G02*
X146957500Y-89967500I0J-212500D01*
G01*
G37*
%TD.AperFunction*%
%TO.P,D2,1*%
%TO.N,PA28*%
%TA.AperFunction,SMDPad,CuDef*%
G36*
G01*
X148582500Y-89967500D02*
X148582500Y-90392500D01*
G75*
G02*
X148370000Y-90605000I-212500J0D01*
G01*
X147570000Y-90605000D01*
G75*
G02*
X147357500Y-90392500I0J212500D01*
G01*
X147357500Y-89967500D01*
G75*
G02*
X147570000Y-89755000I212500J0D01*
G01*
X148370000Y-89755000D01*
G75*
G02*
X148582500Y-89967500I0J-212500D01*
G01*
G37*
%TD.AperFunction*%
%TD*%
D22*
%TO.P,SW1,1*%
%TO.N,HOST_RESET*%
X145260000Y-65860030D03*
%TO.P,SW1,2*%
%TO.N,GND*%
X145260000Y-70459970D03*
%TD*%
D23*
%TO.P,J3,2*%
%TO.N,GND*%
X141850000Y-86730000D03*
D24*
%TO.P,J3,1*%
%TO.N,PA25*%
X139850000Y-86730000D03*
%TD*%
D12*
%TO.P,CON1,9*%
%TO.N,GND*%
X143240000Y-61390000D03*
%TO.P,CON1,10*%
%TO.N,N/C*%
X143240000Y-60120000D03*
%TO.P,CON1,7*%
%TO.N,HOST_SWCLK*%
X141970000Y-61390000D03*
%TO.P,CON1,8*%
%TO.N,N/C*%
X141970000Y-60120000D03*
%TO.P,CON1,5*%
%TO.N,HOST_SWDIO*%
X140700000Y-61390000D03*
%TO.P,CON1,6*%
%TO.N,GND*%
X140700000Y-60120000D03*
%TO.P,CON1,3*%
%TO.N,+3V3*%
X139430000Y-61390000D03*
%TO.P,CON1,4*%
%TO.N,HOST_SWO*%
X139430000Y-60120000D03*
%TO.P,CON1,2*%
%TO.N,HOST_RESET*%
X138160000Y-60120000D03*
D13*
%TO.P,CON1,1*%
%TO.N,N/C*%
X138160000Y-61390000D03*
%TD*%
%TO.P,C18,2*%
%TO.N,GND*%
%TA.AperFunction,SMDPad,CuDef*%
G36*
G01*
X113865000Y-74320000D02*
X114175000Y-74320000D01*
G75*
G02*
X114330000Y-74475000I0J-155000D01*
G01*
X114330000Y-74900000D01*
G75*
G02*
X114175000Y-75055000I-155000J0D01*
G01*
X113865000Y-75055000D01*
G75*
G02*
X113710000Y-74900000I0J155000D01*
G01*
X113710000Y-74475000D01*
G75*
G02*
X113865000Y-74320000I155000J0D01*
G01*
G37*
%TD.AperFunction*%
%TO.P,C18,1*%
%TO.N,VCC*%
%TA.AperFunction,SMDPad,CuDef*%
G36*
G01*
X113865000Y-73185000D02*
X114175000Y-73185000D01*
G75*
G02*
X114330000Y-73340000I0J-155000D01*
G01*
X114330000Y-73765000D01*
G75*
G02*
X114175000Y-73920000I-155000J0D01*
G01*
X113865000Y-73920000D01*
G75*
G02*
X113710000Y-73765000I0J155000D01*
G01*
X113710000Y-73340000D01*
G75*
G02*
X113865000Y-73185000I155000J0D01*
G01*
G37*
%TD.AperFunction*%
%TD*%
%TO.P,C17,2*%
%TO.N,GND*%
%TA.AperFunction,SMDPad,CuDef*%
G36*
G01*
X135700000Y-77155000D02*
X135700000Y-76845000D01*
G75*
G02*
X135855000Y-76690000I155000J0D01*
G01*
X136280000Y-76690000D01*
G75*
G02*
X136435000Y-76845000I0J-155000D01*
G01*
X136435000Y-77155000D01*
G75*
G02*
X136280000Y-77310000I-155000J0D01*
G01*
X135855000Y-77310000D01*
G75*
G02*
X135700000Y-77155000I0J155000D01*
G01*
G37*
%TD.AperFunction*%
%TO.P,C17,1*%
%TO.N,VCC*%
%TA.AperFunction,SMDPad,CuDef*%
G36*
G01*
X134565000Y-77155000D02*
X134565000Y-76845000D01*
G75*
G02*
X134720000Y-76690000I155000J0D01*
G01*
X135145000Y-76690000D01*
G75*
G02*
X135300000Y-76845000I0J-155000D01*
G01*
X135300000Y-77155000D01*
G75*
G02*
X135145000Y-77310000I-155000J0D01*
G01*
X134720000Y-77310000D01*
G75*
G02*
X134565000Y-77155000I0J155000D01*
G01*
G37*
%TD.AperFunction*%
%TD*%
%TO.P,C14,2*%
%TO.N,GND*%
%TA.AperFunction,SMDPad,CuDef*%
G36*
G01*
X119905000Y-64400000D02*
X119595000Y-64400000D01*
G75*
G02*
X119440000Y-64245000I0J155000D01*
G01*
X119440000Y-63820000D01*
G75*
G02*
X119595000Y-63665000I155000J0D01*
G01*
X119905000Y-63665000D01*
G75*
G02*
X120060000Y-63820000I0J-155000D01*
G01*
X120060000Y-64245000D01*
G75*
G02*
X119905000Y-64400000I-155000J0D01*
G01*
G37*
%TD.AperFunction*%
%TO.P,C14,1*%
%TO.N,VCC*%
%TA.AperFunction,SMDPad,CuDef*%
G36*
G01*
X119905000Y-65535000D02*
X119595000Y-65535000D01*
G75*
G02*
X119440000Y-65380000I0J155000D01*
G01*
X119440000Y-64955000D01*
G75*
G02*
X119595000Y-64800000I155000J0D01*
G01*
X119905000Y-64800000D01*
G75*
G02*
X120060000Y-64955000I0J-155000D01*
G01*
X120060000Y-65380000D01*
G75*
G02*
X119905000Y-65535000I-155000J0D01*
G01*
G37*
%TD.AperFunction*%
%TD*%
%TO.P,C12,2*%
%TO.N,GND*%
%TA.AperFunction,SMDPad,CuDef*%
G36*
G01*
X119345000Y-85700000D02*
X119655000Y-85700000D01*
G75*
G02*
X119810000Y-85855000I0J-155000D01*
G01*
X119810000Y-86280000D01*
G75*
G02*
X119655000Y-86435000I-155000J0D01*
G01*
X119345000Y-86435000D01*
G75*
G02*
X119190000Y-86280000I0J155000D01*
G01*
X119190000Y-85855000D01*
G75*
G02*
X119345000Y-85700000I155000J0D01*
G01*
G37*
%TD.AperFunction*%
%TO.P,C12,1*%
%TO.N,+3V3*%
%TA.AperFunction,SMDPad,CuDef*%
G36*
G01*
X119345000Y-84565000D02*
X119655000Y-84565000D01*
G75*
G02*
X119810000Y-84720000I0J-155000D01*
G01*
X119810000Y-85145000D01*
G75*
G02*
X119655000Y-85300000I-155000J0D01*
G01*
X119345000Y-85300000D01*
G75*
G02*
X119190000Y-85145000I0J155000D01*
G01*
X119190000Y-84720000D01*
G75*
G02*
X119345000Y-84565000I155000J0D01*
G01*
G37*
%TD.AperFunction*%
%TD*%
%TO.P,C11,2*%
%TO.N,GND*%
%TA.AperFunction,SMDPad,CuDef*%
G36*
G01*
X118345000Y-85700000D02*
X118655000Y-85700000D01*
G75*
G02*
X118810000Y-85855000I0J-155000D01*
G01*
X118810000Y-86280000D01*
G75*
G02*
X118655000Y-86435000I-155000J0D01*
G01*
X118345000Y-86435000D01*
G75*
G02*
X118190000Y-86280000I0J155000D01*
G01*
X118190000Y-85855000D01*
G75*
G02*
X118345000Y-85700000I155000J0D01*
G01*
G37*
%TD.AperFunction*%
%TO.P,C11,1*%
%TO.N,+3V3*%
%TA.AperFunction,SMDPad,CuDef*%
G36*
G01*
X118345000Y-84565000D02*
X118655000Y-84565000D01*
G75*
G02*
X118810000Y-84720000I0J-155000D01*
G01*
X118810000Y-85145000D01*
G75*
G02*
X118655000Y-85300000I-155000J0D01*
G01*
X118345000Y-85300000D01*
G75*
G02*
X118190000Y-85145000I0J155000D01*
G01*
X118190000Y-84720000D01*
G75*
G02*
X118345000Y-84565000I155000J0D01*
G01*
G37*
%TD.AperFunction*%
%TD*%
%TO.P,C10,2*%
%TO.N,GND*%
%TA.AperFunction,SMDPad,CuDef*%
G36*
G01*
X135700000Y-76155000D02*
X135700000Y-75845000D01*
G75*
G02*
X135855000Y-75690000I155000J0D01*
G01*
X136280000Y-75690000D01*
G75*
G02*
X136435000Y-75845000I0J-155000D01*
G01*
X136435000Y-76155000D01*
G75*
G02*
X136280000Y-76310000I-155000J0D01*
G01*
X135855000Y-76310000D01*
G75*
G02*
X135700000Y-76155000I0J155000D01*
G01*
G37*
%TD.AperFunction*%
%TO.P,C10,1*%
%TO.N,+3V3*%
%TA.AperFunction,SMDPad,CuDef*%
G36*
G01*
X134565000Y-76155000D02*
X134565000Y-75845000D01*
G75*
G02*
X134720000Y-75690000I155000J0D01*
G01*
X135145000Y-75690000D01*
G75*
G02*
X135300000Y-75845000I0J-155000D01*
G01*
X135300000Y-76155000D01*
G75*
G02*
X135145000Y-76310000I-155000J0D01*
G01*
X134720000Y-76310000D01*
G75*
G02*
X134565000Y-76155000I0J155000D01*
G01*
G37*
%TD.AperFunction*%
%TD*%
%TO.P,C7,2*%
%TO.N,GND*%
%TA.AperFunction,SMDPad,CuDef*%
G36*
G01*
X135700000Y-71655000D02*
X135700000Y-71345000D01*
G75*
G02*
X135855000Y-71190000I155000J0D01*
G01*
X136280000Y-71190000D01*
G75*
G02*
X136435000Y-71345000I0J-155000D01*
G01*
X136435000Y-71655000D01*
G75*
G02*
X136280000Y-71810000I-155000J0D01*
G01*
X135855000Y-71810000D01*
G75*
G02*
X135700000Y-71655000I0J155000D01*
G01*
G37*
%TD.AperFunction*%
%TO.P,C7,1*%
%TO.N,+3V3*%
%TA.AperFunction,SMDPad,CuDef*%
G36*
G01*
X134565000Y-71655000D02*
X134565000Y-71345000D01*
G75*
G02*
X134720000Y-71190000I155000J0D01*
G01*
X135145000Y-71190000D01*
G75*
G02*
X135300000Y-71345000I0J-155000D01*
G01*
X135300000Y-71655000D01*
G75*
G02*
X135145000Y-71810000I-155000J0D01*
G01*
X134720000Y-71810000D01*
G75*
G02*
X134565000Y-71655000I0J155000D01*
G01*
G37*
%TD.AperFunction*%
%TD*%
D25*
%TO.P,J1,B1*%
%TO.N,GND*%
X107225000Y-72500000D03*
%TO.P,J1,A9*%
%TO.N,VBUS*%
X107225000Y-71700000D03*
%TO.P,J1,B9*%
X107225000Y-66800000D03*
%TO.P,J1,B12*%
%TO.N,GND*%
X107225000Y-66000000D03*
%TO.P,J1,A1*%
X107225000Y-66000000D03*
%TO.P,J1,A4*%
%TO.N,VBUS*%
X107225000Y-66800000D03*
%TO.P,J1,B4*%
X107225000Y-71700000D03*
%TO.P,J1,A12*%
%TO.N,GND*%
X107225000Y-72500000D03*
D26*
%TO.P,J1,B8*%
%TO.N,N/C*%
X107225000Y-67500000D03*
%TO.P,J1,A5*%
X107225000Y-68000000D03*
%TO.P,J1,B7*%
%TO.N,USB_HS_DM*%
X107225000Y-68500000D03*
%TO.P,J1,A7*%
X107225000Y-69500000D03*
%TO.P,J1,B6*%
%TO.N,USB_HS_DP*%
X107225000Y-70000000D03*
%TO.P,J1,A8*%
%TO.N,N/C*%
X107225000Y-70500000D03*
%TO.P,J1,B5*%
X107225000Y-71000000D03*
%TO.P,J1,A6*%
%TO.N,USB_HS_DP*%
X107225000Y-69000000D03*
D27*
%TO.P,J1,S1*%
%TO.N,SHIELD*%
X106310000Y-73570000D03*
X106310000Y-64930000D03*
D28*
X102130000Y-64930000D03*
X102130000Y-73570000D03*
%TD*%
D29*
%TO.P,U?.1,100*%
%TO.N,PB8*%
X117262000Y-81000000D03*
%TO.P,U?.1,99*%
%TO.N,PB7*%
X117262000Y-80500000D03*
%TO.P,U?.1,98*%
%TO.N,PB6*%
X117262000Y-80000000D03*
%TO.P,U?.1,97*%
%TO.N,PB5*%
X117262000Y-79500000D03*
%TO.P,U?.1,96*%
%TO.N,PA27*%
X117262000Y-79000000D03*
%TO.P,U?.1,95*%
%TO.N,PB13*%
X117262000Y-78500000D03*
%TO.P,U?.1,94*%
%TO.N,PB12*%
X117262000Y-78000000D03*
%TO.P,U?.1,93*%
%TO.N,PB11*%
X117262000Y-77500000D03*
%TO.P,U?.1,92*%
%TO.N,PB2*%
X117262000Y-77000000D03*
%TO.P,U?.1,91*%
%TO.N,PB1*%
X117262000Y-76500000D03*
%TO.P,U?.1,90*%
%TO.N,PB0*%
X117262000Y-76000000D03*
%TO.P,U?.1,89*%
%TO.N,GND*%
X117262000Y-75500000D03*
%TO.P,U?.1,88*%
%TO.N,+3V3*%
X117262000Y-75000000D03*
%TO.P,U?.1,87*%
%TO.N,VCC*%
X117262000Y-74500000D03*
%TO.P,U?.1,86*%
%TO.N,PA31*%
X117262000Y-74000000D03*
%TO.P,U?.1,85*%
%TO.N,PA29*%
X117262000Y-73500000D03*
%TO.P,U?.1,84*%
%TO.N,PA28*%
X117262000Y-73000000D03*
%TO.P,U?.1,83*%
%TO.N,VCC*%
X117262000Y-72500000D03*
%TO.P,U?.1,82*%
%TO.N,GND*%
X117262000Y-72000000D03*
%TO.P,U?.1,81*%
%TO.N,USB_FS_DP*%
X117262000Y-71500000D03*
%TO.P,U?.1,80*%
%TO.N,USB_FS_DM*%
X117262000Y-71000000D03*
%TO.P,U?.1,79*%
%TO.N,+3V3*%
X117262000Y-70500000D03*
%TO.P,U?.1,78*%
%TO.N,Net-(C4-Pad1)*%
X117262000Y-70000000D03*
%TO.P,U?.1,77*%
%TO.N,USB_HS_DM*%
X117262000Y-69500000D03*
%TO.P,U?.1,76*%
%TO.N,USB_HS_DP*%
X117262000Y-69000000D03*
D30*
%TO.P,U?.1,75*%
%TO.N,Net-(C2-Pad2)*%
X119000000Y-67262000D03*
%TO.P,U?.1,74*%
%TO.N,Net-(C1-Pad2)*%
X119500000Y-67262000D03*
%TO.P,U?.1,73*%
%TO.N,VCC*%
X120000000Y-67262000D03*
%TO.P,U?.1,72*%
%TO.N,GND*%
X120500000Y-67262000D03*
%TO.P,U?.1,71*%
%TO.N,PB9*%
X121000000Y-67262000D03*
%TO.P,U?.1,70*%
%TO.N,PB10*%
X121500000Y-67262000D03*
%TO.P,U?.1,69*%
%TO.N,PB14*%
X122000000Y-67262000D03*
%TO.P,U?.1,68*%
%TO.N,PB17*%
X122500000Y-67262000D03*
%TO.P,U?.1,67*%
%TO.N,PB18*%
X123000000Y-67262000D03*
%TO.P,U?.1,66*%
%TO.N,PB19*%
X123500000Y-67262000D03*
%TO.P,U?.1,65*%
%TO.N,PB20*%
X124000000Y-67262000D03*
%TO.P,U?.1,64*%
%TO.N,PB21*%
X124500000Y-67262000D03*
%TO.P,U?.1,63*%
%TO.N,PB22*%
X125000000Y-67262000D03*
%TO.P,U?.1,62*%
%TO.N,PB23*%
X125500000Y-67262000D03*
%TO.P,U?.1,61*%
%TO.N,GND*%
X126000000Y-67262000D03*
%TO.P,U?.1,60*%
%TO.N,+3V3*%
X126500000Y-67262000D03*
%TO.P,U?.1,59*%
%TO.N,VCC*%
X127000000Y-67262000D03*
%TO.P,U?.1,58*%
%TO.N,PB24*%
X127500000Y-67262000D03*
%TO.P,U?.1,57*%
%TO.N,HOST_RESET*%
X128000000Y-67262000D03*
%TO.P,U?.1,56*%
%TO.N,HOST_SWCLK*%
X128500000Y-67262000D03*
%TO.P,U?.1,55*%
%TO.N,HOST_SWDIO*%
X129000000Y-67262000D03*
%TO.P,U?.1,54*%
%TO.N,HOST_SWO*%
X129500000Y-67262000D03*
%TO.P,U?.1,53*%
%TO.N,+3V3*%
X130000000Y-67262000D03*
%TO.P,U?.1,52*%
%TO.N,VCC*%
X130500000Y-67262000D03*
%TO.P,U?.1,51*%
%TO.N,N/C*%
X131000000Y-67262000D03*
D29*
%TO.P,U?.1,50*%
%TO.N,Net-(U?.1-Pad50)*%
X132738000Y-69000000D03*
%TO.P,U?.1,49*%
%TO.N,Net-(U?.1-Pad49)*%
X132738000Y-69500000D03*
%TO.P,U?.1,48*%
%TO.N,N/C*%
X132738000Y-70000000D03*
%TO.P,U?.1,47*%
%TO.N,Net-(C3-Pad2)*%
X132738000Y-70500000D03*
%TO.P,U?.1,46*%
%TO.N,GND*%
X132738000Y-71000000D03*
%TO.P,U?.1,45*%
%TO.N,+3V3*%
X132738000Y-71500000D03*
%TO.P,U?.1,44*%
%TO.N,N/C*%
X132738000Y-72000000D03*
%TO.P,U?.1,43*%
%TO.N,Net-(R2-Pad1)*%
X132738000Y-72500000D03*
%TO.P,U?.1,42*%
%TO.N,+3V3*%
X132738000Y-73000000D03*
%TO.P,U?.1,41*%
%TO.N,PA12*%
X132738000Y-73500000D03*
%TO.P,U?.1,40*%
%TO.N,PA11*%
X132738000Y-74000000D03*
%TO.P,U?.1,39*%
%TO.N,PA10*%
X132738000Y-74500000D03*
%TO.P,U?.1,38*%
%TO.N,PA9*%
X132738000Y-75000000D03*
%TO.P,U?.1,37*%
%TO.N,PA8*%
X132738000Y-75500000D03*
%TO.P,U?.1,36*%
%TO.N,+3V3*%
X132738000Y-76000000D03*
%TO.P,U?.1,35*%
%TO.N,GND*%
X132738000Y-76500000D03*
%TO.P,U?.1,34*%
%TO.N,VCC*%
X132738000Y-77000000D03*
%TO.P,U?.1,33*%
%TO.N,PA7*%
X132738000Y-77500000D03*
%TO.P,U?.1,32*%
%TO.N,PA6*%
X132738000Y-78000000D03*
%TO.P,U?.1,31*%
%TO.N,PA5*%
X132738000Y-78500000D03*
%TO.P,U?.1,30*%
%TO.N,PA4*%
X132738000Y-79000000D03*
%TO.P,U?.1,29*%
%TO.N,PA3*%
X132738000Y-79500000D03*
%TO.P,U?.1,28*%
%TO.N,PA2*%
X132738000Y-80000000D03*
%TO.P,U?.1,27*%
%TO.N,PA1*%
X132738000Y-80500000D03*
%TO.P,U?.1,26*%
%TO.N,PA0*%
X132738000Y-81000000D03*
D30*
%TO.P,U?.1,25*%
%TO.N,PA26*%
X131000000Y-82738000D03*
%TO.P,U?.1,24*%
%TO.N,PA25*%
X130500000Y-82738000D03*
%TO.P,U?.1,23*%
%TO.N,PA24*%
X130000000Y-82738000D03*
%TO.P,U?.1,22*%
%TO.N,+3V3*%
X129500000Y-82738000D03*
%TO.P,U?.1,21*%
%TO.N,PA23*%
X129000000Y-82738000D03*
%TO.P,U?.1,20*%
%TO.N,PA21*%
X128500000Y-82738000D03*
%TO.P,U?.1,19*%
%TO.N,PA20*%
X128000000Y-82738000D03*
%TO.P,U?.1,18*%
%TO.N,PA19*%
X127500000Y-82738000D03*
%TO.P,U?.1,17*%
%TO.N,PA18*%
X127000000Y-82738000D03*
%TO.P,U?.1,16*%
%TO.N,PB15*%
X126500000Y-82738000D03*
%TO.P,U?.1,15*%
%TO.N,PB16*%
X126000000Y-82738000D03*
%TO.P,U?.1,14*%
%TO.N,PA17*%
X125500000Y-82738000D03*
%TO.P,U?.1,13*%
%TO.N,PA16*%
X125000000Y-82738000D03*
%TO.P,U?.1,12*%
%TO.N,PA15*%
X124500000Y-82738000D03*
%TO.P,U?.1,11*%
%TO.N,PA14*%
X124000000Y-82738000D03*
%TO.P,U?.1,10*%
%TO.N,PA13*%
X123500000Y-82738000D03*
%TO.P,U?.1,9*%
%TO.N,VCC*%
X123000000Y-82738000D03*
%TO.P,U?.1,8*%
%TO.N,PB4*%
X122500000Y-82738000D03*
%TO.P,U?.1,7*%
%TO.N,PB3*%
X122000000Y-82738000D03*
%TO.P,U?.1,6*%
%TO.N,PA30*%
X121500000Y-82738000D03*
%TO.P,U?.1,5*%
%TO.N,PA22*%
X121000000Y-82738000D03*
%TO.P,U?.1,4*%
%TO.N,+3V3*%
X120500000Y-82738000D03*
%TO.P,U?.1,3*%
%TO.N,GND*%
X120000000Y-82738000D03*
%TO.P,U?.1,2*%
%TO.N,+3V3*%
X119500000Y-82738000D03*
%TO.P,U?.1,1*%
X119000000Y-82738000D03*
%TD*%
%TO.P,R2,2*%
%TO.N,GND*%
%TA.AperFunction,SMDPad,CuDef*%
G36*
G01*
X135740000Y-72660000D02*
X135740000Y-72340000D01*
G75*
G02*
X135900000Y-72180000I160000J0D01*
G01*
X136295000Y-72180000D01*
G75*
G02*
X136455000Y-72340000I0J-160000D01*
G01*
X136455000Y-72660000D01*
G75*
G02*
X136295000Y-72820000I-160000J0D01*
G01*
X135900000Y-72820000D01*
G75*
G02*
X135740000Y-72660000I0J160000D01*
G01*
G37*
%TD.AperFunction*%
%TO.P,R2,1*%
%TO.N,Net-(R2-Pad1)*%
%TA.AperFunction,SMDPad,CuDef*%
G36*
G01*
X134545000Y-72660000D02*
X134545000Y-72340000D01*
G75*
G02*
X134705000Y-72180000I160000J0D01*
G01*
X135100000Y-72180000D01*
G75*
G02*
X135260000Y-72340000I0J-160000D01*
G01*
X135260000Y-72660000D01*
G75*
G02*
X135100000Y-72820000I-160000J0D01*
G01*
X134705000Y-72820000D01*
G75*
G02*
X134545000Y-72660000I0J160000D01*
G01*
G37*
%TD.AperFunction*%
%TD*%
%TO.P,R1,2*%
%TO.N,GND*%
%TA.AperFunction,SMDPad,CuDef*%
G36*
G01*
X111850000Y-71230000D02*
X111850000Y-71550000D01*
G75*
G02*
X111690000Y-71710000I-160000J0D01*
G01*
X111295000Y-71710000D01*
G75*
G02*
X111135000Y-71550000I0J160000D01*
G01*
X111135000Y-71230000D01*
G75*
G02*
X111295000Y-71070000I160000J0D01*
G01*
X111690000Y-71070000D01*
G75*
G02*
X111850000Y-71230000I0J-160000D01*
G01*
G37*
%TD.AperFunction*%
%TO.P,R1,1*%
%TO.N,Net-(C4-Pad1)*%
%TA.AperFunction,SMDPad,CuDef*%
G36*
G01*
X113045000Y-71230000D02*
X113045000Y-71550000D01*
G75*
G02*
X112885000Y-71710000I-160000J0D01*
G01*
X112490000Y-71710000D01*
G75*
G02*
X112330000Y-71550000I0J160000D01*
G01*
X112330000Y-71230000D01*
G75*
G02*
X112490000Y-71070000I160000J0D01*
G01*
X112885000Y-71070000D01*
G75*
G02*
X113045000Y-71230000I0J-160000D01*
G01*
G37*
%TD.AperFunction*%
%TD*%
%TO.P,C6,2*%
%TO.N,+3V3*%
%TA.AperFunction,SMDPad,CuDef*%
G36*
G01*
X126605000Y-64802500D02*
X126915000Y-64802500D01*
G75*
G02*
X127070000Y-64957500I0J-155000D01*
G01*
X127070000Y-65382500D01*
G75*
G02*
X126915000Y-65537500I-155000J0D01*
G01*
X126605000Y-65537500D01*
G75*
G02*
X126450000Y-65382500I0J155000D01*
G01*
X126450000Y-64957500D01*
G75*
G02*
X126605000Y-64802500I155000J0D01*
G01*
G37*
%TD.AperFunction*%
%TO.P,C6,1*%
%TO.N,GND*%
%TA.AperFunction,SMDPad,CuDef*%
G36*
G01*
X126605000Y-63667500D02*
X126915000Y-63667500D01*
G75*
G02*
X127070000Y-63822500I0J-155000D01*
G01*
X127070000Y-64247500D01*
G75*
G02*
X126915000Y-64402500I-155000J0D01*
G01*
X126605000Y-64402500D01*
G75*
G02*
X126450000Y-64247500I0J155000D01*
G01*
X126450000Y-63822500D01*
G75*
G02*
X126605000Y-63667500I155000J0D01*
G01*
G37*
%TD.AperFunction*%
%TD*%
%TO.P,C5,2*%
%TO.N,VCC*%
%TA.AperFunction,SMDPad,CuDef*%
G36*
G01*
X130900000Y-65325000D02*
X130900000Y-65635000D01*
G75*
G02*
X130745000Y-65790000I-155000J0D01*
G01*
X130320000Y-65790000D01*
G75*
G02*
X130165000Y-65635000I0J155000D01*
G01*
X130165000Y-65325000D01*
G75*
G02*
X130320000Y-65170000I155000J0D01*
G01*
X130745000Y-65170000D01*
G75*
G02*
X130900000Y-65325000I0J-155000D01*
G01*
G37*
%TD.AperFunction*%
%TO.P,C5,1*%
%TO.N,GND*%
%TA.AperFunction,SMDPad,CuDef*%
G36*
G01*
X132035000Y-65325000D02*
X132035000Y-65635000D01*
G75*
G02*
X131880000Y-65790000I-155000J0D01*
G01*
X131455000Y-65790000D01*
G75*
G02*
X131300000Y-65635000I0J155000D01*
G01*
X131300000Y-65325000D01*
G75*
G02*
X131455000Y-65170000I155000J0D01*
G01*
X131880000Y-65170000D01*
G75*
G02*
X132035000Y-65325000I0J-155000D01*
G01*
G37*
%TD.AperFunction*%
%TD*%
%TO.P,C4,2*%
%TO.N,GND*%
%TA.AperFunction,SMDPad,CuDef*%
G36*
G01*
X111890000Y-70225000D02*
X111890000Y-70535000D01*
G75*
G02*
X111735000Y-70690000I-155000J0D01*
G01*
X111310000Y-70690000D01*
G75*
G02*
X111155000Y-70535000I0J155000D01*
G01*
X111155000Y-70225000D01*
G75*
G02*
X111310000Y-70070000I155000J0D01*
G01*
X111735000Y-70070000D01*
G75*
G02*
X111890000Y-70225000I0J-155000D01*
G01*
G37*
%TD.AperFunction*%
%TO.P,C4,1*%
%TO.N,Net-(C4-Pad1)*%
%TA.AperFunction,SMDPad,CuDef*%
G36*
G01*
X113025000Y-70225000D02*
X113025000Y-70535000D01*
G75*
G02*
X112870000Y-70690000I-155000J0D01*
G01*
X112445000Y-70690000D01*
G75*
G02*
X112290000Y-70535000I0J155000D01*
G01*
X112290000Y-70225000D01*
G75*
G02*
X112445000Y-70070000I155000J0D01*
G01*
X112870000Y-70070000D01*
G75*
G02*
X113025000Y-70225000I0J-155000D01*
G01*
G37*
%TD.AperFunction*%
%TD*%
%TO.P,C3,2*%
%TO.N,Net-(C3-Pad2)*%
%TA.AperFunction,SMDPad,CuDef*%
G36*
G01*
X135300000Y-70345000D02*
X135300000Y-70655000D01*
G75*
G02*
X135145000Y-70810000I-155000J0D01*
G01*
X134720000Y-70810000D01*
G75*
G02*
X134565000Y-70655000I0J155000D01*
G01*
X134565000Y-70345000D01*
G75*
G02*
X134720000Y-70190000I155000J0D01*
G01*
X135145000Y-70190000D01*
G75*
G02*
X135300000Y-70345000I0J-155000D01*
G01*
G37*
%TD.AperFunction*%
%TO.P,C3,1*%
%TO.N,GND*%
%TA.AperFunction,SMDPad,CuDef*%
G36*
G01*
X136435000Y-70345000D02*
X136435000Y-70655000D01*
G75*
G02*
X136280000Y-70810000I-155000J0D01*
G01*
X135855000Y-70810000D01*
G75*
G02*
X135700000Y-70655000I0J155000D01*
G01*
X135700000Y-70345000D01*
G75*
G02*
X135855000Y-70190000I155000J0D01*
G01*
X136280000Y-70190000D01*
G75*
G02*
X136435000Y-70345000I0J-155000D01*
G01*
G37*
%TD.AperFunction*%
%TD*%
%TO.P,C2,2*%
%TO.N,Net-(C2-Pad2)*%
%TA.AperFunction,SMDPad,CuDef*%
G36*
G01*
X116645000Y-64340000D02*
X116955000Y-64340000D01*
G75*
G02*
X117110000Y-64495000I0J-155000D01*
G01*
X117110000Y-64920000D01*
G75*
G02*
X116955000Y-65075000I-155000J0D01*
G01*
X116645000Y-65075000D01*
G75*
G02*
X116490000Y-64920000I0J155000D01*
G01*
X116490000Y-64495000D01*
G75*
G02*
X116645000Y-64340000I155000J0D01*
G01*
G37*
%TD.AperFunction*%
%TO.P,C2,1*%
%TO.N,GND*%
%TA.AperFunction,SMDPad,CuDef*%
G36*
G01*
X116645000Y-63205000D02*
X116955000Y-63205000D01*
G75*
G02*
X117110000Y-63360000I0J-155000D01*
G01*
X117110000Y-63785000D01*
G75*
G02*
X116955000Y-63940000I-155000J0D01*
G01*
X116645000Y-63940000D01*
G75*
G02*
X116490000Y-63785000I0J155000D01*
G01*
X116490000Y-63360000D01*
G75*
G02*
X116645000Y-63205000I155000J0D01*
G01*
G37*
%TD.AperFunction*%
%TD*%
%TO.P,C1,2*%
%TO.N,Net-(C1-Pad2)*%
%TA.AperFunction,SMDPad,CuDef*%
G36*
G01*
X112375000Y-63930000D02*
X112065000Y-63930000D01*
G75*
G02*
X111910000Y-63775000I0J155000D01*
G01*
X111910000Y-63350000D01*
G75*
G02*
X112065000Y-63195000I155000J0D01*
G01*
X112375000Y-63195000D01*
G75*
G02*
X112530000Y-63350000I0J-155000D01*
G01*
X112530000Y-63775000D01*
G75*
G02*
X112375000Y-63930000I-155000J0D01*
G01*
G37*
%TD.AperFunction*%
%TO.P,C1,1*%
%TO.N,GND*%
%TA.AperFunction,SMDPad,CuDef*%
G36*
G01*
X112375000Y-65065000D02*
X112065000Y-65065000D01*
G75*
G02*
X111910000Y-64910000I0J155000D01*
G01*
X111910000Y-64485000D01*
G75*
G02*
X112065000Y-64330000I155000J0D01*
G01*
X112375000Y-64330000D01*
G75*
G02*
X112530000Y-64485000I0J-155000D01*
G01*
X112530000Y-64910000D01*
G75*
G02*
X112375000Y-65065000I-155000J0D01*
G01*
G37*
%TD.AperFunction*%
%TD*%
D31*
%TO.N,GND*%
X131228320Y-76111392D03*
X127000000Y-60630000D03*
X123740000Y-69380000D03*
X118540000Y-63650000D03*
X112320000Y-65610000D03*
X132060000Y-64050000D03*
X124960000Y-71790000D03*
X137610000Y-69600000D03*
X113080000Y-75710000D03*
X122320000Y-74790000D03*
X120490000Y-71820000D03*
X109810000Y-73780000D03*
X109520000Y-65060000D03*
X107920000Y-82210000D03*
X109115000Y-65465000D03*
X109300000Y-73270000D03*
X119410000Y-80120000D03*
X120240000Y-85430000D03*
X136780000Y-75450000D03*
X143490000Y-86720000D03*
%TO.N,VCC*%
X123000000Y-81230000D03*
X127010000Y-68930000D03*
X118720000Y-72260000D03*
X119890000Y-69120000D03*
X130670000Y-76710000D03*
X119350000Y-76300000D03*
X132390000Y-67340000D03*
%TO.N,+3V3*%
X129510000Y-81310000D03*
X118810000Y-75000000D03*
X107820000Y-89430000D03*
X118050000Y-85030000D03*
X143950000Y-93030000D03*
X142690000Y-89140000D03*
X135370000Y-75020000D03*
%TO.N,PA29*%
X123842316Y-74276742D03*
X135729378Y-88704982D03*
%TO.N,PA28*%
X124100000Y-73680000D03*
X135810000Y-88060000D03*
%TO.N,PA12*%
X129060000Y-73520000D03*
%TO.N,PA11*%
X129509296Y-74050000D03*
X143676091Y-76963909D03*
%TO.N,PA10*%
X129939427Y-74550000D03*
%TO.N,PA9*%
X130412694Y-75050000D03*
%TO.N,PA8*%
X130900690Y-75550000D03*
%TO.N,PA7*%
X129617737Y-77871802D03*
%TO.N,PA6*%
X129668986Y-78598371D03*
%TO.N,PA5*%
X130297023Y-78765916D03*
%TO.N,PA4*%
X130440379Y-79400379D03*
%TO.N,PA3*%
X130900000Y-79860000D03*
%TO.N,PA2*%
X134259160Y-80270840D03*
%TO.N,PA25*%
X139830000Y-91779990D03*
%TO.N,PA18*%
X118560000Y-91750000D03*
X126130000Y-80780000D03*
%TO.N,PA17*%
X118540000Y-89520000D03*
%TO.N,PA15*%
X120180000Y-91740000D03*
%TO.N,HOST_SWCLK*%
X134870000Y-60690000D03*
%TO.N,HOST_SWO*%
X131890371Y-61850689D03*
%TO.N,VBUS*%
X109620000Y-71580000D03*
X109560000Y-66790000D03*
X108000000Y-77190000D03*
X108720000Y-85190000D03*
X107820000Y-86090000D03*
X107190000Y-78010000D03*
X107620000Y-77610000D03*
X108940000Y-71700000D03*
X108950000Y-66800000D03*
%TO.N,PA31*%
X116010000Y-73600000D03*
%TD*%
D32*
%TO.N,Net-(C1-Pad2)*%
X112752500Y-63030000D02*
X112220000Y-63562500D01*
X113650000Y-63030000D02*
X112752500Y-63030000D01*
D33*
X113650000Y-62080000D02*
X113650000Y-63030000D01*
X113725001Y-62004999D02*
X113650000Y-62080000D01*
X116278837Y-62004999D02*
X113725001Y-62004999D01*
X117435010Y-64224508D02*
X117435010Y-63161172D01*
X117435010Y-63161172D02*
X116278837Y-62004999D01*
X119500000Y-66289498D02*
X117435010Y-64224508D01*
X119500000Y-67262000D02*
X119500000Y-66289498D01*
D32*
%TO.N,GND*%
X111522500Y-71360000D02*
X111492500Y-71390000D01*
X111522500Y-70380000D02*
X111522500Y-71360000D01*
X115010000Y-74687500D02*
X114020000Y-74687500D01*
X115822500Y-75500000D02*
X115010000Y-74687500D01*
X117262000Y-75500000D02*
X115822500Y-75500000D01*
X115892500Y-63572500D02*
X115350000Y-63030000D01*
X116800000Y-63572500D02*
X115892500Y-63572500D01*
X112752500Y-65230000D02*
X112220000Y-64697500D01*
X113650000Y-65230000D02*
X112752500Y-65230000D01*
D33*
X136067500Y-71500000D02*
X136067500Y-70500000D01*
X136067500Y-72470000D02*
X136097500Y-72500000D01*
X136067500Y-71500000D02*
X136067500Y-72470000D01*
X131616928Y-76500000D02*
X131228320Y-76111392D01*
X132738000Y-76500000D02*
X131616928Y-76500000D01*
X126049990Y-66170010D02*
X126049990Y-64745010D01*
X126049990Y-64745010D02*
X126760000Y-64035000D01*
X126000000Y-66220000D02*
X126049990Y-66170010D01*
X126000000Y-67262000D02*
X126000000Y-66220000D01*
X113650000Y-65130000D02*
X115350000Y-63430000D01*
X115350000Y-63430000D02*
X115350000Y-63030000D01*
X113650000Y-65230000D02*
X113650000Y-65130000D01*
X126000000Y-68249500D02*
X124869500Y-69380000D01*
X124869500Y-69380000D02*
X123740000Y-69380000D01*
X126000000Y-67262000D02*
X126000000Y-68249500D01*
X120500000Y-64782500D02*
X119750000Y-64032500D01*
X120500000Y-67262000D02*
X120500000Y-64782500D01*
X118922500Y-64032500D02*
X118540000Y-63650000D01*
X119750000Y-64032500D02*
X118922500Y-64032500D01*
X112700000Y-65230000D02*
X112320000Y-65610000D01*
X113650000Y-65230000D02*
X112700000Y-65230000D01*
X131667500Y-64442500D02*
X132060000Y-64050000D01*
X131667500Y-65480000D02*
X131667500Y-64442500D01*
D34*
X107870047Y-91679953D02*
X107820000Y-91730000D01*
X103630000Y-93920000D02*
X103630000Y-95480000D01*
X105820000Y-91730000D02*
X103630000Y-93920000D01*
X107820000Y-91730000D02*
X105820000Y-91730000D01*
D33*
X136067500Y-77000000D02*
X136067500Y-76000000D01*
X125750000Y-71000000D02*
X124960000Y-71790000D01*
X132738000Y-71000000D02*
X125750000Y-71000000D01*
X136710000Y-70500000D02*
X137610000Y-69600000D01*
X136067500Y-70500000D02*
X136710000Y-70500000D01*
X114020000Y-74770000D02*
X113080000Y-75710000D01*
X114020000Y-74687500D02*
X114020000Y-74770000D01*
X120379999Y-71709999D02*
X120490000Y-71820000D01*
X118455999Y-71709999D02*
X120379999Y-71709999D01*
X118165998Y-72000000D02*
X118455999Y-71709999D01*
X117262000Y-72000000D02*
X118165998Y-72000000D01*
D35*
X107225000Y-72500000D02*
X108530000Y-72500000D01*
X107225000Y-66000000D02*
X108580000Y-66000000D01*
D36*
X107043824Y-81333824D02*
X107920000Y-82210000D01*
X105900000Y-81333824D02*
X107043824Y-81333824D01*
D35*
X109520000Y-65060000D02*
X109115000Y-65465000D01*
X108580000Y-66000000D02*
X109115000Y-65465000D01*
X109810000Y-73780000D02*
X109300000Y-73270000D01*
X108530000Y-72500000D02*
X109300000Y-73270000D01*
D32*
X111180000Y-71390000D02*
X109300000Y-73270000D01*
X111492500Y-71390000D02*
X111180000Y-71390000D01*
X104317490Y-62129990D02*
X104987500Y-62800000D01*
X102222510Y-62129990D02*
X104317490Y-62129990D01*
X101552500Y-62800000D02*
X102222510Y-62129990D01*
X108192095Y-65060000D02*
X109520000Y-65060000D01*
X105932095Y-62800000D02*
X108192095Y-65060000D01*
X104987500Y-62800000D02*
X105932095Y-62800000D01*
D35*
X109582500Y-91730000D02*
X110330000Y-90982500D01*
X107820000Y-91730000D02*
X109582500Y-91730000D01*
X105317500Y-62470000D02*
X104987500Y-62800000D01*
X105317500Y-60310000D02*
X105317500Y-62470000D01*
D33*
X118500000Y-86067500D02*
X119500000Y-86067500D01*
X120000000Y-80710000D02*
X119410000Y-80120000D01*
X120000000Y-82738000D02*
X120000000Y-80710000D01*
X119602500Y-86067500D02*
X120240000Y-85430000D01*
X119500000Y-86067500D02*
X119602500Y-86067500D01*
X136230000Y-76000000D02*
X136780000Y-75450000D01*
X136067500Y-76000000D02*
X136230000Y-76000000D01*
X143480000Y-86730000D02*
X143490000Y-86720000D01*
X141850000Y-86730000D02*
X143480000Y-86730000D01*
X138469970Y-70459970D02*
X137610000Y-69600000D01*
X145260000Y-70459970D02*
X138469970Y-70459970D01*
D32*
%TO.N,Net-(C2-Pad2)*%
X119000000Y-66907500D02*
X116800000Y-64707500D01*
X119000000Y-67262000D02*
X119000000Y-66907500D01*
X115872500Y-64707500D02*
X115350000Y-65230000D01*
X116800000Y-64707500D02*
X115872500Y-64707500D01*
%TO.N,Net-(C3-Pad2)*%
X132738000Y-70500000D02*
X134932500Y-70500000D01*
%TO.N,Net-(C4-Pad1)*%
X113037500Y-70000000D02*
X112657500Y-70380000D01*
X117262000Y-70000000D02*
X113037500Y-70000000D01*
X112657500Y-71360000D02*
X112687500Y-71390000D01*
X112657500Y-70380000D02*
X112657500Y-71360000D01*
%TO.N,VCC*%
X132738000Y-77000000D02*
X134932500Y-77000000D01*
X115957500Y-74500000D02*
X115010000Y-73552500D01*
X117262000Y-74500000D02*
X115957500Y-74500000D01*
X116062500Y-72500000D02*
X115010000Y-73552500D01*
X117262000Y-72500000D02*
X116062500Y-72500000D01*
X115010000Y-73552500D02*
X114020000Y-73552500D01*
D33*
X123000000Y-82738000D02*
X123000000Y-81230000D01*
X127000000Y-68920000D02*
X127010000Y-68930000D01*
X127000000Y-67262000D02*
X127000000Y-68920000D01*
X120000000Y-65417500D02*
X119750000Y-65167500D01*
X120000000Y-67262000D02*
X120000000Y-65417500D01*
X118480000Y-72500000D02*
X118720000Y-72260000D01*
X117262000Y-72500000D02*
X118480000Y-72500000D01*
X117262000Y-74500000D02*
X118249500Y-74500000D01*
X120000000Y-69010000D02*
X119890000Y-69120000D01*
X120000000Y-67262000D02*
X120000000Y-69010000D01*
X130960000Y-77000000D02*
X130670000Y-76710000D01*
X132738000Y-77000000D02*
X130960000Y-77000000D01*
X130500000Y-65512500D02*
X130532500Y-65480000D01*
X130500000Y-67262000D02*
X130500000Y-65512500D01*
X119360001Y-76289999D02*
X119350000Y-76300000D01*
X119360001Y-74735999D02*
X119360001Y-76289999D01*
X119074001Y-74449999D02*
X119360001Y-74735999D01*
X118299501Y-74449999D02*
X119074001Y-74449999D01*
X118249500Y-74500000D02*
X118299501Y-74449999D01*
X132390000Y-67179498D02*
X132390000Y-67340000D01*
X131251999Y-66199499D02*
X131410001Y-66199499D01*
X131410001Y-66199499D02*
X132390000Y-67179498D01*
X130532500Y-65480000D02*
X131251999Y-66199499D01*
D32*
%TO.N,+3V3*%
X132738000Y-71500000D02*
X134932500Y-71500000D01*
X132738000Y-76000000D02*
X134932500Y-76000000D01*
X119500000Y-82738000D02*
X119500000Y-84932500D01*
X119000000Y-84432500D02*
X118500000Y-84932500D01*
X119000000Y-82738000D02*
X119000000Y-84432500D01*
X120500000Y-83932500D02*
X119500000Y-84932500D01*
X120500000Y-82738000D02*
X120500000Y-83932500D01*
X119500000Y-84932500D02*
X118500000Y-84932500D01*
D33*
X129500000Y-81320000D02*
X129510000Y-81310000D01*
X129500000Y-82738000D02*
X129500000Y-81320000D01*
X117262000Y-75000000D02*
X118810000Y-75000000D01*
X126500000Y-65430000D02*
X126760000Y-65170000D01*
X126500000Y-67262000D02*
X126500000Y-65430000D01*
X131765498Y-73000000D02*
X132738000Y-73000000D01*
X131675499Y-72910001D02*
X131765498Y-73000000D01*
X131675499Y-71589999D02*
X131675499Y-72910001D01*
X131765498Y-71500000D02*
X131675499Y-71589999D01*
X132738000Y-71500000D02*
X131765498Y-71500000D01*
D34*
X107820000Y-89430000D02*
X101520000Y-89430000D01*
D33*
X128509999Y-80309999D02*
X129510000Y-81310000D01*
X130265998Y-71500000D02*
X128509999Y-73255999D01*
X134932500Y-71500000D02*
X130265998Y-71500000D01*
X118585001Y-75224999D02*
X118810000Y-75000000D01*
X120500000Y-78264002D02*
X118585001Y-76349003D01*
X118585001Y-76349003D02*
X118585001Y-75224999D01*
X120500000Y-82738000D02*
X120500000Y-78264002D01*
X124754001Y-73519999D02*
X128509999Y-73519999D01*
X121734002Y-70500000D02*
X124754001Y-73519999D01*
X128509999Y-73519999D02*
X128509999Y-80309999D01*
X128509999Y-73255999D02*
X128509999Y-73519999D01*
X123765996Y-78264002D02*
X128509999Y-73519999D01*
X120500000Y-78264002D02*
X123765996Y-78264002D01*
D35*
X118402500Y-85030000D02*
X118500000Y-84932500D01*
X118050000Y-85030000D02*
X118402500Y-85030000D01*
X108757500Y-89430000D02*
X110330000Y-87857500D01*
X107820000Y-89430000D02*
X108757500Y-89430000D01*
D32*
X130000000Y-68299500D02*
X127799500Y-70500000D01*
D33*
X121540000Y-70500000D02*
X121734002Y-70500000D01*
D32*
X130000000Y-67262000D02*
X130000000Y-68299500D01*
D33*
X117262000Y-70500000D02*
X121540000Y-70500000D01*
D32*
X126500000Y-67262000D02*
X126500000Y-68588998D01*
X125490000Y-70500000D02*
X121540000Y-70500000D01*
X125490000Y-69598998D02*
X125490000Y-70500000D01*
X126500000Y-68588998D02*
X125490000Y-69598998D01*
X127799500Y-70500000D02*
X125490000Y-70500000D01*
D33*
X143422500Y-92502500D02*
X143950000Y-93030000D01*
X143422500Y-92080000D02*
X143422500Y-92502500D01*
X143475000Y-89925000D02*
X142690000Y-89140000D01*
X143475000Y-90180000D02*
X143475000Y-89925000D01*
X134932500Y-75457500D02*
X135370000Y-75020000D01*
X134932500Y-76000000D02*
X134932500Y-75457500D01*
D32*
%TO.N,Net-(R2-Pad1)*%
X132738000Y-72500000D02*
X134902500Y-72500000D01*
D33*
X135699100Y-73145010D02*
X136544990Y-73145010D01*
X135054090Y-72500000D02*
X135699100Y-73145010D01*
X136544990Y-73145010D02*
X137500000Y-72190000D01*
X134902500Y-72500000D02*
X135054090Y-72500000D01*
D32*
%TO.N,PB8*%
X117669999Y-96819999D02*
X118870000Y-98020000D01*
X117669999Y-94969999D02*
X117669999Y-96819999D01*
X117262000Y-94562000D02*
X117669999Y-94969999D01*
X117262000Y-81000000D02*
X117262000Y-94562000D01*
%TO.N,PB7*%
X116761990Y-82271990D02*
X116761990Y-95048010D01*
X116174499Y-81684499D02*
X116761990Y-82271990D01*
X116761990Y-95048010D02*
X116330000Y-95480000D01*
D33*
X116150000Y-81670000D02*
X116150000Y-80560000D01*
X116210000Y-80500000D02*
X117262000Y-80500000D01*
X116164499Y-81684499D02*
X116150000Y-81670000D01*
X116150000Y-80560000D02*
X116210000Y-80500000D01*
X116174499Y-81684499D02*
X116164499Y-81684499D01*
D32*
%TO.N,PB6*%
X115129999Y-94903999D02*
X115129999Y-96819999D01*
X115674489Y-80362889D02*
X115674489Y-81891609D01*
X115129999Y-96819999D02*
X116330000Y-98020000D01*
X116261980Y-82479100D02*
X116261980Y-93772018D01*
X115674489Y-81891609D02*
X116261980Y-82479100D01*
X116037387Y-79999991D02*
X115674489Y-80362889D01*
X116451611Y-79999991D02*
X116037387Y-79999991D01*
X116451620Y-80000000D02*
X116451611Y-79999991D01*
X116261980Y-93772018D02*
X115129999Y-94903999D01*
X117262000Y-80000000D02*
X116451620Y-80000000D01*
%TO.N,PB5*%
X113790000Y-95480000D02*
X115761970Y-93508030D01*
X115761970Y-93508030D02*
X115761970Y-84030000D01*
X115761970Y-82686210D02*
X115174479Y-82098719D01*
X115761970Y-84030000D02*
X115761970Y-82686210D01*
X115174479Y-80155779D02*
X115830275Y-79499983D01*
X115174479Y-82098719D02*
X115174479Y-80155779D01*
X115830275Y-79499983D02*
X115830277Y-79499981D01*
D33*
X117262000Y-79500000D02*
X116000038Y-79500000D01*
D32*
X116000019Y-79499981D02*
X116460000Y-79499981D01*
D33*
X116000038Y-79500000D02*
X116000019Y-79499981D01*
D32*
X115830277Y-79499981D02*
X116000019Y-79499981D01*
D33*
%TO.N,PA27*%
X114699469Y-79959024D02*
X114699469Y-82295473D01*
X114699469Y-82295473D02*
X115286960Y-82882964D01*
X115658494Y-79000000D02*
X114699469Y-79959024D01*
X117262000Y-79000000D02*
X115658494Y-79000000D01*
X115286960Y-82882964D02*
X115286960Y-93311276D01*
X115286960Y-93311276D02*
X114518236Y-94080000D01*
X113450998Y-94080000D02*
X112614999Y-94915999D01*
X114518236Y-94080000D02*
X113450998Y-94080000D01*
X112614999Y-96844999D02*
X113790000Y-98020000D01*
X112614999Y-94915999D02*
X112614999Y-96844999D01*
%TO.N,PB13*%
X113100010Y-93629990D02*
X111250000Y-95480000D01*
X114331836Y-93629990D02*
X113100010Y-93629990D01*
X114836950Y-93124876D02*
X114331836Y-93629990D01*
X114249459Y-82489459D02*
X114836950Y-83076950D01*
X114836950Y-83076950D02*
X114836950Y-93124876D01*
X114249459Y-79772624D02*
X114249459Y-82489459D01*
X115522083Y-78500000D02*
X114249459Y-79772624D01*
X117262000Y-78500000D02*
X115522083Y-78500000D01*
%TO.N,PB12*%
X113799449Y-82909449D02*
X114386940Y-83496940D01*
X113799449Y-79586224D02*
X113799449Y-82909449D01*
X115385673Y-78000000D02*
X113799449Y-79586224D01*
X117262000Y-78000000D02*
X115385673Y-78000000D01*
X114386940Y-92923060D02*
X114130020Y-93179980D01*
X114386940Y-83496940D02*
X114386940Y-92923060D01*
X114130020Y-93179980D02*
X112913609Y-93179981D01*
X110074999Y-94915999D02*
X110074999Y-96844999D01*
X110074999Y-96844999D02*
X111250000Y-98020000D01*
X110685999Y-94304999D02*
X110074999Y-94915999D01*
X111788591Y-94304999D02*
X110685999Y-94304999D01*
X112913609Y-93179981D02*
X111788591Y-94304999D01*
%TO.N,PB11*%
X113349439Y-83219439D02*
X113936930Y-83806930D01*
X113349439Y-79399824D02*
X113349439Y-83219439D01*
X115249263Y-77500000D02*
X113349439Y-79399824D01*
X117262000Y-77500000D02*
X115249263Y-77500000D01*
X113936930Y-83806930D02*
X113936930Y-92423070D01*
X113630028Y-92729972D02*
X112727208Y-92729972D01*
X113936930Y-92423070D02*
X113630028Y-92729972D01*
X110335011Y-93854989D02*
X108710000Y-95480000D01*
X111602191Y-93854989D02*
X110335011Y-93854989D01*
X112727208Y-92729972D02*
X111602191Y-93854989D01*
%TO.N,PB2*%
X112899429Y-83549429D02*
X113486920Y-84136920D01*
X112899429Y-79213424D02*
X112899429Y-83549429D01*
X115112853Y-77000000D02*
X112899429Y-79213424D01*
X117262000Y-77000000D02*
X115112853Y-77000000D01*
X113486920Y-84136920D02*
X113486920Y-92163080D01*
X113370038Y-92279962D02*
X112540807Y-92279963D01*
X113486920Y-92163080D02*
X113370038Y-92279962D01*
X111415791Y-93404979D02*
X110148610Y-93404980D01*
X112540807Y-92279963D02*
X111415791Y-93404979D01*
X107534999Y-94915999D02*
X107534999Y-96844999D01*
X108145999Y-94304999D02*
X107534999Y-94915999D01*
X107534999Y-96844999D02*
X108710000Y-98020000D01*
X109248591Y-94304999D02*
X108145999Y-94304999D01*
X110148610Y-93404980D02*
X109248591Y-94304999D01*
%TO.N,PB1*%
X114976443Y-76500000D02*
X112449419Y-79027024D01*
X117262000Y-76500000D02*
X114976443Y-76500000D01*
X112449420Y-83735830D02*
X113036910Y-84323320D01*
X112449419Y-79027024D02*
X112449420Y-83735830D01*
X112650046Y-91829954D02*
X112354406Y-91829954D01*
X113036910Y-91443090D02*
X112650046Y-91829954D01*
X113036910Y-84323320D02*
X113036910Y-91443090D01*
X111229389Y-92954971D02*
X109962209Y-92954971D01*
X112354406Y-91829954D02*
X111229389Y-92954971D01*
X107795011Y-93854989D02*
X106170000Y-95480000D01*
X109062191Y-93854989D02*
X107795011Y-93854989D01*
X109962209Y-92954971D02*
X109062191Y-93854989D01*
%TO.N,PB0*%
X114840033Y-76000000D02*
X111999410Y-78840625D01*
X117262000Y-76000000D02*
X114840033Y-76000000D01*
X111999411Y-83922231D02*
X112586900Y-84509720D01*
X111999410Y-78840625D02*
X111999411Y-83922231D01*
X112586900Y-84509720D02*
X112586900Y-90961050D01*
X111042989Y-92504961D02*
X109775808Y-92504962D01*
X112586900Y-90961050D02*
X111042989Y-92504961D01*
X108875791Y-93404979D02*
X107608610Y-93404980D01*
X109775808Y-92504962D02*
X108875791Y-93404979D01*
X105605999Y-94304999D02*
X104994999Y-94915999D01*
X106708591Y-94304999D02*
X105605999Y-94304999D01*
X107608610Y-93404980D02*
X106708591Y-94304999D01*
X104994999Y-96844999D02*
X106170000Y-98020000D01*
X104994999Y-94915999D02*
X104994999Y-96844999D01*
%TO.N,PA29*%
X123065574Y-73500000D02*
X123842316Y-74276742D01*
X117262000Y-73500000D02*
X123065574Y-73500000D01*
X147219990Y-91229990D02*
X147970000Y-91980000D01*
X138254386Y-91229990D02*
X147219990Y-91229990D01*
X135729378Y-88704982D02*
X138254386Y-91229990D01*
%TO.N,PA28*%
X117262000Y-73000000D02*
X123420000Y-73000000D01*
X123420000Y-73000000D02*
X124100000Y-73680000D01*
X145850000Y-88060000D02*
X147970000Y-90180000D01*
X135810000Y-88060000D02*
X145850000Y-88060000D01*
D32*
%TO.N,USB_FS_DP*%
X114990806Y-71500000D02*
X112040000Y-74450806D01*
X117262000Y-71500000D02*
X114990806Y-71500000D01*
X112040000Y-74450806D02*
X112040000Y-76570000D01*
X108576176Y-80033824D02*
X105900000Y-80033824D01*
X112040000Y-76570000D02*
X108576176Y-80033824D01*
%TO.N,USB_FS_DM*%
X114783686Y-71000000D02*
X111539990Y-74243696D01*
X117262000Y-71000000D02*
X114783686Y-71000000D01*
X111539990Y-74243696D02*
X111539990Y-76362890D01*
X108519056Y-79383824D02*
X105900000Y-79383824D01*
X111539990Y-76362890D02*
X108519056Y-79383824D01*
%TO.N,USB_HS_DM*%
X117262000Y-69500000D02*
X107225000Y-69500000D01*
D33*
X118234502Y-68500000D02*
X107225000Y-68500000D01*
X118324501Y-68589999D02*
X118234502Y-68500000D01*
X118249500Y-69500000D02*
X118324501Y-69424999D01*
X118324501Y-69424999D02*
X118324501Y-68589999D01*
X117262000Y-69500000D02*
X118249500Y-69500000D01*
D32*
%TO.N,USB_HS_DP*%
X117262000Y-69000000D02*
X107225000Y-69000000D01*
D33*
X106264998Y-69000000D02*
X107225000Y-69000000D01*
X106174999Y-69089999D02*
X106264998Y-69000000D01*
X106250000Y-70000000D02*
X106174999Y-69924999D01*
X106174999Y-69924999D02*
X106174999Y-69089999D01*
X107225000Y-70000000D02*
X106250000Y-70000000D01*
%TO.N,PB9*%
X121000000Y-63986162D02*
X114893838Y-57880000D01*
X121000000Y-67262000D02*
X121000000Y-63986162D01*
X114893838Y-57880000D02*
X113300000Y-57880000D01*
X111200000Y-55780000D02*
X111200000Y-54750000D01*
X113300000Y-57880000D02*
X111200000Y-55780000D01*
%TO.N,PB10*%
X121500000Y-63849752D02*
X115080238Y-57429990D01*
X121500000Y-67262000D02*
X121500000Y-63849752D01*
X115080238Y-57429990D02*
X113499990Y-57429990D01*
X112375001Y-53385001D02*
X111200000Y-52210000D01*
X112375001Y-56305001D02*
X112375001Y-53385001D01*
X113499990Y-57429990D02*
X112375001Y-56305001D01*
%TO.N,PB14*%
X122000000Y-67262000D02*
X122000000Y-63713342D01*
X122000000Y-63713342D02*
X115266638Y-56979980D01*
X115266638Y-56979980D02*
X114279980Y-56979980D01*
X113740000Y-56440000D02*
X113740000Y-54750000D01*
X114279980Y-56979980D02*
X113740000Y-56440000D01*
%TO.N,PB17*%
X122500000Y-67262000D02*
X122500000Y-63576932D01*
X114915001Y-53385001D02*
X113740000Y-52210000D01*
X114915001Y-55991933D02*
X114915001Y-53385001D01*
X122500000Y-63576932D02*
X114915001Y-55991933D01*
%TO.N,PB18*%
X123000000Y-67262000D02*
X123000000Y-63440522D01*
X116280000Y-56720522D02*
X116280000Y-54750000D01*
X123000000Y-63440522D02*
X116280000Y-56720522D01*
%TO.N,PB19*%
X123500000Y-67262000D02*
X123500000Y-63304112D01*
X117455001Y-53385001D02*
X116280000Y-52210000D01*
X117455001Y-57259113D02*
X117455001Y-53385001D01*
X123500000Y-63304112D02*
X117455001Y-57259113D01*
%TO.N,PB20*%
X124000000Y-67262000D02*
X124000000Y-63167702D01*
X124000000Y-63167702D02*
X118780000Y-57947702D01*
X118780000Y-54790000D02*
X118820000Y-54750000D01*
X118780000Y-57947702D02*
X118780000Y-54790000D01*
%TO.N,PB21*%
X124500000Y-67262000D02*
X124500000Y-63031292D01*
X119995001Y-53385001D02*
X118820000Y-52210000D01*
X119995001Y-58526293D02*
X119995001Y-53385001D01*
X124500000Y-63031292D02*
X119995001Y-58526293D01*
%TO.N,PB22*%
X125000000Y-67262000D02*
X125000000Y-62894882D01*
X121360000Y-59254882D02*
X121360000Y-54750000D01*
X125000000Y-62894882D02*
X121360000Y-59254882D01*
%TO.N,PB23*%
X125500000Y-67262000D02*
X125500000Y-62758472D01*
X125500000Y-62758472D02*
X122630000Y-59888472D01*
X122630000Y-53480000D02*
X121360000Y-52210000D01*
X122630000Y-59888472D02*
X122630000Y-53480000D01*
%TO.N,PB24*%
X127500000Y-67262000D02*
X127500000Y-63140000D01*
X123900000Y-59540000D02*
X123900000Y-54750000D01*
X127500000Y-63140000D02*
X123900000Y-59540000D01*
%TO.N,PA12*%
X132738000Y-73500000D02*
X132330000Y-73500000D01*
X129080000Y-73500000D02*
X129060000Y-73520000D01*
X132738000Y-73500000D02*
X129080000Y-73500000D01*
X135417680Y-73500000D02*
X135537680Y-73620000D01*
X132738000Y-73500000D02*
X135417680Y-73500000D01*
X135537680Y-73620000D02*
X141110000Y-73620000D01*
X141110000Y-73620000D02*
X144820000Y-77330000D01*
X144820000Y-78940000D02*
X146140000Y-80260000D01*
X144820000Y-77330000D02*
X144820000Y-78940000D01*
%TO.N,PA11*%
X129559296Y-74000000D02*
X129509296Y-74050000D01*
X132738000Y-74000000D02*
X129559296Y-74000000D01*
X135351280Y-74070010D02*
X140923600Y-74070010D01*
X135281270Y-74000000D02*
X135351280Y-74070010D01*
X132738000Y-74000000D02*
X135281270Y-74000000D01*
X140923600Y-74211418D02*
X143676091Y-76963909D01*
X140923600Y-74070010D02*
X140923600Y-74211418D01*
%TO.N,PA10*%
X129989427Y-74500000D02*
X129939427Y-74550000D01*
X132738000Y-74500000D02*
X129989427Y-74500000D01*
%TO.N,PA9*%
X130462694Y-75000000D02*
X130412694Y-75050000D01*
X132738000Y-75000000D02*
X130462694Y-75000000D01*
%TO.N,PA8*%
X130950690Y-75500000D02*
X130900690Y-75550000D01*
X132738000Y-75500000D02*
X130950690Y-75500000D01*
%TO.N,PA7*%
X129989539Y-77500000D02*
X129617737Y-77871802D01*
X132738000Y-77500000D02*
X129989539Y-77500000D01*
%TO.N,PA6*%
X132738000Y-78000000D02*
X131561290Y-78000000D01*
X130267357Y-78000000D02*
X129668986Y-78598371D01*
X131561290Y-78000000D02*
X130267357Y-78000000D01*
%TO.N,PA5*%
X130562939Y-78500000D02*
X130297023Y-78765916D01*
X132738000Y-78500000D02*
X130562939Y-78500000D01*
%TO.N,PA4*%
X136102500Y-79000000D02*
X136380000Y-78722500D01*
X132738000Y-79000000D02*
X136102500Y-79000000D01*
X132738000Y-79000000D02*
X131634002Y-79000000D01*
X131574001Y-79060001D02*
X130780757Y-79060001D01*
X130780757Y-79060001D02*
X130440379Y-79400379D01*
X131634002Y-79000000D02*
X131574001Y-79060001D01*
%TO.N,PA3*%
X135962500Y-79500000D02*
X136380000Y-79917500D01*
X132738000Y-79500000D02*
X135962500Y-79500000D01*
X139609090Y-84070000D02*
X146140000Y-84070000D01*
X136380000Y-80840910D02*
X139609090Y-84070000D01*
X136380000Y-79917500D02*
X136380000Y-80840910D01*
X131390500Y-79860000D02*
X130900000Y-79860000D01*
X131750500Y-79500000D02*
X131390500Y-79860000D01*
X132738000Y-79500000D02*
X131750500Y-79500000D01*
%TO.N,PA2*%
X133988320Y-80000000D02*
X134259160Y-80270840D01*
X132738000Y-80000000D02*
X133988320Y-80000000D01*
%TO.N,PA1*%
X133710502Y-80500000D02*
X133920000Y-80709498D01*
X132738000Y-80500000D02*
X133710502Y-80500000D01*
X133944913Y-90054913D02*
X135078729Y-90054914D01*
X133920000Y-90030000D02*
X133944913Y-90054913D01*
X133920000Y-80709498D02*
X133920000Y-90030000D01*
X137078766Y-92054951D02*
X138804182Y-92054952D01*
X135078729Y-90054914D02*
X137078766Y-92054951D01*
X139704199Y-92954969D02*
X140741380Y-92954970D01*
X138804182Y-92054952D02*
X139704199Y-92954969D01*
X141641399Y-93854989D02*
X142644989Y-93854989D01*
X142644989Y-93854989D02*
X144270000Y-95480000D01*
X140741380Y-92954970D02*
X141641399Y-93854989D01*
%TO.N,PA0*%
X132738000Y-81000000D02*
X132738000Y-89702922D01*
X133540000Y-90504922D02*
X134892328Y-90504923D01*
X132738000Y-89702922D02*
X133540000Y-90504922D01*
X136892365Y-92504960D02*
X138617781Y-92504961D01*
X134892328Y-90504923D02*
X136892365Y-92504960D01*
X139517799Y-93404979D02*
X140554979Y-93404979D01*
X138617781Y-92504961D02*
X139517799Y-93404979D01*
X143094999Y-95105997D02*
X143094999Y-96844999D01*
X143094999Y-96844999D02*
X144270000Y-98020000D01*
X142294001Y-94304999D02*
X143094999Y-95105997D01*
X141454999Y-94304999D02*
X142294001Y-94304999D01*
X140554979Y-93404979D02*
X141454999Y-94304999D01*
%TO.N,PA26*%
X131000000Y-82738000D02*
X131000000Y-89500527D01*
X131000000Y-89500527D02*
X131454387Y-89954912D01*
X132454406Y-90954931D02*
X134705927Y-90954932D01*
X131454387Y-89954912D02*
X132454406Y-90954931D01*
X136705964Y-92954969D02*
X138431380Y-92954970D01*
X134705927Y-90954932D02*
X136705964Y-92954969D01*
X140104989Y-93854989D02*
X141730000Y-95480000D01*
X139331399Y-93854989D02*
X140104989Y-93854989D01*
X138431380Y-92954970D02*
X139331399Y-93854989D01*
%TO.N,PA25*%
X130500000Y-82738000D02*
X130500000Y-90214920D01*
X130690000Y-90404920D02*
X131267986Y-90404921D01*
X130500000Y-90214920D02*
X130690000Y-90404920D01*
X132268005Y-91404940D02*
X134519526Y-91404941D01*
X131267986Y-90404921D02*
X132268005Y-91404940D01*
X136519564Y-93404979D02*
X138244979Y-93404979D01*
X134519526Y-91404941D02*
X136519564Y-93404979D01*
X140554999Y-95105997D02*
X140554999Y-96844999D01*
X139754001Y-94304999D02*
X140554999Y-95105997D01*
X140554999Y-96844999D02*
X141730000Y-98020000D01*
X139144999Y-94304999D02*
X139754001Y-94304999D01*
X138244979Y-93404979D02*
X139144999Y-94304999D01*
X142905001Y-99195001D02*
X141730000Y-98020000D01*
X144834001Y-99195001D02*
X142905001Y-99195001D01*
X145445001Y-98584001D02*
X144834001Y-99195001D01*
X143731409Y-94304999D02*
X144834001Y-94304999D01*
X144834001Y-94304999D02*
X145445001Y-94915999D01*
X141206400Y-91779990D02*
X143731409Y-94304999D01*
X145445001Y-94915999D02*
X145445001Y-98584001D01*
X139830000Y-91779990D02*
X141206400Y-91779990D01*
%TO.N,PA24*%
X130000000Y-82738000D02*
X130000000Y-90524929D01*
X130330000Y-90854929D02*
X131081585Y-90854930D01*
X130000000Y-90524929D02*
X130330000Y-90854929D01*
X131081585Y-90854930D02*
X132081604Y-91854949D01*
X134333125Y-91854950D02*
X136333164Y-93854989D01*
X132081604Y-91854949D02*
X134333125Y-91854950D01*
X137564989Y-93854989D02*
X139190000Y-95480000D01*
X136333164Y-93854989D02*
X137564989Y-93854989D01*
%TO.N,PA23*%
X137825001Y-96655001D02*
X139190000Y-98020000D01*
X137214001Y-94304999D02*
X137825001Y-94915999D01*
X136146763Y-94304999D02*
X137214001Y-94304999D01*
X129000000Y-90535516D02*
X129769423Y-91304939D01*
X129769423Y-91304939D02*
X130895184Y-91304939D01*
X137825001Y-94915999D02*
X137825001Y-96655001D01*
X131895204Y-92304959D02*
X134146724Y-92304959D01*
X134146724Y-92304959D02*
X136146763Y-94304999D01*
X130895184Y-91304939D02*
X131895204Y-92304959D01*
X129000000Y-82738000D02*
X129000000Y-90535516D01*
D32*
%TO.N,PA21*%
X133949969Y-92779969D02*
X136650000Y-95480000D01*
X128500000Y-90707280D02*
X129572669Y-91779949D01*
X131698449Y-92779969D02*
X133949969Y-92779969D01*
X128500000Y-82738000D02*
X128500000Y-90707280D01*
X129572669Y-91779949D02*
X130698429Y-91779949D01*
X130698429Y-91779949D02*
X131698449Y-92779969D01*
%TO.N,PA20*%
X135449999Y-95043997D02*
X135449999Y-96819999D01*
X133685981Y-93279979D02*
X135449999Y-95043997D01*
X129365559Y-92279959D02*
X130491319Y-92279959D01*
X131491339Y-93279979D02*
X133685981Y-93279979D01*
X135449999Y-96819999D02*
X136650000Y-98020000D01*
X128000000Y-90914400D02*
X129365559Y-92279959D01*
X130491319Y-92279959D02*
X131491339Y-93279979D01*
X128000000Y-82738000D02*
X128000000Y-90914400D01*
%TO.N,PA19*%
X127500000Y-82738000D02*
X127500000Y-91121520D01*
X129158449Y-92779969D02*
X130284209Y-92779969D01*
X130284209Y-92779969D02*
X131284229Y-93779989D01*
X127500000Y-91121520D02*
X129158449Y-92779969D01*
X134053122Y-95480000D02*
X134110000Y-95480000D01*
X132353111Y-93779989D02*
X134053122Y-95480000D01*
X131284229Y-93779989D02*
X132353111Y-93779989D01*
%TO.N,PA18*%
X127000000Y-82738000D02*
X127000000Y-91328640D01*
X127000000Y-91328640D02*
X128891360Y-93220000D01*
X128969979Y-93279979D02*
X130077099Y-93279979D01*
X128910000Y-93220000D02*
X128969979Y-93279979D01*
X128891360Y-93220000D02*
X128910000Y-93220000D01*
X132909999Y-96819999D02*
X134110000Y-98020000D01*
X132909999Y-95043997D02*
X132909999Y-96819999D01*
X131077119Y-94279999D02*
X132146001Y-94279999D01*
X132146001Y-94279999D02*
X132909999Y-95043997D01*
X130077099Y-93279979D02*
X131077119Y-94279999D01*
D33*
X118552500Y-91742500D02*
X118560000Y-91750000D01*
X118552500Y-90830000D02*
X118552500Y-91742500D01*
X127000000Y-81650000D02*
X127000000Y-82738000D01*
X126130000Y-80780000D02*
X127000000Y-81650000D01*
D32*
%TO.N,PB15*%
X126500000Y-82738000D02*
X126500000Y-91535760D01*
X129869989Y-93779989D02*
X131570000Y-95480000D01*
X128744229Y-93779989D02*
X129869989Y-93779989D01*
X126500000Y-91535760D02*
X128744229Y-93779989D01*
%TO.N,PB16*%
X126000000Y-82738000D02*
X126000000Y-91742880D01*
X130369999Y-96819999D02*
X131570000Y-98020000D01*
X130369999Y-95043997D02*
X130369999Y-96819999D01*
X129606001Y-94279999D02*
X130369999Y-95043997D01*
X128537119Y-94279999D02*
X129606001Y-94279999D01*
X126000000Y-91742880D02*
X128537119Y-94279999D01*
%TO.N,PA17*%
X125500000Y-91950000D02*
X129030000Y-95480000D01*
X125500000Y-82738000D02*
X125500000Y-91950000D01*
D33*
X118562500Y-89497500D02*
X118540000Y-89520000D01*
X118562500Y-88810000D02*
X118562500Y-89497500D01*
D32*
%TO.N,PA16*%
X127829999Y-96819999D02*
X129030000Y-98020000D01*
X125000000Y-92213998D02*
X127829999Y-95043997D01*
X127829999Y-95043997D02*
X127829999Y-96819999D01*
X125000000Y-82738000D02*
X125000000Y-92213998D01*
%TO.N,PA15*%
X124500000Y-82738000D02*
X124500000Y-92421118D01*
X126490000Y-94411118D02*
X126490000Y-95480000D01*
X124500000Y-92421118D02*
X126490000Y-94411118D01*
D33*
X119747500Y-91307500D02*
X120180000Y-91740000D01*
X119747500Y-90830000D02*
X119747500Y-91307500D01*
D32*
%TO.N,PA14*%
X125260000Y-96790000D02*
X126490000Y-98020000D01*
X123999992Y-92628230D02*
X125260000Y-93888238D01*
X125260000Y-93888238D02*
X125260000Y-96790000D01*
X124000000Y-82738000D02*
X124000000Y-92213998D01*
X123999992Y-92214006D02*
X123999992Y-92628230D01*
X124000000Y-92213998D02*
X123999992Y-92214006D01*
%TO.N,PA13*%
X123499982Y-95029982D02*
X123950000Y-95480000D01*
X123500000Y-92006878D02*
X123499982Y-92006896D01*
X123499982Y-92006896D02*
X123499982Y-95029982D01*
X123500000Y-82738000D02*
X123500000Y-92006878D01*
%TO.N,PB4*%
X122749999Y-95043997D02*
X122749999Y-96819999D01*
X122500000Y-94793998D02*
X122749999Y-95043997D01*
X122749999Y-96819999D02*
X123950000Y-98020000D01*
X122500000Y-82738000D02*
X122500000Y-94793998D01*
%TO.N,PB3*%
X122000000Y-94890000D02*
X121410000Y-95480000D01*
X122000000Y-82738000D02*
X122000000Y-94890000D01*
%TO.N,PA30*%
X120209999Y-94903999D02*
X120209999Y-96819999D01*
X121500000Y-93613998D02*
X120209999Y-94903999D01*
X120209999Y-96819999D02*
X121410000Y-98020000D01*
X121500000Y-82738000D02*
X121500000Y-93613998D01*
%TO.N,PA22*%
X121000000Y-93350000D02*
X118870000Y-95480000D01*
D33*
X120990000Y-88810000D02*
X121000000Y-88800000D01*
X119757500Y-88810000D02*
X120990000Y-88810000D01*
D32*
X121000000Y-88800000D02*
X121000000Y-93350000D01*
X121000000Y-82738000D02*
X121000000Y-88800000D01*
D33*
%TO.N,HOST_SWCLK*%
X128500000Y-67262000D02*
X128500000Y-61266410D01*
X128500000Y-61266410D02*
X129196400Y-60570010D01*
X129196400Y-60570010D02*
X131710010Y-60570010D01*
X134750010Y-60570010D02*
X134870000Y-60690000D01*
X131710010Y-60570010D02*
X134750010Y-60570010D01*
%TO.N,HOST_SWDIO*%
X129000000Y-67262000D02*
X129000000Y-61402820D01*
X129124204Y-61278616D02*
X131581769Y-61278616D01*
X129000000Y-61402820D02*
X129124204Y-61278616D01*
X139874999Y-62215001D02*
X140700000Y-61390000D01*
X136463614Y-61278616D02*
X137399999Y-62215001D01*
X137399999Y-62215001D02*
X139874999Y-62215001D01*
X131581769Y-61278616D02*
X136463614Y-61278616D01*
%TO.N,HOST_SWO*%
X129500000Y-67262000D02*
X129500000Y-62460000D01*
X129500000Y-62460000D02*
X130110000Y-61850000D01*
X130110000Y-61850000D02*
X131890000Y-61850000D01*
X131890000Y-61850318D02*
X131890371Y-61850689D01*
X131890000Y-61850000D02*
X131890000Y-61850318D01*
%TO.N,HOST_RESET*%
X128000000Y-67262000D02*
X128000000Y-61130000D01*
X129010000Y-60120000D02*
X138160000Y-60120000D01*
X128000000Y-61130000D02*
X129010000Y-60120000D01*
X145260000Y-60918998D02*
X145260000Y-65860030D01*
X143636001Y-59294999D02*
X145260000Y-60918998D01*
X139033999Y-59294999D02*
X143636001Y-59294999D01*
X138208998Y-60120000D02*
X139033999Y-59294999D01*
X138160000Y-60120000D02*
X138208998Y-60120000D01*
%TO.N,Net-(D2-Pad2)*%
X144670000Y-90180000D02*
X146345000Y-90180000D01*
%TO.N,Net-(D3-Pad2)*%
X146245000Y-92080000D02*
X146345000Y-91980000D01*
X144617500Y-92080000D02*
X146245000Y-92080000D01*
D35*
%TO.N,VBUS*%
X109500000Y-71700000D02*
X109620000Y-71580000D01*
D36*
X105900000Y-78733824D02*
X106456176Y-78733824D01*
D34*
X107820000Y-86090000D02*
X108720000Y-85190000D01*
X107820000Y-87130000D02*
X107820000Y-86090000D01*
D36*
X107345000Y-77855000D02*
X107190000Y-78010000D01*
X107345000Y-77845000D02*
X107345000Y-77855000D01*
X106456176Y-78733824D02*
X107345000Y-77845000D01*
X107595000Y-77635000D02*
X107620000Y-77610000D01*
X107555000Y-77635000D02*
X107595000Y-77635000D01*
X107345000Y-77845000D02*
X107555000Y-77635000D01*
X107555000Y-77635000D02*
X108000000Y-77190000D01*
D35*
X108620000Y-71700000D02*
X108940000Y-71700000D01*
X107225000Y-71700000D02*
X108620000Y-71700000D01*
X108620000Y-71700000D02*
X109500000Y-71700000D01*
X108960000Y-66790000D02*
X108950000Y-66800000D01*
X109560000Y-66790000D02*
X108960000Y-66790000D01*
X107225000Y-66800000D02*
X108950000Y-66800000D01*
X110320008Y-62187508D02*
X108442500Y-60310000D01*
X110320008Y-66029992D02*
X110320008Y-62187508D01*
X109560000Y-66790000D02*
X110320008Y-66029992D01*
D33*
%TO.N,Net-(U?.1-Pad50)*%
X133240000Y-69000000D02*
X135300000Y-66940000D01*
X132738000Y-69000000D02*
X133240000Y-69000000D01*
%TO.N,Net-(U?.1-Pad49)*%
X133710502Y-69500000D02*
X134730502Y-68480000D01*
X132738000Y-69500000D02*
X133710502Y-69500000D01*
X137010000Y-68480000D02*
X138550000Y-66940000D01*
X134730502Y-68480000D02*
X137010000Y-68480000D01*
D32*
%TO.N,SHIELD*%
X102747500Y-62800000D02*
X103852500Y-62800000D01*
X102747500Y-64312500D02*
X102130000Y-64930000D01*
X102747500Y-62800000D02*
X102747500Y-64312500D01*
X102130000Y-64930000D02*
X106310000Y-64930000D01*
X102130000Y-73570000D02*
X106310000Y-73570000D01*
X105700000Y-76158824D02*
X105850000Y-76308824D01*
X102050000Y-76158824D02*
X105700000Y-76158824D01*
X105700000Y-83908824D02*
X105850000Y-83758824D01*
X102050000Y-83908824D02*
X105700000Y-83908824D01*
X102050000Y-83908824D02*
X102050000Y-76158824D01*
X102050000Y-73650000D02*
X102130000Y-73570000D01*
X102050000Y-76158824D02*
X102050000Y-73650000D01*
X105850000Y-74030000D02*
X106310000Y-73570000D01*
X105850000Y-76308824D02*
X105850000Y-74030000D01*
X102130000Y-73570000D02*
X102130000Y-64930000D01*
D33*
%TO.N,PA31*%
X116410000Y-74000000D02*
X116010000Y-73600000D01*
X117262000Y-74000000D02*
X116410000Y-74000000D01*
%TD*%
M02*
