M48
; DRILL file {KiCad (5.1.10-1-10_14)} date Wednesday, August 18, 2021 at 02:47:48 PM
; FORMAT={-:-/ absolute / inch / decimal}
; #@! TF.CreationDate,2021-08-18T14:47:48+08:00
; #@! TF.GenerationSoftware,Kicad,Pcbnew,(5.1.10-1-10_14)
; #@! TF.FileFunction,Plated,1,4,PTH
FMAT,2
INCH
T1C0.0118
T2C0.0197
T3C0.0236
T4C0.0276
T5C0.0315
T6C0.0394
%
G90
G05
T1
X4.2201Y-3.0713
X4.237Y-3.0555
X4.2449Y-3.3894
X4.2449Y-3.5209
X4.2488Y-3.2366
X4.252Y-3.039
X4.2803Y-3.3539
X4.289Y-2.8228
X4.2894Y-2.6299
X4.2959Y-2.5774
X4.3031Y-2.8846
X4.3118Y-2.5614
X4.3134Y-2.6295
X4.3157Y-2.8181
X4.3232Y-2.9047
X4.422Y-2.5831
X4.452Y-2.9807
X4.5673Y-2.8976
X4.6476Y-3.3476
X4.6669Y-2.5059
X4.6669Y-3.5244
X4.6677Y-3.6122
X4.674Y-2.8449
X4.6776Y-2.9528
X4.6988Y-3.0039
X4.7012Y-3.1543
X4.7201Y-2.7213
X4.7315Y-3.6118
X4.7339Y-3.3634
X4.7437Y-2.8276
X4.8157Y-2.9445
X4.8425Y-3.198
X4.8717Y-2.7315
X4.8757Y-2.9243
X4.8858Y-2.9008
X4.9197Y-2.8264
X4.9657Y-3.1803
X5.0Y-2.387
X5.0004Y-2.7138
X5.0811Y-2.8945
X5.0988Y-2.9154
X5.0988Y-3.2012
X5.1031Y-3.0658
X5.1051Y-3.0944
X5.1157Y-2.935
X5.1298Y-3.101
X5.1344Y-2.9547
X5.1354Y-3.126
X5.1445Y-3.0201
X5.1535Y-3.1441
X5.1536Y-2.9744
X5.1665Y-2.9965
X5.1925Y-2.4351
X5.1992Y-2.5217
X5.2122Y-2.6512
X5.2858Y-3.1603
X5.3098Y-2.3894
X5.3295Y-2.9535
X5.3437Y-3.4923
X5.3469Y-3.4669
X5.385Y-2.9705
X5.4177Y-2.7402
X5.5051Y-3.6134
X5.6177Y-3.5094
X5.6492Y-3.4142
X5.6565Y-3.0301
X5.6673Y-3.6626
T2
X5.4134Y-2.8421
X5.4394Y-2.3669
X5.4394Y-2.4169
X5.4894Y-2.3669
X5.4894Y-2.4169
X5.5394Y-2.3669
X5.5394Y-2.4169
X5.5894Y-2.3669
X5.5894Y-2.4169
X5.6394Y-2.3669
X5.6394Y-2.4169
X5.7535Y-3.1098
X5.7535Y-3.1598
X5.7535Y-3.2098
X5.7535Y-3.2598
X5.7535Y-3.3098
X5.8035Y-3.1098
X5.8035Y-3.1598
X5.8035Y-3.2098
X5.8035Y-3.2598
X5.8035Y-3.3098
T5
X5.5059Y-3.4146
X5.5846Y-3.4146
T6
X4.078Y-2.0555
X4.078Y-2.1555
X4.0799Y-3.7591
X4.0799Y-3.8591
X4.178Y-2.0555
X4.178Y-2.1555
X4.1799Y-3.7591
X4.1799Y-3.8591
X4.278Y-2.0555
X4.278Y-2.1555
X4.2799Y-3.7591
X4.2799Y-3.8591
X4.378Y-2.0555
X4.378Y-2.1555
X4.3799Y-3.7591
X4.3799Y-3.8591
X4.478Y-2.0555
X4.478Y-2.1555
X4.4799Y-3.7591
X4.4799Y-3.8591
X4.578Y-2.0555
X4.578Y-2.1555
X4.5799Y-3.7591
X4.5799Y-3.8591
X4.678Y-2.0555
X4.678Y-2.1555
X4.6799Y-3.7591
X4.6799Y-3.8591
X4.778Y-2.0555
X4.778Y-2.1555
X4.7799Y-3.7591
X4.7799Y-3.8591
X4.878Y-2.0555
X4.878Y-2.1555
X4.8799Y-3.7591
X4.8799Y-3.8591
X4.978Y-2.0555
X4.978Y-2.1555
X4.9799Y-3.7591
X4.9799Y-3.8591
X5.078Y-2.0555
X5.078Y-2.1555
X5.0799Y-3.7591
X5.0799Y-3.8591
X5.178Y-2.0555
X5.178Y-2.1555
X5.1799Y-3.7591
X5.1799Y-3.8591
X5.278Y-2.0555
X5.278Y-2.1555
X5.2799Y-3.7591
X5.2799Y-3.8591
X5.378Y-2.0555
X5.378Y-2.1555
X5.3799Y-3.7591
X5.3799Y-3.8591
X5.478Y-2.0555
X5.478Y-2.1555
X5.4799Y-3.7591
X5.4799Y-3.8591
X5.578Y-2.0555
X5.578Y-2.1555
X5.5799Y-3.7591
X5.5799Y-3.8591
X5.678Y-2.0555
X5.678Y-2.1555
X5.6799Y-3.7591
X5.6799Y-3.8591
X5.778Y-2.0555
X5.778Y-2.1555
X5.7799Y-3.7591
X5.7799Y-3.8591
T3
G00X4.0295Y-2.9984
M15
G01X4.0059Y-2.9984
M16
G05
G00X4.0295Y-3.3035
M15
G01X4.0059Y-3.3035
M16
G05
G00X4.0327Y-2.5563
M15
G01X4.0091Y-2.5563
M16
G05
G00X4.0327Y-2.8965
M15
G01X4.0091Y-2.8965
M16
G05
G00X4.2071Y-2.5563
M15
G01X4.1638Y-2.5563
M16
G05
G00X4.2071Y-2.8965
M15
G01X4.1638Y-2.8965
M16
G05
T4
G00X4.1811Y-3.0043
M15
G01X4.1535Y-3.0043
M16
G05
G00X4.1811Y-3.2976
M15
G01X4.1535Y-3.2976
M16
G05
T0
M30
