%TF.GenerationSoftware,KiCad,Pcbnew,(5.1.10-1-10_14)*%
%TF.CreationDate,2021-08-18T14:47:54+08:00*%
%TF.ProjectId,jlinkob_hs,6a6c696e-6b6f-4625-9f68-732e6b696361,rev?*%
%TF.SameCoordinates,Original*%
%TF.FileFunction,Copper,L3,Inr*%
%TF.FilePolarity,Positive*%
%FSLAX46Y46*%
G04 Gerber Fmt 4.6, Leading zero omitted, Abs format (unit mm)*
G04 Created by KiCad (PCBNEW (5.1.10-1-10_14)) date 2021-08-18 14:47:54*
%MOMM*%
%LPD*%
G01*
G04 APERTURE LIST*
%TA.AperFunction,ComponentPad*%
%ADD10C,1.000000*%
%TD*%
%TA.AperFunction,ComponentPad*%
%ADD11O,1.000000X1.000000*%
%TD*%
%TA.AperFunction,ComponentPad*%
%ADD12R,1.000000X1.000000*%
%TD*%
%TA.AperFunction,ComponentPad*%
%ADD13O,1.700000X1.700000*%
%TD*%
%TA.AperFunction,ComponentPad*%
%ADD14R,1.700000X1.700000*%
%TD*%
%TA.AperFunction,ComponentPad*%
%ADD15O,1.800000X1.000000*%
%TD*%
%TA.AperFunction,ComponentPad*%
%ADD16O,2.000000X1.000000*%
%TD*%
%TA.AperFunction,ComponentPad*%
%ADD17O,1.350000X1.350000*%
%TD*%
%TA.AperFunction,ComponentPad*%
%ADD18R,1.350000X1.350000*%
%TD*%
%TA.AperFunction,ComponentPad*%
%ADD19O,2.100000X1.000000*%
%TD*%
%TA.AperFunction,ComponentPad*%
%ADD20O,1.600000X1.000000*%
%TD*%
%TA.AperFunction,ViaPad*%
%ADD21C,0.450000*%
%TD*%
%TA.AperFunction,Conductor*%
%ADD22C,0.300000*%
%TD*%
%TA.AperFunction,Conductor*%
%ADD23C,0.600000*%
%TD*%
%TA.AperFunction,Conductor*%
%ADD24C,0.250000*%
%TD*%
%TA.AperFunction,Conductor*%
%ADD25C,0.254000*%
%TD*%
%TA.AperFunction,Conductor*%
%ADD26C,0.100000*%
%TD*%
G04 APERTURE END LIST*
D10*
%TO.N,Net-(R2-Pad1)*%
%TO.C,TP1*%
X137500000Y-72190000D03*
%TD*%
D11*
%TO.N,GND*%
%TO.C,CON2*%
X147410000Y-78990000D03*
%TO.N,PA11*%
X146140000Y-78990000D03*
%TO.N,PA22*%
X147410000Y-80260000D03*
%TO.N,PA12*%
X146140000Y-80260000D03*
%TO.N,PA15*%
X147410000Y-81530000D03*
%TO.N,GND*%
X146140000Y-81530000D03*
%TO.N,+3V3*%
X147410000Y-82800000D03*
%TO.N,PA21*%
X146140000Y-82800000D03*
%TO.N,PA3*%
X146140000Y-84070000D03*
D12*
%TO.N,N/C*%
X147410000Y-84070000D03*
%TD*%
D13*
%TO.N,GND*%
%TO.C,J5*%
X146760000Y-52210000D03*
X146760000Y-54750000D03*
X144220000Y-52210000D03*
X144220000Y-54750000D03*
%TO.N,+3V3*%
X141680000Y-52210000D03*
X141680000Y-54750000D03*
X139140000Y-52210000D03*
X139140000Y-54750000D03*
%TO.N,PA2*%
X136600000Y-52210000D03*
%TO.N,PA3*%
X136600000Y-54750000D03*
%TO.N,PA4*%
X134060000Y-52210000D03*
%TO.N,PA5*%
X134060000Y-54750000D03*
%TO.N,PA6*%
X131520000Y-52210000D03*
%TO.N,PA7*%
X131520000Y-54750000D03*
%TO.N,PA8*%
X128980000Y-52210000D03*
%TO.N,PA9*%
X128980000Y-54750000D03*
%TO.N,PA10*%
X126440000Y-52210000D03*
%TO.N,PA11*%
X126440000Y-54750000D03*
%TO.N,PA12*%
X123900000Y-52210000D03*
%TO.N,PB24*%
X123900000Y-54750000D03*
%TO.N,PB23*%
X121360000Y-52210000D03*
%TO.N,PB22*%
X121360000Y-54750000D03*
%TO.N,PB21*%
X118820000Y-52210000D03*
%TO.N,PB20*%
X118820000Y-54750000D03*
%TO.N,PB19*%
X116280000Y-52210000D03*
%TO.N,PB18*%
X116280000Y-54750000D03*
%TO.N,PB17*%
X113740000Y-52210000D03*
%TO.N,PB14*%
X113740000Y-54750000D03*
%TO.N,PB10*%
X111200000Y-52210000D03*
%TO.N,PB9*%
X111200000Y-54750000D03*
%TO.N,PA31*%
X108660000Y-52210000D03*
%TO.N,VCC*%
X108660000Y-54750000D03*
%TO.N,+3V3*%
X106120000Y-52210000D03*
X106120000Y-54750000D03*
%TO.N,GND*%
X103580000Y-52210000D03*
D14*
X103580000Y-54750000D03*
%TD*%
D13*
%TO.N,GND*%
%TO.C,J4*%
X146810000Y-95480000D03*
X146810000Y-98020000D03*
%TO.N,PA1*%
X144270000Y-95480000D03*
%TO.N,PA0*%
X144270000Y-98020000D03*
%TO.N,PA26*%
X141730000Y-95480000D03*
%TO.N,PA25*%
X141730000Y-98020000D03*
%TO.N,PA24*%
X139190000Y-95480000D03*
%TO.N,PA23*%
X139190000Y-98020000D03*
%TO.N,PA21*%
X136650000Y-95480000D03*
%TO.N,PA20*%
X136650000Y-98020000D03*
%TO.N,PA19*%
X134110000Y-95480000D03*
%TO.N,PA18*%
X134110000Y-98020000D03*
%TO.N,PB15*%
X131570000Y-95480000D03*
%TO.N,PB16*%
X131570000Y-98020000D03*
%TO.N,PA17*%
X129030000Y-95480000D03*
%TO.N,PA16*%
X129030000Y-98020000D03*
%TO.N,PA15*%
X126490000Y-95480000D03*
%TO.N,PA14*%
X126490000Y-98020000D03*
%TO.N,PA13*%
X123950000Y-95480000D03*
%TO.N,PB4*%
X123950000Y-98020000D03*
%TO.N,PB3*%
X121410000Y-95480000D03*
%TO.N,PA30*%
X121410000Y-98020000D03*
%TO.N,PA22*%
X118870000Y-95480000D03*
%TO.N,PB8*%
X118870000Y-98020000D03*
%TO.N,PB7*%
X116330000Y-95480000D03*
%TO.N,PB6*%
X116330000Y-98020000D03*
%TO.N,PB5*%
X113790000Y-95480000D03*
%TO.N,PA27*%
X113790000Y-98020000D03*
%TO.N,PB13*%
X111250000Y-95480000D03*
%TO.N,PB12*%
X111250000Y-98020000D03*
%TO.N,PB11*%
X108710000Y-95480000D03*
%TO.N,PB2*%
X108710000Y-98020000D03*
%TO.N,PB1*%
X106170000Y-95480000D03*
%TO.N,PB0*%
X106170000Y-98020000D03*
%TO.N,GND*%
X103630000Y-95480000D03*
D14*
X103630000Y-98020000D03*
%TD*%
D15*
%TO.N,SHIELD*%
%TO.C,J2*%
X102050000Y-83908824D03*
X102050000Y-76158824D03*
D16*
X105850000Y-83758824D03*
X105850000Y-76308824D03*
%TD*%
D17*
%TO.N,GND*%
%TO.C,J3*%
X141850000Y-86730000D03*
D18*
%TO.N,PA25*%
X139850000Y-86730000D03*
%TD*%
D11*
%TO.N,GND*%
%TO.C,CON1*%
X143240000Y-61390000D03*
%TO.N,N/C*%
X143240000Y-60120000D03*
%TO.N,HOST_SWCLK*%
X141970000Y-61390000D03*
%TO.N,N/C*%
X141970000Y-60120000D03*
%TO.N,HOST_SWDIO*%
X140700000Y-61390000D03*
%TO.N,GND*%
X140700000Y-60120000D03*
%TO.N,+3V3*%
X139430000Y-61390000D03*
%TO.N,HOST_SWO*%
X139430000Y-60120000D03*
%TO.N,HOST_RESET*%
X138160000Y-60120000D03*
D12*
%TO.N,N/C*%
X138160000Y-61390000D03*
%TD*%
D19*
%TO.N,SHIELD*%
%TO.C,J1*%
X106310000Y-73570000D03*
X106310000Y-64930000D03*
D20*
X102130000Y-64930000D03*
X102130000Y-73570000D03*
%TD*%
D21*
%TO.N,GND*%
X131228320Y-76111392D03*
X127000000Y-60630000D03*
X123740000Y-69380000D03*
X118540000Y-63650000D03*
X112320000Y-65610000D03*
X132060000Y-64050000D03*
X124960000Y-71790000D03*
X137610000Y-69600000D03*
X113080000Y-75710000D03*
X122320000Y-74790000D03*
X120490000Y-71820000D03*
X109810000Y-73780000D03*
X109520000Y-65060000D03*
X107920000Y-82210000D03*
X109115000Y-65465000D03*
X109300000Y-73270000D03*
X119410000Y-80120000D03*
X120240000Y-85430000D03*
X136780000Y-75450000D03*
X143490000Y-86720000D03*
%TO.N,VCC*%
X123000000Y-81230000D03*
X127010000Y-68930000D03*
X118720000Y-72260000D03*
X119890000Y-69120000D03*
X130670000Y-76710000D03*
X119350000Y-76300000D03*
X132390000Y-67340000D03*
%TO.N,+3V3*%
X129510000Y-81310000D03*
X118810000Y-75000000D03*
X107820000Y-89430000D03*
X118050000Y-85030000D03*
X143950000Y-93030000D03*
X142690000Y-89140000D03*
X135370000Y-75020000D03*
%TO.N,PA29*%
X123842316Y-74276742D03*
X135729378Y-88704982D03*
%TO.N,PA28*%
X124100000Y-73680000D03*
X135810000Y-88060000D03*
%TO.N,PA12*%
X129060000Y-73520000D03*
%TO.N,PA11*%
X129509296Y-74050000D03*
X143676091Y-76963909D03*
%TO.N,PA10*%
X129939427Y-74550000D03*
%TO.N,PA9*%
X130412694Y-75050000D03*
%TO.N,PA8*%
X130900690Y-75550000D03*
%TO.N,PA7*%
X129617737Y-77871802D03*
%TO.N,PA6*%
X129668986Y-78598371D03*
%TO.N,PA5*%
X130297023Y-78765916D03*
%TO.N,PA4*%
X130440379Y-79400379D03*
%TO.N,PA3*%
X130900000Y-79860000D03*
%TO.N,PA2*%
X134259160Y-80270840D03*
%TO.N,PA25*%
X139830000Y-91779990D03*
%TO.N,PA18*%
X118560000Y-91750000D03*
X126130000Y-80780000D03*
%TO.N,PA17*%
X118540000Y-89520000D03*
%TO.N,PA15*%
X120180000Y-91740000D03*
%TO.N,HOST_SWCLK*%
X134870000Y-60690000D03*
%TO.N,HOST_SWO*%
X131890371Y-61850689D03*
%TO.N,VBUS*%
X109620000Y-71580000D03*
X109560000Y-66790000D03*
X108000000Y-77190000D03*
X108720000Y-85190000D03*
X107820000Y-86090000D03*
X107190000Y-78010000D03*
X107620000Y-77610000D03*
X108940000Y-71700000D03*
X108950000Y-66800000D03*
%TO.N,PA31*%
X116010000Y-73600000D03*
%TD*%
D22*
%TO.N,VCC*%
X119890000Y-65980000D02*
X108660000Y-54750000D01*
X119890000Y-69120000D02*
X119890000Y-65980000D01*
D23*
%TO.N,+3V3*%
X107820000Y-89430000D02*
X113650000Y-89430000D01*
X126115001Y-84704999D02*
X129510000Y-81310000D01*
X118375001Y-84704999D02*
X126115001Y-84704999D01*
X118050000Y-85030000D02*
X118375001Y-84704999D01*
X148310001Y-85070001D02*
X149040000Y-84340002D01*
X129510000Y-81310000D02*
X133270001Y-85070001D01*
X148117106Y-82800000D02*
X147410000Y-82800000D01*
X149040000Y-83722894D02*
X148117106Y-82800000D01*
X149040000Y-84340002D02*
X149040000Y-83722894D01*
X148410001Y-82507105D02*
X148410001Y-72770001D01*
X148117106Y-82800000D02*
X148410001Y-82507105D01*
X139430000Y-63790000D02*
X139430000Y-61390000D01*
X148410001Y-72770001D02*
X139430000Y-63790000D01*
D24*
X143950000Y-90400000D02*
X142690000Y-89140000D01*
X143950000Y-93030000D02*
X143950000Y-90400000D01*
X142914999Y-85705003D02*
X143550001Y-85070001D01*
X142914999Y-88915001D02*
X142914999Y-85705003D01*
D23*
X143550001Y-85070001D02*
X148310001Y-85070001D01*
D24*
X142690000Y-89140000D02*
X142914999Y-88915001D01*
D23*
X133270001Y-85070001D02*
X143550001Y-85070001D01*
D24*
X130264002Y-81310000D02*
X129510000Y-81310000D01*
X135370000Y-76204002D02*
X130264002Y-81310000D01*
X135370000Y-75020000D02*
X135370000Y-76204002D01*
D23*
X148410001Y-61480001D02*
X141680000Y-54750000D01*
X148410001Y-72770001D02*
X148410001Y-61480001D01*
X141680000Y-54750000D02*
X141680000Y-52210000D01*
X141680000Y-52210000D02*
X139140000Y-52210000D01*
X141680000Y-54750000D02*
X139140000Y-54750000D01*
X114395000Y-63025000D02*
X106120000Y-54750000D01*
X114395000Y-88685000D02*
X114395000Y-63025000D01*
X113650000Y-89430000D02*
X114395000Y-88685000D01*
X114395000Y-88685000D02*
X118050000Y-85030000D01*
X106120000Y-54750000D02*
X106120000Y-52210000D01*
%TD*%
D25*
%TO.N,VCC*%
X133573000Y-76926200D02*
X131363688Y-79135513D01*
X131307363Y-79097878D01*
X131233215Y-79067164D01*
X131202501Y-78993016D01*
X131145629Y-78907902D01*
X131157023Y-78850619D01*
X131157023Y-78681213D01*
X131123974Y-78515063D01*
X131059145Y-78358553D01*
X130965028Y-78217698D01*
X130845241Y-78097911D01*
X130704386Y-78003794D01*
X130547876Y-77938965D01*
X130477737Y-77925014D01*
X130477737Y-77787099D01*
X130444688Y-77620949D01*
X130379859Y-77464439D01*
X130285742Y-77323584D01*
X130165955Y-77203797D01*
X130025100Y-77109680D01*
X129868590Y-77044851D01*
X129702440Y-77011802D01*
X129533034Y-77011802D01*
X129366884Y-77044851D01*
X129210374Y-77109680D01*
X129069519Y-77203797D01*
X128949732Y-77323584D01*
X128855615Y-77464439D01*
X128790786Y-77620949D01*
X128757737Y-77787099D01*
X128757737Y-77956505D01*
X128790786Y-78122655D01*
X128855615Y-78279165D01*
X128864710Y-78292776D01*
X128842035Y-78347518D01*
X128808986Y-78513668D01*
X128808986Y-78683074D01*
X128842035Y-78849224D01*
X128906864Y-79005734D01*
X129000981Y-79146589D01*
X129120768Y-79266376D01*
X129261623Y-79360493D01*
X129418133Y-79425322D01*
X129580379Y-79457594D01*
X129580379Y-79485082D01*
X129613428Y-79651232D01*
X129678257Y-79807742D01*
X129772374Y-79948597D01*
X129892161Y-80068384D01*
X130033016Y-80162501D01*
X130107164Y-80193215D01*
X130137878Y-80267363D01*
X130175513Y-80323688D01*
X129991838Y-80507363D01*
X129869540Y-80441993D01*
X129693292Y-80388528D01*
X129510000Y-80370476D01*
X129326708Y-80388528D01*
X129150459Y-80441993D01*
X128988028Y-80528815D01*
X128881334Y-80616377D01*
X128881331Y-80616380D01*
X128845657Y-80645657D01*
X128816380Y-80681331D01*
X125924711Y-83573000D01*
X116427000Y-83573000D01*
X116427000Y-80035297D01*
X118550000Y-80035297D01*
X118550000Y-80204703D01*
X118583049Y-80370853D01*
X118647878Y-80527363D01*
X118741995Y-80668218D01*
X118861782Y-80788005D01*
X119002637Y-80882122D01*
X119159147Y-80946951D01*
X119325297Y-80980000D01*
X119494703Y-80980000D01*
X119660853Y-80946951D01*
X119817363Y-80882122D01*
X119958218Y-80788005D01*
X120050926Y-80695297D01*
X125270000Y-80695297D01*
X125270000Y-80864703D01*
X125303049Y-81030853D01*
X125367878Y-81187363D01*
X125461995Y-81328218D01*
X125581782Y-81448005D01*
X125722637Y-81542122D01*
X125879147Y-81606951D01*
X126045297Y-81640000D01*
X126214703Y-81640000D01*
X126380853Y-81606951D01*
X126537363Y-81542122D01*
X126678218Y-81448005D01*
X126798005Y-81328218D01*
X126892122Y-81187363D01*
X126956951Y-81030853D01*
X126990000Y-80864703D01*
X126990000Y-80695297D01*
X126956951Y-80529147D01*
X126892122Y-80372637D01*
X126798005Y-80231782D01*
X126678218Y-80111995D01*
X126537363Y-80017878D01*
X126380853Y-79953049D01*
X126214703Y-79920000D01*
X126045297Y-79920000D01*
X125879147Y-79953049D01*
X125722637Y-80017878D01*
X125581782Y-80111995D01*
X125461995Y-80231782D01*
X125367878Y-80372637D01*
X125303049Y-80529147D01*
X125270000Y-80695297D01*
X120050926Y-80695297D01*
X120078005Y-80668218D01*
X120172122Y-80527363D01*
X120236951Y-80370853D01*
X120270000Y-80204703D01*
X120270000Y-80035297D01*
X120236951Y-79869147D01*
X120172122Y-79712637D01*
X120078005Y-79571782D01*
X119958218Y-79451995D01*
X119817363Y-79357878D01*
X119660853Y-79293049D01*
X119494703Y-79260000D01*
X119325297Y-79260000D01*
X119159147Y-79293049D01*
X119002637Y-79357878D01*
X118861782Y-79451995D01*
X118741995Y-79571782D01*
X118647878Y-79712637D01*
X118583049Y-79869147D01*
X118550000Y-80035297D01*
X116427000Y-80035297D01*
X116427000Y-74915297D01*
X117950000Y-74915297D01*
X117950000Y-75084703D01*
X117983049Y-75250853D01*
X118047878Y-75407363D01*
X118141995Y-75548218D01*
X118261782Y-75668005D01*
X118402637Y-75762122D01*
X118559147Y-75826951D01*
X118725297Y-75860000D01*
X118894703Y-75860000D01*
X119060853Y-75826951D01*
X119217363Y-75762122D01*
X119358218Y-75668005D01*
X119478005Y-75548218D01*
X119572122Y-75407363D01*
X119636951Y-75250853D01*
X119670000Y-75084703D01*
X119670000Y-74915297D01*
X119636951Y-74749147D01*
X119618788Y-74705297D01*
X121460000Y-74705297D01*
X121460000Y-74874703D01*
X121493049Y-75040853D01*
X121557878Y-75197363D01*
X121651995Y-75338218D01*
X121771782Y-75458005D01*
X121912637Y-75552122D01*
X122069147Y-75616951D01*
X122235297Y-75650000D01*
X122404703Y-75650000D01*
X122570853Y-75616951D01*
X122727363Y-75552122D01*
X122868218Y-75458005D01*
X122988005Y-75338218D01*
X123082122Y-75197363D01*
X123146951Y-75040853D01*
X123180000Y-74874703D01*
X123180000Y-74830649D01*
X123294098Y-74944747D01*
X123434953Y-75038864D01*
X123591463Y-75103693D01*
X123757613Y-75136742D01*
X123927019Y-75136742D01*
X124093169Y-75103693D01*
X124249679Y-75038864D01*
X124390534Y-74944747D01*
X124510321Y-74824960D01*
X124604438Y-74684105D01*
X124669267Y-74527595D01*
X124702316Y-74361445D01*
X124702316Y-74293907D01*
X124768005Y-74228218D01*
X124862122Y-74087363D01*
X124926951Y-73930853D01*
X124960000Y-73764703D01*
X124960000Y-73595297D01*
X124928175Y-73435297D01*
X128200000Y-73435297D01*
X128200000Y-73604703D01*
X128233049Y-73770853D01*
X128297878Y-73927363D01*
X128391995Y-74068218D01*
X128511782Y-74188005D01*
X128652637Y-74282122D01*
X128680952Y-74293851D01*
X128682345Y-74300853D01*
X128747174Y-74457363D01*
X128841291Y-74598218D01*
X128961078Y-74718005D01*
X129101933Y-74812122D01*
X129120294Y-74819727D01*
X129177305Y-74957363D01*
X129271422Y-75098218D01*
X129391209Y-75218005D01*
X129532064Y-75312122D01*
X129602495Y-75341296D01*
X129650572Y-75457363D01*
X129744689Y-75598218D01*
X129864476Y-75718005D01*
X130005331Y-75812122D01*
X130093542Y-75848660D01*
X130138568Y-75957363D01*
X130232685Y-76098218D01*
X130352472Y-76218005D01*
X130375775Y-76233576D01*
X130401369Y-76362245D01*
X130466198Y-76518755D01*
X130560315Y-76659610D01*
X130680102Y-76779397D01*
X130820957Y-76873514D01*
X130977467Y-76938343D01*
X131143617Y-76971392D01*
X131313023Y-76971392D01*
X131479173Y-76938343D01*
X131635683Y-76873514D01*
X131776538Y-76779397D01*
X131896325Y-76659610D01*
X131990442Y-76518755D01*
X132055271Y-76362245D01*
X132088320Y-76196095D01*
X132088320Y-76026689D01*
X132055271Y-75860539D01*
X131990442Y-75704029D01*
X131896325Y-75563174D01*
X131776538Y-75443387D01*
X131753235Y-75427816D01*
X131727641Y-75299147D01*
X131662812Y-75142637D01*
X131568695Y-75001782D01*
X131448908Y-74881995D01*
X131308053Y-74787878D01*
X131219842Y-74751340D01*
X131174816Y-74642637D01*
X131080699Y-74501782D01*
X130960912Y-74381995D01*
X130820057Y-74287878D01*
X130749626Y-74258704D01*
X130701549Y-74142637D01*
X130607432Y-74001782D01*
X130487645Y-73881995D01*
X130346790Y-73787878D01*
X130328429Y-73780273D01*
X130271418Y-73642637D01*
X130177301Y-73501782D01*
X130057514Y-73381995D01*
X129916659Y-73287878D01*
X129888344Y-73276149D01*
X129886951Y-73269147D01*
X129822122Y-73112637D01*
X129728005Y-72971782D01*
X129608218Y-72851995D01*
X129467363Y-72757878D01*
X129310853Y-72693049D01*
X129144703Y-72660000D01*
X128975297Y-72660000D01*
X128809147Y-72693049D01*
X128652637Y-72757878D01*
X128511782Y-72851995D01*
X128391995Y-72971782D01*
X128297878Y-73112637D01*
X128233049Y-73269147D01*
X128200000Y-73435297D01*
X124928175Y-73435297D01*
X124926951Y-73429147D01*
X124862122Y-73272637D01*
X124768005Y-73131782D01*
X124648218Y-73011995D01*
X124507363Y-72917878D01*
X124350853Y-72853049D01*
X124184703Y-72820000D01*
X124015297Y-72820000D01*
X123849147Y-72853049D01*
X123692637Y-72917878D01*
X123551782Y-73011995D01*
X123431995Y-73131782D01*
X123337878Y-73272637D01*
X123273049Y-73429147D01*
X123240000Y-73595297D01*
X123240000Y-73662835D01*
X123174311Y-73728524D01*
X123080194Y-73869379D01*
X123015365Y-74025889D01*
X122982316Y-74192039D01*
X122982316Y-74236093D01*
X122868218Y-74121995D01*
X122727363Y-74027878D01*
X122570853Y-73963049D01*
X122404703Y-73930000D01*
X122235297Y-73930000D01*
X122069147Y-73963049D01*
X121912637Y-74027878D01*
X121771782Y-74121995D01*
X121651995Y-74241782D01*
X121557878Y-74382637D01*
X121493049Y-74539147D01*
X121460000Y-74705297D01*
X119618788Y-74705297D01*
X119572122Y-74592637D01*
X119478005Y-74451782D01*
X119358218Y-74331995D01*
X119217363Y-74237878D01*
X119060853Y-74173049D01*
X118894703Y-74140000D01*
X118725297Y-74140000D01*
X118559147Y-74173049D01*
X118402637Y-74237878D01*
X118261782Y-74331995D01*
X118141995Y-74451782D01*
X118047878Y-74592637D01*
X117983049Y-74749147D01*
X117950000Y-74915297D01*
X116427000Y-74915297D01*
X116427000Y-74355683D01*
X116558218Y-74268005D01*
X116678005Y-74148218D01*
X116772122Y-74007363D01*
X116836951Y-73850853D01*
X116870000Y-73684703D01*
X116870000Y-73515297D01*
X116836951Y-73349147D01*
X116772122Y-73192637D01*
X116678005Y-73051782D01*
X116558218Y-72931995D01*
X116427000Y-72844317D01*
X116427000Y-71735297D01*
X119630000Y-71735297D01*
X119630000Y-71904703D01*
X119663049Y-72070853D01*
X119727878Y-72227363D01*
X119821995Y-72368218D01*
X119941782Y-72488005D01*
X120082637Y-72582122D01*
X120239147Y-72646951D01*
X120405297Y-72680000D01*
X120574703Y-72680000D01*
X120740853Y-72646951D01*
X120897363Y-72582122D01*
X121038218Y-72488005D01*
X121158005Y-72368218D01*
X121252122Y-72227363D01*
X121316951Y-72070853D01*
X121350000Y-71904703D01*
X121350000Y-71735297D01*
X121344033Y-71705297D01*
X124100000Y-71705297D01*
X124100000Y-71874703D01*
X124133049Y-72040853D01*
X124197878Y-72197363D01*
X124291995Y-72338218D01*
X124411782Y-72458005D01*
X124552637Y-72552122D01*
X124709147Y-72616951D01*
X124875297Y-72650000D01*
X125044703Y-72650000D01*
X125210853Y-72616951D01*
X125367363Y-72552122D01*
X125508218Y-72458005D01*
X125628005Y-72338218D01*
X125722122Y-72197363D01*
X125786951Y-72040853D01*
X125820000Y-71874703D01*
X125820000Y-71705297D01*
X125786951Y-71539147D01*
X125722122Y-71382637D01*
X125628005Y-71241782D01*
X125508218Y-71121995D01*
X125367363Y-71027878D01*
X125210853Y-70963049D01*
X125044703Y-70930000D01*
X124875297Y-70930000D01*
X124709147Y-70963049D01*
X124552637Y-71027878D01*
X124411782Y-71121995D01*
X124291995Y-71241782D01*
X124197878Y-71382637D01*
X124133049Y-71539147D01*
X124100000Y-71705297D01*
X121344033Y-71705297D01*
X121316951Y-71569147D01*
X121252122Y-71412637D01*
X121158005Y-71271782D01*
X121038218Y-71151995D01*
X120897363Y-71057878D01*
X120740853Y-70993049D01*
X120574703Y-70960000D01*
X120405297Y-70960000D01*
X120239147Y-70993049D01*
X120082637Y-71057878D01*
X119941782Y-71151995D01*
X119821995Y-71271782D01*
X119727878Y-71412637D01*
X119663049Y-71569147D01*
X119630000Y-71735297D01*
X116427000Y-71735297D01*
X116427000Y-69295297D01*
X122880000Y-69295297D01*
X122880000Y-69464703D01*
X122913049Y-69630853D01*
X122977878Y-69787363D01*
X123071995Y-69928218D01*
X123191782Y-70048005D01*
X123332637Y-70142122D01*
X123489147Y-70206951D01*
X123655297Y-70240000D01*
X123824703Y-70240000D01*
X123990853Y-70206951D01*
X124147363Y-70142122D01*
X124288218Y-70048005D01*
X124408005Y-69928218D01*
X124502122Y-69787363D01*
X124566951Y-69630853D01*
X124600000Y-69464703D01*
X124600000Y-69295297D01*
X124566951Y-69129147D01*
X124502122Y-68972637D01*
X124408005Y-68831782D01*
X124288218Y-68711995D01*
X124147363Y-68617878D01*
X123990853Y-68553049D01*
X123824703Y-68520000D01*
X123655297Y-68520000D01*
X123489147Y-68553049D01*
X123332637Y-68617878D01*
X123191782Y-68711995D01*
X123071995Y-68831782D01*
X122977878Y-68972637D01*
X122913049Y-69129147D01*
X122880000Y-69295297D01*
X116427000Y-69295297D01*
X116427000Y-66427000D01*
X133573000Y-66427000D01*
X133573000Y-76926200D01*
%TA.AperFunction,Conductor*%
D26*
G36*
X133573000Y-76926200D02*
G01*
X131363688Y-79135513D01*
X131307363Y-79097878D01*
X131233215Y-79067164D01*
X131202501Y-78993016D01*
X131145629Y-78907902D01*
X131157023Y-78850619D01*
X131157023Y-78681213D01*
X131123974Y-78515063D01*
X131059145Y-78358553D01*
X130965028Y-78217698D01*
X130845241Y-78097911D01*
X130704386Y-78003794D01*
X130547876Y-77938965D01*
X130477737Y-77925014D01*
X130477737Y-77787099D01*
X130444688Y-77620949D01*
X130379859Y-77464439D01*
X130285742Y-77323584D01*
X130165955Y-77203797D01*
X130025100Y-77109680D01*
X129868590Y-77044851D01*
X129702440Y-77011802D01*
X129533034Y-77011802D01*
X129366884Y-77044851D01*
X129210374Y-77109680D01*
X129069519Y-77203797D01*
X128949732Y-77323584D01*
X128855615Y-77464439D01*
X128790786Y-77620949D01*
X128757737Y-77787099D01*
X128757737Y-77956505D01*
X128790786Y-78122655D01*
X128855615Y-78279165D01*
X128864710Y-78292776D01*
X128842035Y-78347518D01*
X128808986Y-78513668D01*
X128808986Y-78683074D01*
X128842035Y-78849224D01*
X128906864Y-79005734D01*
X129000981Y-79146589D01*
X129120768Y-79266376D01*
X129261623Y-79360493D01*
X129418133Y-79425322D01*
X129580379Y-79457594D01*
X129580379Y-79485082D01*
X129613428Y-79651232D01*
X129678257Y-79807742D01*
X129772374Y-79948597D01*
X129892161Y-80068384D01*
X130033016Y-80162501D01*
X130107164Y-80193215D01*
X130137878Y-80267363D01*
X130175513Y-80323688D01*
X129991838Y-80507363D01*
X129869540Y-80441993D01*
X129693292Y-80388528D01*
X129510000Y-80370476D01*
X129326708Y-80388528D01*
X129150459Y-80441993D01*
X128988028Y-80528815D01*
X128881334Y-80616377D01*
X128881331Y-80616380D01*
X128845657Y-80645657D01*
X128816380Y-80681331D01*
X125924711Y-83573000D01*
X116427000Y-83573000D01*
X116427000Y-80035297D01*
X118550000Y-80035297D01*
X118550000Y-80204703D01*
X118583049Y-80370853D01*
X118647878Y-80527363D01*
X118741995Y-80668218D01*
X118861782Y-80788005D01*
X119002637Y-80882122D01*
X119159147Y-80946951D01*
X119325297Y-80980000D01*
X119494703Y-80980000D01*
X119660853Y-80946951D01*
X119817363Y-80882122D01*
X119958218Y-80788005D01*
X120050926Y-80695297D01*
X125270000Y-80695297D01*
X125270000Y-80864703D01*
X125303049Y-81030853D01*
X125367878Y-81187363D01*
X125461995Y-81328218D01*
X125581782Y-81448005D01*
X125722637Y-81542122D01*
X125879147Y-81606951D01*
X126045297Y-81640000D01*
X126214703Y-81640000D01*
X126380853Y-81606951D01*
X126537363Y-81542122D01*
X126678218Y-81448005D01*
X126798005Y-81328218D01*
X126892122Y-81187363D01*
X126956951Y-81030853D01*
X126990000Y-80864703D01*
X126990000Y-80695297D01*
X126956951Y-80529147D01*
X126892122Y-80372637D01*
X126798005Y-80231782D01*
X126678218Y-80111995D01*
X126537363Y-80017878D01*
X126380853Y-79953049D01*
X126214703Y-79920000D01*
X126045297Y-79920000D01*
X125879147Y-79953049D01*
X125722637Y-80017878D01*
X125581782Y-80111995D01*
X125461995Y-80231782D01*
X125367878Y-80372637D01*
X125303049Y-80529147D01*
X125270000Y-80695297D01*
X120050926Y-80695297D01*
X120078005Y-80668218D01*
X120172122Y-80527363D01*
X120236951Y-80370853D01*
X120270000Y-80204703D01*
X120270000Y-80035297D01*
X120236951Y-79869147D01*
X120172122Y-79712637D01*
X120078005Y-79571782D01*
X119958218Y-79451995D01*
X119817363Y-79357878D01*
X119660853Y-79293049D01*
X119494703Y-79260000D01*
X119325297Y-79260000D01*
X119159147Y-79293049D01*
X119002637Y-79357878D01*
X118861782Y-79451995D01*
X118741995Y-79571782D01*
X118647878Y-79712637D01*
X118583049Y-79869147D01*
X118550000Y-80035297D01*
X116427000Y-80035297D01*
X116427000Y-74915297D01*
X117950000Y-74915297D01*
X117950000Y-75084703D01*
X117983049Y-75250853D01*
X118047878Y-75407363D01*
X118141995Y-75548218D01*
X118261782Y-75668005D01*
X118402637Y-75762122D01*
X118559147Y-75826951D01*
X118725297Y-75860000D01*
X118894703Y-75860000D01*
X119060853Y-75826951D01*
X119217363Y-75762122D01*
X119358218Y-75668005D01*
X119478005Y-75548218D01*
X119572122Y-75407363D01*
X119636951Y-75250853D01*
X119670000Y-75084703D01*
X119670000Y-74915297D01*
X119636951Y-74749147D01*
X119618788Y-74705297D01*
X121460000Y-74705297D01*
X121460000Y-74874703D01*
X121493049Y-75040853D01*
X121557878Y-75197363D01*
X121651995Y-75338218D01*
X121771782Y-75458005D01*
X121912637Y-75552122D01*
X122069147Y-75616951D01*
X122235297Y-75650000D01*
X122404703Y-75650000D01*
X122570853Y-75616951D01*
X122727363Y-75552122D01*
X122868218Y-75458005D01*
X122988005Y-75338218D01*
X123082122Y-75197363D01*
X123146951Y-75040853D01*
X123180000Y-74874703D01*
X123180000Y-74830649D01*
X123294098Y-74944747D01*
X123434953Y-75038864D01*
X123591463Y-75103693D01*
X123757613Y-75136742D01*
X123927019Y-75136742D01*
X124093169Y-75103693D01*
X124249679Y-75038864D01*
X124390534Y-74944747D01*
X124510321Y-74824960D01*
X124604438Y-74684105D01*
X124669267Y-74527595D01*
X124702316Y-74361445D01*
X124702316Y-74293907D01*
X124768005Y-74228218D01*
X124862122Y-74087363D01*
X124926951Y-73930853D01*
X124960000Y-73764703D01*
X124960000Y-73595297D01*
X124928175Y-73435297D01*
X128200000Y-73435297D01*
X128200000Y-73604703D01*
X128233049Y-73770853D01*
X128297878Y-73927363D01*
X128391995Y-74068218D01*
X128511782Y-74188005D01*
X128652637Y-74282122D01*
X128680952Y-74293851D01*
X128682345Y-74300853D01*
X128747174Y-74457363D01*
X128841291Y-74598218D01*
X128961078Y-74718005D01*
X129101933Y-74812122D01*
X129120294Y-74819727D01*
X129177305Y-74957363D01*
X129271422Y-75098218D01*
X129391209Y-75218005D01*
X129532064Y-75312122D01*
X129602495Y-75341296D01*
X129650572Y-75457363D01*
X129744689Y-75598218D01*
X129864476Y-75718005D01*
X130005331Y-75812122D01*
X130093542Y-75848660D01*
X130138568Y-75957363D01*
X130232685Y-76098218D01*
X130352472Y-76218005D01*
X130375775Y-76233576D01*
X130401369Y-76362245D01*
X130466198Y-76518755D01*
X130560315Y-76659610D01*
X130680102Y-76779397D01*
X130820957Y-76873514D01*
X130977467Y-76938343D01*
X131143617Y-76971392D01*
X131313023Y-76971392D01*
X131479173Y-76938343D01*
X131635683Y-76873514D01*
X131776538Y-76779397D01*
X131896325Y-76659610D01*
X131990442Y-76518755D01*
X132055271Y-76362245D01*
X132088320Y-76196095D01*
X132088320Y-76026689D01*
X132055271Y-75860539D01*
X131990442Y-75704029D01*
X131896325Y-75563174D01*
X131776538Y-75443387D01*
X131753235Y-75427816D01*
X131727641Y-75299147D01*
X131662812Y-75142637D01*
X131568695Y-75001782D01*
X131448908Y-74881995D01*
X131308053Y-74787878D01*
X131219842Y-74751340D01*
X131174816Y-74642637D01*
X131080699Y-74501782D01*
X130960912Y-74381995D01*
X130820057Y-74287878D01*
X130749626Y-74258704D01*
X130701549Y-74142637D01*
X130607432Y-74001782D01*
X130487645Y-73881995D01*
X130346790Y-73787878D01*
X130328429Y-73780273D01*
X130271418Y-73642637D01*
X130177301Y-73501782D01*
X130057514Y-73381995D01*
X129916659Y-73287878D01*
X129888344Y-73276149D01*
X129886951Y-73269147D01*
X129822122Y-73112637D01*
X129728005Y-72971782D01*
X129608218Y-72851995D01*
X129467363Y-72757878D01*
X129310853Y-72693049D01*
X129144703Y-72660000D01*
X128975297Y-72660000D01*
X128809147Y-72693049D01*
X128652637Y-72757878D01*
X128511782Y-72851995D01*
X128391995Y-72971782D01*
X128297878Y-73112637D01*
X128233049Y-73269147D01*
X128200000Y-73435297D01*
X124928175Y-73435297D01*
X124926951Y-73429147D01*
X124862122Y-73272637D01*
X124768005Y-73131782D01*
X124648218Y-73011995D01*
X124507363Y-72917878D01*
X124350853Y-72853049D01*
X124184703Y-72820000D01*
X124015297Y-72820000D01*
X123849147Y-72853049D01*
X123692637Y-72917878D01*
X123551782Y-73011995D01*
X123431995Y-73131782D01*
X123337878Y-73272637D01*
X123273049Y-73429147D01*
X123240000Y-73595297D01*
X123240000Y-73662835D01*
X123174311Y-73728524D01*
X123080194Y-73869379D01*
X123015365Y-74025889D01*
X122982316Y-74192039D01*
X122982316Y-74236093D01*
X122868218Y-74121995D01*
X122727363Y-74027878D01*
X122570853Y-73963049D01*
X122404703Y-73930000D01*
X122235297Y-73930000D01*
X122069147Y-73963049D01*
X121912637Y-74027878D01*
X121771782Y-74121995D01*
X121651995Y-74241782D01*
X121557878Y-74382637D01*
X121493049Y-74539147D01*
X121460000Y-74705297D01*
X119618788Y-74705297D01*
X119572122Y-74592637D01*
X119478005Y-74451782D01*
X119358218Y-74331995D01*
X119217363Y-74237878D01*
X119060853Y-74173049D01*
X118894703Y-74140000D01*
X118725297Y-74140000D01*
X118559147Y-74173049D01*
X118402637Y-74237878D01*
X118261782Y-74331995D01*
X118141995Y-74451782D01*
X118047878Y-74592637D01*
X117983049Y-74749147D01*
X117950000Y-74915297D01*
X116427000Y-74915297D01*
X116427000Y-74355683D01*
X116558218Y-74268005D01*
X116678005Y-74148218D01*
X116772122Y-74007363D01*
X116836951Y-73850853D01*
X116870000Y-73684703D01*
X116870000Y-73515297D01*
X116836951Y-73349147D01*
X116772122Y-73192637D01*
X116678005Y-73051782D01*
X116558218Y-72931995D01*
X116427000Y-72844317D01*
X116427000Y-71735297D01*
X119630000Y-71735297D01*
X119630000Y-71904703D01*
X119663049Y-72070853D01*
X119727878Y-72227363D01*
X119821995Y-72368218D01*
X119941782Y-72488005D01*
X120082637Y-72582122D01*
X120239147Y-72646951D01*
X120405297Y-72680000D01*
X120574703Y-72680000D01*
X120740853Y-72646951D01*
X120897363Y-72582122D01*
X121038218Y-72488005D01*
X121158005Y-72368218D01*
X121252122Y-72227363D01*
X121316951Y-72070853D01*
X121350000Y-71904703D01*
X121350000Y-71735297D01*
X121344033Y-71705297D01*
X124100000Y-71705297D01*
X124100000Y-71874703D01*
X124133049Y-72040853D01*
X124197878Y-72197363D01*
X124291995Y-72338218D01*
X124411782Y-72458005D01*
X124552637Y-72552122D01*
X124709147Y-72616951D01*
X124875297Y-72650000D01*
X125044703Y-72650000D01*
X125210853Y-72616951D01*
X125367363Y-72552122D01*
X125508218Y-72458005D01*
X125628005Y-72338218D01*
X125722122Y-72197363D01*
X125786951Y-72040853D01*
X125820000Y-71874703D01*
X125820000Y-71705297D01*
X125786951Y-71539147D01*
X125722122Y-71382637D01*
X125628005Y-71241782D01*
X125508218Y-71121995D01*
X125367363Y-71027878D01*
X125210853Y-70963049D01*
X125044703Y-70930000D01*
X124875297Y-70930000D01*
X124709147Y-70963049D01*
X124552637Y-71027878D01*
X124411782Y-71121995D01*
X124291995Y-71241782D01*
X124197878Y-71382637D01*
X124133049Y-71539147D01*
X124100000Y-71705297D01*
X121344033Y-71705297D01*
X121316951Y-71569147D01*
X121252122Y-71412637D01*
X121158005Y-71271782D01*
X121038218Y-71151995D01*
X120897363Y-71057878D01*
X120740853Y-70993049D01*
X120574703Y-70960000D01*
X120405297Y-70960000D01*
X120239147Y-70993049D01*
X120082637Y-71057878D01*
X119941782Y-71151995D01*
X119821995Y-71271782D01*
X119727878Y-71412637D01*
X119663049Y-71569147D01*
X119630000Y-71735297D01*
X116427000Y-71735297D01*
X116427000Y-69295297D01*
X122880000Y-69295297D01*
X122880000Y-69464703D01*
X122913049Y-69630853D01*
X122977878Y-69787363D01*
X123071995Y-69928218D01*
X123191782Y-70048005D01*
X123332637Y-70142122D01*
X123489147Y-70206951D01*
X123655297Y-70240000D01*
X123824703Y-70240000D01*
X123990853Y-70206951D01*
X124147363Y-70142122D01*
X124288218Y-70048005D01*
X124408005Y-69928218D01*
X124502122Y-69787363D01*
X124566951Y-69630853D01*
X124600000Y-69464703D01*
X124600000Y-69295297D01*
X124566951Y-69129147D01*
X124502122Y-68972637D01*
X124408005Y-68831782D01*
X124288218Y-68711995D01*
X124147363Y-68617878D01*
X123990853Y-68553049D01*
X123824703Y-68520000D01*
X123655297Y-68520000D01*
X123489147Y-68553049D01*
X123332637Y-68617878D01*
X123191782Y-68711995D01*
X123071995Y-68831782D01*
X122977878Y-68972637D01*
X122913049Y-69129147D01*
X122880000Y-69295297D01*
X116427000Y-69295297D01*
X116427000Y-66427000D01*
X133573000Y-66427000D01*
X133573000Y-76926200D01*
G37*
%TD.AperFunction*%
%TD*%
D25*
%TO.N,VBUS*%
X111873000Y-64874363D02*
X111771782Y-64941995D01*
X111651995Y-65061782D01*
X111557878Y-65202637D01*
X111493049Y-65359147D01*
X111460000Y-65525297D01*
X111460000Y-65694703D01*
X111493049Y-65860853D01*
X111557878Y-66017363D01*
X111651995Y-66158218D01*
X111771782Y-66278005D01*
X111873000Y-66345637D01*
X111873000Y-86873000D01*
X100660000Y-86873000D01*
X100660000Y-84464401D01*
X100701716Y-84542447D01*
X100843551Y-84715273D01*
X101016377Y-84857108D01*
X101213553Y-84962500D01*
X101427501Y-85027401D01*
X101594248Y-85043824D01*
X102505752Y-85043824D01*
X102672499Y-85027401D01*
X102886447Y-84962500D01*
X103083623Y-84857108D01*
X103256449Y-84715273D01*
X103398284Y-84542447D01*
X103503676Y-84345271D01*
X103568577Y-84131323D01*
X103590491Y-83908824D01*
X103568577Y-83686325D01*
X103503676Y-83472377D01*
X103398284Y-83275201D01*
X103256449Y-83102375D01*
X103083623Y-82960540D01*
X102886447Y-82855148D01*
X102672499Y-82790247D01*
X102505752Y-82773824D01*
X101594248Y-82773824D01*
X101427501Y-82790247D01*
X101213553Y-82855148D01*
X101016377Y-82960540D01*
X100843551Y-83102375D01*
X100701716Y-83275201D01*
X100660000Y-83353247D01*
X100660000Y-82431885D01*
X103765000Y-82431885D01*
X103765000Y-82635763D01*
X103804774Y-82835722D01*
X103882795Y-83024080D01*
X103996063Y-83193598D01*
X104140226Y-83337761D01*
X104266136Y-83421891D01*
X104231423Y-83536325D01*
X104209509Y-83758824D01*
X104231423Y-83981323D01*
X104296324Y-84195271D01*
X104401716Y-84392447D01*
X104543551Y-84565273D01*
X104716377Y-84707108D01*
X104913553Y-84812500D01*
X105127501Y-84877401D01*
X105294248Y-84893824D01*
X106405752Y-84893824D01*
X106572499Y-84877401D01*
X106786447Y-84812500D01*
X106983623Y-84707108D01*
X107156449Y-84565273D01*
X107298284Y-84392447D01*
X107403676Y-84195271D01*
X107468577Y-83981323D01*
X107490491Y-83758824D01*
X107468577Y-83536325D01*
X107403676Y-83322377D01*
X107298284Y-83125201D01*
X107156449Y-82952375D01*
X106983623Y-82810540D01*
X106786447Y-82705148D01*
X106572499Y-82640247D01*
X106405752Y-82623824D01*
X105835000Y-82623824D01*
X105835000Y-82431885D01*
X105795226Y-82231926D01*
X105751059Y-82125297D01*
X107060000Y-82125297D01*
X107060000Y-82294703D01*
X107093049Y-82460853D01*
X107157878Y-82617363D01*
X107251995Y-82758218D01*
X107371782Y-82878005D01*
X107512637Y-82972122D01*
X107669147Y-83036951D01*
X107835297Y-83070000D01*
X108004703Y-83070000D01*
X108170853Y-83036951D01*
X108327363Y-82972122D01*
X108468218Y-82878005D01*
X108588005Y-82758218D01*
X108682122Y-82617363D01*
X108746951Y-82460853D01*
X108780000Y-82294703D01*
X108780000Y-82125297D01*
X108746951Y-81959147D01*
X108682122Y-81802637D01*
X108588005Y-81661782D01*
X108468218Y-81541995D01*
X108327363Y-81447878D01*
X108170853Y-81383049D01*
X108004703Y-81350000D01*
X107835297Y-81350000D01*
X107669147Y-81383049D01*
X107512637Y-81447878D01*
X107371782Y-81541995D01*
X107251995Y-81661782D01*
X107157878Y-81802637D01*
X107093049Y-81959147D01*
X107060000Y-82125297D01*
X105751059Y-82125297D01*
X105717205Y-82043568D01*
X105603937Y-81874050D01*
X105459774Y-81729887D01*
X105290256Y-81616619D01*
X105101898Y-81538598D01*
X104901939Y-81498824D01*
X104698061Y-81498824D01*
X104498102Y-81538598D01*
X104309744Y-81616619D01*
X104140226Y-81729887D01*
X103996063Y-81874050D01*
X103882795Y-82043568D01*
X103804774Y-82231926D01*
X103765000Y-82431885D01*
X100660000Y-82431885D01*
X100660000Y-77431885D01*
X103765000Y-77431885D01*
X103765000Y-77635763D01*
X103804774Y-77835722D01*
X103882795Y-78024080D01*
X103996063Y-78193598D01*
X104140226Y-78337761D01*
X104309744Y-78451029D01*
X104498102Y-78529050D01*
X104698061Y-78568824D01*
X104901939Y-78568824D01*
X105101898Y-78529050D01*
X105290256Y-78451029D01*
X105459774Y-78337761D01*
X105603937Y-78193598D01*
X105717205Y-78024080D01*
X105795226Y-77835722D01*
X105835000Y-77635763D01*
X105835000Y-77443824D01*
X106405752Y-77443824D01*
X106572499Y-77427401D01*
X106786447Y-77362500D01*
X106983623Y-77257108D01*
X107156449Y-77115273D01*
X107298284Y-76942447D01*
X107403676Y-76745271D01*
X107468577Y-76531323D01*
X107490491Y-76308824D01*
X107468577Y-76086325D01*
X107403676Y-75872377D01*
X107298284Y-75675201D01*
X107156449Y-75502375D01*
X106983623Y-75360540D01*
X106786447Y-75255148D01*
X106572499Y-75190247D01*
X106405752Y-75173824D01*
X105294248Y-75173824D01*
X105127501Y-75190247D01*
X104913553Y-75255148D01*
X104716377Y-75360540D01*
X104543551Y-75502375D01*
X104401716Y-75675201D01*
X104296324Y-75872377D01*
X104231423Y-76086325D01*
X104209509Y-76308824D01*
X104231423Y-76531323D01*
X104266136Y-76645757D01*
X104140226Y-76729887D01*
X103996063Y-76874050D01*
X103882795Y-77043568D01*
X103804774Y-77231926D01*
X103765000Y-77431885D01*
X100660000Y-77431885D01*
X100660000Y-76714401D01*
X100701716Y-76792447D01*
X100843551Y-76965273D01*
X101016377Y-77107108D01*
X101213553Y-77212500D01*
X101427501Y-77277401D01*
X101594248Y-77293824D01*
X102505752Y-77293824D01*
X102672499Y-77277401D01*
X102886447Y-77212500D01*
X103083623Y-77107108D01*
X103256449Y-76965273D01*
X103398284Y-76792447D01*
X103503676Y-76595271D01*
X103568577Y-76381323D01*
X103590491Y-76158824D01*
X103568577Y-75936325D01*
X103503676Y-75722377D01*
X103398284Y-75525201D01*
X103256449Y-75352375D01*
X103083623Y-75210540D01*
X102886447Y-75105148D01*
X102672499Y-75040247D01*
X102505752Y-75023824D01*
X101594248Y-75023824D01*
X101427501Y-75040247D01*
X101213553Y-75105148D01*
X101016377Y-75210540D01*
X100843551Y-75352375D01*
X100701716Y-75525201D01*
X100660000Y-75603247D01*
X100660000Y-73570000D01*
X100689509Y-73570000D01*
X100711423Y-73792499D01*
X100776324Y-74006447D01*
X100881716Y-74203623D01*
X101023551Y-74376449D01*
X101196377Y-74518284D01*
X101393553Y-74623676D01*
X101607501Y-74688577D01*
X101774248Y-74705000D01*
X102485752Y-74705000D01*
X102652499Y-74688577D01*
X102866447Y-74623676D01*
X103063623Y-74518284D01*
X103236449Y-74376449D01*
X103378284Y-74203623D01*
X103483676Y-74006447D01*
X103548577Y-73792499D01*
X103570491Y-73570000D01*
X104619509Y-73570000D01*
X104641423Y-73792499D01*
X104706324Y-74006447D01*
X104811716Y-74203623D01*
X104953551Y-74376449D01*
X105126377Y-74518284D01*
X105323553Y-74623676D01*
X105537501Y-74688577D01*
X105704248Y-74705000D01*
X106915752Y-74705000D01*
X107082499Y-74688577D01*
X107296447Y-74623676D01*
X107493623Y-74518284D01*
X107666449Y-74376449D01*
X107808284Y-74203623D01*
X107913676Y-74006447D01*
X107978577Y-73792499D01*
X108000491Y-73570000D01*
X107978577Y-73347501D01*
X107929373Y-73185297D01*
X108440000Y-73185297D01*
X108440000Y-73354703D01*
X108473049Y-73520853D01*
X108537878Y-73677363D01*
X108631995Y-73818218D01*
X108751782Y-73938005D01*
X108892637Y-74032122D01*
X109002409Y-74077591D01*
X109047878Y-74187363D01*
X109141995Y-74328218D01*
X109261782Y-74448005D01*
X109402637Y-74542122D01*
X109559147Y-74606951D01*
X109725297Y-74640000D01*
X109894703Y-74640000D01*
X110060853Y-74606951D01*
X110217363Y-74542122D01*
X110358218Y-74448005D01*
X110478005Y-74328218D01*
X110572122Y-74187363D01*
X110636951Y-74030853D01*
X110670000Y-73864703D01*
X110670000Y-73695297D01*
X110636951Y-73529147D01*
X110572122Y-73372637D01*
X110478005Y-73231782D01*
X110358218Y-73111995D01*
X110217363Y-73017878D01*
X110107591Y-72972409D01*
X110062122Y-72862637D01*
X109968005Y-72721782D01*
X109848218Y-72601995D01*
X109707363Y-72507878D01*
X109550853Y-72443049D01*
X109384703Y-72410000D01*
X109215297Y-72410000D01*
X109049147Y-72443049D01*
X108892637Y-72507878D01*
X108751782Y-72601995D01*
X108631995Y-72721782D01*
X108537878Y-72862637D01*
X108473049Y-73019147D01*
X108440000Y-73185297D01*
X107929373Y-73185297D01*
X107913676Y-73133553D01*
X107808284Y-72936377D01*
X107666449Y-72763551D01*
X107493623Y-72621716D01*
X107296447Y-72516324D01*
X107082499Y-72451423D01*
X106915752Y-72435000D01*
X106696904Y-72435000D01*
X106703108Y-72420022D01*
X106740000Y-72234552D01*
X106740000Y-72045448D01*
X106703108Y-71859978D01*
X106630741Y-71685269D01*
X106525681Y-71528036D01*
X106391964Y-71394319D01*
X106234731Y-71289259D01*
X106060022Y-71216892D01*
X105874552Y-71180000D01*
X105685448Y-71180000D01*
X105499978Y-71216892D01*
X105325269Y-71289259D01*
X105168036Y-71394319D01*
X105034319Y-71528036D01*
X104929259Y-71685269D01*
X104856892Y-71859978D01*
X104820000Y-72045448D01*
X104820000Y-72234552D01*
X104856892Y-72420022D01*
X104929259Y-72594731D01*
X105010715Y-72716638D01*
X104953551Y-72763551D01*
X104811716Y-72936377D01*
X104706324Y-73133553D01*
X104641423Y-73347501D01*
X104619509Y-73570000D01*
X103570491Y-73570000D01*
X103548577Y-73347501D01*
X103483676Y-73133553D01*
X103378284Y-72936377D01*
X103236449Y-72763551D01*
X103063623Y-72621716D01*
X102866447Y-72516324D01*
X102652499Y-72451423D01*
X102485752Y-72435000D01*
X101774248Y-72435000D01*
X101607501Y-72451423D01*
X101393553Y-72516324D01*
X101196377Y-72621716D01*
X101023551Y-72763551D01*
X100881716Y-72936377D01*
X100776324Y-73133553D01*
X100711423Y-73347501D01*
X100689509Y-73570000D01*
X100660000Y-73570000D01*
X100660000Y-64930000D01*
X100689509Y-64930000D01*
X100711423Y-65152499D01*
X100776324Y-65366447D01*
X100881716Y-65563623D01*
X101023551Y-65736449D01*
X101196377Y-65878284D01*
X101393553Y-65983676D01*
X101607501Y-66048577D01*
X101774248Y-66065000D01*
X102485752Y-66065000D01*
X102652499Y-66048577D01*
X102866447Y-65983676D01*
X103063623Y-65878284D01*
X103236449Y-65736449D01*
X103378284Y-65563623D01*
X103483676Y-65366447D01*
X103548577Y-65152499D01*
X103570491Y-64930000D01*
X104619509Y-64930000D01*
X104641423Y-65152499D01*
X104706324Y-65366447D01*
X104811716Y-65563623D01*
X104953551Y-65736449D01*
X105010715Y-65783362D01*
X104929259Y-65905269D01*
X104856892Y-66079978D01*
X104820000Y-66265448D01*
X104820000Y-66454552D01*
X104856892Y-66640022D01*
X104929259Y-66814731D01*
X105034319Y-66971964D01*
X105168036Y-67105681D01*
X105325269Y-67210741D01*
X105499978Y-67283108D01*
X105685448Y-67320000D01*
X105874552Y-67320000D01*
X106060022Y-67283108D01*
X106234731Y-67210741D01*
X106391964Y-67105681D01*
X106525681Y-66971964D01*
X106630741Y-66814731D01*
X106703108Y-66640022D01*
X106740000Y-66454552D01*
X106740000Y-66265448D01*
X106703108Y-66079978D01*
X106696904Y-66065000D01*
X106915752Y-66065000D01*
X107082499Y-66048577D01*
X107296447Y-65983676D01*
X107493623Y-65878284D01*
X107666449Y-65736449D01*
X107808284Y-65563623D01*
X107906273Y-65380297D01*
X108255000Y-65380297D01*
X108255000Y-65549703D01*
X108288049Y-65715853D01*
X108352878Y-65872363D01*
X108446995Y-66013218D01*
X108566782Y-66133005D01*
X108707637Y-66227122D01*
X108864147Y-66291951D01*
X109030297Y-66325000D01*
X109199703Y-66325000D01*
X109365853Y-66291951D01*
X109522363Y-66227122D01*
X109663218Y-66133005D01*
X109783005Y-66013218D01*
X109877122Y-65872363D01*
X109891837Y-65836837D01*
X109927363Y-65822122D01*
X110068218Y-65728005D01*
X110188005Y-65608218D01*
X110282122Y-65467363D01*
X110346951Y-65310853D01*
X110380000Y-65144703D01*
X110380000Y-64975297D01*
X110346951Y-64809147D01*
X110282122Y-64652637D01*
X110188005Y-64511782D01*
X110068218Y-64391995D01*
X109927363Y-64297878D01*
X109770853Y-64233049D01*
X109604703Y-64200000D01*
X109435297Y-64200000D01*
X109269147Y-64233049D01*
X109112637Y-64297878D01*
X108971782Y-64391995D01*
X108851995Y-64511782D01*
X108757878Y-64652637D01*
X108743163Y-64688163D01*
X108707637Y-64702878D01*
X108566782Y-64796995D01*
X108446995Y-64916782D01*
X108352878Y-65057637D01*
X108288049Y-65214147D01*
X108255000Y-65380297D01*
X107906273Y-65380297D01*
X107913676Y-65366447D01*
X107978577Y-65152499D01*
X108000491Y-64930000D01*
X107978577Y-64707501D01*
X107913676Y-64493553D01*
X107808284Y-64296377D01*
X107666449Y-64123551D01*
X107493623Y-63981716D01*
X107296447Y-63876324D01*
X107082499Y-63811423D01*
X106915752Y-63795000D01*
X105704248Y-63795000D01*
X105537501Y-63811423D01*
X105323553Y-63876324D01*
X105126377Y-63981716D01*
X104953551Y-64123551D01*
X104811716Y-64296377D01*
X104706324Y-64493553D01*
X104641423Y-64707501D01*
X104619509Y-64930000D01*
X103570491Y-64930000D01*
X103548577Y-64707501D01*
X103483676Y-64493553D01*
X103378284Y-64296377D01*
X103236449Y-64123551D01*
X103063623Y-63981716D01*
X102866447Y-63876324D01*
X102652499Y-63811423D01*
X102485752Y-63795000D01*
X101774248Y-63795000D01*
X101607501Y-63811423D01*
X101393553Y-63876324D01*
X101196377Y-63981716D01*
X101023551Y-64123551D01*
X100881716Y-64296377D01*
X100776324Y-64493553D01*
X100711423Y-64707501D01*
X100689509Y-64930000D01*
X100660000Y-64930000D01*
X100660000Y-62127000D01*
X111873000Y-62127000D01*
X111873000Y-64874363D01*
%TA.AperFunction,Conductor*%
D26*
G36*
X111873000Y-64874363D02*
G01*
X111771782Y-64941995D01*
X111651995Y-65061782D01*
X111557878Y-65202637D01*
X111493049Y-65359147D01*
X111460000Y-65525297D01*
X111460000Y-65694703D01*
X111493049Y-65860853D01*
X111557878Y-66017363D01*
X111651995Y-66158218D01*
X111771782Y-66278005D01*
X111873000Y-66345637D01*
X111873000Y-86873000D01*
X100660000Y-86873000D01*
X100660000Y-84464401D01*
X100701716Y-84542447D01*
X100843551Y-84715273D01*
X101016377Y-84857108D01*
X101213553Y-84962500D01*
X101427501Y-85027401D01*
X101594248Y-85043824D01*
X102505752Y-85043824D01*
X102672499Y-85027401D01*
X102886447Y-84962500D01*
X103083623Y-84857108D01*
X103256449Y-84715273D01*
X103398284Y-84542447D01*
X103503676Y-84345271D01*
X103568577Y-84131323D01*
X103590491Y-83908824D01*
X103568577Y-83686325D01*
X103503676Y-83472377D01*
X103398284Y-83275201D01*
X103256449Y-83102375D01*
X103083623Y-82960540D01*
X102886447Y-82855148D01*
X102672499Y-82790247D01*
X102505752Y-82773824D01*
X101594248Y-82773824D01*
X101427501Y-82790247D01*
X101213553Y-82855148D01*
X101016377Y-82960540D01*
X100843551Y-83102375D01*
X100701716Y-83275201D01*
X100660000Y-83353247D01*
X100660000Y-82431885D01*
X103765000Y-82431885D01*
X103765000Y-82635763D01*
X103804774Y-82835722D01*
X103882795Y-83024080D01*
X103996063Y-83193598D01*
X104140226Y-83337761D01*
X104266136Y-83421891D01*
X104231423Y-83536325D01*
X104209509Y-83758824D01*
X104231423Y-83981323D01*
X104296324Y-84195271D01*
X104401716Y-84392447D01*
X104543551Y-84565273D01*
X104716377Y-84707108D01*
X104913553Y-84812500D01*
X105127501Y-84877401D01*
X105294248Y-84893824D01*
X106405752Y-84893824D01*
X106572499Y-84877401D01*
X106786447Y-84812500D01*
X106983623Y-84707108D01*
X107156449Y-84565273D01*
X107298284Y-84392447D01*
X107403676Y-84195271D01*
X107468577Y-83981323D01*
X107490491Y-83758824D01*
X107468577Y-83536325D01*
X107403676Y-83322377D01*
X107298284Y-83125201D01*
X107156449Y-82952375D01*
X106983623Y-82810540D01*
X106786447Y-82705148D01*
X106572499Y-82640247D01*
X106405752Y-82623824D01*
X105835000Y-82623824D01*
X105835000Y-82431885D01*
X105795226Y-82231926D01*
X105751059Y-82125297D01*
X107060000Y-82125297D01*
X107060000Y-82294703D01*
X107093049Y-82460853D01*
X107157878Y-82617363D01*
X107251995Y-82758218D01*
X107371782Y-82878005D01*
X107512637Y-82972122D01*
X107669147Y-83036951D01*
X107835297Y-83070000D01*
X108004703Y-83070000D01*
X108170853Y-83036951D01*
X108327363Y-82972122D01*
X108468218Y-82878005D01*
X108588005Y-82758218D01*
X108682122Y-82617363D01*
X108746951Y-82460853D01*
X108780000Y-82294703D01*
X108780000Y-82125297D01*
X108746951Y-81959147D01*
X108682122Y-81802637D01*
X108588005Y-81661782D01*
X108468218Y-81541995D01*
X108327363Y-81447878D01*
X108170853Y-81383049D01*
X108004703Y-81350000D01*
X107835297Y-81350000D01*
X107669147Y-81383049D01*
X107512637Y-81447878D01*
X107371782Y-81541995D01*
X107251995Y-81661782D01*
X107157878Y-81802637D01*
X107093049Y-81959147D01*
X107060000Y-82125297D01*
X105751059Y-82125297D01*
X105717205Y-82043568D01*
X105603937Y-81874050D01*
X105459774Y-81729887D01*
X105290256Y-81616619D01*
X105101898Y-81538598D01*
X104901939Y-81498824D01*
X104698061Y-81498824D01*
X104498102Y-81538598D01*
X104309744Y-81616619D01*
X104140226Y-81729887D01*
X103996063Y-81874050D01*
X103882795Y-82043568D01*
X103804774Y-82231926D01*
X103765000Y-82431885D01*
X100660000Y-82431885D01*
X100660000Y-77431885D01*
X103765000Y-77431885D01*
X103765000Y-77635763D01*
X103804774Y-77835722D01*
X103882795Y-78024080D01*
X103996063Y-78193598D01*
X104140226Y-78337761D01*
X104309744Y-78451029D01*
X104498102Y-78529050D01*
X104698061Y-78568824D01*
X104901939Y-78568824D01*
X105101898Y-78529050D01*
X105290256Y-78451029D01*
X105459774Y-78337761D01*
X105603937Y-78193598D01*
X105717205Y-78024080D01*
X105795226Y-77835722D01*
X105835000Y-77635763D01*
X105835000Y-77443824D01*
X106405752Y-77443824D01*
X106572499Y-77427401D01*
X106786447Y-77362500D01*
X106983623Y-77257108D01*
X107156449Y-77115273D01*
X107298284Y-76942447D01*
X107403676Y-76745271D01*
X107468577Y-76531323D01*
X107490491Y-76308824D01*
X107468577Y-76086325D01*
X107403676Y-75872377D01*
X107298284Y-75675201D01*
X107156449Y-75502375D01*
X106983623Y-75360540D01*
X106786447Y-75255148D01*
X106572499Y-75190247D01*
X106405752Y-75173824D01*
X105294248Y-75173824D01*
X105127501Y-75190247D01*
X104913553Y-75255148D01*
X104716377Y-75360540D01*
X104543551Y-75502375D01*
X104401716Y-75675201D01*
X104296324Y-75872377D01*
X104231423Y-76086325D01*
X104209509Y-76308824D01*
X104231423Y-76531323D01*
X104266136Y-76645757D01*
X104140226Y-76729887D01*
X103996063Y-76874050D01*
X103882795Y-77043568D01*
X103804774Y-77231926D01*
X103765000Y-77431885D01*
X100660000Y-77431885D01*
X100660000Y-76714401D01*
X100701716Y-76792447D01*
X100843551Y-76965273D01*
X101016377Y-77107108D01*
X101213553Y-77212500D01*
X101427501Y-77277401D01*
X101594248Y-77293824D01*
X102505752Y-77293824D01*
X102672499Y-77277401D01*
X102886447Y-77212500D01*
X103083623Y-77107108D01*
X103256449Y-76965273D01*
X103398284Y-76792447D01*
X103503676Y-76595271D01*
X103568577Y-76381323D01*
X103590491Y-76158824D01*
X103568577Y-75936325D01*
X103503676Y-75722377D01*
X103398284Y-75525201D01*
X103256449Y-75352375D01*
X103083623Y-75210540D01*
X102886447Y-75105148D01*
X102672499Y-75040247D01*
X102505752Y-75023824D01*
X101594248Y-75023824D01*
X101427501Y-75040247D01*
X101213553Y-75105148D01*
X101016377Y-75210540D01*
X100843551Y-75352375D01*
X100701716Y-75525201D01*
X100660000Y-75603247D01*
X100660000Y-73570000D01*
X100689509Y-73570000D01*
X100711423Y-73792499D01*
X100776324Y-74006447D01*
X100881716Y-74203623D01*
X101023551Y-74376449D01*
X101196377Y-74518284D01*
X101393553Y-74623676D01*
X101607501Y-74688577D01*
X101774248Y-74705000D01*
X102485752Y-74705000D01*
X102652499Y-74688577D01*
X102866447Y-74623676D01*
X103063623Y-74518284D01*
X103236449Y-74376449D01*
X103378284Y-74203623D01*
X103483676Y-74006447D01*
X103548577Y-73792499D01*
X103570491Y-73570000D01*
X104619509Y-73570000D01*
X104641423Y-73792499D01*
X104706324Y-74006447D01*
X104811716Y-74203623D01*
X104953551Y-74376449D01*
X105126377Y-74518284D01*
X105323553Y-74623676D01*
X105537501Y-74688577D01*
X105704248Y-74705000D01*
X106915752Y-74705000D01*
X107082499Y-74688577D01*
X107296447Y-74623676D01*
X107493623Y-74518284D01*
X107666449Y-74376449D01*
X107808284Y-74203623D01*
X107913676Y-74006447D01*
X107978577Y-73792499D01*
X108000491Y-73570000D01*
X107978577Y-73347501D01*
X107929373Y-73185297D01*
X108440000Y-73185297D01*
X108440000Y-73354703D01*
X108473049Y-73520853D01*
X108537878Y-73677363D01*
X108631995Y-73818218D01*
X108751782Y-73938005D01*
X108892637Y-74032122D01*
X109002409Y-74077591D01*
X109047878Y-74187363D01*
X109141995Y-74328218D01*
X109261782Y-74448005D01*
X109402637Y-74542122D01*
X109559147Y-74606951D01*
X109725297Y-74640000D01*
X109894703Y-74640000D01*
X110060853Y-74606951D01*
X110217363Y-74542122D01*
X110358218Y-74448005D01*
X110478005Y-74328218D01*
X110572122Y-74187363D01*
X110636951Y-74030853D01*
X110670000Y-73864703D01*
X110670000Y-73695297D01*
X110636951Y-73529147D01*
X110572122Y-73372637D01*
X110478005Y-73231782D01*
X110358218Y-73111995D01*
X110217363Y-73017878D01*
X110107591Y-72972409D01*
X110062122Y-72862637D01*
X109968005Y-72721782D01*
X109848218Y-72601995D01*
X109707363Y-72507878D01*
X109550853Y-72443049D01*
X109384703Y-72410000D01*
X109215297Y-72410000D01*
X109049147Y-72443049D01*
X108892637Y-72507878D01*
X108751782Y-72601995D01*
X108631995Y-72721782D01*
X108537878Y-72862637D01*
X108473049Y-73019147D01*
X108440000Y-73185297D01*
X107929373Y-73185297D01*
X107913676Y-73133553D01*
X107808284Y-72936377D01*
X107666449Y-72763551D01*
X107493623Y-72621716D01*
X107296447Y-72516324D01*
X107082499Y-72451423D01*
X106915752Y-72435000D01*
X106696904Y-72435000D01*
X106703108Y-72420022D01*
X106740000Y-72234552D01*
X106740000Y-72045448D01*
X106703108Y-71859978D01*
X106630741Y-71685269D01*
X106525681Y-71528036D01*
X106391964Y-71394319D01*
X106234731Y-71289259D01*
X106060022Y-71216892D01*
X105874552Y-71180000D01*
X105685448Y-71180000D01*
X105499978Y-71216892D01*
X105325269Y-71289259D01*
X105168036Y-71394319D01*
X105034319Y-71528036D01*
X104929259Y-71685269D01*
X104856892Y-71859978D01*
X104820000Y-72045448D01*
X104820000Y-72234552D01*
X104856892Y-72420022D01*
X104929259Y-72594731D01*
X105010715Y-72716638D01*
X104953551Y-72763551D01*
X104811716Y-72936377D01*
X104706324Y-73133553D01*
X104641423Y-73347501D01*
X104619509Y-73570000D01*
X103570491Y-73570000D01*
X103548577Y-73347501D01*
X103483676Y-73133553D01*
X103378284Y-72936377D01*
X103236449Y-72763551D01*
X103063623Y-72621716D01*
X102866447Y-72516324D01*
X102652499Y-72451423D01*
X102485752Y-72435000D01*
X101774248Y-72435000D01*
X101607501Y-72451423D01*
X101393553Y-72516324D01*
X101196377Y-72621716D01*
X101023551Y-72763551D01*
X100881716Y-72936377D01*
X100776324Y-73133553D01*
X100711423Y-73347501D01*
X100689509Y-73570000D01*
X100660000Y-73570000D01*
X100660000Y-64930000D01*
X100689509Y-64930000D01*
X100711423Y-65152499D01*
X100776324Y-65366447D01*
X100881716Y-65563623D01*
X101023551Y-65736449D01*
X101196377Y-65878284D01*
X101393553Y-65983676D01*
X101607501Y-66048577D01*
X101774248Y-66065000D01*
X102485752Y-66065000D01*
X102652499Y-66048577D01*
X102866447Y-65983676D01*
X103063623Y-65878284D01*
X103236449Y-65736449D01*
X103378284Y-65563623D01*
X103483676Y-65366447D01*
X103548577Y-65152499D01*
X103570491Y-64930000D01*
X104619509Y-64930000D01*
X104641423Y-65152499D01*
X104706324Y-65366447D01*
X104811716Y-65563623D01*
X104953551Y-65736449D01*
X105010715Y-65783362D01*
X104929259Y-65905269D01*
X104856892Y-66079978D01*
X104820000Y-66265448D01*
X104820000Y-66454552D01*
X104856892Y-66640022D01*
X104929259Y-66814731D01*
X105034319Y-66971964D01*
X105168036Y-67105681D01*
X105325269Y-67210741D01*
X105499978Y-67283108D01*
X105685448Y-67320000D01*
X105874552Y-67320000D01*
X106060022Y-67283108D01*
X106234731Y-67210741D01*
X106391964Y-67105681D01*
X106525681Y-66971964D01*
X106630741Y-66814731D01*
X106703108Y-66640022D01*
X106740000Y-66454552D01*
X106740000Y-66265448D01*
X106703108Y-66079978D01*
X106696904Y-66065000D01*
X106915752Y-66065000D01*
X107082499Y-66048577D01*
X107296447Y-65983676D01*
X107493623Y-65878284D01*
X107666449Y-65736449D01*
X107808284Y-65563623D01*
X107906273Y-65380297D01*
X108255000Y-65380297D01*
X108255000Y-65549703D01*
X108288049Y-65715853D01*
X108352878Y-65872363D01*
X108446995Y-66013218D01*
X108566782Y-66133005D01*
X108707637Y-66227122D01*
X108864147Y-66291951D01*
X109030297Y-66325000D01*
X109199703Y-66325000D01*
X109365853Y-66291951D01*
X109522363Y-66227122D01*
X109663218Y-66133005D01*
X109783005Y-66013218D01*
X109877122Y-65872363D01*
X109891837Y-65836837D01*
X109927363Y-65822122D01*
X110068218Y-65728005D01*
X110188005Y-65608218D01*
X110282122Y-65467363D01*
X110346951Y-65310853D01*
X110380000Y-65144703D01*
X110380000Y-64975297D01*
X110346951Y-64809147D01*
X110282122Y-64652637D01*
X110188005Y-64511782D01*
X110068218Y-64391995D01*
X109927363Y-64297878D01*
X109770853Y-64233049D01*
X109604703Y-64200000D01*
X109435297Y-64200000D01*
X109269147Y-64233049D01*
X109112637Y-64297878D01*
X108971782Y-64391995D01*
X108851995Y-64511782D01*
X108757878Y-64652637D01*
X108743163Y-64688163D01*
X108707637Y-64702878D01*
X108566782Y-64796995D01*
X108446995Y-64916782D01*
X108352878Y-65057637D01*
X108288049Y-65214147D01*
X108255000Y-65380297D01*
X107906273Y-65380297D01*
X107913676Y-65366447D01*
X107978577Y-65152499D01*
X108000491Y-64930000D01*
X107978577Y-64707501D01*
X107913676Y-64493553D01*
X107808284Y-64296377D01*
X107666449Y-64123551D01*
X107493623Y-63981716D01*
X107296447Y-63876324D01*
X107082499Y-63811423D01*
X106915752Y-63795000D01*
X105704248Y-63795000D01*
X105537501Y-63811423D01*
X105323553Y-63876324D01*
X105126377Y-63981716D01*
X104953551Y-64123551D01*
X104811716Y-64296377D01*
X104706324Y-64493553D01*
X104641423Y-64707501D01*
X104619509Y-64930000D01*
X103570491Y-64930000D01*
X103548577Y-64707501D01*
X103483676Y-64493553D01*
X103378284Y-64296377D01*
X103236449Y-64123551D01*
X103063623Y-63981716D01*
X102866447Y-63876324D01*
X102652499Y-63811423D01*
X102485752Y-63795000D01*
X101774248Y-63795000D01*
X101607501Y-63811423D01*
X101393553Y-63876324D01*
X101196377Y-63981716D01*
X101023551Y-64123551D01*
X100881716Y-64296377D01*
X100776324Y-64493553D01*
X100711423Y-64707501D01*
X100689509Y-64930000D01*
X100660000Y-64930000D01*
X100660000Y-62127000D01*
X111873000Y-62127000D01*
X111873000Y-64874363D01*
G37*
%TD.AperFunction*%
%TD*%
M02*
