%TF.GenerationSoftware,KiCad,Pcbnew,(5.1.10-1-10_14)*%
%TF.CreationDate,2021-08-18T14:47:54+08:00*%
%TF.ProjectId,jlinkob_hs,6a6c696e-6b6f-4625-9f68-732e6b696361,rev?*%
%TF.SameCoordinates,Original*%
%TF.FileFunction,Copper,L4,Bot*%
%TF.FilePolarity,Positive*%
%FSLAX46Y46*%
G04 Gerber Fmt 4.6, Leading zero omitted, Abs format (unit mm)*
G04 Created by KiCad (PCBNEW (5.1.10-1-10_14)) date 2021-08-18 14:47:54*
%MOMM*%
%LPD*%
G01*
G04 APERTURE LIST*
%TA.AperFunction,ComponentPad*%
%ADD10C,1.000000*%
%TD*%
%TA.AperFunction,ComponentPad*%
%ADD11O,1.000000X1.000000*%
%TD*%
%TA.AperFunction,ComponentPad*%
%ADD12R,1.000000X1.000000*%
%TD*%
%TA.AperFunction,ComponentPad*%
%ADD13O,1.700000X1.700000*%
%TD*%
%TA.AperFunction,ComponentPad*%
%ADD14R,1.700000X1.700000*%
%TD*%
%TA.AperFunction,ComponentPad*%
%ADD15O,1.800000X1.000000*%
%TD*%
%TA.AperFunction,ComponentPad*%
%ADD16O,2.000000X1.000000*%
%TD*%
%TA.AperFunction,ComponentPad*%
%ADD17O,1.350000X1.350000*%
%TD*%
%TA.AperFunction,ComponentPad*%
%ADD18R,1.350000X1.350000*%
%TD*%
%TA.AperFunction,ComponentPad*%
%ADD19O,2.100000X1.000000*%
%TD*%
%TA.AperFunction,ComponentPad*%
%ADD20O,1.600000X1.000000*%
%TD*%
%TA.AperFunction,ViaPad*%
%ADD21C,0.450000*%
%TD*%
%TA.AperFunction,Conductor*%
%ADD22C,0.250000*%
%TD*%
%TA.AperFunction,Conductor*%
%ADD23C,0.300000*%
%TD*%
G04 APERTURE END LIST*
D10*
%TO.P,TP1,1*%
%TO.N,Net-(R2-Pad1)*%
X137500000Y-72190000D03*
%TD*%
D11*
%TO.P,CON2,9*%
%TO.N,GND*%
X147410000Y-78990000D03*
%TO.P,CON2,10*%
%TO.N,PA11*%
X146140000Y-78990000D03*
%TO.P,CON2,7*%
%TO.N,PA22*%
X147410000Y-80260000D03*
%TO.P,CON2,8*%
%TO.N,PA12*%
X146140000Y-80260000D03*
%TO.P,CON2,5*%
%TO.N,PA15*%
X147410000Y-81530000D03*
%TO.P,CON2,6*%
%TO.N,GND*%
X146140000Y-81530000D03*
%TO.P,CON2,3*%
%TO.N,+3V3*%
X147410000Y-82800000D03*
%TO.P,CON2,4*%
%TO.N,PA21*%
X146140000Y-82800000D03*
%TO.P,CON2,2*%
%TO.N,PA3*%
X146140000Y-84070000D03*
D12*
%TO.P,CON2,1*%
%TO.N,N/C*%
X147410000Y-84070000D03*
%TD*%
D13*
%TO.P,J5,36*%
%TO.N,GND*%
X146760000Y-52210000D03*
%TO.P,J5,35*%
X146760000Y-54750000D03*
%TO.P,J5,34*%
X144220000Y-52210000D03*
%TO.P,J5,33*%
X144220000Y-54750000D03*
%TO.P,J5,32*%
%TO.N,+3V3*%
X141680000Y-52210000D03*
%TO.P,J5,31*%
X141680000Y-54750000D03*
%TO.P,J5,30*%
X139140000Y-52210000D03*
%TO.P,J5,29*%
X139140000Y-54750000D03*
%TO.P,J5,28*%
%TO.N,PA2*%
X136600000Y-52210000D03*
%TO.P,J5,27*%
%TO.N,PA3*%
X136600000Y-54750000D03*
%TO.P,J5,26*%
%TO.N,PA4*%
X134060000Y-52210000D03*
%TO.P,J5,25*%
%TO.N,PA5*%
X134060000Y-54750000D03*
%TO.P,J5,24*%
%TO.N,PA6*%
X131520000Y-52210000D03*
%TO.P,J5,23*%
%TO.N,PA7*%
X131520000Y-54750000D03*
%TO.P,J5,22*%
%TO.N,PA8*%
X128980000Y-52210000D03*
%TO.P,J5,21*%
%TO.N,PA9*%
X128980000Y-54750000D03*
%TO.P,J5,20*%
%TO.N,PA10*%
X126440000Y-52210000D03*
%TO.P,J5,19*%
%TO.N,PA11*%
X126440000Y-54750000D03*
%TO.P,J5,18*%
%TO.N,PA12*%
X123900000Y-52210000D03*
%TO.P,J5,17*%
%TO.N,PB24*%
X123900000Y-54750000D03*
%TO.P,J5,16*%
%TO.N,PB23*%
X121360000Y-52210000D03*
%TO.P,J5,15*%
%TO.N,PB22*%
X121360000Y-54750000D03*
%TO.P,J5,14*%
%TO.N,PB21*%
X118820000Y-52210000D03*
%TO.P,J5,13*%
%TO.N,PB20*%
X118820000Y-54750000D03*
%TO.P,J5,12*%
%TO.N,PB19*%
X116280000Y-52210000D03*
%TO.P,J5,11*%
%TO.N,PB18*%
X116280000Y-54750000D03*
%TO.P,J5,10*%
%TO.N,PB17*%
X113740000Y-52210000D03*
%TO.P,J5,9*%
%TO.N,PB14*%
X113740000Y-54750000D03*
%TO.P,J5,8*%
%TO.N,PB10*%
X111200000Y-52210000D03*
%TO.P,J5,7*%
%TO.N,PB9*%
X111200000Y-54750000D03*
%TO.P,J5,6*%
%TO.N,PA31*%
X108660000Y-52210000D03*
%TO.P,J5,5*%
%TO.N,VCC*%
X108660000Y-54750000D03*
%TO.P,J5,4*%
%TO.N,+3V3*%
X106120000Y-52210000D03*
%TO.P,J5,3*%
X106120000Y-54750000D03*
%TO.P,J5,2*%
%TO.N,GND*%
X103580000Y-52210000D03*
D14*
%TO.P,J5,1*%
X103580000Y-54750000D03*
%TD*%
D13*
%TO.P,J4,36*%
%TO.N,GND*%
X146810000Y-95480000D03*
%TO.P,J4,35*%
X146810000Y-98020000D03*
%TO.P,J4,34*%
%TO.N,PA1*%
X144270000Y-95480000D03*
%TO.P,J4,33*%
%TO.N,PA0*%
X144270000Y-98020000D03*
%TO.P,J4,32*%
%TO.N,PA26*%
X141730000Y-95480000D03*
%TO.P,J4,31*%
%TO.N,PA25*%
X141730000Y-98020000D03*
%TO.P,J4,30*%
%TO.N,PA24*%
X139190000Y-95480000D03*
%TO.P,J4,29*%
%TO.N,PA23*%
X139190000Y-98020000D03*
%TO.P,J4,28*%
%TO.N,PA21*%
X136650000Y-95480000D03*
%TO.P,J4,27*%
%TO.N,PA20*%
X136650000Y-98020000D03*
%TO.P,J4,26*%
%TO.N,PA19*%
X134110000Y-95480000D03*
%TO.P,J4,25*%
%TO.N,PA18*%
X134110000Y-98020000D03*
%TO.P,J4,24*%
%TO.N,PB15*%
X131570000Y-95480000D03*
%TO.P,J4,23*%
%TO.N,PB16*%
X131570000Y-98020000D03*
%TO.P,J4,22*%
%TO.N,PA17*%
X129030000Y-95480000D03*
%TO.P,J4,21*%
%TO.N,PA16*%
X129030000Y-98020000D03*
%TO.P,J4,20*%
%TO.N,PA15*%
X126490000Y-95480000D03*
%TO.P,J4,19*%
%TO.N,PA14*%
X126490000Y-98020000D03*
%TO.P,J4,18*%
%TO.N,PA13*%
X123950000Y-95480000D03*
%TO.P,J4,17*%
%TO.N,PB4*%
X123950000Y-98020000D03*
%TO.P,J4,16*%
%TO.N,PB3*%
X121410000Y-95480000D03*
%TO.P,J4,15*%
%TO.N,PA30*%
X121410000Y-98020000D03*
%TO.P,J4,14*%
%TO.N,PA22*%
X118870000Y-95480000D03*
%TO.P,J4,13*%
%TO.N,PB8*%
X118870000Y-98020000D03*
%TO.P,J4,12*%
%TO.N,PB7*%
X116330000Y-95480000D03*
%TO.P,J4,11*%
%TO.N,PB6*%
X116330000Y-98020000D03*
%TO.P,J4,10*%
%TO.N,PB5*%
X113790000Y-95480000D03*
%TO.P,J4,9*%
%TO.N,PA27*%
X113790000Y-98020000D03*
%TO.P,J4,8*%
%TO.N,PB13*%
X111250000Y-95480000D03*
%TO.P,J4,7*%
%TO.N,PB12*%
X111250000Y-98020000D03*
%TO.P,J4,6*%
%TO.N,PB11*%
X108710000Y-95480000D03*
%TO.P,J4,5*%
%TO.N,PB2*%
X108710000Y-98020000D03*
%TO.P,J4,4*%
%TO.N,PB1*%
X106170000Y-95480000D03*
%TO.P,J4,3*%
%TO.N,PB0*%
X106170000Y-98020000D03*
%TO.P,J4,2*%
%TO.N,GND*%
X103630000Y-95480000D03*
D14*
%TO.P,J4,1*%
X103630000Y-98020000D03*
%TD*%
D15*
%TO.P,J2,0*%
%TO.N,SHIELD*%
X102050000Y-83908824D03*
X102050000Y-76158824D03*
D16*
X105850000Y-83758824D03*
X105850000Y-76308824D03*
%TD*%
D17*
%TO.P,J3,2*%
%TO.N,GND*%
X141850000Y-86730000D03*
D18*
%TO.P,J3,1*%
%TO.N,PA25*%
X139850000Y-86730000D03*
%TD*%
D11*
%TO.P,CON1,9*%
%TO.N,GND*%
X143240000Y-61390000D03*
%TO.P,CON1,10*%
%TO.N,N/C*%
X143240000Y-60120000D03*
%TO.P,CON1,7*%
%TO.N,HOST_SWCLK*%
X141970000Y-61390000D03*
%TO.P,CON1,8*%
%TO.N,N/C*%
X141970000Y-60120000D03*
%TO.P,CON1,5*%
%TO.N,HOST_SWDIO*%
X140700000Y-61390000D03*
%TO.P,CON1,6*%
%TO.N,GND*%
X140700000Y-60120000D03*
%TO.P,CON1,3*%
%TO.N,+3V3*%
X139430000Y-61390000D03*
%TO.P,CON1,4*%
%TO.N,HOST_SWO*%
X139430000Y-60120000D03*
%TO.P,CON1,2*%
%TO.N,HOST_RESET*%
X138160000Y-60120000D03*
D12*
%TO.P,CON1,1*%
%TO.N,N/C*%
X138160000Y-61390000D03*
%TD*%
%TO.P,C16,2*%
%TO.N,GND*%
%TA.AperFunction,SMDPad,CuDef*%
G36*
G01*
X123155000Y-79800000D02*
X122845000Y-79800000D01*
G75*
G02*
X122690000Y-79645000I0J155000D01*
G01*
X122690000Y-79220000D01*
G75*
G02*
X122845000Y-79065000I155000J0D01*
G01*
X123155000Y-79065000D01*
G75*
G02*
X123310000Y-79220000I0J-155000D01*
G01*
X123310000Y-79645000D01*
G75*
G02*
X123155000Y-79800000I-155000J0D01*
G01*
G37*
%TD.AperFunction*%
%TO.P,C16,1*%
%TO.N,VCC*%
%TA.AperFunction,SMDPad,CuDef*%
G36*
G01*
X123155000Y-80935000D02*
X122845000Y-80935000D01*
G75*
G02*
X122690000Y-80780000I0J155000D01*
G01*
X122690000Y-80355000D01*
G75*
G02*
X122845000Y-80200000I155000J0D01*
G01*
X123155000Y-80200000D01*
G75*
G02*
X123310000Y-80355000I0J-155000D01*
G01*
X123310000Y-80780000D01*
G75*
G02*
X123155000Y-80935000I-155000J0D01*
G01*
G37*
%TD.AperFunction*%
%TD*%
%TO.P,C15,2*%
%TO.N,GND*%
%TA.AperFunction,SMDPad,CuDef*%
G36*
G01*
X127155000Y-64400000D02*
X126845000Y-64400000D01*
G75*
G02*
X126690000Y-64245000I0J155000D01*
G01*
X126690000Y-63820000D01*
G75*
G02*
X126845000Y-63665000I155000J0D01*
G01*
X127155000Y-63665000D01*
G75*
G02*
X127310000Y-63820000I0J-155000D01*
G01*
X127310000Y-64245000D01*
G75*
G02*
X127155000Y-64400000I-155000J0D01*
G01*
G37*
%TD.AperFunction*%
%TO.P,C15,1*%
%TO.N,VCC*%
%TA.AperFunction,SMDPad,CuDef*%
G36*
G01*
X127155000Y-65535000D02*
X126845000Y-65535000D01*
G75*
G02*
X126690000Y-65380000I0J155000D01*
G01*
X126690000Y-64955000D01*
G75*
G02*
X126845000Y-64800000I155000J0D01*
G01*
X127155000Y-64800000D01*
G75*
G02*
X127310000Y-64955000I0J-155000D01*
G01*
X127310000Y-65380000D01*
G75*
G02*
X127155000Y-65535000I-155000J0D01*
G01*
G37*
%TD.AperFunction*%
%TD*%
%TO.P,C9,2*%
%TO.N,GND*%
%TA.AperFunction,SMDPad,CuDef*%
G36*
G01*
X120200000Y-75155000D02*
X120200000Y-74845000D01*
G75*
G02*
X120355000Y-74690000I155000J0D01*
G01*
X120780000Y-74690000D01*
G75*
G02*
X120935000Y-74845000I0J-155000D01*
G01*
X120935000Y-75155000D01*
G75*
G02*
X120780000Y-75310000I-155000J0D01*
G01*
X120355000Y-75310000D01*
G75*
G02*
X120200000Y-75155000I0J155000D01*
G01*
G37*
%TD.AperFunction*%
%TO.P,C9,1*%
%TO.N,+3V3*%
%TA.AperFunction,SMDPad,CuDef*%
G36*
G01*
X119065000Y-75155000D02*
X119065000Y-74845000D01*
G75*
G02*
X119220000Y-74690000I155000J0D01*
G01*
X119645000Y-74690000D01*
G75*
G02*
X119800000Y-74845000I0J-155000D01*
G01*
X119800000Y-75155000D01*
G75*
G02*
X119645000Y-75310000I-155000J0D01*
G01*
X119220000Y-75310000D01*
G75*
G02*
X119065000Y-75155000I0J155000D01*
G01*
G37*
%TD.AperFunction*%
%TD*%
%TO.P,C8,2*%
%TO.N,GND*%
%TA.AperFunction,SMDPad,CuDef*%
G36*
G01*
X129655000Y-79800000D02*
X129345000Y-79800000D01*
G75*
G02*
X129190000Y-79645000I0J155000D01*
G01*
X129190000Y-79220000D01*
G75*
G02*
X129345000Y-79065000I155000J0D01*
G01*
X129655000Y-79065000D01*
G75*
G02*
X129810000Y-79220000I0J-155000D01*
G01*
X129810000Y-79645000D01*
G75*
G02*
X129655000Y-79800000I-155000J0D01*
G01*
G37*
%TD.AperFunction*%
%TO.P,C8,1*%
%TO.N,+3V3*%
%TA.AperFunction,SMDPad,CuDef*%
G36*
G01*
X129655000Y-80935000D02*
X129345000Y-80935000D01*
G75*
G02*
X129190000Y-80780000I0J155000D01*
G01*
X129190000Y-80355000D01*
G75*
G02*
X129345000Y-80200000I155000J0D01*
G01*
X129655000Y-80200000D01*
G75*
G02*
X129810000Y-80355000I0J-155000D01*
G01*
X129810000Y-80780000D01*
G75*
G02*
X129655000Y-80935000I-155000J0D01*
G01*
G37*
%TD.AperFunction*%
%TD*%
D19*
%TO.P,J1,S1*%
%TO.N,SHIELD*%
X106310000Y-73570000D03*
X106310000Y-64930000D03*
D20*
X102130000Y-64930000D03*
X102130000Y-73570000D03*
%TD*%
D21*
%TO.N,GND*%
X131228320Y-76111392D03*
X127000000Y-60630000D03*
X123740000Y-69380000D03*
X118540000Y-63650000D03*
X112320000Y-65610000D03*
X132060000Y-64050000D03*
X124960000Y-71790000D03*
X137610000Y-69600000D03*
X113080000Y-75710000D03*
X122320000Y-74790000D03*
X120490000Y-71820000D03*
X109810000Y-73780000D03*
X109520000Y-65060000D03*
X107920000Y-82210000D03*
X109115000Y-65465000D03*
X109300000Y-73270000D03*
X119410000Y-80120000D03*
X120240000Y-85430000D03*
X136780000Y-75450000D03*
X143490000Y-86720000D03*
%TO.N,VCC*%
X123000000Y-81230000D03*
X127010000Y-68930000D03*
X118720000Y-72260000D03*
X119890000Y-69120000D03*
X130670000Y-76710000D03*
X119350000Y-76300000D03*
X132390000Y-67340000D03*
%TO.N,+3V3*%
X129510000Y-81310000D03*
X118810000Y-75000000D03*
X107820000Y-89430000D03*
X118050000Y-85030000D03*
X143950000Y-93030000D03*
X142690000Y-89140000D03*
X135370000Y-75020000D03*
%TO.N,PA29*%
X123842316Y-74276742D03*
X135729378Y-88704982D03*
%TO.N,PA28*%
X124100000Y-73680000D03*
X135810000Y-88060000D03*
%TO.N,PA12*%
X129060000Y-73520000D03*
%TO.N,PA11*%
X129509296Y-74050000D03*
X143676091Y-76963909D03*
%TO.N,PA10*%
X129939427Y-74550000D03*
%TO.N,PA9*%
X130412694Y-75050000D03*
%TO.N,PA8*%
X130900690Y-75550000D03*
%TO.N,PA7*%
X129617737Y-77871802D03*
%TO.N,PA6*%
X129668986Y-78598371D03*
%TO.N,PA5*%
X130297023Y-78765916D03*
%TO.N,PA4*%
X130440379Y-79400379D03*
%TO.N,PA3*%
X130900000Y-79860000D03*
%TO.N,PA2*%
X134259160Y-80270840D03*
%TO.N,PA25*%
X139830000Y-91779990D03*
%TO.N,PA18*%
X118560000Y-91750000D03*
X126130000Y-80780000D03*
%TO.N,PA17*%
X118540000Y-89520000D03*
%TO.N,PA15*%
X120180000Y-91740000D03*
%TO.N,HOST_SWCLK*%
X134870000Y-60690000D03*
%TO.N,HOST_SWO*%
X131890371Y-61850689D03*
%TO.N,VBUS*%
X109620000Y-71580000D03*
X109560000Y-66790000D03*
X108000000Y-77190000D03*
X108720000Y-85190000D03*
X107820000Y-86090000D03*
X107190000Y-78010000D03*
X107620000Y-77610000D03*
X108940000Y-71700000D03*
X108950000Y-66800000D03*
%TO.N,PA31*%
X116010000Y-73600000D03*
%TD*%
D22*
%TO.N,GND*%
X127000000Y-64032500D02*
X127000000Y-60630000D01*
X123000000Y-77432500D02*
X120567500Y-75000000D01*
X123000000Y-79432500D02*
X123000000Y-77432500D01*
X122110000Y-75000000D02*
X122320000Y-74790000D01*
X120567500Y-75000000D02*
X122110000Y-75000000D01*
X129067736Y-77498262D02*
X130454606Y-76111392D01*
X130454606Y-76111392D02*
X131228320Y-76111392D01*
X129067736Y-79310236D02*
X129067736Y-77498262D01*
X129190000Y-79432500D02*
X129067736Y-79310236D01*
X129500000Y-79432500D02*
X129190000Y-79432500D01*
D23*
X123823999Y-73104999D02*
X122320000Y-74608998D01*
X127448213Y-73104999D02*
X123823999Y-73104999D01*
X122320000Y-74608998D02*
X122320000Y-74790000D01*
X130454606Y-76111392D02*
X127448213Y-73104999D01*
D22*
%TO.N,VCC*%
X127010000Y-65177500D02*
X127000000Y-65167500D01*
X127010000Y-68930000D02*
X127010000Y-65177500D01*
X123000000Y-81230000D02*
X123000000Y-80567500D01*
%TO.N,+3V3*%
X118810000Y-75000000D02*
X119432500Y-75000000D01*
X129510000Y-80577500D02*
X129500000Y-80567500D01*
X129510000Y-81310000D02*
X129510000Y-80577500D01*
%TO.N,PA29*%
X135454570Y-88704982D02*
X135729378Y-88704982D01*
X123842316Y-77092728D02*
X135454570Y-88704982D01*
X123842316Y-74276742D02*
X123842316Y-77092728D01*
%TO.N,PA28*%
X124392317Y-77006319D02*
X135445998Y-88060000D01*
X135445998Y-88060000D02*
X135810000Y-88060000D01*
X124392317Y-73972317D02*
X124392317Y-77006319D01*
X124100000Y-73680000D02*
X124392317Y-73972317D01*
%TO.N,PA12*%
X122724999Y-53385001D02*
X123900000Y-52210000D01*
X122724999Y-67184999D02*
X122724999Y-53385001D01*
X129060000Y-73520000D02*
X122724999Y-67184999D01*
%TO.N,PA11*%
X125590001Y-55599999D02*
X125590001Y-69170001D01*
X126440000Y-54750000D02*
X125590001Y-55599999D01*
X129610001Y-73949295D02*
X129509296Y-74050000D01*
X129610001Y-73190001D02*
X129610001Y-73949295D01*
X125590001Y-69170001D02*
X129610001Y-73190001D01*
X145702182Y-78990000D02*
X146140000Y-78990000D01*
X143676091Y-76963909D02*
X145702182Y-78990000D01*
%TO.N,PA10*%
X130060011Y-74313287D02*
X130060011Y-72990011D01*
X129939427Y-74433871D02*
X130060011Y-74313287D01*
X129939427Y-74550000D02*
X129939427Y-74433871D01*
X129930000Y-72860000D02*
X129916410Y-72860000D01*
X130060011Y-72990011D02*
X129930000Y-72860000D01*
X127615001Y-53385001D02*
X126440000Y-52210000D01*
X126364990Y-56564012D02*
X127615001Y-55314001D01*
X127615001Y-55314001D02*
X127615001Y-53385001D01*
X126364990Y-69308580D02*
X126364990Y-56564012D01*
X129916410Y-72860000D02*
X126364990Y-69308580D01*
%TO.N,PA9*%
X128936410Y-71230000D02*
X128922820Y-71230000D01*
X130510020Y-72803610D02*
X128936410Y-71230000D01*
X130510021Y-74952673D02*
X130510020Y-72803610D01*
X130412694Y-75050000D02*
X130510021Y-74952673D01*
X127635010Y-69942190D02*
X127635010Y-57564990D01*
X128922820Y-71230000D02*
X127635010Y-69942190D01*
X127635010Y-57564990D02*
X127630000Y-57559980D01*
X127630000Y-56100000D02*
X128980000Y-54750000D01*
X127630000Y-57559980D02*
X127630000Y-56100000D01*
%TO.N,PA8*%
X131125689Y-75325001D02*
X131125689Y-72755689D01*
X130900690Y-75550000D02*
X131125689Y-75325001D01*
X128085020Y-57365020D02*
X128080010Y-57360010D01*
X128085020Y-69715020D02*
X128085020Y-57365020D01*
X131125689Y-72755689D02*
X128085020Y-69715020D01*
X130155001Y-53385001D02*
X128980000Y-52210000D01*
X130155001Y-55314001D02*
X130155001Y-53385001D01*
X129544001Y-55925001D02*
X130155001Y-55314001D01*
X129264999Y-55925001D02*
X129544001Y-55925001D01*
X128080010Y-57109990D02*
X129264999Y-55925001D01*
X128080010Y-57360010D02*
X128080010Y-57109990D01*
%TO.N,PA7*%
X131778321Y-76542148D02*
X131778321Y-72608321D01*
X131778321Y-72608321D02*
X128535030Y-69365030D01*
X128535030Y-57734970D02*
X131520000Y-54750000D01*
X128535030Y-69365030D02*
X128535030Y-57734970D01*
X130119539Y-77370000D02*
X131177180Y-77370000D01*
X129617737Y-77871802D02*
X130119539Y-77370000D01*
X131778321Y-76768859D02*
X131778321Y-76542148D01*
X131177180Y-77370000D02*
X131778321Y-76768859D01*
%TO.N,PA6*%
X132228331Y-76728548D02*
X132228330Y-72421920D01*
X132228330Y-72421920D02*
X128985040Y-69178630D01*
X128985040Y-69178630D02*
X128985040Y-57924960D01*
X132695001Y-53385001D02*
X131520000Y-52210000D01*
X132084001Y-55925001D02*
X132695001Y-55314001D01*
X132695001Y-55314001D02*
X132695001Y-53385001D01*
X130984999Y-55925001D02*
X132084001Y-55925001D01*
X128985040Y-57924960D02*
X130984999Y-55925001D01*
X130051442Y-78215915D02*
X130967675Y-78215915D01*
X129668986Y-78598371D02*
X130051442Y-78215915D01*
X132228331Y-76955259D02*
X132228331Y-76728548D01*
X130967675Y-78215915D02*
X132228331Y-76955259D01*
%TO.N,PA5*%
X129435050Y-58111360D02*
X131171399Y-56375011D01*
X129435050Y-68992230D02*
X129435050Y-58111360D01*
X131171399Y-56375011D02*
X132434989Y-56375011D01*
X131054084Y-78765916D02*
X132678339Y-77141661D01*
X132678339Y-77141661D02*
X132678339Y-72235519D01*
X132434989Y-56375011D02*
X134060000Y-54750000D01*
X132678339Y-72235519D02*
X129435050Y-68992230D01*
X130297023Y-78765916D02*
X131054084Y-78765916D01*
%TO.N,PA4*%
X135235001Y-53385001D02*
X134060000Y-52210000D01*
X135235001Y-55314001D02*
X135235001Y-53385001D01*
X133784999Y-55925001D02*
X134624001Y-55925001D01*
X131357799Y-56825021D02*
X132884979Y-56825021D01*
X130530759Y-79309999D02*
X131324003Y-79309999D01*
X129885060Y-58297760D02*
X131357799Y-56825021D01*
X133128349Y-77505653D02*
X133128348Y-72049118D01*
X134624001Y-55925001D02*
X135235001Y-55314001D01*
X129885060Y-68805830D02*
X129885060Y-58297760D01*
X133128348Y-72049118D02*
X129885060Y-68805830D01*
X130440379Y-79400379D02*
X130530759Y-79309999D01*
X131324003Y-79309999D02*
X133128349Y-77505653D01*
X132884979Y-56825021D02*
X133784999Y-55925001D01*
%TO.N,PA3*%
X133578358Y-77692052D02*
X133578357Y-71862717D01*
X131410412Y-79860000D02*
X133578358Y-77692052D01*
X130900000Y-79860000D02*
X131410412Y-79860000D01*
X133578357Y-71862717D02*
X130335070Y-68619430D01*
X130335070Y-68619430D02*
X130335070Y-58484160D01*
X131544199Y-57275031D02*
X133071380Y-57275030D01*
X130335070Y-58484160D02*
X131544199Y-57275031D01*
X134974989Y-56375011D02*
X136600000Y-54750000D01*
X133971399Y-56375011D02*
X134974989Y-56375011D01*
X133071380Y-57275030D02*
X133971399Y-56375011D01*
%TO.N,PA2*%
X134259160Y-80270840D02*
X134259160Y-71907110D01*
X134259160Y-71907110D02*
X130785080Y-68433030D01*
X130785080Y-68433030D02*
X130785080Y-58670560D01*
X131730601Y-57725039D02*
X133257781Y-57725039D01*
X130785080Y-58670560D02*
X131730601Y-57725039D01*
X134157799Y-56825021D02*
X135174979Y-56825021D01*
X133257781Y-57725039D02*
X134157799Y-56825021D01*
X137775001Y-53385001D02*
X136600000Y-52210000D01*
X137775001Y-55314001D02*
X137775001Y-53385001D01*
X136074999Y-55925001D02*
X137164001Y-55925001D01*
X137164001Y-55925001D02*
X137775001Y-55314001D01*
X135174979Y-56825021D02*
X136074999Y-55925001D01*
%TO.N,PA25*%
X139850000Y-91759990D02*
X139830000Y-91779990D01*
X139850000Y-86730000D02*
X139850000Y-91759990D01*
%TO.N,PA21*%
X136650000Y-95480000D02*
X136650000Y-86880000D01*
X140730000Y-82800000D02*
X146140000Y-82800000D01*
X136650000Y-86880000D02*
X140730000Y-82800000D01*
%TO.N,PA18*%
X117989999Y-88920001D02*
X126130000Y-80780000D01*
X117989999Y-91179999D02*
X117989999Y-88920001D01*
X118560000Y-91750000D02*
X117989999Y-91179999D01*
%TO.N,PA17*%
X129030000Y-93050000D02*
X129030000Y-95480000D01*
X125500000Y-89520000D02*
X129030000Y-93050000D01*
X118540000Y-89520000D02*
X125500000Y-89520000D01*
%TO.N,PA15*%
X137214001Y-96655001D02*
X127665001Y-96655001D01*
X137825001Y-96044001D02*
X137214001Y-96655001D01*
X138745001Y-94304999D02*
X138625999Y-94304999D01*
X148235001Y-84814999D02*
X138745001Y-94304999D01*
X127665001Y-96655001D02*
X126490000Y-95480000D01*
X138625999Y-94304999D02*
X137825001Y-95105997D01*
X147410000Y-81578998D02*
X148235001Y-82403999D01*
X137825001Y-95105997D02*
X137825001Y-96044001D01*
X148235001Y-82403999D02*
X148235001Y-84814999D01*
X147410000Y-81530000D02*
X147410000Y-81578998D01*
X122750000Y-91740000D02*
X126490000Y-95480000D01*
X120180000Y-91740000D02*
X122750000Y-91740000D01*
%TO.N,PA22*%
X148685011Y-81535011D02*
X148685011Y-85064989D01*
X147410000Y-80260000D02*
X148685011Y-81535011D01*
X120045001Y-96655001D02*
X118870000Y-95480000D01*
X120045001Y-98394003D02*
X120045001Y-96655001D01*
X120845999Y-99195001D02*
X120045001Y-98394003D01*
X139754001Y-99195001D02*
X120845999Y-99195001D01*
X140365001Y-93384999D02*
X140365001Y-98584001D01*
X140365001Y-98584001D02*
X139754001Y-99195001D01*
X148685011Y-85064989D02*
X140365001Y-93384999D01*
%TO.N,HOST_SWCLK*%
X141144999Y-62215001D02*
X141970000Y-61390000D01*
X136395001Y-62215001D02*
X141144999Y-62215001D01*
X134870000Y-60690000D02*
X136395001Y-62215001D01*
%TO.N,HOST_SWO*%
X138604999Y-59294999D02*
X139430000Y-60120000D01*
X134446061Y-59294999D02*
X138604999Y-59294999D01*
X131890371Y-61850689D02*
X134446061Y-59294999D01*
%TO.N,PA31*%
X109835001Y-55215001D02*
X109835001Y-53385001D01*
X109835001Y-53385001D02*
X108660000Y-52210000D01*
X116010000Y-61390000D02*
X109835001Y-55215001D01*
X116010000Y-73600000D02*
X116010000Y-61390000D01*
%TD*%
M02*
