%TF.GenerationSoftware,KiCad,Pcbnew,(5.1.10-1-10_14)*%
%TF.CreationDate,2021-08-18T14:47:54+08:00*%
%TF.ProjectId,jlinkob_hs,6a6c696e-6b6f-4625-9f68-732e6b696361,rev?*%
%TF.SameCoordinates,Original*%
%TF.FileFunction,Soldermask,Top*%
%TF.FilePolarity,Negative*%
%FSLAX46Y46*%
G04 Gerber Fmt 4.6, Leading zero omitted, Abs format (unit mm)*
G04 Created by KiCad (PCBNEW (5.1.10-1-10_14)) date 2021-08-18 14:47:54*
%MOMM*%
%LPD*%
G01*
G04 APERTURE LIST*
%ADD10R,1.750000X1.800000*%
%ADD11C,1.000000*%
%ADD12O,1.000000X1.000000*%
%ADD13R,1.000000X1.000000*%
%ADD14R,2.000000X1.500000*%
%ADD15R,2.000000X3.800000*%
%ADD16O,1.700000X1.700000*%
%ADD17R,1.700000X1.700000*%
%ADD18R,1.200000X1.400000*%
%ADD19C,0.800000*%
%ADD20O,1.800000X1.000000*%
%ADD21O,2.000000X1.000000*%
%ADD22R,1.300000X0.450000*%
%ADD23R,1.699997X0.899998*%
%ADD24O,1.350000X1.350000*%
%ADD25R,1.350000X1.350000*%
%ADD26R,1.450000X0.600000*%
%ADD27R,1.450000X0.300000*%
%ADD28O,2.100000X1.000000*%
%ADD29C,0.650000*%
%ADD30O,1.600000X1.000000*%
%ADD31R,1.475000X0.300000*%
%ADD32R,0.300000X1.475000*%
G04 APERTURE END LIST*
D10*
%TO.C,Y2*%
X138550000Y-66940000D03*
X135300000Y-66940000D03*
%TD*%
D11*
%TO.C,TP1*%
X137500000Y-72190000D03*
%TD*%
D12*
%TO.C,CON2*%
X147410000Y-78990000D03*
X146140000Y-78990000D03*
X147410000Y-80260000D03*
X146140000Y-80260000D03*
X147410000Y-81530000D03*
X146140000Y-81530000D03*
X147410000Y-82800000D03*
X146140000Y-82800000D03*
X146140000Y-84070000D03*
D13*
X147410000Y-84070000D03*
%TD*%
D14*
%TO.C,U1*%
X107820000Y-91730000D03*
X107820000Y-87130000D03*
X107820000Y-89430000D03*
D15*
X101520000Y-89430000D03*
%TD*%
%TO.C,C19*%
G36*
G01*
X114855000Y-74320000D02*
X115165000Y-74320000D01*
G75*
G02*
X115320000Y-74475000I0J-155000D01*
G01*
X115320000Y-74900000D01*
G75*
G02*
X115165000Y-75055000I-155000J0D01*
G01*
X114855000Y-75055000D01*
G75*
G02*
X114700000Y-74900000I0J155000D01*
G01*
X114700000Y-74475000D01*
G75*
G02*
X114855000Y-74320000I155000J0D01*
G01*
G37*
G36*
G01*
X114855000Y-73185000D02*
X115165000Y-73185000D01*
G75*
G02*
X115320000Y-73340000I0J-155000D01*
G01*
X115320000Y-73765000D01*
G75*
G02*
X115165000Y-73920000I-155000J0D01*
G01*
X114855000Y-73920000D01*
G75*
G02*
X114700000Y-73765000I0J155000D01*
G01*
X114700000Y-73340000D01*
G75*
G02*
X114855000Y-73185000I155000J0D01*
G01*
G37*
%TD*%
%TO.C,R8*%
G36*
G01*
X102390000Y-62960000D02*
X102390000Y-62640000D01*
G75*
G02*
X102550000Y-62480000I160000J0D01*
G01*
X102945000Y-62480000D01*
G75*
G02*
X103105000Y-62640000I0J-160000D01*
G01*
X103105000Y-62960000D01*
G75*
G02*
X102945000Y-63120000I-160000J0D01*
G01*
X102550000Y-63120000D01*
G75*
G02*
X102390000Y-62960000I0J160000D01*
G01*
G37*
G36*
G01*
X101195000Y-62960000D02*
X101195000Y-62640000D01*
G75*
G02*
X101355000Y-62480000I160000J0D01*
G01*
X101750000Y-62480000D01*
G75*
G02*
X101910000Y-62640000I0J-160000D01*
G01*
X101910000Y-62960000D01*
G75*
G02*
X101750000Y-63120000I-160000J0D01*
G01*
X101355000Y-63120000D01*
G75*
G02*
X101195000Y-62960000I0J160000D01*
G01*
G37*
%TD*%
%TO.C,C27*%
G36*
G01*
X104220000Y-62645000D02*
X104220000Y-62955000D01*
G75*
G02*
X104065000Y-63110000I-155000J0D01*
G01*
X103640000Y-63110000D01*
G75*
G02*
X103485000Y-62955000I0J155000D01*
G01*
X103485000Y-62645000D01*
G75*
G02*
X103640000Y-62490000I155000J0D01*
G01*
X104065000Y-62490000D01*
G75*
G02*
X104220000Y-62645000I0J-155000D01*
G01*
G37*
G36*
G01*
X105355000Y-62645000D02*
X105355000Y-62955000D01*
G75*
G02*
X105200000Y-63110000I-155000J0D01*
G01*
X104775000Y-63110000D01*
G75*
G02*
X104620000Y-62955000I0J155000D01*
G01*
X104620000Y-62645000D01*
G75*
G02*
X104775000Y-62490000I155000J0D01*
G01*
X105200000Y-62490000D01*
G75*
G02*
X105355000Y-62645000I0J-155000D01*
G01*
G37*
%TD*%
D16*
%TO.C,J5*%
X146760000Y-52210000D03*
X146760000Y-54750000D03*
X144220000Y-52210000D03*
X144220000Y-54750000D03*
X141680000Y-52210000D03*
X141680000Y-54750000D03*
X139140000Y-52210000D03*
X139140000Y-54750000D03*
X136600000Y-52210000D03*
X136600000Y-54750000D03*
X134060000Y-52210000D03*
X134060000Y-54750000D03*
X131520000Y-52210000D03*
X131520000Y-54750000D03*
X128980000Y-52210000D03*
X128980000Y-54750000D03*
X126440000Y-52210000D03*
X126440000Y-54750000D03*
X123900000Y-52210000D03*
X123900000Y-54750000D03*
X121360000Y-52210000D03*
X121360000Y-54750000D03*
X118820000Y-52210000D03*
X118820000Y-54750000D03*
X116280000Y-52210000D03*
X116280000Y-54750000D03*
X113740000Y-52210000D03*
X113740000Y-54750000D03*
X111200000Y-52210000D03*
X111200000Y-54750000D03*
X108660000Y-52210000D03*
X108660000Y-54750000D03*
X106120000Y-52210000D03*
X106120000Y-54750000D03*
X103580000Y-52210000D03*
D17*
X103580000Y-54750000D03*
%TD*%
D16*
%TO.C,J4*%
X146810000Y-95480000D03*
X146810000Y-98020000D03*
X144270000Y-95480000D03*
X144270000Y-98020000D03*
X141730000Y-95480000D03*
X141730000Y-98020000D03*
X139190000Y-95480000D03*
X139190000Y-98020000D03*
X136650000Y-95480000D03*
X136650000Y-98020000D03*
X134110000Y-95480000D03*
X134110000Y-98020000D03*
X131570000Y-95480000D03*
X131570000Y-98020000D03*
X129030000Y-95480000D03*
X129030000Y-98020000D03*
X126490000Y-95480000D03*
X126490000Y-98020000D03*
X123950000Y-95480000D03*
X123950000Y-98020000D03*
X121410000Y-95480000D03*
X121410000Y-98020000D03*
X118870000Y-95480000D03*
X118870000Y-98020000D03*
X116330000Y-95480000D03*
X116330000Y-98020000D03*
X113790000Y-95480000D03*
X113790000Y-98020000D03*
X111250000Y-95480000D03*
X111250000Y-98020000D03*
X108710000Y-95480000D03*
X108710000Y-98020000D03*
X106170000Y-95480000D03*
X106170000Y-98020000D03*
X103630000Y-95480000D03*
D17*
X103630000Y-98020000D03*
%TD*%
D18*
%TO.C,Y1*%
X115350000Y-63030000D03*
X115350000Y-65230000D03*
X113650000Y-65230000D03*
X113650000Y-63030000D03*
%TD*%
D19*
%TO.C,J2*%
X104800000Y-82533824D03*
X104800000Y-77533824D03*
D20*
X102050000Y-83908824D03*
X102050000Y-76158824D03*
D21*
X105850000Y-83758824D03*
X105850000Y-76308824D03*
D22*
X105900000Y-81333824D03*
X105900000Y-80683824D03*
X105900000Y-80033824D03*
X105900000Y-79383824D03*
X105900000Y-78733824D03*
%TD*%
%TO.C,C26*%
G36*
G01*
X105980000Y-59659999D02*
X105980000Y-60960001D01*
G75*
G02*
X105730001Y-61210000I-249999J0D01*
G01*
X104904999Y-61210000D01*
G75*
G02*
X104655000Y-60960001I0J249999D01*
G01*
X104655000Y-59659999D01*
G75*
G02*
X104904999Y-59410000I249999J0D01*
G01*
X105730001Y-59410000D01*
G75*
G02*
X105980000Y-59659999I0J-249999D01*
G01*
G37*
G36*
G01*
X109105000Y-59659999D02*
X109105000Y-60960001D01*
G75*
G02*
X108855001Y-61210000I-249999J0D01*
G01*
X108029999Y-61210000D01*
G75*
G02*
X107780000Y-60960001I0J249999D01*
G01*
X107780000Y-59659999D01*
G75*
G02*
X108029999Y-59410000I249999J0D01*
G01*
X108855001Y-59410000D01*
G75*
G02*
X109105000Y-59659999I0J-249999D01*
G01*
G37*
%TD*%
%TO.C,C13*%
G36*
G01*
X109679999Y-90320000D02*
X110980001Y-90320000D01*
G75*
G02*
X111230000Y-90569999I0J-249999D01*
G01*
X111230000Y-91395001D01*
G75*
G02*
X110980001Y-91645000I-249999J0D01*
G01*
X109679999Y-91645000D01*
G75*
G02*
X109430000Y-91395001I0J249999D01*
G01*
X109430000Y-90569999D01*
G75*
G02*
X109679999Y-90320000I249999J0D01*
G01*
G37*
G36*
G01*
X109679999Y-87195000D02*
X110980001Y-87195000D01*
G75*
G02*
X111230000Y-87444999I0J-249999D01*
G01*
X111230000Y-88270001D01*
G75*
G02*
X110980001Y-88520000I-249999J0D01*
G01*
X109679999Y-88520000D01*
G75*
G02*
X109430000Y-88270001I0J249999D01*
G01*
X109430000Y-87444999D01*
G75*
G02*
X109679999Y-87195000I249999J0D01*
G01*
G37*
%TD*%
%TO.C,R7*%
G36*
G01*
X136220000Y-79560000D02*
X136540000Y-79560000D01*
G75*
G02*
X136700000Y-79720000I0J-160000D01*
G01*
X136700000Y-80115000D01*
G75*
G02*
X136540000Y-80275000I-160000J0D01*
G01*
X136220000Y-80275000D01*
G75*
G02*
X136060000Y-80115000I0J160000D01*
G01*
X136060000Y-79720000D01*
G75*
G02*
X136220000Y-79560000I160000J0D01*
G01*
G37*
G36*
G01*
X136220000Y-78365000D02*
X136540000Y-78365000D01*
G75*
G02*
X136700000Y-78525000I0J-160000D01*
G01*
X136700000Y-78920000D01*
G75*
G02*
X136540000Y-79080000I-160000J0D01*
G01*
X136220000Y-79080000D01*
G75*
G02*
X136060000Y-78920000I0J160000D01*
G01*
X136060000Y-78525000D01*
G75*
G02*
X136220000Y-78365000I160000J0D01*
G01*
G37*
%TD*%
%TO.C,R6*%
G36*
G01*
X118920000Y-88650000D02*
X118920000Y-88970000D01*
G75*
G02*
X118760000Y-89130000I-160000J0D01*
G01*
X118365000Y-89130000D01*
G75*
G02*
X118205000Y-88970000I0J160000D01*
G01*
X118205000Y-88650000D01*
G75*
G02*
X118365000Y-88490000I160000J0D01*
G01*
X118760000Y-88490000D01*
G75*
G02*
X118920000Y-88650000I0J-160000D01*
G01*
G37*
G36*
G01*
X120115000Y-88650000D02*
X120115000Y-88970000D01*
G75*
G02*
X119955000Y-89130000I-160000J0D01*
G01*
X119560000Y-89130000D01*
G75*
G02*
X119400000Y-88970000I0J160000D01*
G01*
X119400000Y-88650000D01*
G75*
G02*
X119560000Y-88490000I160000J0D01*
G01*
X119955000Y-88490000D01*
G75*
G02*
X120115000Y-88650000I0J-160000D01*
G01*
G37*
%TD*%
%TO.C,R5*%
G36*
G01*
X118910000Y-90670000D02*
X118910000Y-90990000D01*
G75*
G02*
X118750000Y-91150000I-160000J0D01*
G01*
X118355000Y-91150000D01*
G75*
G02*
X118195000Y-90990000I0J160000D01*
G01*
X118195000Y-90670000D01*
G75*
G02*
X118355000Y-90510000I160000J0D01*
G01*
X118750000Y-90510000D01*
G75*
G02*
X118910000Y-90670000I0J-160000D01*
G01*
G37*
G36*
G01*
X120105000Y-90670000D02*
X120105000Y-90990000D01*
G75*
G02*
X119945000Y-91150000I-160000J0D01*
G01*
X119550000Y-91150000D01*
G75*
G02*
X119390000Y-90990000I0J160000D01*
G01*
X119390000Y-90670000D01*
G75*
G02*
X119550000Y-90510000I160000J0D01*
G01*
X119945000Y-90510000D01*
G75*
G02*
X120105000Y-90670000I0J-160000D01*
G01*
G37*
%TD*%
%TO.C,R4*%
G36*
G01*
X143780000Y-91920000D02*
X143780000Y-92240000D01*
G75*
G02*
X143620000Y-92400000I-160000J0D01*
G01*
X143225000Y-92400000D01*
G75*
G02*
X143065000Y-92240000I0J160000D01*
G01*
X143065000Y-91920000D01*
G75*
G02*
X143225000Y-91760000I160000J0D01*
G01*
X143620000Y-91760000D01*
G75*
G02*
X143780000Y-91920000I0J-160000D01*
G01*
G37*
G36*
G01*
X144975000Y-91920000D02*
X144975000Y-92240000D01*
G75*
G02*
X144815000Y-92400000I-160000J0D01*
G01*
X144420000Y-92400000D01*
G75*
G02*
X144260000Y-92240000I0J160000D01*
G01*
X144260000Y-91920000D01*
G75*
G02*
X144420000Y-91760000I160000J0D01*
G01*
X144815000Y-91760000D01*
G75*
G02*
X144975000Y-91920000I0J-160000D01*
G01*
G37*
%TD*%
%TO.C,R3*%
G36*
G01*
X143832500Y-90020000D02*
X143832500Y-90340000D01*
G75*
G02*
X143672500Y-90500000I-160000J0D01*
G01*
X143277500Y-90500000D01*
G75*
G02*
X143117500Y-90340000I0J160000D01*
G01*
X143117500Y-90020000D01*
G75*
G02*
X143277500Y-89860000I160000J0D01*
G01*
X143672500Y-89860000D01*
G75*
G02*
X143832500Y-90020000I0J-160000D01*
G01*
G37*
G36*
G01*
X145027500Y-90020000D02*
X145027500Y-90340000D01*
G75*
G02*
X144867500Y-90500000I-160000J0D01*
G01*
X144472500Y-90500000D01*
G75*
G02*
X144312500Y-90340000I0J160000D01*
G01*
X144312500Y-90020000D01*
G75*
G02*
X144472500Y-89860000I160000J0D01*
G01*
X144867500Y-89860000D01*
G75*
G02*
X145027500Y-90020000I0J-160000D01*
G01*
G37*
%TD*%
%TO.C,D3*%
G36*
G01*
X146957500Y-91767500D02*
X146957500Y-92192500D01*
G75*
G02*
X146745000Y-92405000I-212500J0D01*
G01*
X145945000Y-92405000D01*
G75*
G02*
X145732500Y-92192500I0J212500D01*
G01*
X145732500Y-91767500D01*
G75*
G02*
X145945000Y-91555000I212500J0D01*
G01*
X146745000Y-91555000D01*
G75*
G02*
X146957500Y-91767500I0J-212500D01*
G01*
G37*
G36*
G01*
X148582500Y-91767500D02*
X148582500Y-92192500D01*
G75*
G02*
X148370000Y-92405000I-212500J0D01*
G01*
X147570000Y-92405000D01*
G75*
G02*
X147357500Y-92192500I0J212500D01*
G01*
X147357500Y-91767500D01*
G75*
G02*
X147570000Y-91555000I212500J0D01*
G01*
X148370000Y-91555000D01*
G75*
G02*
X148582500Y-91767500I0J-212500D01*
G01*
G37*
%TD*%
%TO.C,D2*%
G36*
G01*
X146957500Y-89967500D02*
X146957500Y-90392500D01*
G75*
G02*
X146745000Y-90605000I-212500J0D01*
G01*
X145945000Y-90605000D01*
G75*
G02*
X145732500Y-90392500I0J212500D01*
G01*
X145732500Y-89967500D01*
G75*
G02*
X145945000Y-89755000I212500J0D01*
G01*
X146745000Y-89755000D01*
G75*
G02*
X146957500Y-89967500I0J-212500D01*
G01*
G37*
G36*
G01*
X148582500Y-89967500D02*
X148582500Y-90392500D01*
G75*
G02*
X148370000Y-90605000I-212500J0D01*
G01*
X147570000Y-90605000D01*
G75*
G02*
X147357500Y-90392500I0J212500D01*
G01*
X147357500Y-89967500D01*
G75*
G02*
X147570000Y-89755000I212500J0D01*
G01*
X148370000Y-89755000D01*
G75*
G02*
X148582500Y-89967500I0J-212500D01*
G01*
G37*
%TD*%
D23*
%TO.C,SW1*%
X145260000Y-65860030D03*
X145260000Y-70459970D03*
%TD*%
D24*
%TO.C,J3*%
X141850000Y-86730000D03*
D25*
X139850000Y-86730000D03*
%TD*%
D12*
%TO.C,CON1*%
X143240000Y-61390000D03*
X143240000Y-60120000D03*
X141970000Y-61390000D03*
X141970000Y-60120000D03*
X140700000Y-61390000D03*
X140700000Y-60120000D03*
X139430000Y-61390000D03*
X139430000Y-60120000D03*
X138160000Y-60120000D03*
D13*
X138160000Y-61390000D03*
%TD*%
%TO.C,C18*%
G36*
G01*
X113865000Y-74320000D02*
X114175000Y-74320000D01*
G75*
G02*
X114330000Y-74475000I0J-155000D01*
G01*
X114330000Y-74900000D01*
G75*
G02*
X114175000Y-75055000I-155000J0D01*
G01*
X113865000Y-75055000D01*
G75*
G02*
X113710000Y-74900000I0J155000D01*
G01*
X113710000Y-74475000D01*
G75*
G02*
X113865000Y-74320000I155000J0D01*
G01*
G37*
G36*
G01*
X113865000Y-73185000D02*
X114175000Y-73185000D01*
G75*
G02*
X114330000Y-73340000I0J-155000D01*
G01*
X114330000Y-73765000D01*
G75*
G02*
X114175000Y-73920000I-155000J0D01*
G01*
X113865000Y-73920000D01*
G75*
G02*
X113710000Y-73765000I0J155000D01*
G01*
X113710000Y-73340000D01*
G75*
G02*
X113865000Y-73185000I155000J0D01*
G01*
G37*
%TD*%
%TO.C,C17*%
G36*
G01*
X135700000Y-77155000D02*
X135700000Y-76845000D01*
G75*
G02*
X135855000Y-76690000I155000J0D01*
G01*
X136280000Y-76690000D01*
G75*
G02*
X136435000Y-76845000I0J-155000D01*
G01*
X136435000Y-77155000D01*
G75*
G02*
X136280000Y-77310000I-155000J0D01*
G01*
X135855000Y-77310000D01*
G75*
G02*
X135700000Y-77155000I0J155000D01*
G01*
G37*
G36*
G01*
X134565000Y-77155000D02*
X134565000Y-76845000D01*
G75*
G02*
X134720000Y-76690000I155000J0D01*
G01*
X135145000Y-76690000D01*
G75*
G02*
X135300000Y-76845000I0J-155000D01*
G01*
X135300000Y-77155000D01*
G75*
G02*
X135145000Y-77310000I-155000J0D01*
G01*
X134720000Y-77310000D01*
G75*
G02*
X134565000Y-77155000I0J155000D01*
G01*
G37*
%TD*%
%TO.C,C14*%
G36*
G01*
X119905000Y-64400000D02*
X119595000Y-64400000D01*
G75*
G02*
X119440000Y-64245000I0J155000D01*
G01*
X119440000Y-63820000D01*
G75*
G02*
X119595000Y-63665000I155000J0D01*
G01*
X119905000Y-63665000D01*
G75*
G02*
X120060000Y-63820000I0J-155000D01*
G01*
X120060000Y-64245000D01*
G75*
G02*
X119905000Y-64400000I-155000J0D01*
G01*
G37*
G36*
G01*
X119905000Y-65535000D02*
X119595000Y-65535000D01*
G75*
G02*
X119440000Y-65380000I0J155000D01*
G01*
X119440000Y-64955000D01*
G75*
G02*
X119595000Y-64800000I155000J0D01*
G01*
X119905000Y-64800000D01*
G75*
G02*
X120060000Y-64955000I0J-155000D01*
G01*
X120060000Y-65380000D01*
G75*
G02*
X119905000Y-65535000I-155000J0D01*
G01*
G37*
%TD*%
%TO.C,C12*%
G36*
G01*
X119345000Y-85700000D02*
X119655000Y-85700000D01*
G75*
G02*
X119810000Y-85855000I0J-155000D01*
G01*
X119810000Y-86280000D01*
G75*
G02*
X119655000Y-86435000I-155000J0D01*
G01*
X119345000Y-86435000D01*
G75*
G02*
X119190000Y-86280000I0J155000D01*
G01*
X119190000Y-85855000D01*
G75*
G02*
X119345000Y-85700000I155000J0D01*
G01*
G37*
G36*
G01*
X119345000Y-84565000D02*
X119655000Y-84565000D01*
G75*
G02*
X119810000Y-84720000I0J-155000D01*
G01*
X119810000Y-85145000D01*
G75*
G02*
X119655000Y-85300000I-155000J0D01*
G01*
X119345000Y-85300000D01*
G75*
G02*
X119190000Y-85145000I0J155000D01*
G01*
X119190000Y-84720000D01*
G75*
G02*
X119345000Y-84565000I155000J0D01*
G01*
G37*
%TD*%
%TO.C,C11*%
G36*
G01*
X118345000Y-85700000D02*
X118655000Y-85700000D01*
G75*
G02*
X118810000Y-85855000I0J-155000D01*
G01*
X118810000Y-86280000D01*
G75*
G02*
X118655000Y-86435000I-155000J0D01*
G01*
X118345000Y-86435000D01*
G75*
G02*
X118190000Y-86280000I0J155000D01*
G01*
X118190000Y-85855000D01*
G75*
G02*
X118345000Y-85700000I155000J0D01*
G01*
G37*
G36*
G01*
X118345000Y-84565000D02*
X118655000Y-84565000D01*
G75*
G02*
X118810000Y-84720000I0J-155000D01*
G01*
X118810000Y-85145000D01*
G75*
G02*
X118655000Y-85300000I-155000J0D01*
G01*
X118345000Y-85300000D01*
G75*
G02*
X118190000Y-85145000I0J155000D01*
G01*
X118190000Y-84720000D01*
G75*
G02*
X118345000Y-84565000I155000J0D01*
G01*
G37*
%TD*%
%TO.C,C10*%
G36*
G01*
X135700000Y-76155000D02*
X135700000Y-75845000D01*
G75*
G02*
X135855000Y-75690000I155000J0D01*
G01*
X136280000Y-75690000D01*
G75*
G02*
X136435000Y-75845000I0J-155000D01*
G01*
X136435000Y-76155000D01*
G75*
G02*
X136280000Y-76310000I-155000J0D01*
G01*
X135855000Y-76310000D01*
G75*
G02*
X135700000Y-76155000I0J155000D01*
G01*
G37*
G36*
G01*
X134565000Y-76155000D02*
X134565000Y-75845000D01*
G75*
G02*
X134720000Y-75690000I155000J0D01*
G01*
X135145000Y-75690000D01*
G75*
G02*
X135300000Y-75845000I0J-155000D01*
G01*
X135300000Y-76155000D01*
G75*
G02*
X135145000Y-76310000I-155000J0D01*
G01*
X134720000Y-76310000D01*
G75*
G02*
X134565000Y-76155000I0J155000D01*
G01*
G37*
%TD*%
%TO.C,C7*%
G36*
G01*
X135700000Y-71655000D02*
X135700000Y-71345000D01*
G75*
G02*
X135855000Y-71190000I155000J0D01*
G01*
X136280000Y-71190000D01*
G75*
G02*
X136435000Y-71345000I0J-155000D01*
G01*
X136435000Y-71655000D01*
G75*
G02*
X136280000Y-71810000I-155000J0D01*
G01*
X135855000Y-71810000D01*
G75*
G02*
X135700000Y-71655000I0J155000D01*
G01*
G37*
G36*
G01*
X134565000Y-71655000D02*
X134565000Y-71345000D01*
G75*
G02*
X134720000Y-71190000I155000J0D01*
G01*
X135145000Y-71190000D01*
G75*
G02*
X135300000Y-71345000I0J-155000D01*
G01*
X135300000Y-71655000D01*
G75*
G02*
X135145000Y-71810000I-155000J0D01*
G01*
X134720000Y-71810000D01*
G75*
G02*
X134565000Y-71655000I0J155000D01*
G01*
G37*
%TD*%
D26*
%TO.C,J1*%
X107225000Y-72500000D03*
X107225000Y-71700000D03*
X107225000Y-66800000D03*
X107225000Y-66000000D03*
X107225000Y-66000000D03*
X107225000Y-66800000D03*
X107225000Y-71700000D03*
X107225000Y-72500000D03*
D27*
X107225000Y-67500000D03*
X107225000Y-68000000D03*
X107225000Y-68500000D03*
X107225000Y-69500000D03*
X107225000Y-70000000D03*
X107225000Y-70500000D03*
X107225000Y-71000000D03*
X107225000Y-69000000D03*
D28*
X106310000Y-73570000D03*
X106310000Y-64930000D03*
D29*
X105780000Y-66360000D03*
D30*
X102130000Y-64930000D03*
D29*
X105780000Y-72140000D03*
D30*
X102130000Y-73570000D03*
%TD*%
D31*
%TO.C,U?.1*%
X117262000Y-81000000D03*
X117262000Y-80500000D03*
X117262000Y-80000000D03*
X117262000Y-79500000D03*
X117262000Y-79000000D03*
X117262000Y-78500000D03*
X117262000Y-78000000D03*
X117262000Y-77500000D03*
X117262000Y-77000000D03*
X117262000Y-76500000D03*
X117262000Y-76000000D03*
X117262000Y-75500000D03*
X117262000Y-75000000D03*
X117262000Y-74500000D03*
X117262000Y-74000000D03*
X117262000Y-73500000D03*
X117262000Y-73000000D03*
X117262000Y-72500000D03*
X117262000Y-72000000D03*
X117262000Y-71500000D03*
X117262000Y-71000000D03*
X117262000Y-70500000D03*
X117262000Y-70000000D03*
X117262000Y-69500000D03*
X117262000Y-69000000D03*
D32*
X119000000Y-67262000D03*
X119500000Y-67262000D03*
X120000000Y-67262000D03*
X120500000Y-67262000D03*
X121000000Y-67262000D03*
X121500000Y-67262000D03*
X122000000Y-67262000D03*
X122500000Y-67262000D03*
X123000000Y-67262000D03*
X123500000Y-67262000D03*
X124000000Y-67262000D03*
X124500000Y-67262000D03*
X125000000Y-67262000D03*
X125500000Y-67262000D03*
X126000000Y-67262000D03*
X126500000Y-67262000D03*
X127000000Y-67262000D03*
X127500000Y-67262000D03*
X128000000Y-67262000D03*
X128500000Y-67262000D03*
X129000000Y-67262000D03*
X129500000Y-67262000D03*
X130000000Y-67262000D03*
X130500000Y-67262000D03*
X131000000Y-67262000D03*
D31*
X132738000Y-69000000D03*
X132738000Y-69500000D03*
X132738000Y-70000000D03*
X132738000Y-70500000D03*
X132738000Y-71000000D03*
X132738000Y-71500000D03*
X132738000Y-72000000D03*
X132738000Y-72500000D03*
X132738000Y-73000000D03*
X132738000Y-73500000D03*
X132738000Y-74000000D03*
X132738000Y-74500000D03*
X132738000Y-75000000D03*
X132738000Y-75500000D03*
X132738000Y-76000000D03*
X132738000Y-76500000D03*
X132738000Y-77000000D03*
X132738000Y-77500000D03*
X132738000Y-78000000D03*
X132738000Y-78500000D03*
X132738000Y-79000000D03*
X132738000Y-79500000D03*
X132738000Y-80000000D03*
X132738000Y-80500000D03*
X132738000Y-81000000D03*
D32*
X131000000Y-82738000D03*
X130500000Y-82738000D03*
X130000000Y-82738000D03*
X129500000Y-82738000D03*
X129000000Y-82738000D03*
X128500000Y-82738000D03*
X128000000Y-82738000D03*
X127500000Y-82738000D03*
X127000000Y-82738000D03*
X126500000Y-82738000D03*
X126000000Y-82738000D03*
X125500000Y-82738000D03*
X125000000Y-82738000D03*
X124500000Y-82738000D03*
X124000000Y-82738000D03*
X123500000Y-82738000D03*
X123000000Y-82738000D03*
X122500000Y-82738000D03*
X122000000Y-82738000D03*
X121500000Y-82738000D03*
X121000000Y-82738000D03*
X120500000Y-82738000D03*
X120000000Y-82738000D03*
X119500000Y-82738000D03*
X119000000Y-82738000D03*
%TD*%
%TO.C,R2*%
G36*
G01*
X135740000Y-72660000D02*
X135740000Y-72340000D01*
G75*
G02*
X135900000Y-72180000I160000J0D01*
G01*
X136295000Y-72180000D01*
G75*
G02*
X136455000Y-72340000I0J-160000D01*
G01*
X136455000Y-72660000D01*
G75*
G02*
X136295000Y-72820000I-160000J0D01*
G01*
X135900000Y-72820000D01*
G75*
G02*
X135740000Y-72660000I0J160000D01*
G01*
G37*
G36*
G01*
X134545000Y-72660000D02*
X134545000Y-72340000D01*
G75*
G02*
X134705000Y-72180000I160000J0D01*
G01*
X135100000Y-72180000D01*
G75*
G02*
X135260000Y-72340000I0J-160000D01*
G01*
X135260000Y-72660000D01*
G75*
G02*
X135100000Y-72820000I-160000J0D01*
G01*
X134705000Y-72820000D01*
G75*
G02*
X134545000Y-72660000I0J160000D01*
G01*
G37*
%TD*%
%TO.C,R1*%
G36*
G01*
X111850000Y-71230000D02*
X111850000Y-71550000D01*
G75*
G02*
X111690000Y-71710000I-160000J0D01*
G01*
X111295000Y-71710000D01*
G75*
G02*
X111135000Y-71550000I0J160000D01*
G01*
X111135000Y-71230000D01*
G75*
G02*
X111295000Y-71070000I160000J0D01*
G01*
X111690000Y-71070000D01*
G75*
G02*
X111850000Y-71230000I0J-160000D01*
G01*
G37*
G36*
G01*
X113045000Y-71230000D02*
X113045000Y-71550000D01*
G75*
G02*
X112885000Y-71710000I-160000J0D01*
G01*
X112490000Y-71710000D01*
G75*
G02*
X112330000Y-71550000I0J160000D01*
G01*
X112330000Y-71230000D01*
G75*
G02*
X112490000Y-71070000I160000J0D01*
G01*
X112885000Y-71070000D01*
G75*
G02*
X113045000Y-71230000I0J-160000D01*
G01*
G37*
%TD*%
%TO.C,C6*%
G36*
G01*
X126605000Y-64802500D02*
X126915000Y-64802500D01*
G75*
G02*
X127070000Y-64957500I0J-155000D01*
G01*
X127070000Y-65382500D01*
G75*
G02*
X126915000Y-65537500I-155000J0D01*
G01*
X126605000Y-65537500D01*
G75*
G02*
X126450000Y-65382500I0J155000D01*
G01*
X126450000Y-64957500D01*
G75*
G02*
X126605000Y-64802500I155000J0D01*
G01*
G37*
G36*
G01*
X126605000Y-63667500D02*
X126915000Y-63667500D01*
G75*
G02*
X127070000Y-63822500I0J-155000D01*
G01*
X127070000Y-64247500D01*
G75*
G02*
X126915000Y-64402500I-155000J0D01*
G01*
X126605000Y-64402500D01*
G75*
G02*
X126450000Y-64247500I0J155000D01*
G01*
X126450000Y-63822500D01*
G75*
G02*
X126605000Y-63667500I155000J0D01*
G01*
G37*
%TD*%
%TO.C,C5*%
G36*
G01*
X130900000Y-65325000D02*
X130900000Y-65635000D01*
G75*
G02*
X130745000Y-65790000I-155000J0D01*
G01*
X130320000Y-65790000D01*
G75*
G02*
X130165000Y-65635000I0J155000D01*
G01*
X130165000Y-65325000D01*
G75*
G02*
X130320000Y-65170000I155000J0D01*
G01*
X130745000Y-65170000D01*
G75*
G02*
X130900000Y-65325000I0J-155000D01*
G01*
G37*
G36*
G01*
X132035000Y-65325000D02*
X132035000Y-65635000D01*
G75*
G02*
X131880000Y-65790000I-155000J0D01*
G01*
X131455000Y-65790000D01*
G75*
G02*
X131300000Y-65635000I0J155000D01*
G01*
X131300000Y-65325000D01*
G75*
G02*
X131455000Y-65170000I155000J0D01*
G01*
X131880000Y-65170000D01*
G75*
G02*
X132035000Y-65325000I0J-155000D01*
G01*
G37*
%TD*%
%TO.C,C4*%
G36*
G01*
X111890000Y-70225000D02*
X111890000Y-70535000D01*
G75*
G02*
X111735000Y-70690000I-155000J0D01*
G01*
X111310000Y-70690000D01*
G75*
G02*
X111155000Y-70535000I0J155000D01*
G01*
X111155000Y-70225000D01*
G75*
G02*
X111310000Y-70070000I155000J0D01*
G01*
X111735000Y-70070000D01*
G75*
G02*
X111890000Y-70225000I0J-155000D01*
G01*
G37*
G36*
G01*
X113025000Y-70225000D02*
X113025000Y-70535000D01*
G75*
G02*
X112870000Y-70690000I-155000J0D01*
G01*
X112445000Y-70690000D01*
G75*
G02*
X112290000Y-70535000I0J155000D01*
G01*
X112290000Y-70225000D01*
G75*
G02*
X112445000Y-70070000I155000J0D01*
G01*
X112870000Y-70070000D01*
G75*
G02*
X113025000Y-70225000I0J-155000D01*
G01*
G37*
%TD*%
%TO.C,C3*%
G36*
G01*
X135300000Y-70345000D02*
X135300000Y-70655000D01*
G75*
G02*
X135145000Y-70810000I-155000J0D01*
G01*
X134720000Y-70810000D01*
G75*
G02*
X134565000Y-70655000I0J155000D01*
G01*
X134565000Y-70345000D01*
G75*
G02*
X134720000Y-70190000I155000J0D01*
G01*
X135145000Y-70190000D01*
G75*
G02*
X135300000Y-70345000I0J-155000D01*
G01*
G37*
G36*
G01*
X136435000Y-70345000D02*
X136435000Y-70655000D01*
G75*
G02*
X136280000Y-70810000I-155000J0D01*
G01*
X135855000Y-70810000D01*
G75*
G02*
X135700000Y-70655000I0J155000D01*
G01*
X135700000Y-70345000D01*
G75*
G02*
X135855000Y-70190000I155000J0D01*
G01*
X136280000Y-70190000D01*
G75*
G02*
X136435000Y-70345000I0J-155000D01*
G01*
G37*
%TD*%
%TO.C,C2*%
G36*
G01*
X116645000Y-64340000D02*
X116955000Y-64340000D01*
G75*
G02*
X117110000Y-64495000I0J-155000D01*
G01*
X117110000Y-64920000D01*
G75*
G02*
X116955000Y-65075000I-155000J0D01*
G01*
X116645000Y-65075000D01*
G75*
G02*
X116490000Y-64920000I0J155000D01*
G01*
X116490000Y-64495000D01*
G75*
G02*
X116645000Y-64340000I155000J0D01*
G01*
G37*
G36*
G01*
X116645000Y-63205000D02*
X116955000Y-63205000D01*
G75*
G02*
X117110000Y-63360000I0J-155000D01*
G01*
X117110000Y-63785000D01*
G75*
G02*
X116955000Y-63940000I-155000J0D01*
G01*
X116645000Y-63940000D01*
G75*
G02*
X116490000Y-63785000I0J155000D01*
G01*
X116490000Y-63360000D01*
G75*
G02*
X116645000Y-63205000I155000J0D01*
G01*
G37*
%TD*%
%TO.C,C1*%
G36*
G01*
X112375000Y-63930000D02*
X112065000Y-63930000D01*
G75*
G02*
X111910000Y-63775000I0J155000D01*
G01*
X111910000Y-63350000D01*
G75*
G02*
X112065000Y-63195000I155000J0D01*
G01*
X112375000Y-63195000D01*
G75*
G02*
X112530000Y-63350000I0J-155000D01*
G01*
X112530000Y-63775000D01*
G75*
G02*
X112375000Y-63930000I-155000J0D01*
G01*
G37*
G36*
G01*
X112375000Y-65065000D02*
X112065000Y-65065000D01*
G75*
G02*
X111910000Y-64910000I0J155000D01*
G01*
X111910000Y-64485000D01*
G75*
G02*
X112065000Y-64330000I155000J0D01*
G01*
X112375000Y-64330000D01*
G75*
G02*
X112530000Y-64485000I0J-155000D01*
G01*
X112530000Y-64910000D01*
G75*
G02*
X112375000Y-65065000I-155000J0D01*
G01*
G37*
%TD*%
M02*
