%TF.GenerationSoftware,KiCad,Pcbnew,(5.1.9-0-10_14)*%
%TF.CreationDate,2021-03-12T08:38:00+08:00*%
%TF.ProjectId,jlinkob,6a6c696e-6b6f-4622-9e6b-696361645f70,rev?*%
%TF.SameCoordinates,Original*%
%TF.FileFunction,Legend,Bot*%
%TF.FilePolarity,Positive*%
%FSLAX46Y46*%
G04 Gerber Fmt 4.6, Leading zero omitted, Abs format (unit mm)*
G04 Created by KiCad (PCBNEW (5.1.9-0-10_14)) date 2021-03-12 08:38:00*
%MOMM*%
%LPD*%
G01*
G04 APERTURE LIST*
%ADD10C,0.150000*%
%ADD11C,0.200000*%
%ADD12C,0.254000*%
G04 APERTURE END LIST*
D10*
X115408095Y-96352380D02*
X114789047Y-96352380D01*
X115122380Y-96733333D01*
X114979523Y-96733333D01*
X114884285Y-96780952D01*
X114836666Y-96828571D01*
X114789047Y-96923809D01*
X114789047Y-97161904D01*
X114836666Y-97257142D01*
X114884285Y-97304761D01*
X114979523Y-97352380D01*
X115265238Y-97352380D01*
X115360476Y-97304761D01*
X115408095Y-97257142D01*
X114503333Y-96352380D02*
X114170000Y-97352380D01*
X113836666Y-96352380D01*
X113598571Y-96352380D02*
X112979523Y-96352380D01*
X113312857Y-96733333D01*
X113170000Y-96733333D01*
X113074761Y-96780952D01*
X113027142Y-96828571D01*
X112979523Y-96923809D01*
X112979523Y-97161904D01*
X113027142Y-97257142D01*
X113074761Y-97304761D01*
X113170000Y-97352380D01*
X113455714Y-97352380D01*
X113550952Y-97304761D01*
X113598571Y-97257142D01*
X118433809Y-97262380D02*
X118433809Y-96262380D01*
X118195714Y-96262380D01*
X118052857Y-96310000D01*
X117957619Y-96405238D01*
X117910000Y-96500476D01*
X117862380Y-96690952D01*
X117862380Y-96833809D01*
X117910000Y-97024285D01*
X117957619Y-97119523D01*
X118052857Y-97214761D01*
X118195714Y-97262380D01*
X118433809Y-97262380D01*
X117433809Y-97262380D02*
X117433809Y-96262380D01*
X116767142Y-96262380D02*
X116576666Y-96262380D01*
X116481428Y-96310000D01*
X116386190Y-96405238D01*
X116338571Y-96595714D01*
X116338571Y-96929047D01*
X116386190Y-97119523D01*
X116481428Y-97214761D01*
X116576666Y-97262380D01*
X116767142Y-97262380D01*
X116862380Y-97214761D01*
X116957619Y-97119523D01*
X117005238Y-96929047D01*
X117005238Y-96595714D01*
X116957619Y-96405238D01*
X116862380Y-96310000D01*
X116767142Y-96262380D01*
X120575238Y-97137142D02*
X120622857Y-97184761D01*
X120765714Y-97232380D01*
X120860952Y-97232380D01*
X121003809Y-97184761D01*
X121099047Y-97089523D01*
X121146666Y-96994285D01*
X121194285Y-96803809D01*
X121194285Y-96660952D01*
X121146666Y-96470476D01*
X121099047Y-96375238D01*
X121003809Y-96280000D01*
X120860952Y-96232380D01*
X120765714Y-96232380D01*
X120622857Y-96280000D01*
X120575238Y-96327619D01*
X119670476Y-97232380D02*
X120146666Y-97232380D01*
X120146666Y-96232380D01*
X119337142Y-97232380D02*
X119337142Y-96232380D01*
X118765714Y-97232380D02*
X119194285Y-96660952D01*
X118765714Y-96232380D02*
X119337142Y-96803809D01*
X121868095Y-96260000D02*
X121963333Y-96212380D01*
X122106190Y-96212380D01*
X122249047Y-96260000D01*
X122344285Y-96355238D01*
X122391904Y-96450476D01*
X122439523Y-96640952D01*
X122439523Y-96783809D01*
X122391904Y-96974285D01*
X122344285Y-97069523D01*
X122249047Y-97164761D01*
X122106190Y-97212380D01*
X122010952Y-97212380D01*
X121868095Y-97164761D01*
X121820476Y-97117142D01*
X121820476Y-96783809D01*
X122010952Y-96783809D01*
D11*
X143000000Y-94000000D02*
X123030000Y-94000000D01*
X143000000Y-99600000D02*
X143000000Y-94000000D01*
X123030000Y-99800000D02*
X143000000Y-99800000D01*
X123000000Y-94000000D02*
X123000000Y-99800000D01*
X108650952Y-93204761D02*
X109793809Y-93204761D01*
X109222380Y-93204761D02*
X109222380Y-91204761D01*
X109412857Y-91490476D01*
X109603333Y-91680952D01*
X109793809Y-91776190D01*
X107412857Y-91204761D02*
X107222380Y-91204761D01*
X107031904Y-91300000D01*
X106936666Y-91395238D01*
X106841428Y-91585714D01*
X106746190Y-91966666D01*
X106746190Y-92442857D01*
X106841428Y-92823809D01*
X106936666Y-93014285D01*
X107031904Y-93109523D01*
X107222380Y-93204761D01*
X107412857Y-93204761D01*
X107603333Y-93109523D01*
X107698571Y-93014285D01*
X107793809Y-92823809D01*
X107889047Y-92442857D01*
X107889047Y-91966666D01*
X107793809Y-91585714D01*
X107698571Y-91395238D01*
X107603333Y-91300000D01*
X107412857Y-91204761D01*
X108521428Y-76785238D02*
X108426190Y-76690000D01*
X108235714Y-76594761D01*
X107759523Y-76594761D01*
X107569047Y-76690000D01*
X107473809Y-76785238D01*
X107378571Y-76975714D01*
X107378571Y-77166190D01*
X107473809Y-77451904D01*
X108616666Y-78594761D01*
X107378571Y-78594761D01*
X130400952Y-93474761D02*
X130020000Y-93474761D01*
X129829523Y-93379523D01*
X129734285Y-93284285D01*
X129543809Y-92998571D01*
X129448571Y-92617619D01*
X129448571Y-91855714D01*
X129543809Y-91665238D01*
X129639047Y-91570000D01*
X129829523Y-91474761D01*
X130210476Y-91474761D01*
X130400952Y-91570000D01*
X130496190Y-91665238D01*
X130591428Y-91855714D01*
X130591428Y-92331904D01*
X130496190Y-92522380D01*
X130400952Y-92617619D01*
X130210476Y-92712857D01*
X129829523Y-92712857D01*
X129639047Y-92617619D01*
X129543809Y-92522380D01*
X129448571Y-92331904D01*
X129538571Y-78644761D02*
X130681428Y-78644761D01*
X130110000Y-78644761D02*
X130110000Y-76644761D01*
X130300476Y-76930476D01*
X130490952Y-77120952D01*
X130681428Y-77216190D01*
D10*
X144730476Y-92892380D02*
X145301904Y-92892380D01*
X145016190Y-92892380D02*
X145016190Y-91892380D01*
X145111428Y-92035238D01*
X145206666Y-92130476D01*
X145301904Y-92178095D01*
X144111428Y-91892380D02*
X144016190Y-91892380D01*
X143920952Y-91940000D01*
X143873333Y-91987619D01*
X143825714Y-92082857D01*
X143778095Y-92273333D01*
X143778095Y-92511428D01*
X143825714Y-92701904D01*
X143873333Y-92797142D01*
X143920952Y-92844761D01*
X144016190Y-92892380D01*
X144111428Y-92892380D01*
X144206666Y-92844761D01*
X144254285Y-92797142D01*
X144301904Y-92701904D01*
X144349523Y-92511428D01*
X144349523Y-92273333D01*
X144301904Y-92082857D01*
X144254285Y-91987619D01*
X144206666Y-91940000D01*
X144111428Y-91892380D01*
X144595238Y-89840952D02*
X144690476Y-89793333D01*
X144738095Y-89745714D01*
X144785714Y-89650476D01*
X144785714Y-89602857D01*
X144738095Y-89507619D01*
X144690476Y-89460000D01*
X144595238Y-89412380D01*
X144404761Y-89412380D01*
X144309523Y-89460000D01*
X144261904Y-89507619D01*
X144214285Y-89602857D01*
X144214285Y-89650476D01*
X144261904Y-89745714D01*
X144309523Y-89793333D01*
X144404761Y-89840952D01*
X144595238Y-89840952D01*
X144690476Y-89888571D01*
X144738095Y-89936190D01*
X144785714Y-90031428D01*
X144785714Y-90221904D01*
X144738095Y-90317142D01*
X144690476Y-90364761D01*
X144595238Y-90412380D01*
X144404761Y-90412380D01*
X144309523Y-90364761D01*
X144261904Y-90317142D01*
X144214285Y-90221904D01*
X144214285Y-90031428D01*
X144261904Y-89936190D01*
X144309523Y-89888571D01*
X144404761Y-89840952D01*
X144349523Y-86722380D02*
X144540000Y-86722380D01*
X144635238Y-86770000D01*
X144682857Y-86817619D01*
X144778095Y-86960476D01*
X144825714Y-87150952D01*
X144825714Y-87531904D01*
X144778095Y-87627142D01*
X144730476Y-87674761D01*
X144635238Y-87722380D01*
X144444761Y-87722380D01*
X144349523Y-87674761D01*
X144301904Y-87627142D01*
X144254285Y-87531904D01*
X144254285Y-87293809D01*
X144301904Y-87198571D01*
X144349523Y-87150952D01*
X144444761Y-87103333D01*
X144635238Y-87103333D01*
X144730476Y-87150952D01*
X144778095Y-87198571D01*
X144825714Y-87293809D01*
X144399523Y-84625714D02*
X144399523Y-85292380D01*
X144637619Y-84244761D02*
X144875714Y-84959047D01*
X144256666Y-84959047D01*
X144915714Y-81827619D02*
X144868095Y-81780000D01*
X144772857Y-81732380D01*
X144534761Y-81732380D01*
X144439523Y-81780000D01*
X144391904Y-81827619D01*
X144344285Y-81922857D01*
X144344285Y-82018095D01*
X144391904Y-82160952D01*
X144963333Y-82732380D01*
X144344285Y-82732380D01*
D11*
X129500000Y-90400000D02*
X128400000Y-90400000D01*
X129500000Y-79610000D02*
X129500000Y-90310000D01*
X128450000Y-79600000D02*
X129500000Y-79600000D01*
X115333333Y-93104761D02*
X116000000Y-92152380D01*
X116476190Y-93104761D02*
X116476190Y-91104761D01*
X115714285Y-91104761D01*
X115523809Y-91200000D01*
X115428571Y-91295238D01*
X115333333Y-91485714D01*
X115333333Y-91771428D01*
X115428571Y-91961904D01*
X115523809Y-92057142D01*
X115714285Y-92152380D01*
X116476190Y-92152380D01*
X114666666Y-91104761D02*
X113333333Y-93104761D01*
X113333333Y-91104761D02*
X114666666Y-93104761D01*
X112571428Y-93104761D02*
X112571428Y-91104761D01*
X112095238Y-91104761D01*
X111809523Y-91200000D01*
X111619047Y-91390476D01*
X111523809Y-91580952D01*
X111428571Y-91961904D01*
X111428571Y-92247619D01*
X111523809Y-92628571D01*
X111619047Y-92819047D01*
X111809523Y-93009523D01*
X112095238Y-93104761D01*
X112571428Y-93104761D01*
X116523809Y-87504761D02*
X115380952Y-87504761D01*
X115952380Y-89504761D02*
X115952380Y-87504761D01*
X114904761Y-87504761D02*
X113571428Y-89504761D01*
X113571428Y-87504761D02*
X114904761Y-89504761D01*
X112809523Y-89504761D02*
X112809523Y-87504761D01*
X112333333Y-87504761D01*
X112047619Y-87600000D01*
X111857142Y-87790476D01*
X111761904Y-87980952D01*
X111666666Y-88361904D01*
X111666666Y-88647619D01*
X111761904Y-89028571D01*
X111857142Y-89219047D01*
X112047619Y-89409523D01*
X112333333Y-89504761D01*
X112809523Y-89504761D01*
X116761904Y-82209523D02*
X116476190Y-82304761D01*
X116000000Y-82304761D01*
X115809523Y-82209523D01*
X115714285Y-82114285D01*
X115619047Y-81923809D01*
X115619047Y-81733333D01*
X115714285Y-81542857D01*
X115809523Y-81447619D01*
X116000000Y-81352380D01*
X116380952Y-81257142D01*
X116571428Y-81161904D01*
X116666666Y-81066666D01*
X116761904Y-80876190D01*
X116761904Y-80685714D01*
X116666666Y-80495238D01*
X116571428Y-80400000D01*
X116380952Y-80304761D01*
X115904761Y-80304761D01*
X115619047Y-80400000D01*
X114952380Y-80304761D02*
X114476190Y-82304761D01*
X114095238Y-80876190D01*
X113714285Y-82304761D01*
X113238095Y-80304761D01*
X112095238Y-80304761D02*
X111714285Y-80304761D01*
X111523809Y-80400000D01*
X111333333Y-80590476D01*
X111238095Y-80971428D01*
X111238095Y-81638095D01*
X111333333Y-82019047D01*
X111523809Y-82209523D01*
X111714285Y-82304761D01*
X112095238Y-82304761D01*
X112285714Y-82209523D01*
X112476190Y-82019047D01*
X112571428Y-81638095D01*
X112571428Y-80971428D01*
X112476190Y-80590476D01*
X112285714Y-80400000D01*
X112095238Y-80304761D01*
X115095238Y-78704761D02*
X115761904Y-77752380D01*
X116238095Y-78704761D02*
X116238095Y-76704761D01*
X115476190Y-76704761D01*
X115285714Y-76800000D01*
X115190476Y-76895238D01*
X115095238Y-77085714D01*
X115095238Y-77371428D01*
X115190476Y-77561904D01*
X115285714Y-77657142D01*
X115476190Y-77752380D01*
X116238095Y-77752380D01*
X114333333Y-78609523D02*
X114047619Y-78704761D01*
X113571428Y-78704761D01*
X113380952Y-78609523D01*
X113285714Y-78514285D01*
X113190476Y-78323809D01*
X113190476Y-78133333D01*
X113285714Y-77942857D01*
X113380952Y-77847619D01*
X113571428Y-77752380D01*
X113952380Y-77657142D01*
X114142857Y-77561904D01*
X114238095Y-77466666D01*
X114333333Y-77276190D01*
X114333333Y-77085714D01*
X114238095Y-76895238D01*
X114142857Y-76800000D01*
X113952380Y-76704761D01*
X113476190Y-76704761D01*
X113190476Y-76800000D01*
X112619047Y-76704761D02*
X111476190Y-76704761D01*
X112047619Y-78704761D02*
X112047619Y-76704761D01*
X115523809Y-84000000D02*
X115714285Y-83904761D01*
X116000000Y-83904761D01*
X116285714Y-84000000D01*
X116476190Y-84190476D01*
X116571428Y-84380952D01*
X116666666Y-84761904D01*
X116666666Y-85047619D01*
X116571428Y-85428571D01*
X116476190Y-85619047D01*
X116285714Y-85809523D01*
X116000000Y-85904761D01*
X115809523Y-85904761D01*
X115523809Y-85809523D01*
X115428571Y-85714285D01*
X115428571Y-85047619D01*
X115809523Y-85047619D01*
X114571428Y-85904761D02*
X114571428Y-83904761D01*
X113428571Y-85904761D01*
X113428571Y-83904761D01*
X112476190Y-85904761D02*
X112476190Y-83904761D01*
X112000000Y-83904761D01*
X111714285Y-84000000D01*
X111523809Y-84190476D01*
X111428571Y-84380952D01*
X111333333Y-84761904D01*
X111333333Y-85047619D01*
X111428571Y-85428571D01*
X111523809Y-85619047D01*
X111714285Y-85809523D01*
X112000000Y-85904761D01*
X112476190Y-85904761D01*
X124523809Y-91200000D02*
X124714285Y-91104761D01*
X125000000Y-91104761D01*
X125285714Y-91200000D01*
X125476190Y-91390476D01*
X125571428Y-91580952D01*
X125666666Y-91961904D01*
X125666666Y-92247619D01*
X125571428Y-92628571D01*
X125476190Y-92819047D01*
X125285714Y-93009523D01*
X125000000Y-93104761D01*
X124809523Y-93104761D01*
X124523809Y-93009523D01*
X124428571Y-92914285D01*
X124428571Y-92247619D01*
X124809523Y-92247619D01*
X123571428Y-93104761D02*
X123571428Y-91104761D01*
X122428571Y-93104761D01*
X122428571Y-91104761D01*
X121476190Y-93104761D02*
X121476190Y-91104761D01*
X121000000Y-91104761D01*
X120714285Y-91200000D01*
X120523809Y-91390476D01*
X120428571Y-91580952D01*
X120333333Y-91961904D01*
X120333333Y-92247619D01*
X120428571Y-92628571D01*
X120523809Y-92819047D01*
X120714285Y-93009523D01*
X121000000Y-93104761D01*
X121476190Y-93104761D01*
X127523809Y-89409523D02*
X127238095Y-89504761D01*
X126761904Y-89504761D01*
X126571428Y-89409523D01*
X126476190Y-89314285D01*
X126380952Y-89123809D01*
X126380952Y-88933333D01*
X126476190Y-88742857D01*
X126571428Y-88647619D01*
X126761904Y-88552380D01*
X127142857Y-88457142D01*
X127333333Y-88361904D01*
X127428571Y-88266666D01*
X127523809Y-88076190D01*
X127523809Y-87885714D01*
X127428571Y-87695238D01*
X127333333Y-87600000D01*
X127142857Y-87504761D01*
X126666666Y-87504761D01*
X126380952Y-87600000D01*
X125714285Y-87504761D02*
X125238095Y-89504761D01*
X124857142Y-88076190D01*
X124476190Y-89504761D01*
X124000000Y-87504761D01*
X122095238Y-89314285D02*
X122190476Y-89409523D01*
X122476190Y-89504761D01*
X122666666Y-89504761D01*
X122952380Y-89409523D01*
X123142857Y-89219047D01*
X123238095Y-89028571D01*
X123333333Y-88647619D01*
X123333333Y-88361904D01*
X123238095Y-87980952D01*
X123142857Y-87790476D01*
X122952380Y-87600000D01*
X122666666Y-87504761D01*
X122476190Y-87504761D01*
X122190476Y-87600000D01*
X122095238Y-87695238D01*
X120285714Y-89504761D02*
X121238095Y-89504761D01*
X121238095Y-87504761D01*
X119619047Y-89504761D02*
X119619047Y-87504761D01*
X118476190Y-89504761D02*
X119333333Y-88361904D01*
X118476190Y-87504761D02*
X119619047Y-88647619D01*
X127238095Y-85809523D02*
X126952380Y-85904761D01*
X126476190Y-85904761D01*
X126285714Y-85809523D01*
X126190476Y-85714285D01*
X126095238Y-85523809D01*
X126095238Y-85333333D01*
X126190476Y-85142857D01*
X126285714Y-85047619D01*
X126476190Y-84952380D01*
X126857142Y-84857142D01*
X127047619Y-84761904D01*
X127142857Y-84666666D01*
X127238095Y-84476190D01*
X127238095Y-84285714D01*
X127142857Y-84095238D01*
X127047619Y-84000000D01*
X126857142Y-83904761D01*
X126380952Y-83904761D01*
X126095238Y-84000000D01*
X125428571Y-83904761D02*
X124952380Y-85904761D01*
X124571428Y-84476190D01*
X124190476Y-85904761D01*
X123714285Y-83904761D01*
X122952380Y-85904761D02*
X122952380Y-83904761D01*
X122476190Y-83904761D01*
X122190476Y-84000000D01*
X122000000Y-84190476D01*
X121904761Y-84380952D01*
X121809523Y-84761904D01*
X121809523Y-85047619D01*
X121904761Y-85428571D01*
X122000000Y-85619047D01*
X122190476Y-85809523D01*
X122476190Y-85904761D01*
X122952380Y-85904761D01*
X120952380Y-85904761D02*
X120952380Y-83904761D01*
X119619047Y-83904761D02*
X119238095Y-83904761D01*
X119047619Y-84000000D01*
X118857142Y-84190476D01*
X118761904Y-84571428D01*
X118761904Y-85238095D01*
X118857142Y-85619047D01*
X119047619Y-85809523D01*
X119238095Y-85904761D01*
X119619047Y-85904761D01*
X119809523Y-85809523D01*
X120000000Y-85619047D01*
X120095238Y-85238095D01*
X120095238Y-84571428D01*
X120000000Y-84190476D01*
X119809523Y-84000000D01*
X119619047Y-83904761D01*
X125952380Y-80304761D02*
X124714285Y-80304761D01*
X125380952Y-81066666D01*
X125095238Y-81066666D01*
X124904761Y-81161904D01*
X124809523Y-81257142D01*
X124714285Y-81447619D01*
X124714285Y-81923809D01*
X124809523Y-82114285D01*
X124904761Y-82209523D01*
X125095238Y-82304761D01*
X125666666Y-82304761D01*
X125857142Y-82209523D01*
X125952380Y-82114285D01*
X123857142Y-82114285D02*
X123761904Y-82209523D01*
X123857142Y-82304761D01*
X123952380Y-82209523D01*
X123857142Y-82114285D01*
X123857142Y-82304761D01*
X123095238Y-80304761D02*
X121857142Y-80304761D01*
X122523809Y-81066666D01*
X122238095Y-81066666D01*
X122047619Y-81161904D01*
X121952380Y-81257142D01*
X121857142Y-81447619D01*
X121857142Y-81923809D01*
X121952380Y-82114285D01*
X122047619Y-82209523D01*
X122238095Y-82304761D01*
X122809523Y-82304761D01*
X123000000Y-82209523D01*
X123095238Y-82114285D01*
X121285714Y-80304761D02*
X120619047Y-82304761D01*
X119952380Y-80304761D01*
X123380952Y-76704761D02*
X124333333Y-76704761D01*
X124428571Y-77657142D01*
X124333333Y-77561904D01*
X124142857Y-77466666D01*
X123666666Y-77466666D01*
X123476190Y-77561904D01*
X123380952Y-77657142D01*
X123285714Y-77847619D01*
X123285714Y-78323809D01*
X123380952Y-78514285D01*
X123476190Y-78609523D01*
X123666666Y-78704761D01*
X124142857Y-78704761D01*
X124333333Y-78609523D01*
X124428571Y-78514285D01*
X122714285Y-76704761D02*
X122047619Y-78704761D01*
X121380952Y-76704761D01*
X117500000Y-94000000D02*
X117500000Y-76000000D01*
X110000000Y-90400000D02*
X128500000Y-90400000D01*
X110000000Y-86800000D02*
X128500000Y-86800000D01*
X110000000Y-83200000D02*
X128500000Y-83200000D01*
X110000000Y-79600000D02*
X128500000Y-79600000D01*
X110000000Y-94000000D02*
X110000000Y-76000000D01*
X110000000Y-94000000D02*
X128500000Y-94000000D01*
X128500000Y-76000000D02*
X128500000Y-94000000D01*
X110000000Y-76000000D02*
X128500000Y-76000000D01*
D12*
%TO.C,J4*%
X146460000Y-83440000D02*
X149000000Y-83440000D01*
X146460000Y-85980000D02*
X149000000Y-85980000D01*
X146460000Y-88520000D02*
X149000000Y-88520000D01*
X146460000Y-91060000D02*
X149000000Y-91060000D01*
X146460000Y-93600000D02*
X149000000Y-93600000D01*
X146460000Y-80900000D02*
X149000000Y-80900000D01*
%TD*%
M02*
