%TF.GenerationSoftware,KiCad,Pcbnew,(5.1.9-0-10_14)*%
%TF.CreationDate,2021-03-11T22:52:10+08:00*%
%TF.ProjectId,stlinkv21,73746c69-6e6b-4763-9231-2e6b69636164,rev?*%
%TF.SameCoordinates,Original*%
%TF.FileFunction,Legend,Top*%
%TF.FilePolarity,Positive*%
%FSLAX46Y46*%
G04 Gerber Fmt 4.6, Leading zero omitted, Abs format (unit mm)*
G04 Created by KiCad (PCBNEW (5.1.9-0-10_14)) date 2021-03-11 22:52:10*
%MOMM*%
%LPD*%
G01*
G04 APERTURE LIST*
%ADD10C,0.150000*%
%ADD11C,0.120000*%
%ADD12C,0.254000*%
G04 APERTURE END LIST*
D10*
X142689523Y-95002380D02*
X142118095Y-95002380D01*
X142403809Y-95002380D02*
X142403809Y-94002380D01*
X142308571Y-94145238D01*
X142213333Y-94240476D01*
X142118095Y-94288095D01*
X143308571Y-94002380D02*
X143403809Y-94002380D01*
X143499047Y-94050000D01*
X143546666Y-94097619D01*
X143594285Y-94192857D01*
X143641904Y-94383333D01*
X143641904Y-94621428D01*
X143594285Y-94811904D01*
X143546666Y-94907142D01*
X143499047Y-94954761D01*
X143403809Y-95002380D01*
X143308571Y-95002380D01*
X143213333Y-94954761D01*
X143165714Y-94907142D01*
X143118095Y-94811904D01*
X143070476Y-94621428D01*
X143070476Y-94383333D01*
X143118095Y-94192857D01*
X143165714Y-94097619D01*
X143213333Y-94050000D01*
X143308571Y-94002380D01*
X142774285Y-79627619D02*
X142821904Y-79580000D01*
X142917142Y-79532380D01*
X143155238Y-79532380D01*
X143250476Y-79580000D01*
X143298095Y-79627619D01*
X143345714Y-79722857D01*
X143345714Y-79818095D01*
X143298095Y-79960952D01*
X142726666Y-80532380D01*
X143345714Y-80532380D01*
X138999523Y-94952380D02*
X139190000Y-94952380D01*
X139285238Y-94904761D01*
X139332857Y-94857142D01*
X139428095Y-94714285D01*
X139475714Y-94523809D01*
X139475714Y-94142857D01*
X139428095Y-94047619D01*
X139380476Y-94000000D01*
X139285238Y-93952380D01*
X139094761Y-93952380D01*
X138999523Y-94000000D01*
X138951904Y-94047619D01*
X138904285Y-94142857D01*
X138904285Y-94380952D01*
X138951904Y-94476190D01*
X138999523Y-94523809D01*
X139094761Y-94571428D01*
X139285238Y-94571428D01*
X139380476Y-94523809D01*
X139428095Y-94476190D01*
X139475714Y-94380952D01*
X139925714Y-80532380D02*
X139354285Y-80532380D01*
X139640000Y-80532380D02*
X139640000Y-79532380D01*
X139544761Y-79675238D01*
X139449523Y-79770476D01*
X139354285Y-79818095D01*
X144399523Y-92982380D02*
X144590000Y-92982380D01*
X144685238Y-92934761D01*
X144732857Y-92887142D01*
X144828095Y-92744285D01*
X144875714Y-92553809D01*
X144875714Y-92172857D01*
X144828095Y-92077619D01*
X144780476Y-92030000D01*
X144685238Y-91982380D01*
X144494761Y-91982380D01*
X144399523Y-92030000D01*
X144351904Y-92077619D01*
X144304285Y-92172857D01*
X144304285Y-92410952D01*
X144351904Y-92506190D01*
X144399523Y-92553809D01*
X144494761Y-92601428D01*
X144685238Y-92601428D01*
X144780476Y-92553809D01*
X144828095Y-92506190D01*
X144875714Y-92410952D01*
X144296666Y-89282380D02*
X144963333Y-89282380D01*
X144534761Y-90282380D01*
X144828095Y-86812380D02*
X144351904Y-86812380D01*
X144304285Y-87288571D01*
X144351904Y-87240952D01*
X144447142Y-87193333D01*
X144685238Y-87193333D01*
X144780476Y-87240952D01*
X144828095Y-87288571D01*
X144875714Y-87383809D01*
X144875714Y-87621904D01*
X144828095Y-87717142D01*
X144780476Y-87764761D01*
X144685238Y-87812380D01*
X144447142Y-87812380D01*
X144351904Y-87764761D01*
X144304285Y-87717142D01*
X144296666Y-84292380D02*
X144915714Y-84292380D01*
X144582380Y-84673333D01*
X144725238Y-84673333D01*
X144820476Y-84720952D01*
X144868095Y-84768571D01*
X144915714Y-84863809D01*
X144915714Y-85101904D01*
X144868095Y-85197142D01*
X144820476Y-85244761D01*
X144725238Y-85292380D01*
X144439523Y-85292380D01*
X144344285Y-85244761D01*
X144296666Y-85197142D01*
X145055714Y-82732380D02*
X144484285Y-82732380D01*
X144770000Y-82732380D02*
X144770000Y-81732380D01*
X144674761Y-81875238D01*
X144579523Y-81970476D01*
X144484285Y-82018095D01*
X127457142Y-79855142D02*
X127671428Y-79926571D01*
X128028571Y-79926571D01*
X128171428Y-79855142D01*
X128242857Y-79783714D01*
X128314285Y-79640857D01*
X128314285Y-79498000D01*
X128242857Y-79355142D01*
X128171428Y-79283714D01*
X128028571Y-79212285D01*
X127742857Y-79140857D01*
X127600000Y-79069428D01*
X127528571Y-78998000D01*
X127457142Y-78855142D01*
X127457142Y-78712285D01*
X127528571Y-78569428D01*
X127600000Y-78498000D01*
X127742857Y-78426571D01*
X128100000Y-78426571D01*
X128314285Y-78498000D01*
X128742857Y-78926571D02*
X129314285Y-78926571D01*
X128957142Y-78426571D02*
X128957142Y-79712285D01*
X129028571Y-79855142D01*
X129171428Y-79926571D01*
X129314285Y-79926571D01*
X130028571Y-79926571D02*
X129885714Y-79855142D01*
X129814285Y-79712285D01*
X129814285Y-78426571D01*
X130600000Y-79926571D02*
X130600000Y-78926571D01*
X130600000Y-78426571D02*
X130528571Y-78498000D01*
X130600000Y-78569428D01*
X130671428Y-78498000D01*
X130600000Y-78426571D01*
X130600000Y-78569428D01*
X131314285Y-78926571D02*
X131314285Y-79926571D01*
X131314285Y-79069428D02*
X131385714Y-78998000D01*
X131528571Y-78926571D01*
X131742857Y-78926571D01*
X131885714Y-78998000D01*
X131957142Y-79140857D01*
X131957142Y-79926571D01*
X132671428Y-79926571D02*
X132671428Y-78426571D01*
X132814285Y-79355142D02*
X133242857Y-79926571D01*
X133242857Y-78926571D02*
X132671428Y-79498000D01*
X133885714Y-79355142D02*
X135028571Y-79355142D01*
X135528571Y-78426571D02*
X136028571Y-79926571D01*
X136528571Y-78426571D01*
X136957142Y-78569428D02*
X137028571Y-78498000D01*
X137171428Y-78426571D01*
X137528571Y-78426571D01*
X137671428Y-78498000D01*
X137742857Y-78569428D01*
X137814285Y-78712285D01*
X137814285Y-78855142D01*
X137742857Y-79069428D01*
X136885714Y-79926571D01*
X137814285Y-79926571D01*
X139242857Y-79926571D02*
X138385714Y-79926571D01*
X138814285Y-79926571D02*
X138814285Y-78426571D01*
X138671428Y-78640857D01*
X138528571Y-78783714D01*
X138385714Y-78855142D01*
D11*
%TO.C,C6*%
X124295000Y-99440000D02*
X132530000Y-99440000D01*
X124295000Y-94920000D02*
X124295000Y-99440000D01*
X132530000Y-94920000D02*
X124295000Y-94920000D01*
%TO.C,C4*%
X102255000Y-80500000D02*
X110490000Y-80500000D01*
X102255000Y-75980000D02*
X102255000Y-80500000D01*
X110490000Y-75980000D02*
X102255000Y-75980000D01*
%TO.C,Y1*%
X129816000Y-89410000D02*
X129816000Y-83660000D01*
X126216000Y-89410000D02*
X129816000Y-89410000D01*
X126216000Y-83660000D02*
X126216000Y-89410000D01*
%TO.C,R12*%
X109697500Y-88952742D02*
X109697500Y-89427258D01*
X110742500Y-88952742D02*
X110742500Y-89427258D01*
%TO.C,R11*%
X125802500Y-80417258D02*
X125802500Y-79942742D01*
X124757500Y-80417258D02*
X124757500Y-79942742D01*
%TO.C,R10*%
X109977500Y-83422742D02*
X109977500Y-83897258D01*
X111022500Y-83422742D02*
X111022500Y-83897258D01*
%TO.C,R9*%
X123017500Y-89732742D02*
X123017500Y-90207258D01*
X124062500Y-89732742D02*
X124062500Y-90207258D01*
%TO.C,R8*%
X125862742Y-91242500D02*
X126337258Y-91242500D01*
X125862742Y-90197500D02*
X126337258Y-90197500D01*
%TO.C,C7*%
X125899420Y-82980000D02*
X126180580Y-82980000D01*
X125899420Y-81960000D02*
X126180580Y-81960000D01*
%TO.C,C5*%
X123290000Y-95360580D02*
X123290000Y-95079420D01*
X122270000Y-95360580D02*
X122270000Y-95079420D01*
%TO.C,C3*%
X113500000Y-78640580D02*
X113500000Y-78359420D01*
X112480000Y-78640580D02*
X112480000Y-78359420D01*
%TO.C,C2*%
X124712000Y-84695420D02*
X124712000Y-84976580D01*
X125732000Y-84695420D02*
X125732000Y-84976580D01*
%TO.C,C1*%
X125732000Y-88024580D02*
X125732000Y-87743420D01*
X124712000Y-88024580D02*
X124712000Y-87743420D01*
%TO.C,U1*%
X120610000Y-89410000D02*
X121900000Y-89410000D01*
X120610000Y-89860000D02*
X120610000Y-89410000D01*
X120160000Y-89860000D02*
X120610000Y-89860000D01*
X113390000Y-89860000D02*
X113390000Y-89410000D01*
X113840000Y-89860000D02*
X113390000Y-89860000D01*
X120610000Y-82640000D02*
X120610000Y-83090000D01*
X120160000Y-82640000D02*
X120610000Y-82640000D01*
X113390000Y-82640000D02*
X113390000Y-83090000D01*
X113840000Y-82640000D02*
X113390000Y-82640000D01*
%TO.C,R5*%
X102352742Y-95472500D02*
X102827258Y-95472500D01*
X102352742Y-94427500D02*
X102827258Y-94427500D01*
%TO.C,R4*%
X136332742Y-96532500D02*
X136807258Y-96532500D01*
X136332742Y-95487500D02*
X136807258Y-95487500D01*
%TO.C,R3*%
X143317258Y-95487500D02*
X142842742Y-95487500D01*
X143317258Y-96532500D02*
X142842742Y-96532500D01*
%TO.C,D3*%
X104055000Y-95935000D02*
X101770000Y-95935000D01*
X104055000Y-97405000D02*
X104055000Y-95935000D01*
X101770000Y-97405000D02*
X104055000Y-97405000D01*
%TO.C,D2*%
X136755000Y-98355000D02*
X139040000Y-98355000D01*
X136755000Y-96885000D02*
X136755000Y-98355000D01*
X139040000Y-96885000D02*
X136755000Y-96885000D01*
%TO.C,D1*%
X142765000Y-96855000D02*
X140480000Y-96855000D01*
X142765000Y-98325000D02*
X142765000Y-96855000D01*
X140480000Y-98325000D02*
X142765000Y-98325000D01*
%TO.C,U3*%
X113280000Y-99630000D02*
X107270000Y-99630000D01*
X111030000Y-92810000D02*
X107270000Y-92810000D01*
X107270000Y-99630000D02*
X107270000Y-98370000D01*
X107270000Y-92810000D02*
X107270000Y-94070000D01*
D12*
%TO.C,J4*%
X145460000Y-97250000D02*
X149280000Y-97250000D01*
X145460000Y-77250000D02*
X149280000Y-77250000D01*
X146460000Y-83440000D02*
X149000000Y-83440000D01*
X146460000Y-80900000D02*
X149000000Y-80900000D01*
X146460000Y-93600000D02*
X149000000Y-93600000D01*
X146460000Y-85980000D02*
X149000000Y-85980000D01*
X146460000Y-88520000D02*
X149000000Y-88520000D01*
X146460000Y-91060000D02*
X149000000Y-91060000D01*
X149280000Y-77250000D02*
X149280000Y-97250000D01*
X145460000Y-77250000D02*
X145460000Y-97250000D01*
D11*
%TO.C,J3*%
X122810000Y-97240000D02*
X122810000Y-98300000D01*
X121750000Y-97240000D02*
X122810000Y-97240000D01*
X120750000Y-97240000D02*
X120750000Y-99360000D01*
X120750000Y-99360000D02*
X114690000Y-99360000D01*
X120750000Y-97240000D02*
X114690000Y-97240000D01*
X114690000Y-97240000D02*
X114690000Y-99360000D01*
%TO.C,CON1*%
X138870000Y-86370000D02*
X138870000Y-81045000D01*
X139370000Y-86370000D02*
X138870000Y-86370000D01*
X139370000Y-88370000D02*
X139370000Y-86370000D01*
X138870000Y-88370000D02*
X139370000Y-88370000D01*
X138870000Y-93695000D02*
X138870000Y-88370000D01*
X143870000Y-93695000D02*
X138870000Y-93695000D01*
X143870000Y-81045000D02*
X143870000Y-93695000D01*
X138870000Y-81045000D02*
X143870000Y-81045000D01*
X140590000Y-84060000D02*
X142920000Y-84060000D01*
X142920000Y-84060000D02*
X142920000Y-84820000D01*
X142920000Y-84860000D02*
X142920000Y-85455000D01*
X142920000Y-85455000D02*
X142920000Y-90595000D01*
X139750000Y-90595000D02*
X142300000Y-90590000D01*
X142277530Y-90595000D02*
X142920000Y-90595000D01*
X139790000Y-84930000D02*
X139750000Y-90595000D01*
X139790000Y-84920000D02*
X140560000Y-84090000D01*
%TO.C,R2*%
X116447258Y-78877500D02*
X115972742Y-78877500D01*
X116447258Y-79922500D02*
X115972742Y-79922500D01*
%TO.C,R1*%
X118292742Y-93452500D02*
X118767258Y-93452500D01*
X118292742Y-92407500D02*
X118767258Y-92407500D01*
%TO.C,J2*%
X117010000Y-96290000D02*
X117010000Y-95230000D01*
X118070000Y-96290000D02*
X117010000Y-96290000D01*
X119070000Y-96290000D02*
X119070000Y-94170000D01*
X119070000Y-94170000D02*
X121130000Y-94170000D01*
X119070000Y-96290000D02*
X121130000Y-96290000D01*
X121130000Y-96290000D02*
X121130000Y-94170000D01*
%TO.C,J1*%
X101000000Y-82550000D02*
X99100000Y-82550000D01*
X104900000Y-82550000D02*
X102900000Y-82550000D01*
X101000000Y-91950000D02*
X99100000Y-91950000D01*
X104900000Y-91950000D02*
X102900000Y-91950000D01*
X99100000Y-82550000D02*
X99100000Y-91950000D01*
%TO.C,C6*%
D10*
X128643333Y-97587142D02*
X128595714Y-97634761D01*
X128452857Y-97682380D01*
X128357619Y-97682380D01*
X128214761Y-97634761D01*
X128119523Y-97539523D01*
X128071904Y-97444285D01*
X128024285Y-97253809D01*
X128024285Y-97110952D01*
X128071904Y-96920476D01*
X128119523Y-96825238D01*
X128214761Y-96730000D01*
X128357619Y-96682380D01*
X128452857Y-96682380D01*
X128595714Y-96730000D01*
X128643333Y-96777619D01*
X129500476Y-96682380D02*
X129310000Y-96682380D01*
X129214761Y-96730000D01*
X129167142Y-96777619D01*
X129071904Y-96920476D01*
X129024285Y-97110952D01*
X129024285Y-97491904D01*
X129071904Y-97587142D01*
X129119523Y-97634761D01*
X129214761Y-97682380D01*
X129405238Y-97682380D01*
X129500476Y-97634761D01*
X129548095Y-97587142D01*
X129595714Y-97491904D01*
X129595714Y-97253809D01*
X129548095Y-97158571D01*
X129500476Y-97110952D01*
X129405238Y-97063333D01*
X129214761Y-97063333D01*
X129119523Y-97110952D01*
X129071904Y-97158571D01*
X129024285Y-97253809D01*
%TO.C,C4*%
X106523333Y-78507142D02*
X106475714Y-78554761D01*
X106332857Y-78602380D01*
X106237619Y-78602380D01*
X106094761Y-78554761D01*
X105999523Y-78459523D01*
X105951904Y-78364285D01*
X105904285Y-78173809D01*
X105904285Y-78030952D01*
X105951904Y-77840476D01*
X105999523Y-77745238D01*
X106094761Y-77650000D01*
X106237619Y-77602380D01*
X106332857Y-77602380D01*
X106475714Y-77650000D01*
X106523333Y-77697619D01*
X107380476Y-77935714D02*
X107380476Y-78602380D01*
X107142380Y-77554761D02*
X106904285Y-78269047D01*
X107523333Y-78269047D01*
%TO.C,Y1*%
X127613809Y-86386190D02*
X127613809Y-86862380D01*
X127280476Y-85862380D02*
X127613809Y-86386190D01*
X127947142Y-85862380D01*
X128804285Y-86862380D02*
X128232857Y-86862380D01*
X128518571Y-86862380D02*
X128518571Y-85862380D01*
X128423333Y-86005238D01*
X128328095Y-86100476D01*
X128232857Y-86148095D01*
%TO.C,R12*%
X109557142Y-91942380D02*
X109223809Y-91466190D01*
X108985714Y-91942380D02*
X108985714Y-90942380D01*
X109366666Y-90942380D01*
X109461904Y-90990000D01*
X109509523Y-91037619D01*
X109557142Y-91132857D01*
X109557142Y-91275714D01*
X109509523Y-91370952D01*
X109461904Y-91418571D01*
X109366666Y-91466190D01*
X108985714Y-91466190D01*
X110509523Y-91942380D02*
X109938095Y-91942380D01*
X110223809Y-91942380D02*
X110223809Y-90942380D01*
X110128571Y-91085238D01*
X110033333Y-91180476D01*
X109938095Y-91228095D01*
X110890476Y-91037619D02*
X110938095Y-90990000D01*
X111033333Y-90942380D01*
X111271428Y-90942380D01*
X111366666Y-90990000D01*
X111414285Y-91037619D01*
X111461904Y-91132857D01*
X111461904Y-91228095D01*
X111414285Y-91370952D01*
X110842857Y-91942380D01*
X111461904Y-91942380D01*
%TO.C,R11*%
X122327142Y-80422380D02*
X121993809Y-79946190D01*
X121755714Y-80422380D02*
X121755714Y-79422380D01*
X122136666Y-79422380D01*
X122231904Y-79470000D01*
X122279523Y-79517619D01*
X122327142Y-79612857D01*
X122327142Y-79755714D01*
X122279523Y-79850952D01*
X122231904Y-79898571D01*
X122136666Y-79946190D01*
X121755714Y-79946190D01*
X123279523Y-80422380D02*
X122708095Y-80422380D01*
X122993809Y-80422380D02*
X122993809Y-79422380D01*
X122898571Y-79565238D01*
X122803333Y-79660476D01*
X122708095Y-79708095D01*
X124231904Y-80422380D02*
X123660476Y-80422380D01*
X123946190Y-80422380D02*
X123946190Y-79422380D01*
X123850952Y-79565238D01*
X123755714Y-79660476D01*
X123660476Y-79708095D01*
%TO.C,R10*%
X109727142Y-86332380D02*
X109393809Y-85856190D01*
X109155714Y-86332380D02*
X109155714Y-85332380D01*
X109536666Y-85332380D01*
X109631904Y-85380000D01*
X109679523Y-85427619D01*
X109727142Y-85522857D01*
X109727142Y-85665714D01*
X109679523Y-85760952D01*
X109631904Y-85808571D01*
X109536666Y-85856190D01*
X109155714Y-85856190D01*
X110679523Y-86332380D02*
X110108095Y-86332380D01*
X110393809Y-86332380D02*
X110393809Y-85332380D01*
X110298571Y-85475238D01*
X110203333Y-85570476D01*
X110108095Y-85618095D01*
X111298571Y-85332380D02*
X111393809Y-85332380D01*
X111489047Y-85380000D01*
X111536666Y-85427619D01*
X111584285Y-85522857D01*
X111631904Y-85713333D01*
X111631904Y-85951428D01*
X111584285Y-86141904D01*
X111536666Y-86237142D01*
X111489047Y-86284761D01*
X111393809Y-86332380D01*
X111298571Y-86332380D01*
X111203333Y-86284761D01*
X111155714Y-86237142D01*
X111108095Y-86141904D01*
X111060476Y-85951428D01*
X111060476Y-85713333D01*
X111108095Y-85522857D01*
X111155714Y-85427619D01*
X111203333Y-85380000D01*
X111298571Y-85332380D01*
%TO.C,R9*%
X123263333Y-92622380D02*
X122930000Y-92146190D01*
X122691904Y-92622380D02*
X122691904Y-91622380D01*
X123072857Y-91622380D01*
X123168095Y-91670000D01*
X123215714Y-91717619D01*
X123263333Y-91812857D01*
X123263333Y-91955714D01*
X123215714Y-92050952D01*
X123168095Y-92098571D01*
X123072857Y-92146190D01*
X122691904Y-92146190D01*
X123739523Y-92622380D02*
X123930000Y-92622380D01*
X124025238Y-92574761D01*
X124072857Y-92527142D01*
X124168095Y-92384285D01*
X124215714Y-92193809D01*
X124215714Y-91812857D01*
X124168095Y-91717619D01*
X124120476Y-91670000D01*
X124025238Y-91622380D01*
X123834761Y-91622380D01*
X123739523Y-91670000D01*
X123691904Y-91717619D01*
X123644285Y-91812857D01*
X123644285Y-92050952D01*
X123691904Y-92146190D01*
X123739523Y-92193809D01*
X123834761Y-92241428D01*
X124025238Y-92241428D01*
X124120476Y-92193809D01*
X124168095Y-92146190D01*
X124215714Y-92050952D01*
%TO.C,R8*%
X126453333Y-92812380D02*
X126120000Y-92336190D01*
X125881904Y-92812380D02*
X125881904Y-91812380D01*
X126262857Y-91812380D01*
X126358095Y-91860000D01*
X126405714Y-91907619D01*
X126453333Y-92002857D01*
X126453333Y-92145714D01*
X126405714Y-92240952D01*
X126358095Y-92288571D01*
X126262857Y-92336190D01*
X125881904Y-92336190D01*
X127024761Y-92240952D02*
X126929523Y-92193333D01*
X126881904Y-92145714D01*
X126834285Y-92050476D01*
X126834285Y-92002857D01*
X126881904Y-91907619D01*
X126929523Y-91860000D01*
X127024761Y-91812380D01*
X127215238Y-91812380D01*
X127310476Y-91860000D01*
X127358095Y-91907619D01*
X127405714Y-92002857D01*
X127405714Y-92050476D01*
X127358095Y-92145714D01*
X127310476Y-92193333D01*
X127215238Y-92240952D01*
X127024761Y-92240952D01*
X126929523Y-92288571D01*
X126881904Y-92336190D01*
X126834285Y-92431428D01*
X126834285Y-92621904D01*
X126881904Y-92717142D01*
X126929523Y-92764761D01*
X127024761Y-92812380D01*
X127215238Y-92812380D01*
X127310476Y-92764761D01*
X127358095Y-92717142D01*
X127405714Y-92621904D01*
X127405714Y-92431428D01*
X127358095Y-92336190D01*
X127310476Y-92288571D01*
X127215238Y-92240952D01*
%TO.C,C7*%
X126993333Y-81317142D02*
X126945714Y-81364761D01*
X126802857Y-81412380D01*
X126707619Y-81412380D01*
X126564761Y-81364761D01*
X126469523Y-81269523D01*
X126421904Y-81174285D01*
X126374285Y-80983809D01*
X126374285Y-80840952D01*
X126421904Y-80650476D01*
X126469523Y-80555238D01*
X126564761Y-80460000D01*
X126707619Y-80412380D01*
X126802857Y-80412380D01*
X126945714Y-80460000D01*
X126993333Y-80507619D01*
X127326666Y-80412380D02*
X127993333Y-80412380D01*
X127564761Y-81412380D01*
%TO.C,C5*%
X124243333Y-94437142D02*
X124195714Y-94484761D01*
X124052857Y-94532380D01*
X123957619Y-94532380D01*
X123814761Y-94484761D01*
X123719523Y-94389523D01*
X123671904Y-94294285D01*
X123624285Y-94103809D01*
X123624285Y-93960952D01*
X123671904Y-93770476D01*
X123719523Y-93675238D01*
X123814761Y-93580000D01*
X123957619Y-93532380D01*
X124052857Y-93532380D01*
X124195714Y-93580000D01*
X124243333Y-93627619D01*
X125148095Y-93532380D02*
X124671904Y-93532380D01*
X124624285Y-94008571D01*
X124671904Y-93960952D01*
X124767142Y-93913333D01*
X125005238Y-93913333D01*
X125100476Y-93960952D01*
X125148095Y-94008571D01*
X125195714Y-94103809D01*
X125195714Y-94341904D01*
X125148095Y-94437142D01*
X125100476Y-94484761D01*
X125005238Y-94532380D01*
X124767142Y-94532380D01*
X124671904Y-94484761D01*
X124624285Y-94437142D01*
%TO.C,C3*%
X112313333Y-81577142D02*
X112265714Y-81624761D01*
X112122857Y-81672380D01*
X112027619Y-81672380D01*
X111884761Y-81624761D01*
X111789523Y-81529523D01*
X111741904Y-81434285D01*
X111694285Y-81243809D01*
X111694285Y-81100952D01*
X111741904Y-80910476D01*
X111789523Y-80815238D01*
X111884761Y-80720000D01*
X112027619Y-80672380D01*
X112122857Y-80672380D01*
X112265714Y-80720000D01*
X112313333Y-80767619D01*
X112646666Y-80672380D02*
X113265714Y-80672380D01*
X112932380Y-81053333D01*
X113075238Y-81053333D01*
X113170476Y-81100952D01*
X113218095Y-81148571D01*
X113265714Y-81243809D01*
X113265714Y-81481904D01*
X113218095Y-81577142D01*
X113170476Y-81624761D01*
X113075238Y-81672380D01*
X112789523Y-81672380D01*
X112694285Y-81624761D01*
X112646666Y-81577142D01*
%TO.C,C2*%
X123403333Y-85047142D02*
X123355714Y-85094761D01*
X123212857Y-85142380D01*
X123117619Y-85142380D01*
X122974761Y-85094761D01*
X122879523Y-84999523D01*
X122831904Y-84904285D01*
X122784285Y-84713809D01*
X122784285Y-84570952D01*
X122831904Y-84380476D01*
X122879523Y-84285238D01*
X122974761Y-84190000D01*
X123117619Y-84142380D01*
X123212857Y-84142380D01*
X123355714Y-84190000D01*
X123403333Y-84237619D01*
X123784285Y-84237619D02*
X123831904Y-84190000D01*
X123927142Y-84142380D01*
X124165238Y-84142380D01*
X124260476Y-84190000D01*
X124308095Y-84237619D01*
X124355714Y-84332857D01*
X124355714Y-84428095D01*
X124308095Y-84570952D01*
X123736666Y-85142380D01*
X124355714Y-85142380D01*
%TO.C,C1*%
X123423333Y-88277142D02*
X123375714Y-88324761D01*
X123232857Y-88372380D01*
X123137619Y-88372380D01*
X122994761Y-88324761D01*
X122899523Y-88229523D01*
X122851904Y-88134285D01*
X122804285Y-87943809D01*
X122804285Y-87800952D01*
X122851904Y-87610476D01*
X122899523Y-87515238D01*
X122994761Y-87420000D01*
X123137619Y-87372380D01*
X123232857Y-87372380D01*
X123375714Y-87420000D01*
X123423333Y-87467619D01*
X124375714Y-88372380D02*
X123804285Y-88372380D01*
X124090000Y-88372380D02*
X124090000Y-87372380D01*
X123994761Y-87515238D01*
X123899523Y-87610476D01*
X123804285Y-87658095D01*
%TO.C,U1*%
X115768095Y-86502380D02*
X115768095Y-87311904D01*
X115815714Y-87407142D01*
X115863333Y-87454761D01*
X115958571Y-87502380D01*
X116149047Y-87502380D01*
X116244285Y-87454761D01*
X116291904Y-87407142D01*
X116339523Y-87311904D01*
X116339523Y-86502380D01*
X117339523Y-87502380D02*
X116768095Y-87502380D01*
X117053809Y-87502380D02*
X117053809Y-86502380D01*
X116958571Y-86645238D01*
X116863333Y-86740476D01*
X116768095Y-86788095D01*
%TO.C,R5*%
X103113333Y-94172380D02*
X102780000Y-93696190D01*
X102541904Y-94172380D02*
X102541904Y-93172380D01*
X102922857Y-93172380D01*
X103018095Y-93220000D01*
X103065714Y-93267619D01*
X103113333Y-93362857D01*
X103113333Y-93505714D01*
X103065714Y-93600952D01*
X103018095Y-93648571D01*
X102922857Y-93696190D01*
X102541904Y-93696190D01*
X104018095Y-93172380D02*
X103541904Y-93172380D01*
X103494285Y-93648571D01*
X103541904Y-93600952D01*
X103637142Y-93553333D01*
X103875238Y-93553333D01*
X103970476Y-93600952D01*
X104018095Y-93648571D01*
X104065714Y-93743809D01*
X104065714Y-93981904D01*
X104018095Y-94077142D01*
X103970476Y-94124761D01*
X103875238Y-94172380D01*
X103637142Y-94172380D01*
X103541904Y-94124761D01*
X103494285Y-94077142D01*
%TO.C,R4*%
X138753333Y-96522380D02*
X138420000Y-96046190D01*
X138181904Y-96522380D02*
X138181904Y-95522380D01*
X138562857Y-95522380D01*
X138658095Y-95570000D01*
X138705714Y-95617619D01*
X138753333Y-95712857D01*
X138753333Y-95855714D01*
X138705714Y-95950952D01*
X138658095Y-95998571D01*
X138562857Y-96046190D01*
X138181904Y-96046190D01*
X139610476Y-95855714D02*
X139610476Y-96522380D01*
X139372380Y-95474761D02*
X139134285Y-96189047D01*
X139753333Y-96189047D01*
%TO.C,R3*%
X140573333Y-96502380D02*
X140240000Y-96026190D01*
X140001904Y-96502380D02*
X140001904Y-95502380D01*
X140382857Y-95502380D01*
X140478095Y-95550000D01*
X140525714Y-95597619D01*
X140573333Y-95692857D01*
X140573333Y-95835714D01*
X140525714Y-95930952D01*
X140478095Y-95978571D01*
X140382857Y-96026190D01*
X140001904Y-96026190D01*
X140906666Y-95502380D02*
X141525714Y-95502380D01*
X141192380Y-95883333D01*
X141335238Y-95883333D01*
X141430476Y-95930952D01*
X141478095Y-95978571D01*
X141525714Y-96073809D01*
X141525714Y-96311904D01*
X141478095Y-96407142D01*
X141430476Y-96454761D01*
X141335238Y-96502380D01*
X141049523Y-96502380D01*
X140954285Y-96454761D01*
X140906666Y-96407142D01*
%TO.C,D3*%
X101831904Y-98552380D02*
X101831904Y-97552380D01*
X102070000Y-97552380D01*
X102212857Y-97600000D01*
X102308095Y-97695238D01*
X102355714Y-97790476D01*
X102403333Y-97980952D01*
X102403333Y-98123809D01*
X102355714Y-98314285D01*
X102308095Y-98409523D01*
X102212857Y-98504761D01*
X102070000Y-98552380D01*
X101831904Y-98552380D01*
X102736666Y-97552380D02*
X103355714Y-97552380D01*
X103022380Y-97933333D01*
X103165238Y-97933333D01*
X103260476Y-97980952D01*
X103308095Y-98028571D01*
X103355714Y-98123809D01*
X103355714Y-98361904D01*
X103308095Y-98457142D01*
X103260476Y-98504761D01*
X103165238Y-98552380D01*
X102879523Y-98552380D01*
X102784285Y-98504761D01*
X102736666Y-98457142D01*
%TO.C,D2*%
X134801904Y-98152380D02*
X134801904Y-97152380D01*
X135040000Y-97152380D01*
X135182857Y-97200000D01*
X135278095Y-97295238D01*
X135325714Y-97390476D01*
X135373333Y-97580952D01*
X135373333Y-97723809D01*
X135325714Y-97914285D01*
X135278095Y-98009523D01*
X135182857Y-98104761D01*
X135040000Y-98152380D01*
X134801904Y-98152380D01*
X135754285Y-97247619D02*
X135801904Y-97200000D01*
X135897142Y-97152380D01*
X136135238Y-97152380D01*
X136230476Y-97200000D01*
X136278095Y-97247619D01*
X136325714Y-97342857D01*
X136325714Y-97438095D01*
X136278095Y-97580952D01*
X135706666Y-98152380D01*
X136325714Y-98152380D01*
%TO.C,D1*%
X143211904Y-98132380D02*
X143211904Y-97132380D01*
X143450000Y-97132380D01*
X143592857Y-97180000D01*
X143688095Y-97275238D01*
X143735714Y-97370476D01*
X143783333Y-97560952D01*
X143783333Y-97703809D01*
X143735714Y-97894285D01*
X143688095Y-97989523D01*
X143592857Y-98084761D01*
X143450000Y-98132380D01*
X143211904Y-98132380D01*
X144735714Y-98132380D02*
X144164285Y-98132380D01*
X144450000Y-98132380D02*
X144450000Y-97132380D01*
X144354761Y-97275238D01*
X144259523Y-97370476D01*
X144164285Y-97418095D01*
%TO.C,U3*%
X108068095Y-95642380D02*
X108068095Y-96451904D01*
X108115714Y-96547142D01*
X108163333Y-96594761D01*
X108258571Y-96642380D01*
X108449047Y-96642380D01*
X108544285Y-96594761D01*
X108591904Y-96547142D01*
X108639523Y-96451904D01*
X108639523Y-95642380D01*
X109020476Y-95642380D02*
X109639523Y-95642380D01*
X109306190Y-96023333D01*
X109449047Y-96023333D01*
X109544285Y-96070952D01*
X109591904Y-96118571D01*
X109639523Y-96213809D01*
X109639523Y-96451904D01*
X109591904Y-96547142D01*
X109544285Y-96594761D01*
X109449047Y-96642380D01*
X109163333Y-96642380D01*
X109068095Y-96594761D01*
X109020476Y-96547142D01*
%TO.C,J4*%
X146876666Y-78362380D02*
X146876666Y-79076666D01*
X146829047Y-79219523D01*
X146733809Y-79314761D01*
X146590952Y-79362380D01*
X146495714Y-79362380D01*
X147781428Y-78695714D02*
X147781428Y-79362380D01*
X147543333Y-78314761D02*
X147305238Y-79029047D01*
X147924285Y-79029047D01*
%TO.C,J3*%
X122926666Y-98572380D02*
X122926666Y-99286666D01*
X122879047Y-99429523D01*
X122783809Y-99524761D01*
X122640952Y-99572380D01*
X122545714Y-99572380D01*
X123307619Y-98572380D02*
X123926666Y-98572380D01*
X123593333Y-98953333D01*
X123736190Y-98953333D01*
X123831428Y-99000952D01*
X123879047Y-99048571D01*
X123926666Y-99143809D01*
X123926666Y-99381904D01*
X123879047Y-99477142D01*
X123831428Y-99524761D01*
X123736190Y-99572380D01*
X123450476Y-99572380D01*
X123355238Y-99524761D01*
X123307619Y-99477142D01*
%TO.C,CON1*%
X140005714Y-82487142D02*
X139958095Y-82534761D01*
X139815238Y-82582380D01*
X139720000Y-82582380D01*
X139577142Y-82534761D01*
X139481904Y-82439523D01*
X139434285Y-82344285D01*
X139386666Y-82153809D01*
X139386666Y-82010952D01*
X139434285Y-81820476D01*
X139481904Y-81725238D01*
X139577142Y-81630000D01*
X139720000Y-81582380D01*
X139815238Y-81582380D01*
X139958095Y-81630000D01*
X140005714Y-81677619D01*
X140624761Y-81582380D02*
X140815238Y-81582380D01*
X140910476Y-81630000D01*
X141005714Y-81725238D01*
X141053333Y-81915714D01*
X141053333Y-82249047D01*
X141005714Y-82439523D01*
X140910476Y-82534761D01*
X140815238Y-82582380D01*
X140624761Y-82582380D01*
X140529523Y-82534761D01*
X140434285Y-82439523D01*
X140386666Y-82249047D01*
X140386666Y-81915714D01*
X140434285Y-81725238D01*
X140529523Y-81630000D01*
X140624761Y-81582380D01*
X141481904Y-82582380D02*
X141481904Y-81582380D01*
X142053333Y-82582380D01*
X142053333Y-81582380D01*
X143053333Y-82582380D02*
X142481904Y-82582380D01*
X142767619Y-82582380D02*
X142767619Y-81582380D01*
X142672380Y-81725238D01*
X142577142Y-81820476D01*
X142481904Y-81868095D01*
%TO.C,R2*%
X117363333Y-78412380D02*
X117030000Y-77936190D01*
X116791904Y-78412380D02*
X116791904Y-77412380D01*
X117172857Y-77412380D01*
X117268095Y-77460000D01*
X117315714Y-77507619D01*
X117363333Y-77602857D01*
X117363333Y-77745714D01*
X117315714Y-77840952D01*
X117268095Y-77888571D01*
X117172857Y-77936190D01*
X116791904Y-77936190D01*
X117744285Y-77507619D02*
X117791904Y-77460000D01*
X117887142Y-77412380D01*
X118125238Y-77412380D01*
X118220476Y-77460000D01*
X118268095Y-77507619D01*
X118315714Y-77602857D01*
X118315714Y-77698095D01*
X118268095Y-77840952D01*
X117696666Y-78412380D01*
X118315714Y-78412380D01*
%TO.C,R1*%
X120953333Y-93512380D02*
X120620000Y-93036190D01*
X120381904Y-93512380D02*
X120381904Y-92512380D01*
X120762857Y-92512380D01*
X120858095Y-92560000D01*
X120905714Y-92607619D01*
X120953333Y-92702857D01*
X120953333Y-92845714D01*
X120905714Y-92940952D01*
X120858095Y-92988571D01*
X120762857Y-93036190D01*
X120381904Y-93036190D01*
X121905714Y-93512380D02*
X121334285Y-93512380D01*
X121620000Y-93512380D02*
X121620000Y-92512380D01*
X121524761Y-92655238D01*
X121429523Y-92750476D01*
X121334285Y-92798095D01*
%TO.C,J2*%
X115556666Y-94722380D02*
X115556666Y-95436666D01*
X115509047Y-95579523D01*
X115413809Y-95674761D01*
X115270952Y-95722380D01*
X115175714Y-95722380D01*
X115985238Y-94817619D02*
X116032857Y-94770000D01*
X116128095Y-94722380D01*
X116366190Y-94722380D01*
X116461428Y-94770000D01*
X116509047Y-94817619D01*
X116556666Y-94912857D01*
X116556666Y-95008095D01*
X116509047Y-95150952D01*
X115937619Y-95722380D01*
X116556666Y-95722380D01*
%TO.C,J1*%
X101646666Y-86792380D02*
X101646666Y-87506666D01*
X101599047Y-87649523D01*
X101503809Y-87744761D01*
X101360952Y-87792380D01*
X101265714Y-87792380D01*
X102646666Y-87792380D02*
X102075238Y-87792380D01*
X102360952Y-87792380D02*
X102360952Y-86792380D01*
X102265714Y-86935238D01*
X102170476Y-87030476D01*
X102075238Y-87078095D01*
%TD*%
M02*
