%TF.GenerationSoftware,KiCad,Pcbnew,(5.1.9-0-10_14)*%
%TF.CreationDate,2021-03-11T22:52:10+08:00*%
%TF.ProjectId,stlinkv21,73746c69-6e6b-4763-9231-2e6b69636164,rev?*%
%TF.SameCoordinates,Original*%
%TF.FileFunction,Copper,L1,Top*%
%TF.FilePolarity,Positive*%
%FSLAX46Y46*%
G04 Gerber Fmt 4.6, Leading zero omitted, Abs format (unit mm)*
G04 Created by KiCad (PCBNEW (5.1.9-0-10_14)) date 2021-03-11 22:52:10*
%MOMM*%
%LPD*%
G01*
G04 APERTURE LIST*
%TA.AperFunction,SMDPad,CuDef*%
%ADD10R,2.400000X2.000000*%
%TD*%
%TA.AperFunction,SMDPad,CuDef*%
%ADD11R,2.000000X1.500000*%
%TD*%
%TA.AperFunction,SMDPad,CuDef*%
%ADD12R,2.000000X3.800000*%
%TD*%
%TA.AperFunction,SMDPad,CuDef*%
%ADD13R,2.999994X1.519936*%
%TD*%
%TA.AperFunction,ComponentPad*%
%ADD14O,1.350000X1.350000*%
%TD*%
%TA.AperFunction,ComponentPad*%
%ADD15R,1.350000X1.350000*%
%TD*%
%TA.AperFunction,ComponentPad*%
%ADD16O,1.000000X1.000000*%
%TD*%
%TA.AperFunction,ComponentPad*%
%ADD17R,1.000000X1.000000*%
%TD*%
%TA.AperFunction,SMDPad,CuDef*%
%ADD18R,1.450000X0.600000*%
%TD*%
%TA.AperFunction,SMDPad,CuDef*%
%ADD19R,1.450000X0.300000*%
%TD*%
%TA.AperFunction,ComponentPad*%
%ADD20O,2.100000X1.000000*%
%TD*%
%TA.AperFunction,ComponentPad*%
%ADD21O,1.600000X1.000000*%
%TD*%
%TA.AperFunction,ViaPad*%
%ADD22C,0.600000*%
%TD*%
%TA.AperFunction,Conductor*%
%ADD23C,0.250000*%
%TD*%
%TA.AperFunction,Conductor*%
%ADD24C,0.600000*%
%TD*%
%TA.AperFunction,Conductor*%
%ADD25C,0.300000*%
%TD*%
%TA.AperFunction,Conductor*%
%ADD26C,0.400000*%
%TD*%
%TA.AperFunction,Conductor*%
%ADD27C,0.254000*%
%TD*%
%TA.AperFunction,Conductor*%
%ADD28C,0.100000*%
%TD*%
G04 APERTURE END LIST*
%TO.P,C6,2*%
%TO.N,+3V3*%
%TA.AperFunction,SMDPad,CuDef*%
G36*
G01*
X130955000Y-98205001D02*
X130955000Y-96154999D01*
G75*
G02*
X131204999Y-95905000I249999J0D01*
G01*
X132955001Y-95905000D01*
G75*
G02*
X133205000Y-96154999I0J-249999D01*
G01*
X133205000Y-98205001D01*
G75*
G02*
X132955001Y-98455000I-249999J0D01*
G01*
X131204999Y-98455000D01*
G75*
G02*
X130955000Y-98205001I0J249999D01*
G01*
G37*
%TD.AperFunction*%
%TO.P,C6,1*%
%TO.N,GND*%
%TA.AperFunction,SMDPad,CuDef*%
G36*
G01*
X124555000Y-98205001D02*
X124555000Y-96154999D01*
G75*
G02*
X124804999Y-95905000I249999J0D01*
G01*
X126555001Y-95905000D01*
G75*
G02*
X126805000Y-96154999I0J-249999D01*
G01*
X126805000Y-98205001D01*
G75*
G02*
X126555001Y-98455000I-249999J0D01*
G01*
X124804999Y-98455000D01*
G75*
G02*
X124555000Y-98205001I0J249999D01*
G01*
G37*
%TD.AperFunction*%
%TD*%
%TO.P,C4,2*%
%TO.N,VBUS*%
%TA.AperFunction,SMDPad,CuDef*%
G36*
G01*
X108915000Y-79265001D02*
X108915000Y-77214999D01*
G75*
G02*
X109164999Y-76965000I249999J0D01*
G01*
X110915001Y-76965000D01*
G75*
G02*
X111165000Y-77214999I0J-249999D01*
G01*
X111165000Y-79265001D01*
G75*
G02*
X110915001Y-79515000I-249999J0D01*
G01*
X109164999Y-79515000D01*
G75*
G02*
X108915000Y-79265001I0J249999D01*
G01*
G37*
%TD.AperFunction*%
%TO.P,C4,1*%
%TO.N,GND*%
%TA.AperFunction,SMDPad,CuDef*%
G36*
G01*
X102515000Y-79265001D02*
X102515000Y-77214999D01*
G75*
G02*
X102764999Y-76965000I249999J0D01*
G01*
X104515001Y-76965000D01*
G75*
G02*
X104765000Y-77214999I0J-249999D01*
G01*
X104765000Y-79265001D01*
G75*
G02*
X104515001Y-79515000I-249999J0D01*
G01*
X102764999Y-79515000D01*
G75*
G02*
X102515000Y-79265001I0J249999D01*
G01*
G37*
%TD.AperFunction*%
%TD*%
D10*
%TO.P,Y1,2*%
%TO.N,Net-(C2-Pad1)*%
X128016000Y-84510000D03*
%TO.P,Y1,1*%
%TO.N,Net-(C1-Pad1)*%
X128016000Y-88210000D03*
%TD*%
%TO.P,R12,2*%
%TO.N,+3V3*%
%TA.AperFunction,SMDPad,CuDef*%
G36*
G01*
X109945000Y-89615000D02*
X110495000Y-89615000D01*
G75*
G02*
X110695000Y-89815000I0J-200000D01*
G01*
X110695000Y-90215000D01*
G75*
G02*
X110495000Y-90415000I-200000J0D01*
G01*
X109945000Y-90415000D01*
G75*
G02*
X109745000Y-90215000I0J200000D01*
G01*
X109745000Y-89815000D01*
G75*
G02*
X109945000Y-89615000I200000J0D01*
G01*
G37*
%TD.AperFunction*%
%TO.P,R12,1*%
%TO.N,USB_DP*%
%TA.AperFunction,SMDPad,CuDef*%
G36*
G01*
X109945000Y-87965000D02*
X110495000Y-87965000D01*
G75*
G02*
X110695000Y-88165000I0J-200000D01*
G01*
X110695000Y-88565000D01*
G75*
G02*
X110495000Y-88765000I-200000J0D01*
G01*
X109945000Y-88765000D01*
G75*
G02*
X109745000Y-88565000I0J200000D01*
G01*
X109745000Y-88165000D01*
G75*
G02*
X109945000Y-87965000I200000J0D01*
G01*
G37*
%TD.AperFunction*%
%TD*%
%TO.P,R11,2*%
%TO.N,+3V3*%
%TA.AperFunction,SMDPad,CuDef*%
G36*
G01*
X125555000Y-79755000D02*
X125005000Y-79755000D01*
G75*
G02*
X124805000Y-79555000I0J200000D01*
G01*
X124805000Y-79155000D01*
G75*
G02*
X125005000Y-78955000I200000J0D01*
G01*
X125555000Y-78955000D01*
G75*
G02*
X125755000Y-79155000I0J-200000D01*
G01*
X125755000Y-79555000D01*
G75*
G02*
X125555000Y-79755000I-200000J0D01*
G01*
G37*
%TD.AperFunction*%
%TO.P,R11,1*%
%TO.N,Net-(C7-Pad1)*%
%TA.AperFunction,SMDPad,CuDef*%
G36*
G01*
X125555000Y-81405000D02*
X125005000Y-81405000D01*
G75*
G02*
X124805000Y-81205000I0J200000D01*
G01*
X124805000Y-80805000D01*
G75*
G02*
X125005000Y-80605000I200000J0D01*
G01*
X125555000Y-80605000D01*
G75*
G02*
X125755000Y-80805000I0J-200000D01*
G01*
X125755000Y-81205000D01*
G75*
G02*
X125555000Y-81405000I-200000J0D01*
G01*
G37*
%TD.AperFunction*%
%TD*%
%TO.P,R10,2*%
%TO.N,PB14*%
%TA.AperFunction,SMDPad,CuDef*%
G36*
G01*
X110225000Y-84085000D02*
X110775000Y-84085000D01*
G75*
G02*
X110975000Y-84285000I0J-200000D01*
G01*
X110975000Y-84685000D01*
G75*
G02*
X110775000Y-84885000I-200000J0D01*
G01*
X110225000Y-84885000D01*
G75*
G02*
X110025000Y-84685000I0J200000D01*
G01*
X110025000Y-84285000D01*
G75*
G02*
X110225000Y-84085000I200000J0D01*
G01*
G37*
%TD.AperFunction*%
%TO.P,R10,1*%
%TO.N,Net-(R10-Pad1)*%
%TA.AperFunction,SMDPad,CuDef*%
G36*
G01*
X110225000Y-82435000D02*
X110775000Y-82435000D01*
G75*
G02*
X110975000Y-82635000I0J-200000D01*
G01*
X110975000Y-83035000D01*
G75*
G02*
X110775000Y-83235000I-200000J0D01*
G01*
X110225000Y-83235000D01*
G75*
G02*
X110025000Y-83035000I0J200000D01*
G01*
X110025000Y-82635000D01*
G75*
G02*
X110225000Y-82435000I200000J0D01*
G01*
G37*
%TD.AperFunction*%
%TD*%
%TO.P,R9,2*%
%TO.N,GND*%
%TA.AperFunction,SMDPad,CuDef*%
G36*
G01*
X123265000Y-90395000D02*
X123815000Y-90395000D01*
G75*
G02*
X124015000Y-90595000I0J-200000D01*
G01*
X124015000Y-90995000D01*
G75*
G02*
X123815000Y-91195000I-200000J0D01*
G01*
X123265000Y-91195000D01*
G75*
G02*
X123065000Y-90995000I0J200000D01*
G01*
X123065000Y-90595000D01*
G75*
G02*
X123265000Y-90395000I200000J0D01*
G01*
G37*
%TD.AperFunction*%
%TO.P,R9,1*%
%TO.N,Net-(R9-Pad1)*%
%TA.AperFunction,SMDPad,CuDef*%
G36*
G01*
X123265000Y-88745000D02*
X123815000Y-88745000D01*
G75*
G02*
X124015000Y-88945000I0J-200000D01*
G01*
X124015000Y-89345000D01*
G75*
G02*
X123815000Y-89545000I-200000J0D01*
G01*
X123265000Y-89545000D01*
G75*
G02*
X123065000Y-89345000I0J200000D01*
G01*
X123065000Y-88945000D01*
G75*
G02*
X123265000Y-88745000I200000J0D01*
G01*
G37*
%TD.AperFunction*%
%TD*%
%TO.P,R8,2*%
%TO.N,GND*%
%TA.AperFunction,SMDPad,CuDef*%
G36*
G01*
X126525000Y-90995000D02*
X126525000Y-90445000D01*
G75*
G02*
X126725000Y-90245000I200000J0D01*
G01*
X127125000Y-90245000D01*
G75*
G02*
X127325000Y-90445000I0J-200000D01*
G01*
X127325000Y-90995000D01*
G75*
G02*
X127125000Y-91195000I-200000J0D01*
G01*
X126725000Y-91195000D01*
G75*
G02*
X126525000Y-90995000I0J200000D01*
G01*
G37*
%TD.AperFunction*%
%TO.P,R8,1*%
%TO.N,Net-(R8-Pad1)*%
%TA.AperFunction,SMDPad,CuDef*%
G36*
G01*
X124875000Y-90995000D02*
X124875000Y-90445000D01*
G75*
G02*
X125075000Y-90245000I200000J0D01*
G01*
X125475000Y-90245000D01*
G75*
G02*
X125675000Y-90445000I0J-200000D01*
G01*
X125675000Y-90995000D01*
G75*
G02*
X125475000Y-91195000I-200000J0D01*
G01*
X125075000Y-91195000D01*
G75*
G02*
X124875000Y-90995000I0J200000D01*
G01*
G37*
%TD.AperFunction*%
%TD*%
%TO.P,C7,2*%
%TO.N,GND*%
%TA.AperFunction,SMDPad,CuDef*%
G36*
G01*
X126365000Y-82720000D02*
X126365000Y-82220000D01*
G75*
G02*
X126590000Y-81995000I225000J0D01*
G01*
X127040000Y-81995000D01*
G75*
G02*
X127265000Y-82220000I0J-225000D01*
G01*
X127265000Y-82720000D01*
G75*
G02*
X127040000Y-82945000I-225000J0D01*
G01*
X126590000Y-82945000D01*
G75*
G02*
X126365000Y-82720000I0J225000D01*
G01*
G37*
%TD.AperFunction*%
%TO.P,C7,1*%
%TO.N,Net-(C7-Pad1)*%
%TA.AperFunction,SMDPad,CuDef*%
G36*
G01*
X124815000Y-82720000D02*
X124815000Y-82220000D01*
G75*
G02*
X125040000Y-81995000I225000J0D01*
G01*
X125490000Y-81995000D01*
G75*
G02*
X125715000Y-82220000I0J-225000D01*
G01*
X125715000Y-82720000D01*
G75*
G02*
X125490000Y-82945000I-225000J0D01*
G01*
X125040000Y-82945000D01*
G75*
G02*
X124815000Y-82720000I0J225000D01*
G01*
G37*
%TD.AperFunction*%
%TD*%
%TO.P,C5,2*%
%TO.N,+3V3*%
%TA.AperFunction,SMDPad,CuDef*%
G36*
G01*
X123030000Y-94895000D02*
X122530000Y-94895000D01*
G75*
G02*
X122305000Y-94670000I0J225000D01*
G01*
X122305000Y-94220000D01*
G75*
G02*
X122530000Y-93995000I225000J0D01*
G01*
X123030000Y-93995000D01*
G75*
G02*
X123255000Y-94220000I0J-225000D01*
G01*
X123255000Y-94670000D01*
G75*
G02*
X123030000Y-94895000I-225000J0D01*
G01*
G37*
%TD.AperFunction*%
%TO.P,C5,1*%
%TO.N,GND*%
%TA.AperFunction,SMDPad,CuDef*%
G36*
G01*
X123030000Y-96445000D02*
X122530000Y-96445000D01*
G75*
G02*
X122305000Y-96220000I0J225000D01*
G01*
X122305000Y-95770000D01*
G75*
G02*
X122530000Y-95545000I225000J0D01*
G01*
X123030000Y-95545000D01*
G75*
G02*
X123255000Y-95770000I0J-225000D01*
G01*
X123255000Y-96220000D01*
G75*
G02*
X123030000Y-96445000I-225000J0D01*
G01*
G37*
%TD.AperFunction*%
%TD*%
%TO.P,C3,2*%
%TO.N,VBUS*%
%TA.AperFunction,SMDPad,CuDef*%
G36*
G01*
X113240000Y-78175000D02*
X112740000Y-78175000D01*
G75*
G02*
X112515000Y-77950000I0J225000D01*
G01*
X112515000Y-77500000D01*
G75*
G02*
X112740000Y-77275000I225000J0D01*
G01*
X113240000Y-77275000D01*
G75*
G02*
X113465000Y-77500000I0J-225000D01*
G01*
X113465000Y-77950000D01*
G75*
G02*
X113240000Y-78175000I-225000J0D01*
G01*
G37*
%TD.AperFunction*%
%TO.P,C3,1*%
%TO.N,GND*%
%TA.AperFunction,SMDPad,CuDef*%
G36*
G01*
X113240000Y-79725000D02*
X112740000Y-79725000D01*
G75*
G02*
X112515000Y-79500000I0J225000D01*
G01*
X112515000Y-79050000D01*
G75*
G02*
X112740000Y-78825000I225000J0D01*
G01*
X113240000Y-78825000D01*
G75*
G02*
X113465000Y-79050000I0J-225000D01*
G01*
X113465000Y-79500000D01*
G75*
G02*
X113240000Y-79725000I-225000J0D01*
G01*
G37*
%TD.AperFunction*%
%TD*%
%TO.P,C2,2*%
%TO.N,GND*%
%TA.AperFunction,SMDPad,CuDef*%
G36*
G01*
X124972000Y-85161000D02*
X125472000Y-85161000D01*
G75*
G02*
X125697000Y-85386000I0J-225000D01*
G01*
X125697000Y-85836000D01*
G75*
G02*
X125472000Y-86061000I-225000J0D01*
G01*
X124972000Y-86061000D01*
G75*
G02*
X124747000Y-85836000I0J225000D01*
G01*
X124747000Y-85386000D01*
G75*
G02*
X124972000Y-85161000I225000J0D01*
G01*
G37*
%TD.AperFunction*%
%TO.P,C2,1*%
%TO.N,Net-(C2-Pad1)*%
%TA.AperFunction,SMDPad,CuDef*%
G36*
G01*
X124972000Y-83611000D02*
X125472000Y-83611000D01*
G75*
G02*
X125697000Y-83836000I0J-225000D01*
G01*
X125697000Y-84286000D01*
G75*
G02*
X125472000Y-84511000I-225000J0D01*
G01*
X124972000Y-84511000D01*
G75*
G02*
X124747000Y-84286000I0J225000D01*
G01*
X124747000Y-83836000D01*
G75*
G02*
X124972000Y-83611000I225000J0D01*
G01*
G37*
%TD.AperFunction*%
%TD*%
%TO.P,C1,2*%
%TO.N,GND*%
%TA.AperFunction,SMDPad,CuDef*%
G36*
G01*
X125472000Y-87559000D02*
X124972000Y-87559000D01*
G75*
G02*
X124747000Y-87334000I0J225000D01*
G01*
X124747000Y-86884000D01*
G75*
G02*
X124972000Y-86659000I225000J0D01*
G01*
X125472000Y-86659000D01*
G75*
G02*
X125697000Y-86884000I0J-225000D01*
G01*
X125697000Y-87334000D01*
G75*
G02*
X125472000Y-87559000I-225000J0D01*
G01*
G37*
%TD.AperFunction*%
%TO.P,C1,1*%
%TO.N,Net-(C1-Pad1)*%
%TA.AperFunction,SMDPad,CuDef*%
G36*
G01*
X125472000Y-89109000D02*
X124972000Y-89109000D01*
G75*
G02*
X124747000Y-88884000I0J225000D01*
G01*
X124747000Y-88434000D01*
G75*
G02*
X124972000Y-88209000I225000J0D01*
G01*
X125472000Y-88209000D01*
G75*
G02*
X125697000Y-88434000I0J-225000D01*
G01*
X125697000Y-88884000D01*
G75*
G02*
X125472000Y-89109000I-225000J0D01*
G01*
G37*
%TD.AperFunction*%
%TD*%
%TO.P,U1,48*%
%TO.N,+3V3*%
%TA.AperFunction,SMDPad,CuDef*%
G36*
G01*
X119900000Y-89750000D02*
X119900000Y-91075000D01*
G75*
G02*
X119825000Y-91150000I-75000J0D01*
G01*
X119675000Y-91150000D01*
G75*
G02*
X119600000Y-91075000I0J75000D01*
G01*
X119600000Y-89750000D01*
G75*
G02*
X119675000Y-89675000I75000J0D01*
G01*
X119825000Y-89675000D01*
G75*
G02*
X119900000Y-89750000I0J-75000D01*
G01*
G37*
%TD.AperFunction*%
%TO.P,U1,47*%
%TO.N,GND*%
%TA.AperFunction,SMDPad,CuDef*%
G36*
G01*
X119400000Y-89750000D02*
X119400000Y-91075000D01*
G75*
G02*
X119325000Y-91150000I-75000J0D01*
G01*
X119175000Y-91150000D01*
G75*
G02*
X119100000Y-91075000I0J75000D01*
G01*
X119100000Y-89750000D01*
G75*
G02*
X119175000Y-89675000I75000J0D01*
G01*
X119325000Y-89675000D01*
G75*
G02*
X119400000Y-89750000I0J-75000D01*
G01*
G37*
%TD.AperFunction*%
%TO.P,U1,46*%
%TO.N,Net-(U1-Pad46)*%
%TA.AperFunction,SMDPad,CuDef*%
G36*
G01*
X118900000Y-89750000D02*
X118900000Y-91075000D01*
G75*
G02*
X118825000Y-91150000I-75000J0D01*
G01*
X118675000Y-91150000D01*
G75*
G02*
X118600000Y-91075000I0J75000D01*
G01*
X118600000Y-89750000D01*
G75*
G02*
X118675000Y-89675000I75000J0D01*
G01*
X118825000Y-89675000D01*
G75*
G02*
X118900000Y-89750000I0J-75000D01*
G01*
G37*
%TD.AperFunction*%
%TO.P,U1,45*%
%TO.N,Net-(U1-Pad45)*%
%TA.AperFunction,SMDPad,CuDef*%
G36*
G01*
X118400000Y-89750000D02*
X118400000Y-91075000D01*
G75*
G02*
X118325000Y-91150000I-75000J0D01*
G01*
X118175000Y-91150000D01*
G75*
G02*
X118100000Y-91075000I0J75000D01*
G01*
X118100000Y-89750000D01*
G75*
G02*
X118175000Y-89675000I75000J0D01*
G01*
X118325000Y-89675000D01*
G75*
G02*
X118400000Y-89750000I0J-75000D01*
G01*
G37*
%TD.AperFunction*%
%TO.P,U1,44*%
%TO.N,Net-(J2-Pad1)*%
%TA.AperFunction,SMDPad,CuDef*%
G36*
G01*
X117900000Y-89750000D02*
X117900000Y-91075000D01*
G75*
G02*
X117825000Y-91150000I-75000J0D01*
G01*
X117675000Y-91150000D01*
G75*
G02*
X117600000Y-91075000I0J75000D01*
G01*
X117600000Y-89750000D01*
G75*
G02*
X117675000Y-89675000I75000J0D01*
G01*
X117825000Y-89675000D01*
G75*
G02*
X117900000Y-89750000I0J-75000D01*
G01*
G37*
%TD.AperFunction*%
%TO.P,U1,43*%
%TO.N,Net-(U1-Pad43)*%
%TA.AperFunction,SMDPad,CuDef*%
G36*
G01*
X117400000Y-89750000D02*
X117400000Y-91075000D01*
G75*
G02*
X117325000Y-91150000I-75000J0D01*
G01*
X117175000Y-91150000D01*
G75*
G02*
X117100000Y-91075000I0J75000D01*
G01*
X117100000Y-89750000D01*
G75*
G02*
X117175000Y-89675000I75000J0D01*
G01*
X117325000Y-89675000D01*
G75*
G02*
X117400000Y-89750000I0J-75000D01*
G01*
G37*
%TD.AperFunction*%
%TO.P,U1,42*%
%TO.N,PB6*%
%TA.AperFunction,SMDPad,CuDef*%
G36*
G01*
X116900000Y-89750000D02*
X116900000Y-91075000D01*
G75*
G02*
X116825000Y-91150000I-75000J0D01*
G01*
X116675000Y-91150000D01*
G75*
G02*
X116600000Y-91075000I0J75000D01*
G01*
X116600000Y-89750000D01*
G75*
G02*
X116675000Y-89675000I75000J0D01*
G01*
X116825000Y-89675000D01*
G75*
G02*
X116900000Y-89750000I0J-75000D01*
G01*
G37*
%TD.AperFunction*%
%TO.P,U1,41*%
%TO.N,Net-(U1-Pad41)*%
%TA.AperFunction,SMDPad,CuDef*%
G36*
G01*
X116400000Y-89750000D02*
X116400000Y-91075000D01*
G75*
G02*
X116325000Y-91150000I-75000J0D01*
G01*
X116175000Y-91150000D01*
G75*
G02*
X116100000Y-91075000I0J75000D01*
G01*
X116100000Y-89750000D01*
G75*
G02*
X116175000Y-89675000I75000J0D01*
G01*
X116325000Y-89675000D01*
G75*
G02*
X116400000Y-89750000I0J-75000D01*
G01*
G37*
%TD.AperFunction*%
%TO.P,U1,40*%
%TO.N,Net-(U1-Pad40)*%
%TA.AperFunction,SMDPad,CuDef*%
G36*
G01*
X115900000Y-89750000D02*
X115900000Y-91075000D01*
G75*
G02*
X115825000Y-91150000I-75000J0D01*
G01*
X115675000Y-91150000D01*
G75*
G02*
X115600000Y-91075000I0J75000D01*
G01*
X115600000Y-89750000D01*
G75*
G02*
X115675000Y-89675000I75000J0D01*
G01*
X115825000Y-89675000D01*
G75*
G02*
X115900000Y-89750000I0J-75000D01*
G01*
G37*
%TD.AperFunction*%
%TO.P,U1,39*%
%TO.N,Net-(U1-Pad39)*%
%TA.AperFunction,SMDPad,CuDef*%
G36*
G01*
X115400000Y-89750000D02*
X115400000Y-91075000D01*
G75*
G02*
X115325000Y-91150000I-75000J0D01*
G01*
X115175000Y-91150000D01*
G75*
G02*
X115100000Y-91075000I0J75000D01*
G01*
X115100000Y-89750000D01*
G75*
G02*
X115175000Y-89675000I75000J0D01*
G01*
X115325000Y-89675000D01*
G75*
G02*
X115400000Y-89750000I0J-75000D01*
G01*
G37*
%TD.AperFunction*%
%TO.P,U1,38*%
%TO.N,Net-(U1-Pad38)*%
%TA.AperFunction,SMDPad,CuDef*%
G36*
G01*
X114900000Y-89750000D02*
X114900000Y-91075000D01*
G75*
G02*
X114825000Y-91150000I-75000J0D01*
G01*
X114675000Y-91150000D01*
G75*
G02*
X114600000Y-91075000I0J75000D01*
G01*
X114600000Y-89750000D01*
G75*
G02*
X114675000Y-89675000I75000J0D01*
G01*
X114825000Y-89675000D01*
G75*
G02*
X114900000Y-89750000I0J-75000D01*
G01*
G37*
%TD.AperFunction*%
%TO.P,U1,37*%
%TO.N,m_CLK*%
%TA.AperFunction,SMDPad,CuDef*%
G36*
G01*
X114400000Y-89750000D02*
X114400000Y-91075000D01*
G75*
G02*
X114325000Y-91150000I-75000J0D01*
G01*
X114175000Y-91150000D01*
G75*
G02*
X114100000Y-91075000I0J75000D01*
G01*
X114100000Y-89750000D01*
G75*
G02*
X114175000Y-89675000I75000J0D01*
G01*
X114325000Y-89675000D01*
G75*
G02*
X114400000Y-89750000I0J-75000D01*
G01*
G37*
%TD.AperFunction*%
%TO.P,U1,36*%
%TO.N,+3V3*%
%TA.AperFunction,SMDPad,CuDef*%
G36*
G01*
X113575000Y-88925000D02*
X113575000Y-89075000D01*
G75*
G02*
X113500000Y-89150000I-75000J0D01*
G01*
X112175000Y-89150000D01*
G75*
G02*
X112100000Y-89075000I0J75000D01*
G01*
X112100000Y-88925000D01*
G75*
G02*
X112175000Y-88850000I75000J0D01*
G01*
X113500000Y-88850000D01*
G75*
G02*
X113575000Y-88925000I0J-75000D01*
G01*
G37*
%TD.AperFunction*%
%TO.P,U1,35*%
%TO.N,GND*%
%TA.AperFunction,SMDPad,CuDef*%
G36*
G01*
X113575000Y-88425000D02*
X113575000Y-88575000D01*
G75*
G02*
X113500000Y-88650000I-75000J0D01*
G01*
X112175000Y-88650000D01*
G75*
G02*
X112100000Y-88575000I0J75000D01*
G01*
X112100000Y-88425000D01*
G75*
G02*
X112175000Y-88350000I75000J0D01*
G01*
X113500000Y-88350000D01*
G75*
G02*
X113575000Y-88425000I0J-75000D01*
G01*
G37*
%TD.AperFunction*%
%TO.P,U1,34*%
%TO.N,m_DIO*%
%TA.AperFunction,SMDPad,CuDef*%
G36*
G01*
X113575000Y-87925000D02*
X113575000Y-88075000D01*
G75*
G02*
X113500000Y-88150000I-75000J0D01*
G01*
X112175000Y-88150000D01*
G75*
G02*
X112100000Y-88075000I0J75000D01*
G01*
X112100000Y-87925000D01*
G75*
G02*
X112175000Y-87850000I75000J0D01*
G01*
X113500000Y-87850000D01*
G75*
G02*
X113575000Y-87925000I0J-75000D01*
G01*
G37*
%TD.AperFunction*%
%TO.P,U1,33*%
%TO.N,USB_DP*%
%TA.AperFunction,SMDPad,CuDef*%
G36*
G01*
X113575000Y-87425000D02*
X113575000Y-87575000D01*
G75*
G02*
X113500000Y-87650000I-75000J0D01*
G01*
X112175000Y-87650000D01*
G75*
G02*
X112100000Y-87575000I0J75000D01*
G01*
X112100000Y-87425000D01*
G75*
G02*
X112175000Y-87350000I75000J0D01*
G01*
X113500000Y-87350000D01*
G75*
G02*
X113575000Y-87425000I0J-75000D01*
G01*
G37*
%TD.AperFunction*%
%TO.P,U1,32*%
%TO.N,USB_DM*%
%TA.AperFunction,SMDPad,CuDef*%
G36*
G01*
X113575000Y-86925000D02*
X113575000Y-87075000D01*
G75*
G02*
X113500000Y-87150000I-75000J0D01*
G01*
X112175000Y-87150000D01*
G75*
G02*
X112100000Y-87075000I0J75000D01*
G01*
X112100000Y-86925000D01*
G75*
G02*
X112175000Y-86850000I75000J0D01*
G01*
X113500000Y-86850000D01*
G75*
G02*
X113575000Y-86925000I0J-75000D01*
G01*
G37*
%TD.AperFunction*%
%TO.P,U1,31*%
%TO.N,PA10*%
%TA.AperFunction,SMDPad,CuDef*%
G36*
G01*
X113575000Y-86425000D02*
X113575000Y-86575000D01*
G75*
G02*
X113500000Y-86650000I-75000J0D01*
G01*
X112175000Y-86650000D01*
G75*
G02*
X112100000Y-86575000I0J75000D01*
G01*
X112100000Y-86425000D01*
G75*
G02*
X112175000Y-86350000I75000J0D01*
G01*
X113500000Y-86350000D01*
G75*
G02*
X113575000Y-86425000I0J-75000D01*
G01*
G37*
%TD.AperFunction*%
%TO.P,U1,30*%
%TO.N,GREEN*%
%TA.AperFunction,SMDPad,CuDef*%
G36*
G01*
X113575000Y-85925000D02*
X113575000Y-86075000D01*
G75*
G02*
X113500000Y-86150000I-75000J0D01*
G01*
X112175000Y-86150000D01*
G75*
G02*
X112100000Y-86075000I0J75000D01*
G01*
X112100000Y-85925000D01*
G75*
G02*
X112175000Y-85850000I75000J0D01*
G01*
X113500000Y-85850000D01*
G75*
G02*
X113575000Y-85925000I0J-75000D01*
G01*
G37*
%TD.AperFunction*%
%TO.P,U1,29*%
%TO.N,Net-(U1-Pad29)*%
%TA.AperFunction,SMDPad,CuDef*%
G36*
G01*
X113575000Y-85425000D02*
X113575000Y-85575000D01*
G75*
G02*
X113500000Y-85650000I-75000J0D01*
G01*
X112175000Y-85650000D01*
G75*
G02*
X112100000Y-85575000I0J75000D01*
G01*
X112100000Y-85425000D01*
G75*
G02*
X112175000Y-85350000I75000J0D01*
G01*
X113500000Y-85350000D01*
G75*
G02*
X113575000Y-85425000I0J-75000D01*
G01*
G37*
%TD.AperFunction*%
%TO.P,U1,28*%
%TO.N,Net-(U1-Pad28)*%
%TA.AperFunction,SMDPad,CuDef*%
G36*
G01*
X113575000Y-84925000D02*
X113575000Y-85075000D01*
G75*
G02*
X113500000Y-85150000I-75000J0D01*
G01*
X112175000Y-85150000D01*
G75*
G02*
X112100000Y-85075000I0J75000D01*
G01*
X112100000Y-84925000D01*
G75*
G02*
X112175000Y-84850000I75000J0D01*
G01*
X113500000Y-84850000D01*
G75*
G02*
X113575000Y-84925000I0J-75000D01*
G01*
G37*
%TD.AperFunction*%
%TO.P,U1,27*%
%TO.N,PB14*%
%TA.AperFunction,SMDPad,CuDef*%
G36*
G01*
X113575000Y-84425000D02*
X113575000Y-84575000D01*
G75*
G02*
X113500000Y-84650000I-75000J0D01*
G01*
X112175000Y-84650000D01*
G75*
G02*
X112100000Y-84575000I0J75000D01*
G01*
X112100000Y-84425000D01*
G75*
G02*
X112175000Y-84350000I75000J0D01*
G01*
X113500000Y-84350000D01*
G75*
G02*
X113575000Y-84425000I0J-75000D01*
G01*
G37*
%TD.AperFunction*%
%TO.P,U1,26*%
%TO.N,PB13*%
%TA.AperFunction,SMDPad,CuDef*%
G36*
G01*
X113575000Y-83925000D02*
X113575000Y-84075000D01*
G75*
G02*
X113500000Y-84150000I-75000J0D01*
G01*
X112175000Y-84150000D01*
G75*
G02*
X112100000Y-84075000I0J75000D01*
G01*
X112100000Y-83925000D01*
G75*
G02*
X112175000Y-83850000I75000J0D01*
G01*
X113500000Y-83850000D01*
G75*
G02*
X113575000Y-83925000I0J-75000D01*
G01*
G37*
%TD.AperFunction*%
%TO.P,U1,25*%
%TO.N,Net-(R10-Pad1)*%
%TA.AperFunction,SMDPad,CuDef*%
G36*
G01*
X113575000Y-83425000D02*
X113575000Y-83575000D01*
G75*
G02*
X113500000Y-83650000I-75000J0D01*
G01*
X112175000Y-83650000D01*
G75*
G02*
X112100000Y-83575000I0J75000D01*
G01*
X112100000Y-83425000D01*
G75*
G02*
X112175000Y-83350000I75000J0D01*
G01*
X113500000Y-83350000D01*
G75*
G02*
X113575000Y-83425000I0J-75000D01*
G01*
G37*
%TD.AperFunction*%
%TO.P,U1,24*%
%TO.N,+3V3*%
%TA.AperFunction,SMDPad,CuDef*%
G36*
G01*
X114400000Y-81425000D02*
X114400000Y-82750000D01*
G75*
G02*
X114325000Y-82825000I-75000J0D01*
G01*
X114175000Y-82825000D01*
G75*
G02*
X114100000Y-82750000I0J75000D01*
G01*
X114100000Y-81425000D01*
G75*
G02*
X114175000Y-81350000I75000J0D01*
G01*
X114325000Y-81350000D01*
G75*
G02*
X114400000Y-81425000I0J-75000D01*
G01*
G37*
%TD.AperFunction*%
%TO.P,U1,23*%
%TO.N,GND*%
%TA.AperFunction,SMDPad,CuDef*%
G36*
G01*
X114900000Y-81425000D02*
X114900000Y-82750000D01*
G75*
G02*
X114825000Y-82825000I-75000J0D01*
G01*
X114675000Y-82825000D01*
G75*
G02*
X114600000Y-82750000I0J75000D01*
G01*
X114600000Y-81425000D01*
G75*
G02*
X114675000Y-81350000I75000J0D01*
G01*
X114825000Y-81350000D01*
G75*
G02*
X114900000Y-81425000I0J-75000D01*
G01*
G37*
%TD.AperFunction*%
%TO.P,U1,22*%
%TO.N,Net-(U1-Pad22)*%
%TA.AperFunction,SMDPad,CuDef*%
G36*
G01*
X115400000Y-81425000D02*
X115400000Y-82750000D01*
G75*
G02*
X115325000Y-82825000I-75000J0D01*
G01*
X115175000Y-82825000D01*
G75*
G02*
X115100000Y-82750000I0J75000D01*
G01*
X115100000Y-81425000D01*
G75*
G02*
X115175000Y-81350000I75000J0D01*
G01*
X115325000Y-81350000D01*
G75*
G02*
X115400000Y-81425000I0J-75000D01*
G01*
G37*
%TD.AperFunction*%
%TO.P,U1,21*%
%TO.N,Net-(U1-Pad21)*%
%TA.AperFunction,SMDPad,CuDef*%
G36*
G01*
X115900000Y-81425000D02*
X115900000Y-82750000D01*
G75*
G02*
X115825000Y-82825000I-75000J0D01*
G01*
X115675000Y-82825000D01*
G75*
G02*
X115600000Y-82750000I0J75000D01*
G01*
X115600000Y-81425000D01*
G75*
G02*
X115675000Y-81350000I75000J0D01*
G01*
X115825000Y-81350000D01*
G75*
G02*
X115900000Y-81425000I0J-75000D01*
G01*
G37*
%TD.AperFunction*%
%TO.P,U1,20*%
%TO.N,Net-(R2-Pad1)*%
%TA.AperFunction,SMDPad,CuDef*%
G36*
G01*
X116400000Y-81425000D02*
X116400000Y-82750000D01*
G75*
G02*
X116325000Y-82825000I-75000J0D01*
G01*
X116175000Y-82825000D01*
G75*
G02*
X116100000Y-82750000I0J75000D01*
G01*
X116100000Y-81425000D01*
G75*
G02*
X116175000Y-81350000I75000J0D01*
G01*
X116325000Y-81350000D01*
G75*
G02*
X116400000Y-81425000I0J-75000D01*
G01*
G37*
%TD.AperFunction*%
%TO.P,U1,19*%
%TO.N,Net-(U1-Pad19)*%
%TA.AperFunction,SMDPad,CuDef*%
G36*
G01*
X116900000Y-81425000D02*
X116900000Y-82750000D01*
G75*
G02*
X116825000Y-82825000I-75000J0D01*
G01*
X116675000Y-82825000D01*
G75*
G02*
X116600000Y-82750000I0J75000D01*
G01*
X116600000Y-81425000D01*
G75*
G02*
X116675000Y-81350000I75000J0D01*
G01*
X116825000Y-81350000D01*
G75*
G02*
X116900000Y-81425000I0J-75000D01*
G01*
G37*
%TD.AperFunction*%
%TO.P,U1,18*%
%TO.N,Net-(U1-Pad18)*%
%TA.AperFunction,SMDPad,CuDef*%
G36*
G01*
X117400000Y-81425000D02*
X117400000Y-82750000D01*
G75*
G02*
X117325000Y-82825000I-75000J0D01*
G01*
X117175000Y-82825000D01*
G75*
G02*
X117100000Y-82750000I0J75000D01*
G01*
X117100000Y-81425000D01*
G75*
G02*
X117175000Y-81350000I75000J0D01*
G01*
X117325000Y-81350000D01*
G75*
G02*
X117400000Y-81425000I0J-75000D01*
G01*
G37*
%TD.AperFunction*%
%TO.P,U1,17*%
%TO.N,Net-(U1-Pad17)*%
%TA.AperFunction,SMDPad,CuDef*%
G36*
G01*
X117900000Y-81425000D02*
X117900000Y-82750000D01*
G75*
G02*
X117825000Y-82825000I-75000J0D01*
G01*
X117675000Y-82825000D01*
G75*
G02*
X117600000Y-82750000I0J75000D01*
G01*
X117600000Y-81425000D01*
G75*
G02*
X117675000Y-81350000I75000J0D01*
G01*
X117825000Y-81350000D01*
G75*
G02*
X117900000Y-81425000I0J-75000D01*
G01*
G37*
%TD.AperFunction*%
%TO.P,U1,16*%
%TO.N,Net-(U1-Pad16)*%
%TA.AperFunction,SMDPad,CuDef*%
G36*
G01*
X118400000Y-81425000D02*
X118400000Y-82750000D01*
G75*
G02*
X118325000Y-82825000I-75000J0D01*
G01*
X118175000Y-82825000D01*
G75*
G02*
X118100000Y-82750000I0J75000D01*
G01*
X118100000Y-81425000D01*
G75*
G02*
X118175000Y-81350000I75000J0D01*
G01*
X118325000Y-81350000D01*
G75*
G02*
X118400000Y-81425000I0J-75000D01*
G01*
G37*
%TD.AperFunction*%
%TO.P,U1,15*%
%TO.N,Net-(U1-Pad15)*%
%TA.AperFunction,SMDPad,CuDef*%
G36*
G01*
X118900000Y-81425000D02*
X118900000Y-82750000D01*
G75*
G02*
X118825000Y-82825000I-75000J0D01*
G01*
X118675000Y-82825000D01*
G75*
G02*
X118600000Y-82750000I0J75000D01*
G01*
X118600000Y-81425000D01*
G75*
G02*
X118675000Y-81350000I75000J0D01*
G01*
X118825000Y-81350000D01*
G75*
G02*
X118900000Y-81425000I0J-75000D01*
G01*
G37*
%TD.AperFunction*%
%TO.P,U1,14*%
%TO.N,PA4*%
%TA.AperFunction,SMDPad,CuDef*%
G36*
G01*
X119400000Y-81425000D02*
X119400000Y-82750000D01*
G75*
G02*
X119325000Y-82825000I-75000J0D01*
G01*
X119175000Y-82825000D01*
G75*
G02*
X119100000Y-82750000I0J75000D01*
G01*
X119100000Y-81425000D01*
G75*
G02*
X119175000Y-81350000I75000J0D01*
G01*
X119325000Y-81350000D01*
G75*
G02*
X119400000Y-81425000I0J-75000D01*
G01*
G37*
%TD.AperFunction*%
%TO.P,U1,13*%
%TO.N,PA3*%
%TA.AperFunction,SMDPad,CuDef*%
G36*
G01*
X119900000Y-81425000D02*
X119900000Y-82750000D01*
G75*
G02*
X119825000Y-82825000I-75000J0D01*
G01*
X119675000Y-82825000D01*
G75*
G02*
X119600000Y-82750000I0J75000D01*
G01*
X119600000Y-81425000D01*
G75*
G02*
X119675000Y-81350000I75000J0D01*
G01*
X119825000Y-81350000D01*
G75*
G02*
X119900000Y-81425000I0J-75000D01*
G01*
G37*
%TD.AperFunction*%
%TO.P,U1,12*%
%TO.N,PA2*%
%TA.AperFunction,SMDPad,CuDef*%
G36*
G01*
X121900000Y-83425000D02*
X121900000Y-83575000D01*
G75*
G02*
X121825000Y-83650000I-75000J0D01*
G01*
X120500000Y-83650000D01*
G75*
G02*
X120425000Y-83575000I0J75000D01*
G01*
X120425000Y-83425000D01*
G75*
G02*
X120500000Y-83350000I75000J0D01*
G01*
X121825000Y-83350000D01*
G75*
G02*
X121900000Y-83425000I0J-75000D01*
G01*
G37*
%TD.AperFunction*%
%TO.P,U1,11*%
%TO.N,PA1*%
%TA.AperFunction,SMDPad,CuDef*%
G36*
G01*
X121900000Y-83925000D02*
X121900000Y-84075000D01*
G75*
G02*
X121825000Y-84150000I-75000J0D01*
G01*
X120500000Y-84150000D01*
G75*
G02*
X120425000Y-84075000I0J75000D01*
G01*
X120425000Y-83925000D01*
G75*
G02*
X120500000Y-83850000I75000J0D01*
G01*
X121825000Y-83850000D01*
G75*
G02*
X121900000Y-83925000I0J-75000D01*
G01*
G37*
%TD.AperFunction*%
%TO.P,U1,10*%
%TO.N,PA0*%
%TA.AperFunction,SMDPad,CuDef*%
G36*
G01*
X121900000Y-84425000D02*
X121900000Y-84575000D01*
G75*
G02*
X121825000Y-84650000I-75000J0D01*
G01*
X120500000Y-84650000D01*
G75*
G02*
X120425000Y-84575000I0J75000D01*
G01*
X120425000Y-84425000D01*
G75*
G02*
X120500000Y-84350000I75000J0D01*
G01*
X121825000Y-84350000D01*
G75*
G02*
X121900000Y-84425000I0J-75000D01*
G01*
G37*
%TD.AperFunction*%
%TO.P,U1,9*%
%TO.N,+3V3*%
%TA.AperFunction,SMDPad,CuDef*%
G36*
G01*
X121900000Y-84925000D02*
X121900000Y-85075000D01*
G75*
G02*
X121825000Y-85150000I-75000J0D01*
G01*
X120500000Y-85150000D01*
G75*
G02*
X120425000Y-85075000I0J75000D01*
G01*
X120425000Y-84925000D01*
G75*
G02*
X120500000Y-84850000I75000J0D01*
G01*
X121825000Y-84850000D01*
G75*
G02*
X121900000Y-84925000I0J-75000D01*
G01*
G37*
%TD.AperFunction*%
%TO.P,U1,8*%
%TO.N,GND*%
%TA.AperFunction,SMDPad,CuDef*%
G36*
G01*
X121900000Y-85425000D02*
X121900000Y-85575000D01*
G75*
G02*
X121825000Y-85650000I-75000J0D01*
G01*
X120500000Y-85650000D01*
G75*
G02*
X120425000Y-85575000I0J75000D01*
G01*
X120425000Y-85425000D01*
G75*
G02*
X120500000Y-85350000I75000J0D01*
G01*
X121825000Y-85350000D01*
G75*
G02*
X121900000Y-85425000I0J-75000D01*
G01*
G37*
%TD.AperFunction*%
%TO.P,U1,7*%
%TO.N,Net-(C7-Pad1)*%
%TA.AperFunction,SMDPad,CuDef*%
G36*
G01*
X121900000Y-85925000D02*
X121900000Y-86075000D01*
G75*
G02*
X121825000Y-86150000I-75000J0D01*
G01*
X120500000Y-86150000D01*
G75*
G02*
X120425000Y-86075000I0J75000D01*
G01*
X120425000Y-85925000D01*
G75*
G02*
X120500000Y-85850000I75000J0D01*
G01*
X121825000Y-85850000D01*
G75*
G02*
X121900000Y-85925000I0J-75000D01*
G01*
G37*
%TD.AperFunction*%
%TO.P,U1,6*%
%TO.N,Net-(C2-Pad1)*%
%TA.AperFunction,SMDPad,CuDef*%
G36*
G01*
X121900000Y-86425000D02*
X121900000Y-86575000D01*
G75*
G02*
X121825000Y-86650000I-75000J0D01*
G01*
X120500000Y-86650000D01*
G75*
G02*
X120425000Y-86575000I0J75000D01*
G01*
X120425000Y-86425000D01*
G75*
G02*
X120500000Y-86350000I75000J0D01*
G01*
X121825000Y-86350000D01*
G75*
G02*
X121900000Y-86425000I0J-75000D01*
G01*
G37*
%TD.AperFunction*%
%TO.P,U1,5*%
%TO.N,Net-(C1-Pad1)*%
%TA.AperFunction,SMDPad,CuDef*%
G36*
G01*
X121900000Y-86925000D02*
X121900000Y-87075000D01*
G75*
G02*
X121825000Y-87150000I-75000J0D01*
G01*
X120500000Y-87150000D01*
G75*
G02*
X120425000Y-87075000I0J75000D01*
G01*
X120425000Y-86925000D01*
G75*
G02*
X120500000Y-86850000I75000J0D01*
G01*
X121825000Y-86850000D01*
G75*
G02*
X121900000Y-86925000I0J-75000D01*
G01*
G37*
%TD.AperFunction*%
%TO.P,U1,4*%
%TO.N,Net-(U1-Pad4)*%
%TA.AperFunction,SMDPad,CuDef*%
G36*
G01*
X121900000Y-87425000D02*
X121900000Y-87575000D01*
G75*
G02*
X121825000Y-87650000I-75000J0D01*
G01*
X120500000Y-87650000D01*
G75*
G02*
X120425000Y-87575000I0J75000D01*
G01*
X120425000Y-87425000D01*
G75*
G02*
X120500000Y-87350000I75000J0D01*
G01*
X121825000Y-87350000D01*
G75*
G02*
X121900000Y-87425000I0J-75000D01*
G01*
G37*
%TD.AperFunction*%
%TO.P,U1,3*%
%TO.N,Net-(R9-Pad1)*%
%TA.AperFunction,SMDPad,CuDef*%
G36*
G01*
X121900000Y-87925000D02*
X121900000Y-88075000D01*
G75*
G02*
X121825000Y-88150000I-75000J0D01*
G01*
X120500000Y-88150000D01*
G75*
G02*
X120425000Y-88075000I0J75000D01*
G01*
X120425000Y-87925000D01*
G75*
G02*
X120500000Y-87850000I75000J0D01*
G01*
X121825000Y-87850000D01*
G75*
G02*
X121900000Y-87925000I0J-75000D01*
G01*
G37*
%TD.AperFunction*%
%TO.P,U1,2*%
%TO.N,Net-(R8-Pad1)*%
%TA.AperFunction,SMDPad,CuDef*%
G36*
G01*
X121900000Y-88425000D02*
X121900000Y-88575000D01*
G75*
G02*
X121825000Y-88650000I-75000J0D01*
G01*
X120500000Y-88650000D01*
G75*
G02*
X120425000Y-88575000I0J75000D01*
G01*
X120425000Y-88425000D01*
G75*
G02*
X120500000Y-88350000I75000J0D01*
G01*
X121825000Y-88350000D01*
G75*
G02*
X121900000Y-88425000I0J-75000D01*
G01*
G37*
%TD.AperFunction*%
%TO.P,U1,1*%
%TO.N,+3V3*%
%TA.AperFunction,SMDPad,CuDef*%
G36*
G01*
X121900000Y-88925000D02*
X121900000Y-89075000D01*
G75*
G02*
X121825000Y-89150000I-75000J0D01*
G01*
X120500000Y-89150000D01*
G75*
G02*
X120425000Y-89075000I0J75000D01*
G01*
X120425000Y-88925000D01*
G75*
G02*
X120500000Y-88850000I75000J0D01*
G01*
X121825000Y-88850000D01*
G75*
G02*
X121900000Y-88925000I0J-75000D01*
G01*
G37*
%TD.AperFunction*%
%TD*%
%TO.P,R5,2*%
%TO.N,Net-(D3-Pad1)*%
%TA.AperFunction,SMDPad,CuDef*%
G36*
G01*
X103015000Y-95225000D02*
X103015000Y-94675000D01*
G75*
G02*
X103215000Y-94475000I200000J0D01*
G01*
X103615000Y-94475000D01*
G75*
G02*
X103815000Y-94675000I0J-200000D01*
G01*
X103815000Y-95225000D01*
G75*
G02*
X103615000Y-95425000I-200000J0D01*
G01*
X103215000Y-95425000D01*
G75*
G02*
X103015000Y-95225000I0J200000D01*
G01*
G37*
%TD.AperFunction*%
%TO.P,R5,1*%
%TO.N,GND*%
%TA.AperFunction,SMDPad,CuDef*%
G36*
G01*
X101365000Y-95225000D02*
X101365000Y-94675000D01*
G75*
G02*
X101565000Y-94475000I200000J0D01*
G01*
X101965000Y-94475000D01*
G75*
G02*
X102165000Y-94675000I0J-200000D01*
G01*
X102165000Y-95225000D01*
G75*
G02*
X101965000Y-95425000I-200000J0D01*
G01*
X101565000Y-95425000D01*
G75*
G02*
X101365000Y-95225000I0J200000D01*
G01*
G37*
%TD.AperFunction*%
%TD*%
%TO.P,R4,2*%
%TO.N,Net-(D2-Pad1)*%
%TA.AperFunction,SMDPad,CuDef*%
G36*
G01*
X136995000Y-96285000D02*
X136995000Y-95735000D01*
G75*
G02*
X137195000Y-95535000I200000J0D01*
G01*
X137595000Y-95535000D01*
G75*
G02*
X137795000Y-95735000I0J-200000D01*
G01*
X137795000Y-96285000D01*
G75*
G02*
X137595000Y-96485000I-200000J0D01*
G01*
X137195000Y-96485000D01*
G75*
G02*
X136995000Y-96285000I0J200000D01*
G01*
G37*
%TD.AperFunction*%
%TO.P,R4,1*%
%TO.N,GREEN*%
%TA.AperFunction,SMDPad,CuDef*%
G36*
G01*
X135345000Y-96285000D02*
X135345000Y-95735000D01*
G75*
G02*
X135545000Y-95535000I200000J0D01*
G01*
X135945000Y-95535000D01*
G75*
G02*
X136145000Y-95735000I0J-200000D01*
G01*
X136145000Y-96285000D01*
G75*
G02*
X135945000Y-96485000I-200000J0D01*
G01*
X135545000Y-96485000D01*
G75*
G02*
X135345000Y-96285000I0J200000D01*
G01*
G37*
%TD.AperFunction*%
%TD*%
%TO.P,R3,2*%
%TO.N,Net-(D1-Pad1)*%
%TA.AperFunction,SMDPad,CuDef*%
G36*
G01*
X142655000Y-95735000D02*
X142655000Y-96285000D01*
G75*
G02*
X142455000Y-96485000I-200000J0D01*
G01*
X142055000Y-96485000D01*
G75*
G02*
X141855000Y-96285000I0J200000D01*
G01*
X141855000Y-95735000D01*
G75*
G02*
X142055000Y-95535000I200000J0D01*
G01*
X142455000Y-95535000D01*
G75*
G02*
X142655000Y-95735000I0J-200000D01*
G01*
G37*
%TD.AperFunction*%
%TO.P,R3,1*%
%TO.N,PA2*%
%TA.AperFunction,SMDPad,CuDef*%
G36*
G01*
X144305000Y-95735000D02*
X144305000Y-96285000D01*
G75*
G02*
X144105000Y-96485000I-200000J0D01*
G01*
X143705000Y-96485000D01*
G75*
G02*
X143505000Y-96285000I0J200000D01*
G01*
X143505000Y-95735000D01*
G75*
G02*
X143705000Y-95535000I200000J0D01*
G01*
X144105000Y-95535000D01*
G75*
G02*
X144305000Y-95735000I0J-200000D01*
G01*
G37*
%TD.AperFunction*%
%TD*%
%TO.P,D3,2*%
%TO.N,+3V3*%
%TA.AperFunction,SMDPad,CuDef*%
G36*
G01*
X102220000Y-96413750D02*
X102220000Y-96926250D01*
G75*
G02*
X102001250Y-97145000I-218750J0D01*
G01*
X101563750Y-97145000D01*
G75*
G02*
X101345000Y-96926250I0J218750D01*
G01*
X101345000Y-96413750D01*
G75*
G02*
X101563750Y-96195000I218750J0D01*
G01*
X102001250Y-96195000D01*
G75*
G02*
X102220000Y-96413750I0J-218750D01*
G01*
G37*
%TD.AperFunction*%
%TO.P,D3,1*%
%TO.N,Net-(D3-Pad1)*%
%TA.AperFunction,SMDPad,CuDef*%
G36*
G01*
X103795000Y-96413750D02*
X103795000Y-96926250D01*
G75*
G02*
X103576250Y-97145000I-218750J0D01*
G01*
X103138750Y-97145000D01*
G75*
G02*
X102920000Y-96926250I0J218750D01*
G01*
X102920000Y-96413750D01*
G75*
G02*
X103138750Y-96195000I218750J0D01*
G01*
X103576250Y-96195000D01*
G75*
G02*
X103795000Y-96413750I0J-218750D01*
G01*
G37*
%TD.AperFunction*%
%TD*%
%TO.P,D2,2*%
%TO.N,+3V3*%
%TA.AperFunction,SMDPad,CuDef*%
G36*
G01*
X138590000Y-97876250D02*
X138590000Y-97363750D01*
G75*
G02*
X138808750Y-97145000I218750J0D01*
G01*
X139246250Y-97145000D01*
G75*
G02*
X139465000Y-97363750I0J-218750D01*
G01*
X139465000Y-97876250D01*
G75*
G02*
X139246250Y-98095000I-218750J0D01*
G01*
X138808750Y-98095000D01*
G75*
G02*
X138590000Y-97876250I0J218750D01*
G01*
G37*
%TD.AperFunction*%
%TO.P,D2,1*%
%TO.N,Net-(D2-Pad1)*%
%TA.AperFunction,SMDPad,CuDef*%
G36*
G01*
X137015000Y-97876250D02*
X137015000Y-97363750D01*
G75*
G02*
X137233750Y-97145000I218750J0D01*
G01*
X137671250Y-97145000D01*
G75*
G02*
X137890000Y-97363750I0J-218750D01*
G01*
X137890000Y-97876250D01*
G75*
G02*
X137671250Y-98095000I-218750J0D01*
G01*
X137233750Y-98095000D01*
G75*
G02*
X137015000Y-97876250I0J218750D01*
G01*
G37*
%TD.AperFunction*%
%TD*%
%TO.P,D1,2*%
%TO.N,+3V3*%
%TA.AperFunction,SMDPad,CuDef*%
G36*
G01*
X140930000Y-97333750D02*
X140930000Y-97846250D01*
G75*
G02*
X140711250Y-98065000I-218750J0D01*
G01*
X140273750Y-98065000D01*
G75*
G02*
X140055000Y-97846250I0J218750D01*
G01*
X140055000Y-97333750D01*
G75*
G02*
X140273750Y-97115000I218750J0D01*
G01*
X140711250Y-97115000D01*
G75*
G02*
X140930000Y-97333750I0J-218750D01*
G01*
G37*
%TD.AperFunction*%
%TO.P,D1,1*%
%TO.N,Net-(D1-Pad1)*%
%TA.AperFunction,SMDPad,CuDef*%
G36*
G01*
X142505000Y-97333750D02*
X142505000Y-97846250D01*
G75*
G02*
X142286250Y-98065000I-218750J0D01*
G01*
X141848750Y-98065000D01*
G75*
G02*
X141630000Y-97846250I0J218750D01*
G01*
X141630000Y-97333750D01*
G75*
G02*
X141848750Y-97115000I218750J0D01*
G01*
X142286250Y-97115000D01*
G75*
G02*
X142505000Y-97333750I0J-218750D01*
G01*
G37*
%TD.AperFunction*%
%TD*%
D11*
%TO.P,U3,1*%
%TO.N,GND*%
X112330000Y-98520000D03*
%TO.P,U3,3*%
%TO.N,VBUS*%
X112330000Y-93920000D03*
%TO.P,U3,2*%
%TO.N,+3V3*%
X112330000Y-96220000D03*
D12*
%TO.P,U3,4*%
%TO.N,N/C*%
X106030000Y-96220000D03*
%TD*%
D13*
%TO.P,J4,1*%
%TO.N,VBUS*%
X147199394Y-82169746D03*
%TO.P,J4,3*%
%TO.N,+3V3*%
X147199394Y-84709746D03*
%TO.P,J4,5*%
%TO.N,PB14*%
X147199394Y-87249746D03*
%TO.P,J4,7*%
%TO.N,PB13*%
X147199394Y-89789746D03*
%TO.P,J4,9*%
%TO.N,GND*%
X147199394Y-92329746D03*
%TD*%
D14*
%TO.P,J3,4*%
%TO.N,+3V3*%
X115750000Y-98300000D03*
%TO.P,J3,3*%
%TO.N,m_DIO*%
X117750000Y-98300000D03*
%TO.P,J3,2*%
%TO.N,m_CLK*%
X119750000Y-98300000D03*
D15*
%TO.P,J3,1*%
%TO.N,GND*%
X121750000Y-98300000D03*
%TD*%
D16*
%TO.P,CON1,9*%
%TO.N,GND*%
X140735000Y-89910000D03*
%TO.P,CON1,10*%
%TO.N,PA3*%
X142005000Y-89910000D03*
%TO.P,CON1,7*%
%TO.N,PB13*%
X140735000Y-88640000D03*
%TO.P,CON1,8*%
%TO.N,PA2*%
X142005000Y-88640000D03*
%TO.P,CON1,5*%
%TO.N,PB14*%
X140735000Y-87370000D03*
%TO.P,CON1,6*%
%TO.N,GND*%
X142005000Y-87370000D03*
%TO.P,CON1,3*%
%TO.N,+3V3*%
X140735000Y-86100000D03*
%TO.P,CON1,4*%
%TO.N,PA10*%
X142005000Y-86100000D03*
%TO.P,CON1,2*%
%TO.N,PB6*%
X142005000Y-84830000D03*
D17*
%TO.P,CON1,1*%
%TO.N,VBUS*%
X140735000Y-84830000D03*
%TD*%
%TO.P,R2,2*%
%TO.N,GND*%
%TA.AperFunction,SMDPad,CuDef*%
G36*
G01*
X115785000Y-79125000D02*
X115785000Y-79675000D01*
G75*
G02*
X115585000Y-79875000I-200000J0D01*
G01*
X115185000Y-79875000D01*
G75*
G02*
X114985000Y-79675000I0J200000D01*
G01*
X114985000Y-79125000D01*
G75*
G02*
X115185000Y-78925000I200000J0D01*
G01*
X115585000Y-78925000D01*
G75*
G02*
X115785000Y-79125000I0J-200000D01*
G01*
G37*
%TD.AperFunction*%
%TO.P,R2,1*%
%TO.N,Net-(R2-Pad1)*%
%TA.AperFunction,SMDPad,CuDef*%
G36*
G01*
X117435000Y-79125000D02*
X117435000Y-79675000D01*
G75*
G02*
X117235000Y-79875000I-200000J0D01*
G01*
X116835000Y-79875000D01*
G75*
G02*
X116635000Y-79675000I0J200000D01*
G01*
X116635000Y-79125000D01*
G75*
G02*
X116835000Y-78925000I200000J0D01*
G01*
X117235000Y-78925000D01*
G75*
G02*
X117435000Y-79125000I0J-200000D01*
G01*
G37*
%TD.AperFunction*%
%TD*%
%TO.P,R1,2*%
%TO.N,GND*%
%TA.AperFunction,SMDPad,CuDef*%
G36*
G01*
X118955000Y-93205000D02*
X118955000Y-92655000D01*
G75*
G02*
X119155000Y-92455000I200000J0D01*
G01*
X119555000Y-92455000D01*
G75*
G02*
X119755000Y-92655000I0J-200000D01*
G01*
X119755000Y-93205000D01*
G75*
G02*
X119555000Y-93405000I-200000J0D01*
G01*
X119155000Y-93405000D01*
G75*
G02*
X118955000Y-93205000I0J200000D01*
G01*
G37*
%TD.AperFunction*%
%TO.P,R1,1*%
%TO.N,Net-(J2-Pad1)*%
%TA.AperFunction,SMDPad,CuDef*%
G36*
G01*
X117305000Y-93205000D02*
X117305000Y-92655000D01*
G75*
G02*
X117505000Y-92455000I200000J0D01*
G01*
X117905000Y-92455000D01*
G75*
G02*
X118105000Y-92655000I0J-200000D01*
G01*
X118105000Y-93205000D01*
G75*
G02*
X117905000Y-93405000I-200000J0D01*
G01*
X117505000Y-93405000D01*
G75*
G02*
X117305000Y-93205000I0J200000D01*
G01*
G37*
%TD.AperFunction*%
%TD*%
D14*
%TO.P,J2,2*%
%TO.N,+3V3*%
X120070000Y-95230000D03*
D15*
%TO.P,J2,1*%
%TO.N,Net-(J2-Pad1)*%
X118070000Y-95230000D03*
%TD*%
D18*
%TO.P,J1,B1*%
%TO.N,GND*%
X107045000Y-90500000D03*
%TO.P,J1,A9*%
%TO.N,VBUS*%
X107045000Y-89700000D03*
%TO.P,J1,B9*%
X107045000Y-84800000D03*
%TO.P,J1,B12*%
%TO.N,GND*%
X107045000Y-84000000D03*
%TO.P,J1,A1*%
X107045000Y-84000000D03*
%TO.P,J1,A4*%
%TO.N,VBUS*%
X107045000Y-84800000D03*
%TO.P,J1,B4*%
X107045000Y-89700000D03*
%TO.P,J1,A12*%
%TO.N,GND*%
X107045000Y-90500000D03*
D19*
%TO.P,J1,B8*%
%TO.N,Net-(J1-PadB8)*%
X107045000Y-85500000D03*
%TO.P,J1,A5*%
%TO.N,Net-(J1-PadA5)*%
X107045000Y-86000000D03*
%TO.P,J1,B7*%
%TO.N,USB_DM*%
X107045000Y-86500000D03*
%TO.P,J1,A7*%
X107045000Y-87500000D03*
%TO.P,J1,B6*%
%TO.N,USB_DP*%
X107045000Y-88000000D03*
%TO.P,J1,A8*%
%TO.N,Net-(J1-PadA8)*%
X107045000Y-88500000D03*
%TO.P,J1,B5*%
%TO.N,Net-(J1-PadB5)*%
X107045000Y-89000000D03*
%TO.P,J1,A6*%
%TO.N,USB_DP*%
X107045000Y-87000000D03*
D20*
%TO.P,J1,S1*%
%TO.N,GND*%
X106130000Y-91570000D03*
X106130000Y-82930000D03*
D21*
X101950000Y-82930000D03*
X101950000Y-91570000D03*
%TD*%
D22*
%TO.N,GND*%
X145542000Y-94234000D03*
X123594669Y-86545331D03*
X119629153Y-86514331D03*
X111400000Y-88630000D03*
X118244214Y-89015181D03*
X110240000Y-98350000D03*
X128400000Y-92610000D03*
X116056415Y-78536415D03*
X112370000Y-80120000D03*
%TO.N,VBUS*%
X143160000Y-82240000D03*
%TO.N,USB_DM*%
X105460000Y-87480000D03*
X104159999Y-87480437D03*
%TO.N,+3V3*%
X139446000Y-85090000D03*
X144526000Y-80772000D03*
X126780000Y-79410000D03*
X119770000Y-88260000D03*
X117830000Y-88105000D03*
X119200000Y-77680000D03*
%TO.N,PA3*%
X143592205Y-92635011D03*
%TO.N,PA2*%
X137160000Y-89020000D03*
X144525999Y-91910011D03*
%TO.N,PB14*%
X143978297Y-91285011D03*
X143980000Y-89265000D03*
%TO.N,PB6*%
X137760001Y-85010002D03*
%TO.N,GREEN*%
X137265882Y-90679478D03*
X115990000Y-85990000D03*
%TO.N,PA2*%
X121486557Y-82276557D03*
%TO.N,PA10*%
X114470000Y-86500000D03*
X137160000Y-84210000D03*
%TO.N,PB6*%
X116790000Y-85370000D03*
%TO.N,PB13*%
X119360000Y-84530000D03*
%TO.N,PB14*%
X118290000Y-84720000D03*
%TD*%
D23*
%TO.N,GND*%
X126875000Y-90670000D02*
X126925000Y-90720000D01*
X119250000Y-92825000D02*
X119355000Y-92930000D01*
X119250000Y-90412500D02*
X119250000Y-92825000D01*
X125222000Y-85611000D02*
X125222000Y-87109000D01*
D24*
X146819140Y-92710000D02*
X147199394Y-92329746D01*
D23*
X114774990Y-81385010D02*
X114774990Y-80725010D01*
X114750000Y-81410000D02*
X114774990Y-81385010D01*
X114750000Y-82087500D02*
X114750000Y-81410000D01*
X115385000Y-80115000D02*
X115385000Y-79400000D01*
X114774990Y-80725010D02*
X115385000Y-80115000D01*
D25*
X124529000Y-85611000D02*
X123594669Y-86545331D01*
X125222000Y-85611000D02*
X124529000Y-85611000D01*
X120323942Y-85500000D02*
X121162500Y-85500000D01*
X120074990Y-85748952D02*
X120323942Y-85500000D01*
X120074990Y-86068494D02*
X120074990Y-85748952D01*
X119629153Y-86514331D02*
X120074990Y-86068494D01*
X119019999Y-87123485D02*
X119629153Y-86514331D01*
X119019999Y-88620001D02*
X119019999Y-87123485D01*
X119250000Y-88850002D02*
X119019999Y-88620001D01*
X119250000Y-90412500D02*
X119250000Y-88850002D01*
X111530000Y-88500000D02*
X111400000Y-88630000D01*
X112837500Y-88500000D02*
X111530000Y-88500000D01*
X118409393Y-88850002D02*
X118244214Y-89015181D01*
X119250000Y-88850002D02*
X118409393Y-88850002D01*
X101765000Y-91755000D02*
X101950000Y-91570000D01*
X101765000Y-94950000D02*
X101765000Y-91755000D01*
X106130000Y-82930000D02*
X101950000Y-82930000D01*
X107045000Y-83845000D02*
X106130000Y-82930000D01*
X107045000Y-84000000D02*
X107045000Y-83845000D01*
X106260000Y-82800000D02*
X106130000Y-82930000D01*
X106130000Y-91415000D02*
X107045000Y-90500000D01*
X106130000Y-91570000D02*
X106130000Y-91415000D01*
X106130000Y-91570000D02*
X101950000Y-91570000D01*
X110410000Y-98520000D02*
X110240000Y-98350000D01*
X112330000Y-98520000D02*
X110410000Y-98520000D01*
X126195000Y-91450000D02*
X126925000Y-90720000D01*
X123540000Y-90795000D02*
X124480000Y-91735000D01*
X124480000Y-91735000D02*
X126195000Y-91735000D01*
X126195000Y-91735000D02*
X126195000Y-91450000D01*
X128400000Y-92195000D02*
X126925000Y-90720000D01*
X128400000Y-92610000D02*
X128400000Y-92195000D01*
X128400000Y-92340000D02*
X128400000Y-92610000D01*
X115385000Y-79207830D02*
X116056415Y-78536415D01*
X115385000Y-79400000D02*
X115385000Y-79207830D01*
D24*
X145542000Y-93987140D02*
X147199394Y-92329746D01*
X145542000Y-94234000D02*
X145542000Y-93987140D01*
D25*
X125222000Y-87109000D02*
X125471001Y-86859999D01*
X112370000Y-79895000D02*
X112990000Y-79275000D01*
X112370000Y-80120000D02*
X112370000Y-79895000D01*
D24*
X124560000Y-98300000D02*
X125680000Y-97180000D01*
X121750000Y-98300000D02*
X124560000Y-98300000D01*
X103640000Y-81240000D02*
X101950000Y-82930000D01*
X103640000Y-78240000D02*
X103640000Y-81240000D01*
D25*
X122780000Y-97270000D02*
X121750000Y-98300000D01*
X122780000Y-95995000D02*
X122780000Y-97270000D01*
X128806002Y-82470000D02*
X126815000Y-82470000D01*
X129566001Y-83229999D02*
X128806002Y-82470000D01*
D23*
X125734999Y-86123999D02*
X125222000Y-85611000D01*
X129566001Y-86123999D02*
X125734999Y-86123999D01*
D25*
X129566001Y-87749900D02*
X129566001Y-86123999D01*
X129566001Y-86123999D02*
X129566001Y-83229999D01*
D23*
X129566001Y-91443999D02*
X128400000Y-92610000D01*
X129566001Y-87749900D02*
X129566001Y-91443999D01*
%TO.N,Net-(C1-Pad1)*%
X124473000Y-88659000D02*
X125222000Y-88659000D01*
X122830000Y-87016000D02*
X124473000Y-88659000D01*
X122830000Y-87000000D02*
X122830000Y-87016000D01*
X121162500Y-87000000D02*
X122830000Y-87000000D01*
X127567000Y-88659000D02*
X128016000Y-88210000D01*
X125222000Y-88659000D02*
X127567000Y-88659000D01*
%TO.N,Net-(C2-Pad1)*%
X124759000Y-84061000D02*
X125222000Y-84061000D01*
X122320000Y-86500000D02*
X124759000Y-84061000D01*
X121162500Y-86500000D02*
X122320000Y-86500000D01*
X127567000Y-84061000D02*
X128016000Y-84510000D01*
X125222000Y-84061000D02*
X127567000Y-84061000D01*
D24*
%TO.N,VBUS*%
X112330000Y-93530000D02*
X112330000Y-93920000D01*
X108170001Y-89699999D02*
X110080000Y-91609998D01*
X107045000Y-89700000D02*
X108170001Y-89699999D01*
X110080000Y-91609998D02*
X110080000Y-93520000D01*
X110480000Y-93920000D02*
X112330000Y-93920000D01*
X110080000Y-93520000D02*
X110480000Y-93920000D01*
D26*
X104803560Y-89160000D02*
X105693002Y-89160000D01*
X103459998Y-87816438D02*
X104803560Y-89160000D01*
X103459998Y-87033049D02*
X103459998Y-87816438D01*
X105693002Y-89160000D02*
X106233002Y-89700000D01*
X105253023Y-85779979D02*
X104713068Y-85779979D01*
X106233002Y-89700000D02*
X107045000Y-89700000D01*
X104713068Y-85779979D02*
X103459998Y-87033049D01*
X106233002Y-84800000D02*
X105253023Y-85779979D01*
X107045000Y-84800000D02*
X106233002Y-84800000D01*
D24*
X143230254Y-82169746D02*
X143160000Y-82240000D01*
X147199394Y-82169746D02*
X143230254Y-82169746D01*
X108170001Y-84800001D02*
X108980000Y-83990002D01*
X107045000Y-84800000D02*
X108170001Y-84800001D01*
X108980000Y-79300000D02*
X110040000Y-78240000D01*
X108980000Y-83990002D02*
X108980000Y-79300000D01*
D26*
X112990000Y-76920000D02*
X113005000Y-76905000D01*
X112990000Y-77725000D02*
X112990000Y-76920000D01*
D24*
X110040000Y-77820000D02*
X110955000Y-76905000D01*
X110955000Y-76905000D02*
X113005000Y-76905000D01*
X110040000Y-78240000D02*
X110040000Y-77820000D01*
X119574001Y-76789999D02*
X119684001Y-76899999D01*
X113005000Y-76905000D02*
X113120001Y-76789999D01*
X142860001Y-81940001D02*
X143160000Y-82240000D01*
X137819999Y-76899999D02*
X142860001Y-81940001D01*
X113120001Y-76789999D02*
X119574001Y-76789999D01*
X119684001Y-76899999D02*
X137819999Y-76899999D01*
D25*
%TO.N,USB_DP*%
X105739999Y-88130001D02*
X105870000Y-88000000D01*
X105147999Y-88130001D02*
X105739999Y-88130001D01*
X104809999Y-87792001D02*
X105147999Y-88130001D01*
X104809999Y-87167999D02*
X104809999Y-87792001D01*
X105870000Y-88000000D02*
X107045000Y-88000000D01*
X105147999Y-86829999D02*
X104809999Y-87167999D01*
X105942002Y-87000000D02*
X105772001Y-86829999D01*
X105772001Y-86829999D02*
X105147999Y-86829999D01*
X107045000Y-87000000D02*
X105942002Y-87000000D01*
X112837500Y-87500000D02*
X110712880Y-87500000D01*
X110212880Y-87000000D02*
X107045000Y-87000000D01*
X110712880Y-87500000D02*
X110212880Y-87000000D01*
X110220000Y-87992880D02*
X110712880Y-87500000D01*
X110220000Y-88365000D02*
X110220000Y-87992880D01*
%TO.N,USB_DM*%
X105480000Y-87500000D02*
X105460000Y-87480000D01*
X107045000Y-87500000D02*
X105480000Y-87500000D01*
X105979111Y-86329989D02*
X104940889Y-86329989D01*
X104159999Y-87110879D02*
X104159999Y-87480437D01*
X104940889Y-86329989D02*
X104159999Y-87110879D01*
X106149122Y-86500000D02*
X105979111Y-86329989D01*
X107045000Y-86500000D02*
X106149122Y-86500000D01*
X112837500Y-87000000D02*
X110920000Y-87000000D01*
X110420000Y-86500000D02*
X107045000Y-86500000D01*
X110920000Y-87000000D02*
X110420000Y-86500000D01*
D23*
%TO.N,+3V3*%
X111295000Y-90015000D02*
X110220000Y-90015000D01*
X112310000Y-89000000D02*
X111295000Y-90015000D01*
X112837500Y-89000000D02*
X112310000Y-89000000D01*
D24*
X111075002Y-90015000D02*
X110220000Y-90015000D01*
X113890000Y-92829998D02*
X111075002Y-90015000D01*
X113890000Y-96220000D02*
X113890000Y-92829998D01*
X112330000Y-96220000D02*
X113890000Y-96220000D01*
X115310000Y-96220000D02*
X115750000Y-96660000D01*
X115750000Y-96660000D02*
X115750000Y-98300000D01*
X113890000Y-96220000D02*
X115310000Y-96220000D01*
D25*
X119750000Y-90412500D02*
X119750000Y-91600000D01*
X120105010Y-91955010D02*
X120105010Y-94154990D01*
X119750000Y-91600000D02*
X120105010Y-91955010D01*
X120070000Y-94190000D02*
X120070000Y-95230000D01*
X120105010Y-94154990D02*
X120070000Y-94190000D01*
X121162500Y-89000000D02*
X121162500Y-89667500D01*
X120417500Y-90412500D02*
X119750000Y-90412500D01*
X121162500Y-89667500D02*
X120417500Y-90412500D01*
D26*
X149099392Y-81089777D02*
X149099391Y-83549778D01*
X147939423Y-84709746D02*
X147199394Y-84709746D01*
X148781615Y-80772000D02*
X149099392Y-81089777D01*
X149099391Y-83549778D02*
X147939423Y-84709746D01*
X144526000Y-80772000D02*
X148781615Y-80772000D01*
D25*
X120323942Y-85000000D02*
X121162500Y-85000000D01*
X120074990Y-84751048D02*
X120323942Y-85000000D01*
D26*
X125335000Y-79410000D02*
X125280000Y-79355000D01*
X126780000Y-79410000D02*
X125335000Y-79410000D01*
D25*
X120074990Y-84958492D02*
X120074990Y-84751048D01*
X117830000Y-87203482D02*
X120074990Y-84958492D01*
X117830000Y-88105000D02*
X117830000Y-87203482D01*
X103582501Y-98470001D02*
X107639999Y-98470001D01*
X101782500Y-96670000D02*
X103582501Y-98470001D01*
X109890000Y-96220000D02*
X112330000Y-96220000D01*
X107639999Y-98470001D02*
X109890000Y-96220000D01*
X114250000Y-83080000D02*
X114580000Y-83410000D01*
X114250000Y-82087500D02*
X114250000Y-83080000D01*
X114580000Y-83410000D02*
X119236038Y-83410000D01*
X119236038Y-83410000D02*
X120074990Y-84248952D01*
X120074990Y-84248952D02*
X120074990Y-84751048D01*
D23*
X119750000Y-88280000D02*
X119770000Y-88260000D01*
X119750000Y-90412500D02*
X119750000Y-88280000D01*
D25*
X114250000Y-82087500D02*
X114250000Y-79282168D01*
D24*
X149199392Y-81009777D02*
X148961615Y-80772000D01*
X148961615Y-80772000D02*
X144526000Y-80772000D01*
X149199392Y-83329715D02*
X149199392Y-81009777D01*
X147819361Y-84709746D02*
X149199392Y-83329715D01*
D23*
X139027500Y-97620000D02*
X139027500Y-97672500D01*
X139027500Y-97672500D02*
X139110000Y-97590000D01*
D24*
X129345000Y-94445000D02*
X122780000Y-94445000D01*
X132080000Y-97180000D02*
X129345000Y-94445000D01*
X120855000Y-94445000D02*
X120070000Y-95230000D01*
X122780000Y-94445000D02*
X120855000Y-94445000D01*
D26*
X114250000Y-79282168D02*
X114250000Y-79211456D01*
X114250000Y-79211456D02*
X115781456Y-77680000D01*
X115781456Y-77680000D02*
X119200000Y-77680000D01*
D24*
X133495010Y-98595010D02*
X132080000Y-97180000D01*
X149199392Y-86089777D02*
X149199392Y-93489715D01*
X147819361Y-84709746D02*
X149199392Y-86089777D01*
X149199392Y-93489715D02*
X144094097Y-98595010D01*
X147199394Y-84709746D02*
X147819361Y-84709746D01*
D25*
X139710000Y-97590000D02*
X139710000Y-98510020D01*
X139710000Y-98510020D02*
X139794990Y-98595010D01*
D24*
X139794990Y-98595010D02*
X133495010Y-98595010D01*
D23*
X139110000Y-97590000D02*
X139710000Y-97590000D01*
D24*
X144094097Y-98595010D02*
X139794990Y-98595010D01*
D23*
X139710000Y-97590000D02*
X140492500Y-97590000D01*
%TO.N,m_CLK*%
X119050000Y-97200000D02*
X119750000Y-97900000D01*
X115190010Y-92609702D02*
X115190010Y-94315012D01*
X118074998Y-97200000D02*
X119050000Y-97200000D01*
X119750000Y-97900000D02*
X119750000Y-98300000D01*
X114250000Y-91669692D02*
X115190010Y-92609702D01*
X115190010Y-94315012D02*
X118074998Y-97200000D01*
X114250000Y-90412500D02*
X114250000Y-91669692D01*
%TO.N,m_DIO*%
X117750000Y-97640000D02*
X117750000Y-98300000D01*
X114740000Y-92796102D02*
X114740000Y-94630000D01*
X114009308Y-88368606D02*
X114009308Y-89349990D01*
X113640702Y-88000000D02*
X114009308Y-88368606D01*
X113774990Y-91831092D02*
X114740000Y-92796102D01*
X113774990Y-89584308D02*
X113774990Y-91831092D01*
X114740000Y-94630000D02*
X117750000Y-97640000D01*
X114009308Y-89349990D02*
X113774990Y-89584308D01*
X112837500Y-88000000D02*
X113640702Y-88000000D01*
%TO.N,PA2*%
X140241189Y-91910011D02*
X144525999Y-91910011D01*
X137559999Y-88620001D02*
X138609980Y-88620001D01*
X139009979Y-89020000D02*
X139009980Y-90678802D01*
X139009980Y-90678802D02*
X140241189Y-91910011D01*
X138609980Y-88620001D02*
X139009979Y-89020000D01*
X137160000Y-89020000D02*
X137559999Y-88620001D01*
X144525999Y-95389001D02*
X143905000Y-96010000D01*
X144525999Y-91910011D02*
X144525999Y-95389001D01*
%TO.N,PB14*%
X139459989Y-88645011D02*
X140735000Y-87370000D01*
X139459989Y-90492401D02*
X139459989Y-88645011D01*
X140152598Y-91185010D02*
X139459989Y-90492401D01*
X140165010Y-91185010D02*
X140440001Y-91460001D01*
X140152598Y-91185010D02*
X140165010Y-91185010D01*
X143803307Y-91460001D02*
X143978297Y-91285011D01*
X140440001Y-91460001D02*
X143803307Y-91460001D01*
X145995254Y-87249746D02*
X143980000Y-89265000D01*
X147199394Y-87249746D02*
X145995254Y-87249746D01*
%TO.N,PA10*%
X142830001Y-85274999D02*
X142005000Y-86100000D01*
X137160000Y-84210000D02*
X137815011Y-83554989D01*
X137815011Y-83554989D02*
X142073506Y-83554990D01*
X142830001Y-84311485D02*
X142830001Y-85274999D01*
X142073506Y-83554990D02*
X142830001Y-84311485D01*
%TO.N,PB13*%
X146839648Y-89430000D02*
X147199394Y-89789746D01*
X144548560Y-89789746D02*
X147199394Y-89789746D01*
X143603305Y-90735001D02*
X144548560Y-89789746D01*
X140338999Y-90735001D02*
X143603305Y-90735001D01*
X139909999Y-90306001D02*
X140338999Y-90735001D01*
X139909999Y-89465001D02*
X139909999Y-90306001D01*
X140735000Y-88640000D02*
X139909999Y-89465001D01*
%TO.N,PB6*%
X141887105Y-84004999D02*
X142005000Y-84122894D01*
X142005000Y-84122894D02*
X142005000Y-84830000D01*
X137760001Y-85010002D02*
X138765004Y-84004999D01*
X138765004Y-84004999D02*
X141887105Y-84004999D01*
%TO.N,GREEN*%
X137265882Y-94489118D02*
X135745000Y-96010000D01*
X137265882Y-90679478D02*
X137265882Y-94489118D01*
%TO.N,Net-(J2-Pad1)*%
X117705000Y-94865000D02*
X118070000Y-95230000D01*
X117705000Y-92930000D02*
X117705000Y-94865000D01*
X117750000Y-92885000D02*
X117705000Y-92930000D01*
X117750000Y-90412500D02*
X117750000Y-92885000D01*
%TO.N,Net-(R2-Pad1)*%
X116250000Y-81284298D02*
X117000000Y-80534298D01*
X116250000Y-82087500D02*
X116250000Y-81284298D01*
X117000000Y-79435000D02*
X117035000Y-79400000D01*
X117000000Y-80534298D02*
X117000000Y-79435000D01*
%TO.N,Net-(D1-Pad1)*%
X142067500Y-96197500D02*
X142255000Y-96010000D01*
X142067500Y-97590000D02*
X142067500Y-96197500D01*
%TO.N,Net-(D2-Pad1)*%
X137452500Y-96067500D02*
X137395000Y-96010000D01*
X137452500Y-97620000D02*
X137452500Y-96067500D01*
D25*
%TO.N,Net-(D3-Pad1)*%
X103415000Y-96612500D02*
X103357500Y-96670000D01*
X103415000Y-94950000D02*
X103415000Y-96612500D01*
D23*
%TO.N,GREEN*%
X113640702Y-86000000D02*
X112837500Y-86000000D01*
X113765703Y-85874999D02*
X113640702Y-86000000D01*
X115874999Y-85874999D02*
X113765703Y-85874999D01*
X115990000Y-85990000D02*
X115874999Y-85874999D01*
%TO.N,PA3*%
X140329779Y-92635011D02*
X143592205Y-92635011D01*
X137749245Y-90054477D02*
X140329779Y-92635011D01*
X137269475Y-90054477D02*
X137749245Y-90054477D01*
X133300155Y-80209845D02*
X133300155Y-86085157D01*
X133300155Y-86085157D02*
X137269475Y-90054477D01*
X130620320Y-77530010D02*
X133300155Y-80209845D01*
X123569990Y-77530010D02*
X130620320Y-77530010D01*
X119750000Y-81350000D02*
X123569990Y-77530010D01*
X119750000Y-82087500D02*
X119750000Y-81350000D01*
%TO.N,PA2*%
X121162500Y-82600614D02*
X121486557Y-82276557D01*
X121162500Y-83500000D02*
X121162500Y-82600614D01*
D25*
%TO.N,PA10*%
X112837500Y-86500000D02*
X114470000Y-86500000D01*
D23*
%TO.N,PB6*%
X116750000Y-90412500D02*
X116750000Y-85410000D01*
X116750000Y-85410000D02*
X116790000Y-85370000D01*
%TO.N,PB13*%
X112837500Y-84000000D02*
X118830000Y-84000000D01*
X118830000Y-84000000D02*
X119360000Y-84530000D01*
D25*
%TO.N,PB14*%
X110515000Y-84500000D02*
X110500000Y-84485000D01*
X112837500Y-84500000D02*
X110515000Y-84500000D01*
D23*
X112837500Y-84500000D02*
X118070000Y-84500000D01*
X118070000Y-84500000D02*
X118290000Y-84720000D01*
D25*
%TO.N,Net-(C7-Pad1)*%
X125070401Y-82470000D02*
X125265000Y-82470000D01*
X124024980Y-84123256D02*
X124024980Y-83515421D01*
X122148236Y-86000000D02*
X124024980Y-84123256D01*
X124024980Y-83515421D02*
X125070401Y-82470000D01*
X121162500Y-86000000D02*
X122148236Y-86000000D01*
X125265000Y-81020000D02*
X125280000Y-81005000D01*
X125265000Y-82470000D02*
X125265000Y-81020000D01*
%TO.N,Net-(R8-Pad1)*%
X121162500Y-88500000D02*
X122040000Y-88500000D01*
X124599990Y-90044990D02*
X125275000Y-90720000D01*
X123187158Y-90044990D02*
X124599990Y-90044990D01*
X122714990Y-89572822D02*
X123187158Y-90044990D01*
X122714990Y-89174990D02*
X122714990Y-89572822D01*
X122040000Y-88500000D02*
X122714990Y-89174990D01*
%TO.N,Net-(R9-Pad1)*%
X121162500Y-88000000D02*
X123100000Y-88000000D01*
X123540000Y-88440000D02*
X123540000Y-89145000D01*
X123100000Y-88000000D02*
X123540000Y-88440000D01*
%TO.N,Net-(R10-Pad1)*%
X112837500Y-83500000D02*
X110770000Y-83500000D01*
X110500000Y-83230000D02*
X110500000Y-82835000D01*
X110770000Y-83500000D02*
X110500000Y-83230000D01*
%TD*%
D27*
%TO.N,GND*%
X149315000Y-79902126D02*
X149144907Y-79850529D01*
X149007547Y-79837000D01*
X148961615Y-79832476D01*
X148915683Y-79837000D01*
X144433911Y-79837000D01*
X144388641Y-79846005D01*
X144342708Y-79850529D01*
X144298538Y-79863928D01*
X144253271Y-79872932D01*
X144210631Y-79890594D01*
X144166460Y-79903993D01*
X144125752Y-79925752D01*
X144083111Y-79943414D01*
X144044736Y-79969055D01*
X144004028Y-79990814D01*
X143968347Y-80020097D01*
X143929972Y-80045738D01*
X143897335Y-80078375D01*
X143861656Y-80107656D01*
X143832375Y-80143335D01*
X143799738Y-80175972D01*
X143774097Y-80214347D01*
X143744814Y-80250028D01*
X143723055Y-80290736D01*
X143697414Y-80329111D01*
X143679752Y-80371752D01*
X143657993Y-80412460D01*
X143644594Y-80456631D01*
X143626932Y-80499271D01*
X143617928Y-80544538D01*
X143604529Y-80588708D01*
X143600005Y-80634641D01*
X143591000Y-80679911D01*
X143591000Y-80726068D01*
X143586476Y-80772000D01*
X143591000Y-80817932D01*
X143591000Y-80864089D01*
X143600005Y-80909359D01*
X143604529Y-80955292D01*
X143617928Y-80999462D01*
X143626932Y-81044729D01*
X143644594Y-81087369D01*
X143657993Y-81131540D01*
X143679752Y-81172248D01*
X143697414Y-81214889D01*
X143710682Y-81234746D01*
X143477036Y-81234746D01*
X138513629Y-76271340D01*
X138484343Y-76235655D01*
X138341971Y-76118813D01*
X138179539Y-76031992D01*
X138003291Y-75978528D01*
X137865931Y-75964999D01*
X137819999Y-75960475D01*
X137774067Y-75964999D01*
X120014002Y-75964999D01*
X119933541Y-75921992D01*
X119757293Y-75868528D01*
X119619933Y-75854999D01*
X119574001Y-75850475D01*
X119528069Y-75854999D01*
X113165933Y-75854999D01*
X113120001Y-75850475D01*
X113074069Y-75854999D01*
X112936709Y-75868528D01*
X112760461Y-75921992D01*
X112670644Y-75970000D01*
X111000931Y-75970000D01*
X110954999Y-75965476D01*
X110771707Y-75983529D01*
X110718243Y-75999747D01*
X110595460Y-76036993D01*
X110433028Y-76123814D01*
X110290656Y-76240656D01*
X110261376Y-76276334D01*
X110210782Y-76326928D01*
X109164999Y-76326928D01*
X108991745Y-76343992D01*
X108825149Y-76394528D01*
X108671613Y-76476595D01*
X108537038Y-76587038D01*
X108426595Y-76721613D01*
X108344528Y-76875149D01*
X108293992Y-77041745D01*
X108276928Y-77214999D01*
X108276928Y-78682847D01*
X108198815Y-78778028D01*
X108111994Y-78940460D01*
X108058529Y-79116709D01*
X108040476Y-79300000D01*
X108045001Y-79345942D01*
X108045000Y-83126972D01*
X108014180Y-83110498D01*
X107894482Y-83074188D01*
X107770000Y-83061928D01*
X107652104Y-83062753D01*
X107647954Y-83057000D01*
X106257000Y-83057000D01*
X106257000Y-83068133D01*
X106195518Y-83074188D01*
X106186248Y-83077000D01*
X106003000Y-83077000D01*
X106003000Y-83057000D01*
X104612046Y-83057000D01*
X104485881Y-83231874D01*
X104565724Y-83454976D01*
X104687631Y-83642764D01*
X104828206Y-83787116D01*
X104749259Y-83905269D01*
X104676892Y-84079978D01*
X104640000Y-84265448D01*
X104640000Y-84454552D01*
X104676892Y-84640022D01*
X104749259Y-84814731D01*
X104836288Y-84944979D01*
X104754086Y-84944979D01*
X104713068Y-84940939D01*
X104672050Y-84944979D01*
X104672049Y-84944979D01*
X104549379Y-84957061D01*
X104417546Y-84997052D01*
X104391981Y-85004807D01*
X104246922Y-85082343D01*
X104152856Y-85159541D01*
X104119777Y-85186688D01*
X104093631Y-85218547D01*
X102898576Y-86413604D01*
X102866707Y-86439758D01*
X102778188Y-86547620D01*
X102762362Y-86566904D01*
X102684826Y-86711963D01*
X102637080Y-86869361D01*
X102620958Y-87033049D01*
X102624998Y-87074067D01*
X102624998Y-87775420D01*
X102620958Y-87816438D01*
X102624998Y-87857456D01*
X102624998Y-87857457D01*
X102637080Y-87980127D01*
X102640949Y-87992880D01*
X102684826Y-88137524D01*
X102762362Y-88282583D01*
X102778182Y-88301860D01*
X102866708Y-88409729D01*
X102898572Y-88435879D01*
X104184123Y-89721432D01*
X104210269Y-89753291D01*
X104242128Y-89779437D01*
X104242130Y-89779439D01*
X104329196Y-89850892D01*
X104337414Y-89857636D01*
X104482473Y-89935172D01*
X104639871Y-89982918D01*
X104652196Y-89984132D01*
X104640000Y-90045448D01*
X104640000Y-90234552D01*
X104676892Y-90420022D01*
X104749259Y-90594731D01*
X104828206Y-90712884D01*
X104687631Y-90857236D01*
X104565724Y-91045024D01*
X104485881Y-91268126D01*
X104612046Y-91443000D01*
X106003000Y-91443000D01*
X106003000Y-91423000D01*
X106186248Y-91423000D01*
X106195518Y-91425812D01*
X106257000Y-91431867D01*
X106257000Y-91443000D01*
X107647954Y-91443000D01*
X107652104Y-91437247D01*
X107770000Y-91438072D01*
X107894482Y-91425812D01*
X108014180Y-91389502D01*
X108124494Y-91330537D01*
X108221185Y-91251185D01*
X108300537Y-91154494D01*
X108301119Y-91153406D01*
X109145000Y-91997288D01*
X109145001Y-93474058D01*
X109140476Y-93520000D01*
X109158529Y-93703291D01*
X109199068Y-93836928D01*
X109211994Y-93879540D01*
X109298815Y-94041972D01*
X109415657Y-94184344D01*
X109451336Y-94213625D01*
X109786370Y-94548659D01*
X109815656Y-94584344D01*
X109958028Y-94701186D01*
X110120460Y-94788007D01*
X110235817Y-94823000D01*
X110296707Y-94841471D01*
X110315110Y-94843283D01*
X110434068Y-94855000D01*
X110434074Y-94855000D01*
X110479999Y-94859523D01*
X110525924Y-94855000D01*
X110722546Y-94855000D01*
X110740498Y-94914180D01*
X110799463Y-95024494D01*
X110836809Y-95070000D01*
X110799463Y-95115506D01*
X110740498Y-95225820D01*
X110704188Y-95345518D01*
X110695375Y-95435000D01*
X109928555Y-95435000D01*
X109890000Y-95431203D01*
X109851444Y-95435000D01*
X109851439Y-95435000D01*
X109812716Y-95438814D01*
X109736113Y-95446358D01*
X109588140Y-95491246D01*
X109451767Y-95564138D01*
X109393310Y-95612113D01*
X109362187Y-95637655D01*
X109362184Y-95637658D01*
X109332236Y-95662236D01*
X109307658Y-95692184D01*
X107668072Y-97331771D01*
X107668072Y-94320000D01*
X107655812Y-94195518D01*
X107619502Y-94075820D01*
X107560537Y-93965506D01*
X107481185Y-93868815D01*
X107384494Y-93789463D01*
X107274180Y-93730498D01*
X107154482Y-93694188D01*
X107030000Y-93681928D01*
X105030000Y-93681928D01*
X104905518Y-93694188D01*
X104785820Y-93730498D01*
X104675506Y-93789463D01*
X104578815Y-93868815D01*
X104499463Y-93965506D01*
X104440498Y-94075820D01*
X104404188Y-94195518D01*
X104391928Y-94320000D01*
X104391928Y-94363020D01*
X104389278Y-94354284D01*
X104311831Y-94209392D01*
X104207606Y-94082394D01*
X104080608Y-93978169D01*
X103935716Y-93900722D01*
X103778500Y-93853031D01*
X103615000Y-93836928D01*
X103215000Y-93836928D01*
X103051500Y-93853031D01*
X102894284Y-93900722D01*
X102749392Y-93978169D01*
X102647410Y-94061863D01*
X102616185Y-94023815D01*
X102519494Y-93944463D01*
X102409180Y-93885498D01*
X102289482Y-93849188D01*
X102165000Y-93836928D01*
X102050750Y-93840000D01*
X101892000Y-93998750D01*
X101892000Y-94823000D01*
X101912000Y-94823000D01*
X101912000Y-95077000D01*
X101892000Y-95077000D01*
X101892000Y-95097000D01*
X101638000Y-95097000D01*
X101638000Y-95077000D01*
X100888750Y-95077000D01*
X100730000Y-95235750D01*
X100726928Y-95425000D01*
X100739188Y-95549482D01*
X100775498Y-95669180D01*
X100834463Y-95779494D01*
X100907824Y-95868885D01*
X100851329Y-95937725D01*
X100772150Y-96085858D01*
X100723392Y-96246592D01*
X100706928Y-96413750D01*
X100706928Y-96926250D01*
X100723392Y-97093408D01*
X100772150Y-97254142D01*
X100851329Y-97402275D01*
X100957885Y-97532115D01*
X101087725Y-97638671D01*
X101235858Y-97717850D01*
X101396592Y-97766608D01*
X101563750Y-97783072D01*
X101785415Y-97783072D01*
X103000154Y-98997811D01*
X103024737Y-99027765D01*
X103144268Y-99125863D01*
X103240604Y-99177355D01*
X103280641Y-99198755D01*
X103428614Y-99243643D01*
X103502009Y-99250871D01*
X103543940Y-99255001D01*
X103543945Y-99255001D01*
X103582501Y-99258798D01*
X103621057Y-99255001D01*
X107601446Y-99255001D01*
X107639999Y-99258798D01*
X107678552Y-99255001D01*
X107678560Y-99255001D01*
X107793886Y-99243642D01*
X107941859Y-99198755D01*
X108078232Y-99125863D01*
X108197763Y-99027765D01*
X108222346Y-98997811D01*
X110215158Y-97005000D01*
X110695375Y-97005000D01*
X110704188Y-97094482D01*
X110740498Y-97214180D01*
X110799463Y-97324494D01*
X110836809Y-97370000D01*
X110799463Y-97415506D01*
X110740498Y-97525820D01*
X110704188Y-97645518D01*
X110691928Y-97770000D01*
X110695000Y-98234250D01*
X110853750Y-98393000D01*
X112203000Y-98393000D01*
X112203000Y-98373000D01*
X112457000Y-98373000D01*
X112457000Y-98393000D01*
X113806250Y-98393000D01*
X113965000Y-98234250D01*
X113968072Y-97770000D01*
X113955812Y-97645518D01*
X113919502Y-97525820D01*
X113860537Y-97415506D01*
X113823191Y-97370000D01*
X113860537Y-97324494D01*
X113919502Y-97214180D01*
X113937454Y-97155000D01*
X114815000Y-97155000D01*
X114815000Y-97382379D01*
X114732456Y-97464923D01*
X114589093Y-97679482D01*
X114490342Y-97917887D01*
X114440000Y-98170976D01*
X114440000Y-98429024D01*
X114490342Y-98682113D01*
X114589093Y-98920518D01*
X114732456Y-99135077D01*
X114912379Y-99315000D01*
X113963640Y-99315000D01*
X113968072Y-99270000D01*
X113965000Y-98805750D01*
X113806250Y-98647000D01*
X112457000Y-98647000D01*
X112457000Y-98667000D01*
X112203000Y-98667000D01*
X112203000Y-98647000D01*
X110853750Y-98647000D01*
X110695000Y-98805750D01*
X110691928Y-99270000D01*
X110696360Y-99315000D01*
X100685000Y-99315000D01*
X100685000Y-94475000D01*
X100726928Y-94475000D01*
X100730000Y-94664250D01*
X100888750Y-94823000D01*
X101638000Y-94823000D01*
X101638000Y-93998750D01*
X101479250Y-93840000D01*
X101365000Y-93836928D01*
X101240518Y-93849188D01*
X101120820Y-93885498D01*
X101010506Y-93944463D01*
X100913815Y-94023815D01*
X100834463Y-94120506D01*
X100775498Y-94230820D01*
X100739188Y-94350518D01*
X100726928Y-94475000D01*
X100685000Y-94475000D01*
X100685000Y-92170882D01*
X100757631Y-92282764D01*
X100913831Y-92443161D01*
X101098322Y-92570003D01*
X101304013Y-92658415D01*
X101523000Y-92705000D01*
X101823000Y-92705000D01*
X101823000Y-91697000D01*
X102077000Y-91697000D01*
X102077000Y-92705000D01*
X102377000Y-92705000D01*
X102595987Y-92658415D01*
X102801678Y-92570003D01*
X102986169Y-92443161D01*
X103142369Y-92282764D01*
X103264276Y-92094976D01*
X103344119Y-91871874D01*
X104485881Y-91871874D01*
X104565724Y-92094976D01*
X104687631Y-92282764D01*
X104843831Y-92443161D01*
X105028322Y-92570003D01*
X105234013Y-92658415D01*
X105453000Y-92705000D01*
X106003000Y-92705000D01*
X106003000Y-91697000D01*
X106257000Y-91697000D01*
X106257000Y-92705000D01*
X106807000Y-92705000D01*
X107025987Y-92658415D01*
X107231678Y-92570003D01*
X107416169Y-92443161D01*
X107572369Y-92282764D01*
X107694276Y-92094976D01*
X107774119Y-91871874D01*
X107647954Y-91697000D01*
X106257000Y-91697000D01*
X106003000Y-91697000D01*
X104612046Y-91697000D01*
X104485881Y-91871874D01*
X103344119Y-91871874D01*
X103217954Y-91697000D01*
X102077000Y-91697000D01*
X101823000Y-91697000D01*
X101803000Y-91697000D01*
X101803000Y-91443000D01*
X101823000Y-91443000D01*
X101823000Y-90435000D01*
X102077000Y-90435000D01*
X102077000Y-91443000D01*
X103217954Y-91443000D01*
X103344119Y-91268126D01*
X103264276Y-91045024D01*
X103142369Y-90857236D01*
X102986169Y-90696839D01*
X102801678Y-90569997D01*
X102595987Y-90481585D01*
X102377000Y-90435000D01*
X102077000Y-90435000D01*
X101823000Y-90435000D01*
X101523000Y-90435000D01*
X101304013Y-90481585D01*
X101098322Y-90569997D01*
X100913831Y-90696839D01*
X100757631Y-90857236D01*
X100685000Y-90969118D01*
X100685000Y-83530882D01*
X100757631Y-83642764D01*
X100913831Y-83803161D01*
X101098322Y-83930003D01*
X101304013Y-84018415D01*
X101523000Y-84065000D01*
X101823000Y-84065000D01*
X101823000Y-83057000D01*
X102077000Y-83057000D01*
X102077000Y-84065000D01*
X102377000Y-84065000D01*
X102595987Y-84018415D01*
X102801678Y-83930003D01*
X102986169Y-83803161D01*
X103142369Y-83642764D01*
X103264276Y-83454976D01*
X103344119Y-83231874D01*
X103217954Y-83057000D01*
X102077000Y-83057000D01*
X101823000Y-83057000D01*
X101803000Y-83057000D01*
X101803000Y-82803000D01*
X101823000Y-82803000D01*
X101823000Y-81795000D01*
X102077000Y-81795000D01*
X102077000Y-82803000D01*
X103217954Y-82803000D01*
X103344119Y-82628126D01*
X104485881Y-82628126D01*
X104612046Y-82803000D01*
X106003000Y-82803000D01*
X106003000Y-81795000D01*
X106257000Y-81795000D01*
X106257000Y-82803000D01*
X107647954Y-82803000D01*
X107774119Y-82628126D01*
X107694276Y-82405024D01*
X107572369Y-82217236D01*
X107416169Y-82056839D01*
X107231678Y-81929997D01*
X107025987Y-81841585D01*
X106807000Y-81795000D01*
X106257000Y-81795000D01*
X106003000Y-81795000D01*
X105453000Y-81795000D01*
X105234013Y-81841585D01*
X105028322Y-81929997D01*
X104843831Y-82056839D01*
X104687631Y-82217236D01*
X104565724Y-82405024D01*
X104485881Y-82628126D01*
X103344119Y-82628126D01*
X103264276Y-82405024D01*
X103142369Y-82217236D01*
X102986169Y-82056839D01*
X102801678Y-81929997D01*
X102595987Y-81841585D01*
X102377000Y-81795000D01*
X102077000Y-81795000D01*
X101823000Y-81795000D01*
X101523000Y-81795000D01*
X101304013Y-81841585D01*
X101098322Y-81929997D01*
X100913831Y-82056839D01*
X100757631Y-82217236D01*
X100685000Y-82329118D01*
X100685000Y-79515000D01*
X101876928Y-79515000D01*
X101889188Y-79639482D01*
X101925498Y-79759180D01*
X101984463Y-79869494D01*
X102063815Y-79966185D01*
X102160506Y-80045537D01*
X102270820Y-80104502D01*
X102390518Y-80140812D01*
X102515000Y-80153072D01*
X103354250Y-80150000D01*
X103513000Y-79991250D01*
X103513000Y-78367000D01*
X103767000Y-78367000D01*
X103767000Y-79991250D01*
X103925750Y-80150000D01*
X104765000Y-80153072D01*
X104889482Y-80140812D01*
X105009180Y-80104502D01*
X105119494Y-80045537D01*
X105216185Y-79966185D01*
X105295537Y-79869494D01*
X105354502Y-79759180D01*
X105390812Y-79639482D01*
X105403072Y-79515000D01*
X105400000Y-78525750D01*
X105241250Y-78367000D01*
X103767000Y-78367000D01*
X103513000Y-78367000D01*
X102038750Y-78367000D01*
X101880000Y-78525750D01*
X101876928Y-79515000D01*
X100685000Y-79515000D01*
X100685000Y-76965000D01*
X101876928Y-76965000D01*
X101880000Y-77954250D01*
X102038750Y-78113000D01*
X103513000Y-78113000D01*
X103513000Y-76488750D01*
X103767000Y-76488750D01*
X103767000Y-78113000D01*
X105241250Y-78113000D01*
X105400000Y-77954250D01*
X105403072Y-76965000D01*
X105390812Y-76840518D01*
X105354502Y-76720820D01*
X105295537Y-76610506D01*
X105216185Y-76513815D01*
X105119494Y-76434463D01*
X105009180Y-76375498D01*
X104889482Y-76339188D01*
X104765000Y-76326928D01*
X103925750Y-76330000D01*
X103767000Y-76488750D01*
X103513000Y-76488750D01*
X103354250Y-76330000D01*
X102515000Y-76326928D01*
X102390518Y-76339188D01*
X102270820Y-76375498D01*
X102160506Y-76434463D01*
X102063815Y-76513815D01*
X101984463Y-76610506D01*
X101925498Y-76720820D01*
X101889188Y-76840518D01*
X101876928Y-76965000D01*
X100685000Y-76965000D01*
X100685000Y-75685000D01*
X149315000Y-75685000D01*
X149315000Y-79902126D01*
%TA.AperFunction,Conductor*%
D28*
G36*
X149315000Y-79902126D02*
G01*
X149144907Y-79850529D01*
X149007547Y-79837000D01*
X148961615Y-79832476D01*
X148915683Y-79837000D01*
X144433911Y-79837000D01*
X144388641Y-79846005D01*
X144342708Y-79850529D01*
X144298538Y-79863928D01*
X144253271Y-79872932D01*
X144210631Y-79890594D01*
X144166460Y-79903993D01*
X144125752Y-79925752D01*
X144083111Y-79943414D01*
X144044736Y-79969055D01*
X144004028Y-79990814D01*
X143968347Y-80020097D01*
X143929972Y-80045738D01*
X143897335Y-80078375D01*
X143861656Y-80107656D01*
X143832375Y-80143335D01*
X143799738Y-80175972D01*
X143774097Y-80214347D01*
X143744814Y-80250028D01*
X143723055Y-80290736D01*
X143697414Y-80329111D01*
X143679752Y-80371752D01*
X143657993Y-80412460D01*
X143644594Y-80456631D01*
X143626932Y-80499271D01*
X143617928Y-80544538D01*
X143604529Y-80588708D01*
X143600005Y-80634641D01*
X143591000Y-80679911D01*
X143591000Y-80726068D01*
X143586476Y-80772000D01*
X143591000Y-80817932D01*
X143591000Y-80864089D01*
X143600005Y-80909359D01*
X143604529Y-80955292D01*
X143617928Y-80999462D01*
X143626932Y-81044729D01*
X143644594Y-81087369D01*
X143657993Y-81131540D01*
X143679752Y-81172248D01*
X143697414Y-81214889D01*
X143710682Y-81234746D01*
X143477036Y-81234746D01*
X138513629Y-76271340D01*
X138484343Y-76235655D01*
X138341971Y-76118813D01*
X138179539Y-76031992D01*
X138003291Y-75978528D01*
X137865931Y-75964999D01*
X137819999Y-75960475D01*
X137774067Y-75964999D01*
X120014002Y-75964999D01*
X119933541Y-75921992D01*
X119757293Y-75868528D01*
X119619933Y-75854999D01*
X119574001Y-75850475D01*
X119528069Y-75854999D01*
X113165933Y-75854999D01*
X113120001Y-75850475D01*
X113074069Y-75854999D01*
X112936709Y-75868528D01*
X112760461Y-75921992D01*
X112670644Y-75970000D01*
X111000931Y-75970000D01*
X110954999Y-75965476D01*
X110771707Y-75983529D01*
X110718243Y-75999747D01*
X110595460Y-76036993D01*
X110433028Y-76123814D01*
X110290656Y-76240656D01*
X110261376Y-76276334D01*
X110210782Y-76326928D01*
X109164999Y-76326928D01*
X108991745Y-76343992D01*
X108825149Y-76394528D01*
X108671613Y-76476595D01*
X108537038Y-76587038D01*
X108426595Y-76721613D01*
X108344528Y-76875149D01*
X108293992Y-77041745D01*
X108276928Y-77214999D01*
X108276928Y-78682847D01*
X108198815Y-78778028D01*
X108111994Y-78940460D01*
X108058529Y-79116709D01*
X108040476Y-79300000D01*
X108045001Y-79345942D01*
X108045000Y-83126972D01*
X108014180Y-83110498D01*
X107894482Y-83074188D01*
X107770000Y-83061928D01*
X107652104Y-83062753D01*
X107647954Y-83057000D01*
X106257000Y-83057000D01*
X106257000Y-83068133D01*
X106195518Y-83074188D01*
X106186248Y-83077000D01*
X106003000Y-83077000D01*
X106003000Y-83057000D01*
X104612046Y-83057000D01*
X104485881Y-83231874D01*
X104565724Y-83454976D01*
X104687631Y-83642764D01*
X104828206Y-83787116D01*
X104749259Y-83905269D01*
X104676892Y-84079978D01*
X104640000Y-84265448D01*
X104640000Y-84454552D01*
X104676892Y-84640022D01*
X104749259Y-84814731D01*
X104836288Y-84944979D01*
X104754086Y-84944979D01*
X104713068Y-84940939D01*
X104672050Y-84944979D01*
X104672049Y-84944979D01*
X104549379Y-84957061D01*
X104417546Y-84997052D01*
X104391981Y-85004807D01*
X104246922Y-85082343D01*
X104152856Y-85159541D01*
X104119777Y-85186688D01*
X104093631Y-85218547D01*
X102898576Y-86413604D01*
X102866707Y-86439758D01*
X102778188Y-86547620D01*
X102762362Y-86566904D01*
X102684826Y-86711963D01*
X102637080Y-86869361D01*
X102620958Y-87033049D01*
X102624998Y-87074067D01*
X102624998Y-87775420D01*
X102620958Y-87816438D01*
X102624998Y-87857456D01*
X102624998Y-87857457D01*
X102637080Y-87980127D01*
X102640949Y-87992880D01*
X102684826Y-88137524D01*
X102762362Y-88282583D01*
X102778182Y-88301860D01*
X102866708Y-88409729D01*
X102898572Y-88435879D01*
X104184123Y-89721432D01*
X104210269Y-89753291D01*
X104242128Y-89779437D01*
X104242130Y-89779439D01*
X104329196Y-89850892D01*
X104337414Y-89857636D01*
X104482473Y-89935172D01*
X104639871Y-89982918D01*
X104652196Y-89984132D01*
X104640000Y-90045448D01*
X104640000Y-90234552D01*
X104676892Y-90420022D01*
X104749259Y-90594731D01*
X104828206Y-90712884D01*
X104687631Y-90857236D01*
X104565724Y-91045024D01*
X104485881Y-91268126D01*
X104612046Y-91443000D01*
X106003000Y-91443000D01*
X106003000Y-91423000D01*
X106186248Y-91423000D01*
X106195518Y-91425812D01*
X106257000Y-91431867D01*
X106257000Y-91443000D01*
X107647954Y-91443000D01*
X107652104Y-91437247D01*
X107770000Y-91438072D01*
X107894482Y-91425812D01*
X108014180Y-91389502D01*
X108124494Y-91330537D01*
X108221185Y-91251185D01*
X108300537Y-91154494D01*
X108301119Y-91153406D01*
X109145000Y-91997288D01*
X109145001Y-93474058D01*
X109140476Y-93520000D01*
X109158529Y-93703291D01*
X109199068Y-93836928D01*
X109211994Y-93879540D01*
X109298815Y-94041972D01*
X109415657Y-94184344D01*
X109451336Y-94213625D01*
X109786370Y-94548659D01*
X109815656Y-94584344D01*
X109958028Y-94701186D01*
X110120460Y-94788007D01*
X110235817Y-94823000D01*
X110296707Y-94841471D01*
X110315110Y-94843283D01*
X110434068Y-94855000D01*
X110434074Y-94855000D01*
X110479999Y-94859523D01*
X110525924Y-94855000D01*
X110722546Y-94855000D01*
X110740498Y-94914180D01*
X110799463Y-95024494D01*
X110836809Y-95070000D01*
X110799463Y-95115506D01*
X110740498Y-95225820D01*
X110704188Y-95345518D01*
X110695375Y-95435000D01*
X109928555Y-95435000D01*
X109890000Y-95431203D01*
X109851444Y-95435000D01*
X109851439Y-95435000D01*
X109812716Y-95438814D01*
X109736113Y-95446358D01*
X109588140Y-95491246D01*
X109451767Y-95564138D01*
X109393310Y-95612113D01*
X109362187Y-95637655D01*
X109362184Y-95637658D01*
X109332236Y-95662236D01*
X109307658Y-95692184D01*
X107668072Y-97331771D01*
X107668072Y-94320000D01*
X107655812Y-94195518D01*
X107619502Y-94075820D01*
X107560537Y-93965506D01*
X107481185Y-93868815D01*
X107384494Y-93789463D01*
X107274180Y-93730498D01*
X107154482Y-93694188D01*
X107030000Y-93681928D01*
X105030000Y-93681928D01*
X104905518Y-93694188D01*
X104785820Y-93730498D01*
X104675506Y-93789463D01*
X104578815Y-93868815D01*
X104499463Y-93965506D01*
X104440498Y-94075820D01*
X104404188Y-94195518D01*
X104391928Y-94320000D01*
X104391928Y-94363020D01*
X104389278Y-94354284D01*
X104311831Y-94209392D01*
X104207606Y-94082394D01*
X104080608Y-93978169D01*
X103935716Y-93900722D01*
X103778500Y-93853031D01*
X103615000Y-93836928D01*
X103215000Y-93836928D01*
X103051500Y-93853031D01*
X102894284Y-93900722D01*
X102749392Y-93978169D01*
X102647410Y-94061863D01*
X102616185Y-94023815D01*
X102519494Y-93944463D01*
X102409180Y-93885498D01*
X102289482Y-93849188D01*
X102165000Y-93836928D01*
X102050750Y-93840000D01*
X101892000Y-93998750D01*
X101892000Y-94823000D01*
X101912000Y-94823000D01*
X101912000Y-95077000D01*
X101892000Y-95077000D01*
X101892000Y-95097000D01*
X101638000Y-95097000D01*
X101638000Y-95077000D01*
X100888750Y-95077000D01*
X100730000Y-95235750D01*
X100726928Y-95425000D01*
X100739188Y-95549482D01*
X100775498Y-95669180D01*
X100834463Y-95779494D01*
X100907824Y-95868885D01*
X100851329Y-95937725D01*
X100772150Y-96085858D01*
X100723392Y-96246592D01*
X100706928Y-96413750D01*
X100706928Y-96926250D01*
X100723392Y-97093408D01*
X100772150Y-97254142D01*
X100851329Y-97402275D01*
X100957885Y-97532115D01*
X101087725Y-97638671D01*
X101235858Y-97717850D01*
X101396592Y-97766608D01*
X101563750Y-97783072D01*
X101785415Y-97783072D01*
X103000154Y-98997811D01*
X103024737Y-99027765D01*
X103144268Y-99125863D01*
X103240604Y-99177355D01*
X103280641Y-99198755D01*
X103428614Y-99243643D01*
X103502009Y-99250871D01*
X103543940Y-99255001D01*
X103543945Y-99255001D01*
X103582501Y-99258798D01*
X103621057Y-99255001D01*
X107601446Y-99255001D01*
X107639999Y-99258798D01*
X107678552Y-99255001D01*
X107678560Y-99255001D01*
X107793886Y-99243642D01*
X107941859Y-99198755D01*
X108078232Y-99125863D01*
X108197763Y-99027765D01*
X108222346Y-98997811D01*
X110215158Y-97005000D01*
X110695375Y-97005000D01*
X110704188Y-97094482D01*
X110740498Y-97214180D01*
X110799463Y-97324494D01*
X110836809Y-97370000D01*
X110799463Y-97415506D01*
X110740498Y-97525820D01*
X110704188Y-97645518D01*
X110691928Y-97770000D01*
X110695000Y-98234250D01*
X110853750Y-98393000D01*
X112203000Y-98393000D01*
X112203000Y-98373000D01*
X112457000Y-98373000D01*
X112457000Y-98393000D01*
X113806250Y-98393000D01*
X113965000Y-98234250D01*
X113968072Y-97770000D01*
X113955812Y-97645518D01*
X113919502Y-97525820D01*
X113860537Y-97415506D01*
X113823191Y-97370000D01*
X113860537Y-97324494D01*
X113919502Y-97214180D01*
X113937454Y-97155000D01*
X114815000Y-97155000D01*
X114815000Y-97382379D01*
X114732456Y-97464923D01*
X114589093Y-97679482D01*
X114490342Y-97917887D01*
X114440000Y-98170976D01*
X114440000Y-98429024D01*
X114490342Y-98682113D01*
X114589093Y-98920518D01*
X114732456Y-99135077D01*
X114912379Y-99315000D01*
X113963640Y-99315000D01*
X113968072Y-99270000D01*
X113965000Y-98805750D01*
X113806250Y-98647000D01*
X112457000Y-98647000D01*
X112457000Y-98667000D01*
X112203000Y-98667000D01*
X112203000Y-98647000D01*
X110853750Y-98647000D01*
X110695000Y-98805750D01*
X110691928Y-99270000D01*
X110696360Y-99315000D01*
X100685000Y-99315000D01*
X100685000Y-94475000D01*
X100726928Y-94475000D01*
X100730000Y-94664250D01*
X100888750Y-94823000D01*
X101638000Y-94823000D01*
X101638000Y-93998750D01*
X101479250Y-93840000D01*
X101365000Y-93836928D01*
X101240518Y-93849188D01*
X101120820Y-93885498D01*
X101010506Y-93944463D01*
X100913815Y-94023815D01*
X100834463Y-94120506D01*
X100775498Y-94230820D01*
X100739188Y-94350518D01*
X100726928Y-94475000D01*
X100685000Y-94475000D01*
X100685000Y-92170882D01*
X100757631Y-92282764D01*
X100913831Y-92443161D01*
X101098322Y-92570003D01*
X101304013Y-92658415D01*
X101523000Y-92705000D01*
X101823000Y-92705000D01*
X101823000Y-91697000D01*
X102077000Y-91697000D01*
X102077000Y-92705000D01*
X102377000Y-92705000D01*
X102595987Y-92658415D01*
X102801678Y-92570003D01*
X102986169Y-92443161D01*
X103142369Y-92282764D01*
X103264276Y-92094976D01*
X103344119Y-91871874D01*
X104485881Y-91871874D01*
X104565724Y-92094976D01*
X104687631Y-92282764D01*
X104843831Y-92443161D01*
X105028322Y-92570003D01*
X105234013Y-92658415D01*
X105453000Y-92705000D01*
X106003000Y-92705000D01*
X106003000Y-91697000D01*
X106257000Y-91697000D01*
X106257000Y-92705000D01*
X106807000Y-92705000D01*
X107025987Y-92658415D01*
X107231678Y-92570003D01*
X107416169Y-92443161D01*
X107572369Y-92282764D01*
X107694276Y-92094976D01*
X107774119Y-91871874D01*
X107647954Y-91697000D01*
X106257000Y-91697000D01*
X106003000Y-91697000D01*
X104612046Y-91697000D01*
X104485881Y-91871874D01*
X103344119Y-91871874D01*
X103217954Y-91697000D01*
X102077000Y-91697000D01*
X101823000Y-91697000D01*
X101803000Y-91697000D01*
X101803000Y-91443000D01*
X101823000Y-91443000D01*
X101823000Y-90435000D01*
X102077000Y-90435000D01*
X102077000Y-91443000D01*
X103217954Y-91443000D01*
X103344119Y-91268126D01*
X103264276Y-91045024D01*
X103142369Y-90857236D01*
X102986169Y-90696839D01*
X102801678Y-90569997D01*
X102595987Y-90481585D01*
X102377000Y-90435000D01*
X102077000Y-90435000D01*
X101823000Y-90435000D01*
X101523000Y-90435000D01*
X101304013Y-90481585D01*
X101098322Y-90569997D01*
X100913831Y-90696839D01*
X100757631Y-90857236D01*
X100685000Y-90969118D01*
X100685000Y-83530882D01*
X100757631Y-83642764D01*
X100913831Y-83803161D01*
X101098322Y-83930003D01*
X101304013Y-84018415D01*
X101523000Y-84065000D01*
X101823000Y-84065000D01*
X101823000Y-83057000D01*
X102077000Y-83057000D01*
X102077000Y-84065000D01*
X102377000Y-84065000D01*
X102595987Y-84018415D01*
X102801678Y-83930003D01*
X102986169Y-83803161D01*
X103142369Y-83642764D01*
X103264276Y-83454976D01*
X103344119Y-83231874D01*
X103217954Y-83057000D01*
X102077000Y-83057000D01*
X101823000Y-83057000D01*
X101803000Y-83057000D01*
X101803000Y-82803000D01*
X101823000Y-82803000D01*
X101823000Y-81795000D01*
X102077000Y-81795000D01*
X102077000Y-82803000D01*
X103217954Y-82803000D01*
X103344119Y-82628126D01*
X104485881Y-82628126D01*
X104612046Y-82803000D01*
X106003000Y-82803000D01*
X106003000Y-81795000D01*
X106257000Y-81795000D01*
X106257000Y-82803000D01*
X107647954Y-82803000D01*
X107774119Y-82628126D01*
X107694276Y-82405024D01*
X107572369Y-82217236D01*
X107416169Y-82056839D01*
X107231678Y-81929997D01*
X107025987Y-81841585D01*
X106807000Y-81795000D01*
X106257000Y-81795000D01*
X106003000Y-81795000D01*
X105453000Y-81795000D01*
X105234013Y-81841585D01*
X105028322Y-81929997D01*
X104843831Y-82056839D01*
X104687631Y-82217236D01*
X104565724Y-82405024D01*
X104485881Y-82628126D01*
X103344119Y-82628126D01*
X103264276Y-82405024D01*
X103142369Y-82217236D01*
X102986169Y-82056839D01*
X102801678Y-81929997D01*
X102595987Y-81841585D01*
X102377000Y-81795000D01*
X102077000Y-81795000D01*
X101823000Y-81795000D01*
X101523000Y-81795000D01*
X101304013Y-81841585D01*
X101098322Y-81929997D01*
X100913831Y-82056839D01*
X100757631Y-82217236D01*
X100685000Y-82329118D01*
X100685000Y-79515000D01*
X101876928Y-79515000D01*
X101889188Y-79639482D01*
X101925498Y-79759180D01*
X101984463Y-79869494D01*
X102063815Y-79966185D01*
X102160506Y-80045537D01*
X102270820Y-80104502D01*
X102390518Y-80140812D01*
X102515000Y-80153072D01*
X103354250Y-80150000D01*
X103513000Y-79991250D01*
X103513000Y-78367000D01*
X103767000Y-78367000D01*
X103767000Y-79991250D01*
X103925750Y-80150000D01*
X104765000Y-80153072D01*
X104889482Y-80140812D01*
X105009180Y-80104502D01*
X105119494Y-80045537D01*
X105216185Y-79966185D01*
X105295537Y-79869494D01*
X105354502Y-79759180D01*
X105390812Y-79639482D01*
X105403072Y-79515000D01*
X105400000Y-78525750D01*
X105241250Y-78367000D01*
X103767000Y-78367000D01*
X103513000Y-78367000D01*
X102038750Y-78367000D01*
X101880000Y-78525750D01*
X101876928Y-79515000D01*
X100685000Y-79515000D01*
X100685000Y-76965000D01*
X101876928Y-76965000D01*
X101880000Y-77954250D01*
X102038750Y-78113000D01*
X103513000Y-78113000D01*
X103513000Y-76488750D01*
X103767000Y-76488750D01*
X103767000Y-78113000D01*
X105241250Y-78113000D01*
X105400000Y-77954250D01*
X105403072Y-76965000D01*
X105390812Y-76840518D01*
X105354502Y-76720820D01*
X105295537Y-76610506D01*
X105216185Y-76513815D01*
X105119494Y-76434463D01*
X105009180Y-76375498D01*
X104889482Y-76339188D01*
X104765000Y-76326928D01*
X103925750Y-76330000D01*
X103767000Y-76488750D01*
X103513000Y-76488750D01*
X103354250Y-76330000D01*
X102515000Y-76326928D01*
X102390518Y-76339188D01*
X102270820Y-76375498D01*
X102160506Y-76434463D01*
X102063815Y-76513815D01*
X101984463Y-76610506D01*
X101925498Y-76720820D01*
X101889188Y-76840518D01*
X101876928Y-76965000D01*
X100685000Y-76965000D01*
X100685000Y-75685000D01*
X149315000Y-75685000D01*
X149315000Y-79902126D01*
G37*
%TD.AperFunction*%
D27*
X121679188Y-95420518D02*
X121666928Y-95545000D01*
X121670000Y-95709250D01*
X121828750Y-95868000D01*
X122653000Y-95868000D01*
X122653000Y-95848000D01*
X122907000Y-95848000D01*
X122907000Y-95868000D01*
X123731250Y-95868000D01*
X123890000Y-95709250D01*
X123893072Y-95545000D01*
X123880812Y-95420518D01*
X123868521Y-95380000D01*
X124193759Y-95380000D01*
X124103815Y-95453815D01*
X124024463Y-95550506D01*
X123965498Y-95660820D01*
X123929188Y-95780518D01*
X123916928Y-95905000D01*
X123920000Y-96894250D01*
X124078750Y-97053000D01*
X125553000Y-97053000D01*
X125553000Y-97033000D01*
X125807000Y-97033000D01*
X125807000Y-97053000D01*
X127281250Y-97053000D01*
X127440000Y-96894250D01*
X127443072Y-95905000D01*
X127430812Y-95780518D01*
X127394502Y-95660820D01*
X127335537Y-95550506D01*
X127256185Y-95453815D01*
X127166241Y-95380000D01*
X128957711Y-95380000D01*
X130316928Y-96739218D01*
X130316928Y-98205001D01*
X130333992Y-98378255D01*
X130384528Y-98544851D01*
X130466595Y-98698387D01*
X130577038Y-98832962D01*
X130711613Y-98943405D01*
X130865149Y-99025472D01*
X131031745Y-99076008D01*
X131204999Y-99093072D01*
X132670782Y-99093072D01*
X132801384Y-99223674D01*
X132830666Y-99259354D01*
X132898471Y-99315000D01*
X122963284Y-99315000D01*
X123014502Y-99219180D01*
X123050812Y-99099482D01*
X123063072Y-98975000D01*
X123060000Y-98585750D01*
X122929250Y-98455000D01*
X123916928Y-98455000D01*
X123929188Y-98579482D01*
X123965498Y-98699180D01*
X124024463Y-98809494D01*
X124103815Y-98906185D01*
X124200506Y-98985537D01*
X124310820Y-99044502D01*
X124430518Y-99080812D01*
X124555000Y-99093072D01*
X125394250Y-99090000D01*
X125553000Y-98931250D01*
X125553000Y-97307000D01*
X125807000Y-97307000D01*
X125807000Y-98931250D01*
X125965750Y-99090000D01*
X126805000Y-99093072D01*
X126929482Y-99080812D01*
X127049180Y-99044502D01*
X127159494Y-98985537D01*
X127256185Y-98906185D01*
X127335537Y-98809494D01*
X127394502Y-98699180D01*
X127430812Y-98579482D01*
X127443072Y-98455000D01*
X127440000Y-97465750D01*
X127281250Y-97307000D01*
X125807000Y-97307000D01*
X125553000Y-97307000D01*
X124078750Y-97307000D01*
X123920000Y-97465750D01*
X123916928Y-98455000D01*
X122929250Y-98455000D01*
X122901250Y-98427000D01*
X121877000Y-98427000D01*
X121877000Y-98447000D01*
X121623000Y-98447000D01*
X121623000Y-98427000D01*
X121603000Y-98427000D01*
X121603000Y-98173000D01*
X121623000Y-98173000D01*
X121623000Y-97148750D01*
X121464250Y-96990000D01*
X121075000Y-96986928D01*
X120950518Y-96999188D01*
X120830820Y-97035498D01*
X120720506Y-97094463D01*
X120623815Y-97173815D01*
X120552513Y-97260697D01*
X120370518Y-97139093D01*
X120132113Y-97040342D01*
X119923686Y-96998884D01*
X119613803Y-96689002D01*
X119590001Y-96659999D01*
X119474276Y-96565026D01*
X119342247Y-96494454D01*
X119198986Y-96450997D01*
X119090551Y-96440317D01*
X119099494Y-96435537D01*
X119196185Y-96356185D01*
X119267487Y-96269303D01*
X119449482Y-96390907D01*
X119687887Y-96489658D01*
X119940976Y-96540000D01*
X120199024Y-96540000D01*
X120452113Y-96489658D01*
X120559926Y-96445000D01*
X121666928Y-96445000D01*
X121679188Y-96569482D01*
X121715498Y-96689180D01*
X121774463Y-96799494D01*
X121853815Y-96896185D01*
X121950506Y-96975537D01*
X122015482Y-97010268D01*
X121877000Y-97148750D01*
X121877000Y-98173000D01*
X122901250Y-98173000D01*
X123060000Y-98014250D01*
X123063072Y-97625000D01*
X123050812Y-97500518D01*
X123014502Y-97380820D01*
X122955537Y-97270506D01*
X122876185Y-97173815D01*
X122779494Y-97094463D01*
X122669180Y-97035498D01*
X122569108Y-97005142D01*
X122653000Y-96921250D01*
X122653000Y-96122000D01*
X122907000Y-96122000D01*
X122907000Y-96921250D01*
X123065750Y-97080000D01*
X123255000Y-97083072D01*
X123379482Y-97070812D01*
X123499180Y-97034502D01*
X123609494Y-96975537D01*
X123706185Y-96896185D01*
X123785537Y-96799494D01*
X123844502Y-96689180D01*
X123880812Y-96569482D01*
X123893072Y-96445000D01*
X123890000Y-96280750D01*
X123731250Y-96122000D01*
X122907000Y-96122000D01*
X122653000Y-96122000D01*
X121828750Y-96122000D01*
X121670000Y-96280750D01*
X121666928Y-96445000D01*
X120559926Y-96445000D01*
X120690518Y-96390907D01*
X120905077Y-96247544D01*
X121087544Y-96065077D01*
X121230907Y-95850518D01*
X121329658Y-95612113D01*
X121375828Y-95380000D01*
X121691479Y-95380000D01*
X121679188Y-95420518D01*
%TA.AperFunction,Conductor*%
D28*
G36*
X121679188Y-95420518D02*
G01*
X121666928Y-95545000D01*
X121670000Y-95709250D01*
X121828750Y-95868000D01*
X122653000Y-95868000D01*
X122653000Y-95848000D01*
X122907000Y-95848000D01*
X122907000Y-95868000D01*
X123731250Y-95868000D01*
X123890000Y-95709250D01*
X123893072Y-95545000D01*
X123880812Y-95420518D01*
X123868521Y-95380000D01*
X124193759Y-95380000D01*
X124103815Y-95453815D01*
X124024463Y-95550506D01*
X123965498Y-95660820D01*
X123929188Y-95780518D01*
X123916928Y-95905000D01*
X123920000Y-96894250D01*
X124078750Y-97053000D01*
X125553000Y-97053000D01*
X125553000Y-97033000D01*
X125807000Y-97033000D01*
X125807000Y-97053000D01*
X127281250Y-97053000D01*
X127440000Y-96894250D01*
X127443072Y-95905000D01*
X127430812Y-95780518D01*
X127394502Y-95660820D01*
X127335537Y-95550506D01*
X127256185Y-95453815D01*
X127166241Y-95380000D01*
X128957711Y-95380000D01*
X130316928Y-96739218D01*
X130316928Y-98205001D01*
X130333992Y-98378255D01*
X130384528Y-98544851D01*
X130466595Y-98698387D01*
X130577038Y-98832962D01*
X130711613Y-98943405D01*
X130865149Y-99025472D01*
X131031745Y-99076008D01*
X131204999Y-99093072D01*
X132670782Y-99093072D01*
X132801384Y-99223674D01*
X132830666Y-99259354D01*
X132898471Y-99315000D01*
X122963284Y-99315000D01*
X123014502Y-99219180D01*
X123050812Y-99099482D01*
X123063072Y-98975000D01*
X123060000Y-98585750D01*
X122929250Y-98455000D01*
X123916928Y-98455000D01*
X123929188Y-98579482D01*
X123965498Y-98699180D01*
X124024463Y-98809494D01*
X124103815Y-98906185D01*
X124200506Y-98985537D01*
X124310820Y-99044502D01*
X124430518Y-99080812D01*
X124555000Y-99093072D01*
X125394250Y-99090000D01*
X125553000Y-98931250D01*
X125553000Y-97307000D01*
X125807000Y-97307000D01*
X125807000Y-98931250D01*
X125965750Y-99090000D01*
X126805000Y-99093072D01*
X126929482Y-99080812D01*
X127049180Y-99044502D01*
X127159494Y-98985537D01*
X127256185Y-98906185D01*
X127335537Y-98809494D01*
X127394502Y-98699180D01*
X127430812Y-98579482D01*
X127443072Y-98455000D01*
X127440000Y-97465750D01*
X127281250Y-97307000D01*
X125807000Y-97307000D01*
X125553000Y-97307000D01*
X124078750Y-97307000D01*
X123920000Y-97465750D01*
X123916928Y-98455000D01*
X122929250Y-98455000D01*
X122901250Y-98427000D01*
X121877000Y-98427000D01*
X121877000Y-98447000D01*
X121623000Y-98447000D01*
X121623000Y-98427000D01*
X121603000Y-98427000D01*
X121603000Y-98173000D01*
X121623000Y-98173000D01*
X121623000Y-97148750D01*
X121464250Y-96990000D01*
X121075000Y-96986928D01*
X120950518Y-96999188D01*
X120830820Y-97035498D01*
X120720506Y-97094463D01*
X120623815Y-97173815D01*
X120552513Y-97260697D01*
X120370518Y-97139093D01*
X120132113Y-97040342D01*
X119923686Y-96998884D01*
X119613803Y-96689002D01*
X119590001Y-96659999D01*
X119474276Y-96565026D01*
X119342247Y-96494454D01*
X119198986Y-96450997D01*
X119090551Y-96440317D01*
X119099494Y-96435537D01*
X119196185Y-96356185D01*
X119267487Y-96269303D01*
X119449482Y-96390907D01*
X119687887Y-96489658D01*
X119940976Y-96540000D01*
X120199024Y-96540000D01*
X120452113Y-96489658D01*
X120559926Y-96445000D01*
X121666928Y-96445000D01*
X121679188Y-96569482D01*
X121715498Y-96689180D01*
X121774463Y-96799494D01*
X121853815Y-96896185D01*
X121950506Y-96975537D01*
X122015482Y-97010268D01*
X121877000Y-97148750D01*
X121877000Y-98173000D01*
X122901250Y-98173000D01*
X123060000Y-98014250D01*
X123063072Y-97625000D01*
X123050812Y-97500518D01*
X123014502Y-97380820D01*
X122955537Y-97270506D01*
X122876185Y-97173815D01*
X122779494Y-97094463D01*
X122669180Y-97035498D01*
X122569108Y-97005142D01*
X122653000Y-96921250D01*
X122653000Y-96122000D01*
X122907000Y-96122000D01*
X122907000Y-96921250D01*
X123065750Y-97080000D01*
X123255000Y-97083072D01*
X123379482Y-97070812D01*
X123499180Y-97034502D01*
X123609494Y-96975537D01*
X123706185Y-96896185D01*
X123785537Y-96799494D01*
X123844502Y-96689180D01*
X123880812Y-96569482D01*
X123893072Y-96445000D01*
X123890000Y-96280750D01*
X123731250Y-96122000D01*
X122907000Y-96122000D01*
X122653000Y-96122000D01*
X121828750Y-96122000D01*
X121670000Y-96280750D01*
X121666928Y-96445000D01*
X120559926Y-96445000D01*
X120690518Y-96390907D01*
X120905077Y-96247544D01*
X121087544Y-96065077D01*
X121230907Y-95850518D01*
X121329658Y-95612113D01*
X121375828Y-95380000D01*
X121691479Y-95380000D01*
X121679188Y-95420518D01*
G37*
%TD.AperFunction*%
D27*
X132540155Y-80524647D02*
X132540156Y-86047825D01*
X132536479Y-86085157D01*
X132540156Y-86122490D01*
X132551153Y-86234143D01*
X132563793Y-86275812D01*
X132594609Y-86377403D01*
X132665181Y-86509433D01*
X132724218Y-86581369D01*
X132760155Y-86625158D01*
X132789153Y-86648956D01*
X136419573Y-90279377D01*
X136366814Y-90406749D01*
X136330882Y-90587389D01*
X136330882Y-90771567D01*
X136366814Y-90952207D01*
X136437296Y-91122367D01*
X136505882Y-91225014D01*
X136505883Y-94174315D01*
X135783271Y-94896928D01*
X135545000Y-94896928D01*
X135381500Y-94913031D01*
X135224284Y-94960722D01*
X135079392Y-95038169D01*
X134952394Y-95142394D01*
X134848169Y-95269392D01*
X134770722Y-95414284D01*
X134723031Y-95571500D01*
X134706928Y-95735000D01*
X134706928Y-96285000D01*
X134723031Y-96448500D01*
X134770722Y-96605716D01*
X134848169Y-96750608D01*
X134952394Y-96877606D01*
X135079392Y-96981831D01*
X135224284Y-97059278D01*
X135381500Y-97106969D01*
X135545000Y-97123072D01*
X135945000Y-97123072D01*
X136108500Y-97106969D01*
X136265716Y-97059278D01*
X136410608Y-96981831D01*
X136518245Y-96893496D01*
X136442150Y-97035858D01*
X136393392Y-97196592D01*
X136376928Y-97363750D01*
X136376928Y-97660010D01*
X133882300Y-97660010D01*
X133843072Y-97620782D01*
X133843072Y-96154999D01*
X133826008Y-95981745D01*
X133775472Y-95815149D01*
X133693405Y-95661613D01*
X133582962Y-95527038D01*
X133448387Y-95416595D01*
X133294851Y-95334528D01*
X133128255Y-95283992D01*
X132955001Y-95266928D01*
X131489218Y-95266928D01*
X130038630Y-93816341D01*
X130009344Y-93780656D01*
X129866972Y-93663814D01*
X129704540Y-93576993D01*
X129528292Y-93523529D01*
X129390932Y-93510000D01*
X129345000Y-93505476D01*
X129299068Y-93510000D01*
X123518780Y-93510000D01*
X123509497Y-93502382D01*
X123360283Y-93422625D01*
X123198377Y-93373512D01*
X123030000Y-93356928D01*
X122530000Y-93356928D01*
X122361623Y-93373512D01*
X122199717Y-93422625D01*
X122050503Y-93502382D01*
X122041220Y-93510000D01*
X120900935Y-93510000D01*
X120890010Y-93508924D01*
X120890010Y-91993565D01*
X120893807Y-91955010D01*
X120890010Y-91916450D01*
X120890010Y-91916449D01*
X120881603Y-91831092D01*
X120878652Y-91801123D01*
X120833764Y-91653150D01*
X120819386Y-91626250D01*
X120760872Y-91516777D01*
X120662774Y-91397246D01*
X120632821Y-91372664D01*
X120535000Y-91274843D01*
X120535000Y-91195000D01*
X122426928Y-91195000D01*
X122439188Y-91319482D01*
X122475498Y-91439180D01*
X122534463Y-91549494D01*
X122613815Y-91646185D01*
X122710506Y-91725537D01*
X122820820Y-91784502D01*
X122940518Y-91820812D01*
X123065000Y-91833072D01*
X123254250Y-91830000D01*
X123413000Y-91671250D01*
X123413000Y-90922000D01*
X122588750Y-90922000D01*
X122430000Y-91080750D01*
X122426928Y-91195000D01*
X120535000Y-91195000D01*
X120535000Y-91189725D01*
X120571387Y-91186141D01*
X120719360Y-91141254D01*
X120855733Y-91068362D01*
X120975264Y-90970264D01*
X120999847Y-90940311D01*
X121690315Y-90249843D01*
X121720264Y-90225264D01*
X121745102Y-90195000D01*
X121770555Y-90163985D01*
X121818362Y-90105733D01*
X121891254Y-89969360D01*
X121900545Y-89938732D01*
X121936141Y-89821388D01*
X121940177Y-89780410D01*
X121940543Y-89776692D01*
X121956048Y-89775165D01*
X121986236Y-89874682D01*
X122059128Y-90011055D01*
X122112033Y-90075518D01*
X122132105Y-90099975D01*
X122157227Y-90130586D01*
X122187175Y-90155164D01*
X122426935Y-90394924D01*
X122426928Y-90395000D01*
X122430000Y-90509250D01*
X122588750Y-90668000D01*
X122708895Y-90668000D01*
X122748925Y-90700852D01*
X122885298Y-90773744D01*
X122983325Y-90803480D01*
X123033270Y-90818631D01*
X123047648Y-90820047D01*
X123148597Y-90829990D01*
X123148604Y-90829990D01*
X123187157Y-90833787D01*
X123225710Y-90829990D01*
X123687000Y-90829990D01*
X123687000Y-90922000D01*
X123667000Y-90922000D01*
X123667000Y-91671250D01*
X123825750Y-91830000D01*
X124015000Y-91833072D01*
X124139482Y-91820812D01*
X124259180Y-91784502D01*
X124369494Y-91725537D01*
X124466185Y-91646185D01*
X124501435Y-91603233D01*
X124609392Y-91691831D01*
X124754284Y-91769278D01*
X124911500Y-91816969D01*
X125075000Y-91833072D01*
X125475000Y-91833072D01*
X125638500Y-91816969D01*
X125795716Y-91769278D01*
X125940608Y-91691831D01*
X126042590Y-91608137D01*
X126073815Y-91646185D01*
X126170506Y-91725537D01*
X126280820Y-91784502D01*
X126400518Y-91820812D01*
X126525000Y-91833072D01*
X126639250Y-91830000D01*
X126798000Y-91671250D01*
X126798000Y-90847000D01*
X127052000Y-90847000D01*
X127052000Y-91671250D01*
X127210750Y-91830000D01*
X127325000Y-91833072D01*
X127449482Y-91820812D01*
X127569180Y-91784502D01*
X127679494Y-91725537D01*
X127776185Y-91646185D01*
X127855537Y-91549494D01*
X127914502Y-91439180D01*
X127950812Y-91319482D01*
X127963072Y-91195000D01*
X127960000Y-91005750D01*
X127801250Y-90847000D01*
X127052000Y-90847000D01*
X126798000Y-90847000D01*
X126778000Y-90847000D01*
X126778000Y-90593000D01*
X126798000Y-90593000D01*
X126798000Y-90573000D01*
X127052000Y-90573000D01*
X127052000Y-90593000D01*
X127801250Y-90593000D01*
X127960000Y-90434250D01*
X127963072Y-90245000D01*
X127950812Y-90120518D01*
X127914502Y-90000820D01*
X127855537Y-89890506D01*
X127820712Y-89848072D01*
X129216000Y-89848072D01*
X129340482Y-89835812D01*
X129460180Y-89799502D01*
X129570494Y-89740537D01*
X129667185Y-89661185D01*
X129746537Y-89564494D01*
X129805502Y-89454180D01*
X129841812Y-89334482D01*
X129854072Y-89210000D01*
X129854072Y-87210000D01*
X129841812Y-87085518D01*
X129805502Y-86965820D01*
X129746537Y-86855506D01*
X129667185Y-86758815D01*
X129570494Y-86679463D01*
X129460180Y-86620498D01*
X129340482Y-86584188D01*
X129216000Y-86571928D01*
X126816000Y-86571928D01*
X126691518Y-86584188D01*
X126571820Y-86620498D01*
X126461506Y-86679463D01*
X126364815Y-86758815D01*
X126332468Y-86798230D01*
X126335072Y-86659000D01*
X126322812Y-86534518D01*
X126286502Y-86414820D01*
X126257200Y-86360000D01*
X126286502Y-86305180D01*
X126322812Y-86185482D01*
X126335072Y-86061000D01*
X126332468Y-85921770D01*
X126364815Y-85961185D01*
X126461506Y-86040537D01*
X126571820Y-86099502D01*
X126691518Y-86135812D01*
X126816000Y-86148072D01*
X129216000Y-86148072D01*
X129340482Y-86135812D01*
X129460180Y-86099502D01*
X129570494Y-86040537D01*
X129667185Y-85961185D01*
X129746537Y-85864494D01*
X129805502Y-85754180D01*
X129841812Y-85634482D01*
X129854072Y-85510000D01*
X129854072Y-83510000D01*
X129841812Y-83385518D01*
X129805502Y-83265820D01*
X129746537Y-83155506D01*
X129667185Y-83058815D01*
X129570494Y-82979463D01*
X129460180Y-82920498D01*
X129340482Y-82884188D01*
X129216000Y-82871928D01*
X127901886Y-82871928D01*
X127900000Y-82755750D01*
X127741250Y-82597000D01*
X126942000Y-82597000D01*
X126942000Y-82617000D01*
X126688000Y-82617000D01*
X126688000Y-82597000D01*
X126668000Y-82597000D01*
X126668000Y-82343000D01*
X126688000Y-82343000D01*
X126688000Y-81518750D01*
X126942000Y-81518750D01*
X126942000Y-82343000D01*
X127741250Y-82343000D01*
X127900000Y-82184250D01*
X127903072Y-81995000D01*
X127890812Y-81870518D01*
X127854502Y-81750820D01*
X127795537Y-81640506D01*
X127716185Y-81543815D01*
X127619494Y-81464463D01*
X127509180Y-81405498D01*
X127389482Y-81369188D01*
X127265000Y-81356928D01*
X127100750Y-81360000D01*
X126942000Y-81518750D01*
X126688000Y-81518750D01*
X126529250Y-81360000D01*
X126378085Y-81357173D01*
X126393072Y-81205000D01*
X126393072Y-80805000D01*
X126376969Y-80641500D01*
X126329278Y-80484284D01*
X126251831Y-80339392D01*
X126174365Y-80245000D01*
X126352596Y-80245000D01*
X126507271Y-80309068D01*
X126687911Y-80345000D01*
X126872089Y-80345000D01*
X127052729Y-80309068D01*
X127222889Y-80238586D01*
X127376028Y-80136262D01*
X127506262Y-80006028D01*
X127608586Y-79852889D01*
X127679068Y-79682729D01*
X127715000Y-79502089D01*
X127715000Y-79317911D01*
X127679068Y-79137271D01*
X127608586Y-78967111D01*
X127506262Y-78813972D01*
X127376028Y-78683738D01*
X127222889Y-78581414D01*
X127052729Y-78510932D01*
X126872089Y-78475000D01*
X126687911Y-78475000D01*
X126507271Y-78510932D01*
X126352596Y-78575000D01*
X126157952Y-78575000D01*
X126147606Y-78562394D01*
X126020608Y-78458169D01*
X125875716Y-78380722D01*
X125718500Y-78333031D01*
X125555000Y-78316928D01*
X125005000Y-78316928D01*
X124841500Y-78333031D01*
X124684284Y-78380722D01*
X124539392Y-78458169D01*
X124412394Y-78562394D01*
X124308169Y-78689392D01*
X124230722Y-78834284D01*
X124183031Y-78991500D01*
X124166928Y-79155000D01*
X124166928Y-79555000D01*
X124183031Y-79718500D01*
X124230722Y-79875716D01*
X124308169Y-80020608D01*
X124412394Y-80147606D01*
X124451866Y-80180000D01*
X124412394Y-80212394D01*
X124308169Y-80339392D01*
X124230722Y-80484284D01*
X124183031Y-80641500D01*
X124166928Y-80805000D01*
X124166928Y-81205000D01*
X124183031Y-81368500D01*
X124230722Y-81525716D01*
X124308169Y-81670608D01*
X124343956Y-81714215D01*
X124322382Y-81740503D01*
X124242625Y-81889717D01*
X124193512Y-82051623D01*
X124176928Y-82220000D01*
X124176928Y-82253316D01*
X123497165Y-82933079D01*
X123467217Y-82957657D01*
X123442639Y-82987605D01*
X123442635Y-82987609D01*
X123434262Y-82997812D01*
X123369119Y-83077188D01*
X123296226Y-83213561D01*
X123251339Y-83361534D01*
X123239980Y-83476860D01*
X123239980Y-83476868D01*
X123236183Y-83515421D01*
X123239980Y-83553974D01*
X123239980Y-83798099D01*
X122538072Y-84500007D01*
X122538072Y-84425000D01*
X122524371Y-84285887D01*
X122513485Y-84250000D01*
X122524371Y-84214113D01*
X122538072Y-84075000D01*
X122538072Y-83925000D01*
X122524371Y-83785887D01*
X122513485Y-83750000D01*
X122524371Y-83714113D01*
X122538072Y-83575000D01*
X122538072Y-83425000D01*
X122524371Y-83285887D01*
X122483793Y-83152119D01*
X122417898Y-83028838D01*
X122329218Y-82920782D01*
X122233244Y-82842017D01*
X122315143Y-82719446D01*
X122385625Y-82549286D01*
X122421557Y-82368646D01*
X122421557Y-82184468D01*
X122385625Y-82003828D01*
X122315143Y-81833668D01*
X122212819Y-81680529D01*
X122082585Y-81550295D01*
X121929446Y-81447971D01*
X121759286Y-81377489D01*
X121578646Y-81341557D01*
X121394468Y-81341557D01*
X121213828Y-81377489D01*
X121043668Y-81447971D01*
X120890529Y-81550295D01*
X120760295Y-81680529D01*
X120657971Y-81833668D01*
X120587489Y-82003828D01*
X120561379Y-82135088D01*
X120538072Y-82163488D01*
X120538072Y-81636729D01*
X123884792Y-78290010D01*
X130305519Y-78290010D01*
X132540155Y-80524647D01*
%TA.AperFunction,Conductor*%
D28*
G36*
X132540155Y-80524647D02*
G01*
X132540156Y-86047825D01*
X132536479Y-86085157D01*
X132540156Y-86122490D01*
X132551153Y-86234143D01*
X132563793Y-86275812D01*
X132594609Y-86377403D01*
X132665181Y-86509433D01*
X132724218Y-86581369D01*
X132760155Y-86625158D01*
X132789153Y-86648956D01*
X136419573Y-90279377D01*
X136366814Y-90406749D01*
X136330882Y-90587389D01*
X136330882Y-90771567D01*
X136366814Y-90952207D01*
X136437296Y-91122367D01*
X136505882Y-91225014D01*
X136505883Y-94174315D01*
X135783271Y-94896928D01*
X135545000Y-94896928D01*
X135381500Y-94913031D01*
X135224284Y-94960722D01*
X135079392Y-95038169D01*
X134952394Y-95142394D01*
X134848169Y-95269392D01*
X134770722Y-95414284D01*
X134723031Y-95571500D01*
X134706928Y-95735000D01*
X134706928Y-96285000D01*
X134723031Y-96448500D01*
X134770722Y-96605716D01*
X134848169Y-96750608D01*
X134952394Y-96877606D01*
X135079392Y-96981831D01*
X135224284Y-97059278D01*
X135381500Y-97106969D01*
X135545000Y-97123072D01*
X135945000Y-97123072D01*
X136108500Y-97106969D01*
X136265716Y-97059278D01*
X136410608Y-96981831D01*
X136518245Y-96893496D01*
X136442150Y-97035858D01*
X136393392Y-97196592D01*
X136376928Y-97363750D01*
X136376928Y-97660010D01*
X133882300Y-97660010D01*
X133843072Y-97620782D01*
X133843072Y-96154999D01*
X133826008Y-95981745D01*
X133775472Y-95815149D01*
X133693405Y-95661613D01*
X133582962Y-95527038D01*
X133448387Y-95416595D01*
X133294851Y-95334528D01*
X133128255Y-95283992D01*
X132955001Y-95266928D01*
X131489218Y-95266928D01*
X130038630Y-93816341D01*
X130009344Y-93780656D01*
X129866972Y-93663814D01*
X129704540Y-93576993D01*
X129528292Y-93523529D01*
X129390932Y-93510000D01*
X129345000Y-93505476D01*
X129299068Y-93510000D01*
X123518780Y-93510000D01*
X123509497Y-93502382D01*
X123360283Y-93422625D01*
X123198377Y-93373512D01*
X123030000Y-93356928D01*
X122530000Y-93356928D01*
X122361623Y-93373512D01*
X122199717Y-93422625D01*
X122050503Y-93502382D01*
X122041220Y-93510000D01*
X120900935Y-93510000D01*
X120890010Y-93508924D01*
X120890010Y-91993565D01*
X120893807Y-91955010D01*
X120890010Y-91916450D01*
X120890010Y-91916449D01*
X120881603Y-91831092D01*
X120878652Y-91801123D01*
X120833764Y-91653150D01*
X120819386Y-91626250D01*
X120760872Y-91516777D01*
X120662774Y-91397246D01*
X120632821Y-91372664D01*
X120535000Y-91274843D01*
X120535000Y-91195000D01*
X122426928Y-91195000D01*
X122439188Y-91319482D01*
X122475498Y-91439180D01*
X122534463Y-91549494D01*
X122613815Y-91646185D01*
X122710506Y-91725537D01*
X122820820Y-91784502D01*
X122940518Y-91820812D01*
X123065000Y-91833072D01*
X123254250Y-91830000D01*
X123413000Y-91671250D01*
X123413000Y-90922000D01*
X122588750Y-90922000D01*
X122430000Y-91080750D01*
X122426928Y-91195000D01*
X120535000Y-91195000D01*
X120535000Y-91189725D01*
X120571387Y-91186141D01*
X120719360Y-91141254D01*
X120855733Y-91068362D01*
X120975264Y-90970264D01*
X120999847Y-90940311D01*
X121690315Y-90249843D01*
X121720264Y-90225264D01*
X121745102Y-90195000D01*
X121770555Y-90163985D01*
X121818362Y-90105733D01*
X121891254Y-89969360D01*
X121900545Y-89938732D01*
X121936141Y-89821388D01*
X121940177Y-89780410D01*
X121940543Y-89776692D01*
X121956048Y-89775165D01*
X121986236Y-89874682D01*
X122059128Y-90011055D01*
X122112033Y-90075518D01*
X122132105Y-90099975D01*
X122157227Y-90130586D01*
X122187175Y-90155164D01*
X122426935Y-90394924D01*
X122426928Y-90395000D01*
X122430000Y-90509250D01*
X122588750Y-90668000D01*
X122708895Y-90668000D01*
X122748925Y-90700852D01*
X122885298Y-90773744D01*
X122983325Y-90803480D01*
X123033270Y-90818631D01*
X123047648Y-90820047D01*
X123148597Y-90829990D01*
X123148604Y-90829990D01*
X123187157Y-90833787D01*
X123225710Y-90829990D01*
X123687000Y-90829990D01*
X123687000Y-90922000D01*
X123667000Y-90922000D01*
X123667000Y-91671250D01*
X123825750Y-91830000D01*
X124015000Y-91833072D01*
X124139482Y-91820812D01*
X124259180Y-91784502D01*
X124369494Y-91725537D01*
X124466185Y-91646185D01*
X124501435Y-91603233D01*
X124609392Y-91691831D01*
X124754284Y-91769278D01*
X124911500Y-91816969D01*
X125075000Y-91833072D01*
X125475000Y-91833072D01*
X125638500Y-91816969D01*
X125795716Y-91769278D01*
X125940608Y-91691831D01*
X126042590Y-91608137D01*
X126073815Y-91646185D01*
X126170506Y-91725537D01*
X126280820Y-91784502D01*
X126400518Y-91820812D01*
X126525000Y-91833072D01*
X126639250Y-91830000D01*
X126798000Y-91671250D01*
X126798000Y-90847000D01*
X127052000Y-90847000D01*
X127052000Y-91671250D01*
X127210750Y-91830000D01*
X127325000Y-91833072D01*
X127449482Y-91820812D01*
X127569180Y-91784502D01*
X127679494Y-91725537D01*
X127776185Y-91646185D01*
X127855537Y-91549494D01*
X127914502Y-91439180D01*
X127950812Y-91319482D01*
X127963072Y-91195000D01*
X127960000Y-91005750D01*
X127801250Y-90847000D01*
X127052000Y-90847000D01*
X126798000Y-90847000D01*
X126778000Y-90847000D01*
X126778000Y-90593000D01*
X126798000Y-90593000D01*
X126798000Y-90573000D01*
X127052000Y-90573000D01*
X127052000Y-90593000D01*
X127801250Y-90593000D01*
X127960000Y-90434250D01*
X127963072Y-90245000D01*
X127950812Y-90120518D01*
X127914502Y-90000820D01*
X127855537Y-89890506D01*
X127820712Y-89848072D01*
X129216000Y-89848072D01*
X129340482Y-89835812D01*
X129460180Y-89799502D01*
X129570494Y-89740537D01*
X129667185Y-89661185D01*
X129746537Y-89564494D01*
X129805502Y-89454180D01*
X129841812Y-89334482D01*
X129854072Y-89210000D01*
X129854072Y-87210000D01*
X129841812Y-87085518D01*
X129805502Y-86965820D01*
X129746537Y-86855506D01*
X129667185Y-86758815D01*
X129570494Y-86679463D01*
X129460180Y-86620498D01*
X129340482Y-86584188D01*
X129216000Y-86571928D01*
X126816000Y-86571928D01*
X126691518Y-86584188D01*
X126571820Y-86620498D01*
X126461506Y-86679463D01*
X126364815Y-86758815D01*
X126332468Y-86798230D01*
X126335072Y-86659000D01*
X126322812Y-86534518D01*
X126286502Y-86414820D01*
X126257200Y-86360000D01*
X126286502Y-86305180D01*
X126322812Y-86185482D01*
X126335072Y-86061000D01*
X126332468Y-85921770D01*
X126364815Y-85961185D01*
X126461506Y-86040537D01*
X126571820Y-86099502D01*
X126691518Y-86135812D01*
X126816000Y-86148072D01*
X129216000Y-86148072D01*
X129340482Y-86135812D01*
X129460180Y-86099502D01*
X129570494Y-86040537D01*
X129667185Y-85961185D01*
X129746537Y-85864494D01*
X129805502Y-85754180D01*
X129841812Y-85634482D01*
X129854072Y-85510000D01*
X129854072Y-83510000D01*
X129841812Y-83385518D01*
X129805502Y-83265820D01*
X129746537Y-83155506D01*
X129667185Y-83058815D01*
X129570494Y-82979463D01*
X129460180Y-82920498D01*
X129340482Y-82884188D01*
X129216000Y-82871928D01*
X127901886Y-82871928D01*
X127900000Y-82755750D01*
X127741250Y-82597000D01*
X126942000Y-82597000D01*
X126942000Y-82617000D01*
X126688000Y-82617000D01*
X126688000Y-82597000D01*
X126668000Y-82597000D01*
X126668000Y-82343000D01*
X126688000Y-82343000D01*
X126688000Y-81518750D01*
X126942000Y-81518750D01*
X126942000Y-82343000D01*
X127741250Y-82343000D01*
X127900000Y-82184250D01*
X127903072Y-81995000D01*
X127890812Y-81870518D01*
X127854502Y-81750820D01*
X127795537Y-81640506D01*
X127716185Y-81543815D01*
X127619494Y-81464463D01*
X127509180Y-81405498D01*
X127389482Y-81369188D01*
X127265000Y-81356928D01*
X127100750Y-81360000D01*
X126942000Y-81518750D01*
X126688000Y-81518750D01*
X126529250Y-81360000D01*
X126378085Y-81357173D01*
X126393072Y-81205000D01*
X126393072Y-80805000D01*
X126376969Y-80641500D01*
X126329278Y-80484284D01*
X126251831Y-80339392D01*
X126174365Y-80245000D01*
X126352596Y-80245000D01*
X126507271Y-80309068D01*
X126687911Y-80345000D01*
X126872089Y-80345000D01*
X127052729Y-80309068D01*
X127222889Y-80238586D01*
X127376028Y-80136262D01*
X127506262Y-80006028D01*
X127608586Y-79852889D01*
X127679068Y-79682729D01*
X127715000Y-79502089D01*
X127715000Y-79317911D01*
X127679068Y-79137271D01*
X127608586Y-78967111D01*
X127506262Y-78813972D01*
X127376028Y-78683738D01*
X127222889Y-78581414D01*
X127052729Y-78510932D01*
X126872089Y-78475000D01*
X126687911Y-78475000D01*
X126507271Y-78510932D01*
X126352596Y-78575000D01*
X126157952Y-78575000D01*
X126147606Y-78562394D01*
X126020608Y-78458169D01*
X125875716Y-78380722D01*
X125718500Y-78333031D01*
X125555000Y-78316928D01*
X125005000Y-78316928D01*
X124841500Y-78333031D01*
X124684284Y-78380722D01*
X124539392Y-78458169D01*
X124412394Y-78562394D01*
X124308169Y-78689392D01*
X124230722Y-78834284D01*
X124183031Y-78991500D01*
X124166928Y-79155000D01*
X124166928Y-79555000D01*
X124183031Y-79718500D01*
X124230722Y-79875716D01*
X124308169Y-80020608D01*
X124412394Y-80147606D01*
X124451866Y-80180000D01*
X124412394Y-80212394D01*
X124308169Y-80339392D01*
X124230722Y-80484284D01*
X124183031Y-80641500D01*
X124166928Y-80805000D01*
X124166928Y-81205000D01*
X124183031Y-81368500D01*
X124230722Y-81525716D01*
X124308169Y-81670608D01*
X124343956Y-81714215D01*
X124322382Y-81740503D01*
X124242625Y-81889717D01*
X124193512Y-82051623D01*
X124176928Y-82220000D01*
X124176928Y-82253316D01*
X123497165Y-82933079D01*
X123467217Y-82957657D01*
X123442639Y-82987605D01*
X123442635Y-82987609D01*
X123434262Y-82997812D01*
X123369119Y-83077188D01*
X123296226Y-83213561D01*
X123251339Y-83361534D01*
X123239980Y-83476860D01*
X123239980Y-83476868D01*
X123236183Y-83515421D01*
X123239980Y-83553974D01*
X123239980Y-83798099D01*
X122538072Y-84500007D01*
X122538072Y-84425000D01*
X122524371Y-84285887D01*
X122513485Y-84250000D01*
X122524371Y-84214113D01*
X122538072Y-84075000D01*
X122538072Y-83925000D01*
X122524371Y-83785887D01*
X122513485Y-83750000D01*
X122524371Y-83714113D01*
X122538072Y-83575000D01*
X122538072Y-83425000D01*
X122524371Y-83285887D01*
X122483793Y-83152119D01*
X122417898Y-83028838D01*
X122329218Y-82920782D01*
X122233244Y-82842017D01*
X122315143Y-82719446D01*
X122385625Y-82549286D01*
X122421557Y-82368646D01*
X122421557Y-82184468D01*
X122385625Y-82003828D01*
X122315143Y-81833668D01*
X122212819Y-81680529D01*
X122082585Y-81550295D01*
X121929446Y-81447971D01*
X121759286Y-81377489D01*
X121578646Y-81341557D01*
X121394468Y-81341557D01*
X121213828Y-81377489D01*
X121043668Y-81447971D01*
X120890529Y-81550295D01*
X120760295Y-81680529D01*
X120657971Y-81833668D01*
X120587489Y-82003828D01*
X120561379Y-82135088D01*
X120538072Y-82163488D01*
X120538072Y-81636729D01*
X123884792Y-78290010D01*
X130305519Y-78290010D01*
X132540155Y-80524647D01*
G37*
%TD.AperFunction*%
D27*
X147326394Y-92202746D02*
X147346394Y-92202746D01*
X147346394Y-92456746D01*
X147326394Y-92456746D01*
X147326394Y-93565964D01*
X147485144Y-93724714D01*
X147641707Y-93725110D01*
X144927914Y-96438904D01*
X144943072Y-96285000D01*
X144943072Y-96046730D01*
X145037001Y-95952801D01*
X145066000Y-95929002D01*
X145160973Y-95813277D01*
X145231545Y-95681248D01*
X145275002Y-95537987D01*
X145285999Y-95426334D01*
X145285999Y-95426325D01*
X145289675Y-95389002D01*
X145285999Y-95351679D01*
X145285999Y-93571910D01*
X145344903Y-93620251D01*
X145455217Y-93679216D01*
X145574915Y-93715526D01*
X145699397Y-93727786D01*
X146913644Y-93724714D01*
X147072394Y-93565964D01*
X147072394Y-92456746D01*
X147052394Y-92456746D01*
X147052394Y-92202746D01*
X147072394Y-92202746D01*
X147072394Y-92182746D01*
X147326394Y-92182746D01*
X147326394Y-92202746D01*
%TA.AperFunction,Conductor*%
D28*
G36*
X147326394Y-92202746D02*
G01*
X147346394Y-92202746D01*
X147346394Y-92456746D01*
X147326394Y-92456746D01*
X147326394Y-93565964D01*
X147485144Y-93724714D01*
X147641707Y-93725110D01*
X144927914Y-96438904D01*
X144943072Y-96285000D01*
X144943072Y-96046730D01*
X145037001Y-95952801D01*
X145066000Y-95929002D01*
X145160973Y-95813277D01*
X145231545Y-95681248D01*
X145275002Y-95537987D01*
X145285999Y-95426334D01*
X145285999Y-95426325D01*
X145289675Y-95389002D01*
X145285999Y-95351679D01*
X145285999Y-93571910D01*
X145344903Y-93620251D01*
X145455217Y-93679216D01*
X145574915Y-93715526D01*
X145699397Y-93727786D01*
X146913644Y-93724714D01*
X147072394Y-93565964D01*
X147072394Y-92456746D01*
X147052394Y-92456746D01*
X147052394Y-92202746D01*
X147072394Y-92202746D01*
X147072394Y-92182746D01*
X147326394Y-92182746D01*
X147326394Y-92202746D01*
G37*
%TD.AperFunction*%
D27*
X119320010Y-93077000D02*
X119228000Y-93077000D01*
X119228000Y-93057000D01*
X119208000Y-93057000D01*
X119208000Y-92803000D01*
X119228000Y-92803000D01*
X119228000Y-92783000D01*
X119320010Y-92783000D01*
X119320010Y-93077000D01*
%TA.AperFunction,Conductor*%
D28*
G36*
X119320010Y-93077000D02*
G01*
X119228000Y-93077000D01*
X119228000Y-93057000D01*
X119208000Y-93057000D01*
X119208000Y-92803000D01*
X119228000Y-92803000D01*
X119228000Y-92783000D01*
X119320010Y-92783000D01*
X119320010Y-93077000D01*
G37*
%TD.AperFunction*%
D27*
X140862000Y-89783000D02*
X140873026Y-89783000D01*
X140870000Y-89798212D01*
X140870000Y-89975001D01*
X140669999Y-89975001D01*
X140669999Y-89779802D01*
X140674801Y-89775000D01*
X140846788Y-89775000D01*
X140862000Y-89771974D01*
X140862000Y-89783000D01*
%TA.AperFunction,Conductor*%
D28*
G36*
X140862000Y-89783000D02*
G01*
X140873026Y-89783000D01*
X140870000Y-89798212D01*
X140870000Y-89975001D01*
X140669999Y-89975001D01*
X140669999Y-89779802D01*
X140674801Y-89775000D01*
X140846788Y-89775000D01*
X140862000Y-89771974D01*
X140862000Y-89783000D01*
G37*
%TD.AperFunction*%
D27*
X111465000Y-88318250D02*
X111540982Y-88394232D01*
X111582102Y-88471162D01*
X111605769Y-88500000D01*
X111582102Y-88528838D01*
X111540982Y-88605768D01*
X111465000Y-88681750D01*
X111473693Y-88761505D01*
X111152126Y-89083072D01*
X111149025Y-89082767D01*
X111191831Y-89030608D01*
X111269278Y-88885716D01*
X111316969Y-88728500D01*
X111333072Y-88565000D01*
X111333072Y-88285000D01*
X111468624Y-88285000D01*
X111465000Y-88318250D01*
%TA.AperFunction,Conductor*%
D28*
G36*
X111465000Y-88318250D02*
G01*
X111540982Y-88394232D01*
X111582102Y-88471162D01*
X111605769Y-88500000D01*
X111582102Y-88528838D01*
X111540982Y-88605768D01*
X111465000Y-88681750D01*
X111473693Y-88761505D01*
X111152126Y-89083072D01*
X111149025Y-89082767D01*
X111191831Y-89030608D01*
X111269278Y-88885716D01*
X111316969Y-88728500D01*
X111333072Y-88565000D01*
X111333072Y-88285000D01*
X111468624Y-88285000D01*
X111465000Y-88318250D01*
G37*
%TD.AperFunction*%
D27*
X119786928Y-86425000D02*
X119786928Y-86575000D01*
X119800629Y-86714113D01*
X119811515Y-86750000D01*
X119800629Y-86785887D01*
X119786928Y-86925000D01*
X119786928Y-87075000D01*
X119800629Y-87214113D01*
X119811515Y-87250000D01*
X119800629Y-87285887D01*
X119796777Y-87325000D01*
X119677911Y-87325000D01*
X119497271Y-87360932D01*
X119327111Y-87431414D01*
X119173972Y-87533738D01*
X119043738Y-87663972D01*
X118941414Y-87817111D01*
X118870932Y-87987271D01*
X118835000Y-88167911D01*
X118835000Y-88352089D01*
X118870932Y-88532729D01*
X118941414Y-88702889D01*
X118990001Y-88775604D01*
X118990001Y-89048529D01*
X118966117Y-89051132D01*
X118965949Y-89051186D01*
X118964113Y-89050629D01*
X118825000Y-89036928D01*
X118675000Y-89036928D01*
X118535887Y-89050629D01*
X118500000Y-89061515D01*
X118464113Y-89050629D01*
X118325000Y-89036928D01*
X118175000Y-89036928D01*
X118035887Y-89050629D01*
X118000000Y-89061515D01*
X117964113Y-89050629D01*
X117856192Y-89040000D01*
X117922089Y-89040000D01*
X118102729Y-89004068D01*
X118272889Y-88933586D01*
X118426028Y-88831262D01*
X118556262Y-88701028D01*
X118658586Y-88547889D01*
X118729068Y-88377729D01*
X118765000Y-88197089D01*
X118765000Y-88012911D01*
X118729068Y-87832271D01*
X118658586Y-87662111D01*
X118615000Y-87596880D01*
X118615000Y-87528639D01*
X119794388Y-86349251D01*
X119786928Y-86425000D01*
%TA.AperFunction,Conductor*%
D28*
G36*
X119786928Y-86425000D02*
G01*
X119786928Y-86575000D01*
X119800629Y-86714113D01*
X119811515Y-86750000D01*
X119800629Y-86785887D01*
X119786928Y-86925000D01*
X119786928Y-87075000D01*
X119800629Y-87214113D01*
X119811515Y-87250000D01*
X119800629Y-87285887D01*
X119796777Y-87325000D01*
X119677911Y-87325000D01*
X119497271Y-87360932D01*
X119327111Y-87431414D01*
X119173972Y-87533738D01*
X119043738Y-87663972D01*
X118941414Y-87817111D01*
X118870932Y-87987271D01*
X118835000Y-88167911D01*
X118835000Y-88352089D01*
X118870932Y-88532729D01*
X118941414Y-88702889D01*
X118990001Y-88775604D01*
X118990001Y-89048529D01*
X118966117Y-89051132D01*
X118965949Y-89051186D01*
X118964113Y-89050629D01*
X118825000Y-89036928D01*
X118675000Y-89036928D01*
X118535887Y-89050629D01*
X118500000Y-89061515D01*
X118464113Y-89050629D01*
X118325000Y-89036928D01*
X118175000Y-89036928D01*
X118035887Y-89050629D01*
X118000000Y-89061515D01*
X117964113Y-89050629D01*
X117856192Y-89040000D01*
X117922089Y-89040000D01*
X118102729Y-89004068D01*
X118272889Y-88933586D01*
X118426028Y-88831262D01*
X118556262Y-88701028D01*
X118658586Y-88547889D01*
X118729068Y-88377729D01*
X118765000Y-88197089D01*
X118765000Y-88012911D01*
X118729068Y-87832271D01*
X118658586Y-87662111D01*
X118615000Y-87596880D01*
X118615000Y-87528639D01*
X119794388Y-86349251D01*
X119786928Y-86425000D01*
G37*
%TD.AperFunction*%
D27*
X142231334Y-82633624D02*
X142231341Y-82633629D01*
X142433735Y-82836023D01*
X142433738Y-82836028D01*
X142466385Y-82868675D01*
X142495657Y-82904343D01*
X142531325Y-82933615D01*
X142563972Y-82966262D01*
X142602360Y-82991912D01*
X142638029Y-83021185D01*
X142678727Y-83042939D01*
X142717111Y-83068586D01*
X142759755Y-83086250D01*
X142800460Y-83108007D01*
X142844633Y-83121407D01*
X142887271Y-83139068D01*
X142932531Y-83148071D01*
X142976708Y-83161472D01*
X143022648Y-83165997D01*
X143067911Y-83175000D01*
X143114065Y-83175000D01*
X143160000Y-83179524D01*
X143205935Y-83175000D01*
X143252089Y-83175000D01*
X143297352Y-83165997D01*
X143343292Y-83161472D01*
X143387469Y-83148071D01*
X143432729Y-83139068D01*
X143475367Y-83121407D01*
X143519540Y-83108007D01*
X143525641Y-83104746D01*
X145088919Y-83104746D01*
X145109895Y-83173894D01*
X145168860Y-83284208D01*
X145248212Y-83380899D01*
X145319918Y-83439746D01*
X145248212Y-83498593D01*
X145168860Y-83595284D01*
X145109895Y-83705598D01*
X145073585Y-83825296D01*
X145061325Y-83949778D01*
X145061325Y-85469714D01*
X145073585Y-85594196D01*
X145109895Y-85713894D01*
X145168860Y-85824208D01*
X145248212Y-85920899D01*
X145319918Y-85979746D01*
X145248212Y-86038593D01*
X145168860Y-86135284D01*
X145109895Y-86245598D01*
X145073585Y-86365296D01*
X145061325Y-86489778D01*
X145061325Y-87108873D01*
X143828352Y-88341847D01*
X143707271Y-88365932D01*
X143537111Y-88436414D01*
X143383972Y-88538738D01*
X143253738Y-88668972D01*
X143151414Y-88822111D01*
X143102544Y-88940096D01*
X143140000Y-88751788D01*
X143140000Y-88528212D01*
X143096383Y-88308933D01*
X143010824Y-88102376D01*
X142942647Y-88000342D01*
X142992123Y-87930206D01*
X143082446Y-87726864D01*
X143099119Y-87671874D01*
X142972954Y-87497000D01*
X142132000Y-87497000D01*
X142132000Y-87508026D01*
X142116788Y-87505000D01*
X141893212Y-87505000D01*
X141878000Y-87508026D01*
X141878000Y-87497000D01*
X141866974Y-87497000D01*
X141870000Y-87481788D01*
X141870000Y-87258212D01*
X141866974Y-87243000D01*
X141878000Y-87243000D01*
X141878000Y-87231974D01*
X141893212Y-87235000D01*
X142116788Y-87235000D01*
X142132000Y-87231974D01*
X142132000Y-87243000D01*
X142972954Y-87243000D01*
X143099119Y-87068126D01*
X143082446Y-87013136D01*
X142992123Y-86809794D01*
X142942647Y-86739658D01*
X143010824Y-86637624D01*
X143096383Y-86431067D01*
X143140000Y-86211788D01*
X143140000Y-86039802D01*
X143341003Y-85838798D01*
X143370002Y-85815000D01*
X143464975Y-85699275D01*
X143535547Y-85567246D01*
X143579004Y-85423985D01*
X143590001Y-85312332D01*
X143593678Y-85274999D01*
X143590001Y-85237666D01*
X143590001Y-84348807D01*
X143593677Y-84311484D01*
X143590001Y-84274161D01*
X143590001Y-84274152D01*
X143579004Y-84162499D01*
X143535547Y-84019238D01*
X143464975Y-83887209D01*
X143451561Y-83870864D01*
X143393800Y-83800481D01*
X143393796Y-83800477D01*
X143370002Y-83771484D01*
X143341010Y-83747691D01*
X142637305Y-83043987D01*
X142613507Y-83014990D01*
X142580143Y-82987609D01*
X142497782Y-82920016D01*
X142365752Y-82849444D01*
X142256335Y-82816254D01*
X142222492Y-82805988D01*
X142110839Y-82794991D01*
X142073506Y-82791314D01*
X142036174Y-82794991D01*
X137852333Y-82794989D01*
X137815010Y-82791313D01*
X137777687Y-82794989D01*
X137777679Y-82794989D01*
X137666026Y-82805986D01*
X137522765Y-82849443D01*
X137457763Y-82884188D01*
X137390734Y-82920016D01*
X137304007Y-82991190D01*
X137303998Y-82991199D01*
X137275011Y-83014988D01*
X137251221Y-83043976D01*
X137008350Y-83286848D01*
X136887271Y-83310932D01*
X136717111Y-83381414D01*
X136563972Y-83483738D01*
X136433738Y-83613972D01*
X136331414Y-83767111D01*
X136260932Y-83937271D01*
X136225000Y-84117911D01*
X136225000Y-84302089D01*
X136260932Y-84482729D01*
X136331414Y-84652889D01*
X136433738Y-84806028D01*
X136563972Y-84936262D01*
X136717111Y-85038586D01*
X136825001Y-85083275D01*
X136825001Y-85102091D01*
X136860933Y-85282731D01*
X136931415Y-85452891D01*
X137033739Y-85606030D01*
X137163973Y-85736264D01*
X137317112Y-85838588D01*
X137487272Y-85909070D01*
X137667912Y-85945002D01*
X137852090Y-85945002D01*
X138032730Y-85909070D01*
X138202890Y-85838588D01*
X138356029Y-85736264D01*
X138486263Y-85606030D01*
X138585927Y-85456872D01*
X138617414Y-85532889D01*
X138719738Y-85686028D01*
X138849972Y-85816262D01*
X139003111Y-85918586D01*
X139173271Y-85989068D01*
X139353911Y-86025000D01*
X139538089Y-86025000D01*
X139600000Y-86012685D01*
X139600000Y-86211788D01*
X139643617Y-86431067D01*
X139729176Y-86637624D01*
X139794241Y-86735000D01*
X139729176Y-86832376D01*
X139643617Y-87038933D01*
X139600000Y-87258212D01*
X139600000Y-87430198D01*
X139040252Y-87989947D01*
X139034256Y-87985027D01*
X138902227Y-87914455D01*
X138758966Y-87870998D01*
X138647313Y-87860001D01*
X138647302Y-87860001D01*
X138609980Y-87856325D01*
X138572658Y-87860001D01*
X137597321Y-87860001D01*
X137559998Y-87856325D01*
X137522676Y-87860001D01*
X137522666Y-87860001D01*
X137411013Y-87870998D01*
X137267752Y-87914455D01*
X137135723Y-87985027D01*
X137019998Y-88080000D01*
X137005747Y-88097365D01*
X136887271Y-88120932D01*
X136717111Y-88191414D01*
X136575701Y-88285901D01*
X134060155Y-85770356D01*
X134060155Y-80247167D01*
X134063831Y-80209844D01*
X134060155Y-80172522D01*
X134060155Y-80172512D01*
X134049158Y-80060859D01*
X134005701Y-79917598D01*
X133971113Y-79852889D01*
X133935129Y-79785568D01*
X133863954Y-79698842D01*
X133840156Y-79669844D01*
X133811159Y-79646047D01*
X132000110Y-77834999D01*
X137432710Y-77834999D01*
X142231334Y-82633624D01*
%TA.AperFunction,Conductor*%
D28*
G36*
X142231334Y-82633624D02*
G01*
X142231341Y-82633629D01*
X142433735Y-82836023D01*
X142433738Y-82836028D01*
X142466385Y-82868675D01*
X142495657Y-82904343D01*
X142531325Y-82933615D01*
X142563972Y-82966262D01*
X142602360Y-82991912D01*
X142638029Y-83021185D01*
X142678727Y-83042939D01*
X142717111Y-83068586D01*
X142759755Y-83086250D01*
X142800460Y-83108007D01*
X142844633Y-83121407D01*
X142887271Y-83139068D01*
X142932531Y-83148071D01*
X142976708Y-83161472D01*
X143022648Y-83165997D01*
X143067911Y-83175000D01*
X143114065Y-83175000D01*
X143160000Y-83179524D01*
X143205935Y-83175000D01*
X143252089Y-83175000D01*
X143297352Y-83165997D01*
X143343292Y-83161472D01*
X143387469Y-83148071D01*
X143432729Y-83139068D01*
X143475367Y-83121407D01*
X143519540Y-83108007D01*
X143525641Y-83104746D01*
X145088919Y-83104746D01*
X145109895Y-83173894D01*
X145168860Y-83284208D01*
X145248212Y-83380899D01*
X145319918Y-83439746D01*
X145248212Y-83498593D01*
X145168860Y-83595284D01*
X145109895Y-83705598D01*
X145073585Y-83825296D01*
X145061325Y-83949778D01*
X145061325Y-85469714D01*
X145073585Y-85594196D01*
X145109895Y-85713894D01*
X145168860Y-85824208D01*
X145248212Y-85920899D01*
X145319918Y-85979746D01*
X145248212Y-86038593D01*
X145168860Y-86135284D01*
X145109895Y-86245598D01*
X145073585Y-86365296D01*
X145061325Y-86489778D01*
X145061325Y-87108873D01*
X143828352Y-88341847D01*
X143707271Y-88365932D01*
X143537111Y-88436414D01*
X143383972Y-88538738D01*
X143253738Y-88668972D01*
X143151414Y-88822111D01*
X143102544Y-88940096D01*
X143140000Y-88751788D01*
X143140000Y-88528212D01*
X143096383Y-88308933D01*
X143010824Y-88102376D01*
X142942647Y-88000342D01*
X142992123Y-87930206D01*
X143082446Y-87726864D01*
X143099119Y-87671874D01*
X142972954Y-87497000D01*
X142132000Y-87497000D01*
X142132000Y-87508026D01*
X142116788Y-87505000D01*
X141893212Y-87505000D01*
X141878000Y-87508026D01*
X141878000Y-87497000D01*
X141866974Y-87497000D01*
X141870000Y-87481788D01*
X141870000Y-87258212D01*
X141866974Y-87243000D01*
X141878000Y-87243000D01*
X141878000Y-87231974D01*
X141893212Y-87235000D01*
X142116788Y-87235000D01*
X142132000Y-87231974D01*
X142132000Y-87243000D01*
X142972954Y-87243000D01*
X143099119Y-87068126D01*
X143082446Y-87013136D01*
X142992123Y-86809794D01*
X142942647Y-86739658D01*
X143010824Y-86637624D01*
X143096383Y-86431067D01*
X143140000Y-86211788D01*
X143140000Y-86039802D01*
X143341003Y-85838798D01*
X143370002Y-85815000D01*
X143464975Y-85699275D01*
X143535547Y-85567246D01*
X143579004Y-85423985D01*
X143590001Y-85312332D01*
X143593678Y-85274999D01*
X143590001Y-85237666D01*
X143590001Y-84348807D01*
X143593677Y-84311484D01*
X143590001Y-84274161D01*
X143590001Y-84274152D01*
X143579004Y-84162499D01*
X143535547Y-84019238D01*
X143464975Y-83887209D01*
X143451561Y-83870864D01*
X143393800Y-83800481D01*
X143393796Y-83800477D01*
X143370002Y-83771484D01*
X143341010Y-83747691D01*
X142637305Y-83043987D01*
X142613507Y-83014990D01*
X142580143Y-82987609D01*
X142497782Y-82920016D01*
X142365752Y-82849444D01*
X142256335Y-82816254D01*
X142222492Y-82805988D01*
X142110839Y-82794991D01*
X142073506Y-82791314D01*
X142036174Y-82794991D01*
X137852333Y-82794989D01*
X137815010Y-82791313D01*
X137777687Y-82794989D01*
X137777679Y-82794989D01*
X137666026Y-82805986D01*
X137522765Y-82849443D01*
X137457763Y-82884188D01*
X137390734Y-82920016D01*
X137304007Y-82991190D01*
X137303998Y-82991199D01*
X137275011Y-83014988D01*
X137251221Y-83043976D01*
X137008350Y-83286848D01*
X136887271Y-83310932D01*
X136717111Y-83381414D01*
X136563972Y-83483738D01*
X136433738Y-83613972D01*
X136331414Y-83767111D01*
X136260932Y-83937271D01*
X136225000Y-84117911D01*
X136225000Y-84302089D01*
X136260932Y-84482729D01*
X136331414Y-84652889D01*
X136433738Y-84806028D01*
X136563972Y-84936262D01*
X136717111Y-85038586D01*
X136825001Y-85083275D01*
X136825001Y-85102091D01*
X136860933Y-85282731D01*
X136931415Y-85452891D01*
X137033739Y-85606030D01*
X137163973Y-85736264D01*
X137317112Y-85838588D01*
X137487272Y-85909070D01*
X137667912Y-85945002D01*
X137852090Y-85945002D01*
X138032730Y-85909070D01*
X138202890Y-85838588D01*
X138356029Y-85736264D01*
X138486263Y-85606030D01*
X138585927Y-85456872D01*
X138617414Y-85532889D01*
X138719738Y-85686028D01*
X138849972Y-85816262D01*
X139003111Y-85918586D01*
X139173271Y-85989068D01*
X139353911Y-86025000D01*
X139538089Y-86025000D01*
X139600000Y-86012685D01*
X139600000Y-86211788D01*
X139643617Y-86431067D01*
X139729176Y-86637624D01*
X139794241Y-86735000D01*
X139729176Y-86832376D01*
X139643617Y-87038933D01*
X139600000Y-87258212D01*
X139600000Y-87430198D01*
X139040252Y-87989947D01*
X139034256Y-87985027D01*
X138902227Y-87914455D01*
X138758966Y-87870998D01*
X138647313Y-87860001D01*
X138647302Y-87860001D01*
X138609980Y-87856325D01*
X138572658Y-87860001D01*
X137597321Y-87860001D01*
X137559998Y-87856325D01*
X137522676Y-87860001D01*
X137522666Y-87860001D01*
X137411013Y-87870998D01*
X137267752Y-87914455D01*
X137135723Y-87985027D01*
X137019998Y-88080000D01*
X137005747Y-88097365D01*
X136887271Y-88120932D01*
X136717111Y-88191414D01*
X136575701Y-88285901D01*
X134060155Y-85770356D01*
X134060155Y-80247167D01*
X134063831Y-80209844D01*
X134060155Y-80172522D01*
X134060155Y-80172512D01*
X134049158Y-80060859D01*
X134005701Y-79917598D01*
X133971113Y-79852889D01*
X133935129Y-79785568D01*
X133863954Y-79698842D01*
X133840156Y-79669844D01*
X133811159Y-79646047D01*
X132000110Y-77834999D01*
X137432710Y-77834999D01*
X142231334Y-82633624D01*
G37*
%TD.AperFunction*%
D27*
X125349000Y-85484000D02*
X125369000Y-85484000D01*
X125369000Y-85738000D01*
X125349000Y-85738000D01*
X125349000Y-86982000D01*
X125369000Y-86982000D01*
X125369000Y-87236000D01*
X125349000Y-87236000D01*
X125349000Y-87256000D01*
X125095000Y-87256000D01*
X125095000Y-87236000D01*
X124270750Y-87236000D01*
X124197776Y-87308974D01*
X123465490Y-86576688D01*
X123464974Y-86575724D01*
X123399210Y-86495591D01*
X124156800Y-85738002D01*
X124270748Y-85738002D01*
X124112000Y-85896750D01*
X124108928Y-86061000D01*
X124121188Y-86185482D01*
X124157498Y-86305180D01*
X124186800Y-86360000D01*
X124157498Y-86414820D01*
X124121188Y-86534518D01*
X124108928Y-86659000D01*
X124112000Y-86823250D01*
X124270750Y-86982000D01*
X125095000Y-86982000D01*
X125095000Y-85738000D01*
X125075000Y-85738000D01*
X125075000Y-85484000D01*
X125095000Y-85484000D01*
X125095000Y-85464000D01*
X125349000Y-85464000D01*
X125349000Y-85484000D01*
%TA.AperFunction,Conductor*%
D28*
G36*
X125349000Y-85484000D02*
G01*
X125369000Y-85484000D01*
X125369000Y-85738000D01*
X125349000Y-85738000D01*
X125349000Y-86982000D01*
X125369000Y-86982000D01*
X125369000Y-87236000D01*
X125349000Y-87236000D01*
X125349000Y-87256000D01*
X125095000Y-87256000D01*
X125095000Y-87236000D01*
X124270750Y-87236000D01*
X124197776Y-87308974D01*
X123465490Y-86576688D01*
X123464974Y-86575724D01*
X123399210Y-86495591D01*
X124156800Y-85738002D01*
X124270748Y-85738002D01*
X124112000Y-85896750D01*
X124108928Y-86061000D01*
X124121188Y-86185482D01*
X124157498Y-86305180D01*
X124186800Y-86360000D01*
X124157498Y-86414820D01*
X124121188Y-86534518D01*
X124108928Y-86659000D01*
X124112000Y-86823250D01*
X124270750Y-86982000D01*
X125095000Y-86982000D01*
X125095000Y-85738000D01*
X125075000Y-85738000D01*
X125075000Y-85484000D01*
X125095000Y-85484000D01*
X125095000Y-85464000D01*
X125349000Y-85464000D01*
X125349000Y-85484000D01*
G37*
%TD.AperFunction*%
D27*
X111876928Y-77950000D02*
X111893512Y-78118377D01*
X111942625Y-78280283D01*
X112020700Y-78426351D01*
X111984463Y-78470506D01*
X111925498Y-78580820D01*
X111889188Y-78700518D01*
X111876928Y-78825000D01*
X111880000Y-78989250D01*
X112038750Y-79148000D01*
X112863000Y-79148000D01*
X112863000Y-79128000D01*
X113117000Y-79128000D01*
X113117000Y-79148000D01*
X113137000Y-79148000D01*
X113137000Y-79402000D01*
X113117000Y-79402000D01*
X113117000Y-80201250D01*
X113275750Y-80360000D01*
X113465000Y-80363072D01*
X113465001Y-80363072D01*
X113465000Y-81393806D01*
X113461928Y-81425000D01*
X113461928Y-82711928D01*
X112175000Y-82711928D01*
X112143808Y-82715000D01*
X111613072Y-82715000D01*
X111613072Y-82635000D01*
X111596969Y-82471500D01*
X111549278Y-82314284D01*
X111471831Y-82169392D01*
X111367606Y-82042394D01*
X111240608Y-81938169D01*
X111095716Y-81860722D01*
X110938500Y-81813031D01*
X110775000Y-81796928D01*
X110225000Y-81796928D01*
X110061500Y-81813031D01*
X109915000Y-81857471D01*
X109915000Y-80153072D01*
X110915001Y-80153072D01*
X111088255Y-80136008D01*
X111254851Y-80085472D01*
X111408387Y-80003405D01*
X111542962Y-79892962D01*
X111653405Y-79758387D01*
X111671250Y-79725000D01*
X111876928Y-79725000D01*
X111889188Y-79849482D01*
X111925498Y-79969180D01*
X111984463Y-80079494D01*
X112063815Y-80176185D01*
X112160506Y-80255537D01*
X112270820Y-80314502D01*
X112390518Y-80350812D01*
X112515000Y-80363072D01*
X112704250Y-80360000D01*
X112863000Y-80201250D01*
X112863000Y-79402000D01*
X112038750Y-79402000D01*
X111880000Y-79560750D01*
X111876928Y-79725000D01*
X111671250Y-79725000D01*
X111735472Y-79604851D01*
X111786008Y-79438255D01*
X111803072Y-79265001D01*
X111803072Y-77840000D01*
X111876928Y-77840000D01*
X111876928Y-77950000D01*
%TA.AperFunction,Conductor*%
D28*
G36*
X111876928Y-77950000D02*
G01*
X111893512Y-78118377D01*
X111942625Y-78280283D01*
X112020700Y-78426351D01*
X111984463Y-78470506D01*
X111925498Y-78580820D01*
X111889188Y-78700518D01*
X111876928Y-78825000D01*
X111880000Y-78989250D01*
X112038750Y-79148000D01*
X112863000Y-79148000D01*
X112863000Y-79128000D01*
X113117000Y-79128000D01*
X113117000Y-79148000D01*
X113137000Y-79148000D01*
X113137000Y-79402000D01*
X113117000Y-79402000D01*
X113117000Y-80201250D01*
X113275750Y-80360000D01*
X113465000Y-80363072D01*
X113465001Y-80363072D01*
X113465000Y-81393806D01*
X113461928Y-81425000D01*
X113461928Y-82711928D01*
X112175000Y-82711928D01*
X112143808Y-82715000D01*
X111613072Y-82715000D01*
X111613072Y-82635000D01*
X111596969Y-82471500D01*
X111549278Y-82314284D01*
X111471831Y-82169392D01*
X111367606Y-82042394D01*
X111240608Y-81938169D01*
X111095716Y-81860722D01*
X110938500Y-81813031D01*
X110775000Y-81796928D01*
X110225000Y-81796928D01*
X110061500Y-81813031D01*
X109915000Y-81857471D01*
X109915000Y-80153072D01*
X110915001Y-80153072D01*
X111088255Y-80136008D01*
X111254851Y-80085472D01*
X111408387Y-80003405D01*
X111542962Y-79892962D01*
X111653405Y-79758387D01*
X111671250Y-79725000D01*
X111876928Y-79725000D01*
X111889188Y-79849482D01*
X111925498Y-79969180D01*
X111984463Y-80079494D01*
X112063815Y-80176185D01*
X112160506Y-80255537D01*
X112270820Y-80314502D01*
X112390518Y-80350812D01*
X112515000Y-80363072D01*
X112704250Y-80360000D01*
X112863000Y-80201250D01*
X112863000Y-79402000D01*
X112038750Y-79402000D01*
X111880000Y-79560750D01*
X111876928Y-79725000D01*
X111671250Y-79725000D01*
X111735472Y-79604851D01*
X111786008Y-79438255D01*
X111803072Y-79265001D01*
X111803072Y-77840000D01*
X111876928Y-77840000D01*
X111876928Y-77950000D01*
G37*
%TD.AperFunction*%
D27*
X115512000Y-79273000D02*
X115532000Y-79273000D01*
X115532000Y-79527000D01*
X115512000Y-79527000D01*
X115512000Y-80351250D01*
X115670750Y-80510000D01*
X115785000Y-80513072D01*
X115909482Y-80500812D01*
X115980109Y-80479387D01*
X115747569Y-80711928D01*
X115675000Y-80711928D01*
X115535887Y-80725629D01*
X115500000Y-80736515D01*
X115464113Y-80725629D01*
X115325000Y-80711928D01*
X115175000Y-80711928D01*
X115035887Y-80725629D01*
X115035000Y-80725898D01*
X115035000Y-80511728D01*
X115099250Y-80510000D01*
X115258000Y-80351250D01*
X115258000Y-79527000D01*
X115238000Y-79527000D01*
X115238000Y-79404323D01*
X115389324Y-79253000D01*
X115512000Y-79253000D01*
X115512000Y-79273000D01*
%TA.AperFunction,Conductor*%
D28*
G36*
X115512000Y-79273000D02*
G01*
X115532000Y-79273000D01*
X115532000Y-79527000D01*
X115512000Y-79527000D01*
X115512000Y-80351250D01*
X115670750Y-80510000D01*
X115785000Y-80513072D01*
X115909482Y-80500812D01*
X115980109Y-80479387D01*
X115747569Y-80711928D01*
X115675000Y-80711928D01*
X115535887Y-80725629D01*
X115500000Y-80736515D01*
X115464113Y-80725629D01*
X115325000Y-80711928D01*
X115175000Y-80711928D01*
X115035887Y-80725629D01*
X115035000Y-80725898D01*
X115035000Y-80511728D01*
X115099250Y-80510000D01*
X115258000Y-80351250D01*
X115258000Y-79527000D01*
X115238000Y-79527000D01*
X115238000Y-79404323D01*
X115389324Y-79253000D01*
X115512000Y-79253000D01*
X115512000Y-79273000D01*
G37*
%TD.AperFunction*%
%TD*%
M02*
