M48
; DRILL file {KiCad (5.1.9-0-10_14)} date Thursday, March 11, 2021 at 10:52:15 PM
; FORMAT={-:-/ absolute / inch / decimal}
; #@! TF.CreationDate,2021-03-11T22:52:15+08:00
; #@! TF.GenerationSoftware,Kicad,Pcbnew,(5.1.9-0-10_14)
; #@! TF.FileFunction,Plated,1,2,PTH
FMAT,2
INCH
T1C0.0118
T2C0.0197
T3C0.0236
T4C0.0315
%
G90
G05
T1
X4.1008Y-3.4441
X4.152Y-3.4441
X4.3402Y-3.872
X4.3858Y-3.4894
X4.424Y-3.1543
X4.5067Y-3.4055
X4.5665Y-3.3854
X4.5692Y-3.092
X4.598Y-3.361
X4.639Y-3.4687
X4.6553Y-3.5045
X4.6571Y-3.3354
X4.6929Y-3.0583
X4.6992Y-3.328
X4.7098Y-3.4061
X4.7154Y-3.4748
X4.7829Y-3.2392
X4.8659Y-3.4073
X4.9913Y-3.1264
X5.0551Y-3.6461
X5.4Y-3.3154
X5.4Y-3.5047
X5.4042Y-3.5701
X5.4236Y-3.3469
X5.49Y-3.35
X5.6362Y-3.2378
X5.6532Y-3.647
X5.6684Y-3.5939
X5.6685Y-3.5144
X5.69Y-3.6185
X5.69Y-3.18
X5.73Y-3.71
T2
X5.5407Y-3.3398
X5.5407Y-3.3898
X5.5407Y-3.4398
X5.5407Y-3.4898
X5.5407Y-3.5398
X5.5907Y-3.3398
X5.5907Y-3.3898
X5.5907Y-3.4398
X5.5907Y-3.4898
X5.5907Y-3.5398
T4
X4.5571Y-3.8701
X4.6358Y-3.8701
X4.6484Y-3.7492
X4.7146Y-3.8701
X4.7272Y-3.7492
X4.7933Y-3.8701
T3
G00X4.0256Y-3.265
M15
G01X4.002Y-3.265
M16
G05
G00X4.0256Y-3.6051
M15
G01X4.002Y-3.6051
M16
G05
G00X4.2Y-3.265
M15
G01X4.1567Y-3.265
M16
G05
G00X4.2Y-3.6051
M15
G01X4.1567Y-3.6051
M16
G05
T0
M30
